<svg width="842" height="174" viewBox="0 0 842 174" fill="none" xmlns="http://www.w3.org/2000/svg">
<path d="M839.295 173.173L840.998 173.173L840.998 171.308L839.295 171.308L839.295 173.173Z" fill="#D92927"/>
<path d="M821.049 173.167L822.752 173.167L822.752 171.302L821.049 171.302L821.049 173.167Z" fill="#D92927"/>
<path d="M802.804 173.177L804.507 173.177L804.507 171.312L802.804 171.312L802.804 173.177Z" fill="#D92927"/>
<path d="M784.558 173.171L786.261 173.171L786.261 171.306L784.558 171.306L784.558 173.171Z" fill="#D92927"/>
<path d="M766.312 173.165L768.016 173.165L768.016 171.3L766.313 171.3L766.312 173.165Z" fill="#D92927"/>
<path d="M748.067 173.175L749.771 173.175L749.771 171.31L748.067 171.31L748.067 173.175Z" fill="#D92927"/>
<path d="M729.822 173.169L731.525 173.169L731.525 171.304L729.822 171.304L729.822 173.169Z" fill="#D92927"/>
<path d="M711.576 173.179L713.279 173.179L713.279 171.314L711.576 171.314L711.576 173.179Z" fill="#D92927"/>
<path d="M693.33 173.173L695.034 173.173L695.034 171.308L693.33 171.308L693.33 173.173Z" fill="#D92927"/>
<path d="M675.085 173.167L676.788 173.167L676.788 171.302L675.085 171.302L675.085 173.167Z" fill="#D92927"/>
<path d="M656.839 173.177L658.542 173.177L658.542 171.312L656.839 171.312L656.839 173.177Z" fill="#D92927"/>
<path d="M638.594 173.171L640.297 173.171L640.297 171.306L638.594 171.306L638.594 173.171Z" fill="#D92927"/>
<path d="M620.349 173.165L622.052 173.165L622.052 171.3L620.349 171.3L620.349 173.165Z" fill="#D92927"/>
<path d="M602.103 173.175L603.806 173.175L603.806 171.31L602.103 171.31L602.103 173.175Z" fill="#D92927"/>
<path d="M583.857 173.169L585.561 173.169L585.561 171.304L583.857 171.304L583.857 173.169Z" fill="#D92927"/>
<path d="M565.612 173.179L567.315 173.179L567.315 171.314L565.612 171.314L565.612 173.179Z" fill="#D92927"/>
<path d="M547.366 173.173L549.069 173.173L549.069 171.308L547.366 171.308L547.366 173.173Z" fill="#D92927"/>
<path d="M529.121 173.167L530.824 173.167L530.824 171.302L529.121 171.302L529.121 173.167Z" fill="#D92927"/>
<path d="M510.875 173.177L512.579 173.177L512.579 171.312L510.875 171.312L510.875 173.177Z" fill="#D92927"/>
<path d="M492.63 173.171L494.333 173.171L494.333 171.306L492.63 171.306L492.63 173.171Z" fill="#D92927"/>
<path d="M474.384 173.166L476.087 173.166L476.087 171.301L474.384 171.301L474.384 173.166Z" fill="#D92927"/>
<path d="M456.139 173.175L457.842 173.175L457.842 171.31L456.139 171.31L456.139 173.175Z" fill="#D92927"/>
<path d="M437.893 173.169L439.596 173.169L439.596 171.305L437.893 171.305L437.893 173.169Z" fill="#D92927"/>
<path d="M419.648 173.18L421.351 173.18L421.351 171.315L419.648 171.315L419.648 173.18Z" fill="#D92927"/>
<path d="M401.402 173.173L403.105 173.173L403.105 171.308L401.402 171.308L401.402 173.173Z" fill="#D92927"/>
<path d="M383.157 173.167L384.86 173.167L384.86 171.302L383.157 171.302L383.157 173.167Z" fill="#D92927"/>
<path d="M364.911 173.178L366.614 173.178L366.614 171.313L364.911 171.313L364.911 173.178Z" fill="#D92927"/>
<path d="M346.665 173.171L348.369 173.171L348.369 171.306L346.665 171.306L346.665 173.171Z" fill="#D92927"/>
<path d="M328.42 173.166L330.123 173.166L330.123 171.301L328.42 171.301L328.42 173.166Z" fill="#D92927"/>
<path d="M310.175 173.176L311.878 173.176L311.878 171.311L310.175 171.311L310.175 173.176Z" fill="#D92927"/>
<path d="M291.929 173.169L293.632 173.169L293.632 171.304L291.929 171.304L291.929 173.169Z" fill="#D92927"/>
<path d="M273.683 173.18L275.387 173.18L275.387 171.315L273.683 171.315L273.683 173.18Z" fill="#D92927"/>
<path d="M255.438 173.174L257.141 173.174L257.141 171.309L255.438 171.309L255.438 173.174Z" fill="#D92927"/>
<path d="M237.192 173.167L238.896 173.167L238.896 171.303L237.192 171.303L237.192 173.167Z" fill="#D92927"/>
<path d="M218.947 173.178L220.65 173.178L220.65 171.313L218.947 171.313L218.947 173.178Z" fill="#D92927"/>
<path d="M200.701 173.172L202.404 173.172L202.404 171.307L200.701 171.307L200.701 173.172Z" fill="#D92927"/>
<path d="M182.455 173.166L184.159 173.166L184.159 171.301L182.455 171.301L182.455 173.166Z" fill="#D92927"/>
<path d="M164.21 173.176L165.914 173.176L165.914 171.311L164.21 171.311L164.21 173.176Z" fill="#D92927"/>
<path d="M145.965 173.17L147.668 173.17L147.668 171.305L145.965 171.305L145.965 173.17Z" fill="#D92927"/>
<path d="M127.719 173.18L129.422 173.18L129.422 171.315L127.719 171.315L127.719 173.18Z" fill="#D92927"/>
<path d="M109.474 173.174L111.177 173.174L111.177 171.309L109.474 171.309L109.474 173.174Z" fill="#D92927"/>
<path d="M91.2279 173.168L92.9312 173.168L92.9312 171.303L91.2279 171.303L91.2279 173.168Z" fill="#D92927"/>
<path d="M72.9824 173.178L74.6855 173.178L74.6855 171.313L72.9824 171.313L72.9824 173.178Z" fill="#D92927"/>
<path d="M54.7372 173.172L56.4404 173.172L56.4404 171.307L54.7372 171.307L54.7372 173.172Z" fill="#D92927"/>
<path d="M36.4915 173.166L38.1948 173.166L38.1948 171.301L36.4915 171.301L36.4915 173.166Z" fill="#D92927"/>
<path d="M18.246 173.176L19.9492 173.176L19.9492 171.311L18.246 171.311L18.246 173.176Z" fill="#D92927"/>
<path d="M0.00036633 173.17L1.70361 173.17L1.70361 171.305L0.000366392 171.305L0.00036633 173.17Z" fill="#D92927"/>
<path d="M839.304 154.139L841.007 154.139L841.007 152.274L839.304 152.274L839.304 154.139Z" fill="#D92927"/>
<path d="M821.058 154.133L822.762 154.133L822.762 152.268L821.058 152.268L821.058 154.133Z" fill="#D92927"/>
<path d="M802.813 154.144L804.516 154.144L804.516 152.279L802.813 152.279L802.813 154.144Z" fill="#D92927"/>
<path d="M784.567 154.138L786.271 154.138L786.271 152.273L784.567 152.273L784.567 154.138Z" fill="#D92927"/>
<path d="M766.322 154.131L768.025 154.131L768.025 152.266L766.322 152.266L766.322 154.131Z" fill="#D92927"/>
<path d="M748.077 154.142L749.78 154.142L749.78 152.277L748.077 152.277L748.077 154.142Z" fill="#D92927"/>
<path d="M729.831 154.136L731.534 154.136L731.534 152.271L729.831 152.271L729.831 154.136Z" fill="#D92927"/>
<path d="M711.585 154.146L713.289 154.146L713.289 152.281L711.585 152.281L711.585 154.146Z" fill="#D92927"/>
<path d="M693.34 154.14L695.043 154.14L695.043 152.275L693.34 152.275L693.34 154.14Z" fill="#D92927"/>
<path d="M675.094 154.134L676.797 154.134L676.797 152.269L675.094 152.269L675.094 154.134Z" fill="#D92927"/>
<path d="M656.849 154.144L658.552 154.144L658.552 152.279L656.849 152.279L656.849 154.144Z" fill="#D92927"/>
<path d="M638.603 154.138L640.306 154.138L640.306 152.273L638.603 152.273L638.603 154.138Z" fill="#D92927"/>
<path d="M620.358 154.132L622.061 154.132L622.061 152.267L620.358 152.267L620.358 154.132Z" fill="#D92927"/>
<path d="M602.112 154.142L603.815 154.142L603.815 152.277L602.112 152.277L602.112 154.142Z" fill="#D92927"/>
<path d="M583.867 154.136L585.57 154.136L585.57 152.271L583.867 152.271L583.867 154.136Z" fill="#D92927"/>
<path d="M565.621 154.146L567.324 154.146L567.324 152.281L565.621 152.281L565.621 154.146Z" fill="#D92927"/>
<path d="M547.375 154.14L549.079 154.14L549.079 152.275L547.375 152.275L547.375 154.14Z" fill="#D92927"/>
<path d="M529.13 154.134L530.833 154.134L530.833 152.269L529.13 152.269L529.13 154.134Z" fill="#D92927"/>
<path d="M510.885 154.144L512.588 154.144L512.588 152.279L510.885 152.279L510.885 154.144Z" fill="#D92927"/>
<path d="M492.639 154.138L494.342 154.138L494.342 152.273L492.639 152.273L492.639 154.138Z" fill="#D92927"/>
<path d="M474.393 154.132L476.097 154.132L476.097 152.267L474.393 152.267L474.393 154.132Z" fill="#D92927"/>
<path d="M456.148 154.142L457.851 154.142L457.851 152.277L456.148 152.277L456.148 154.142Z" fill="#D92927"/>
<path d="M437.902 154.136L439.605 154.136L439.605 152.271L437.902 152.271L437.902 154.136Z" fill="#D92927"/>
<path d="M419.657 154.146L421.36 154.146L421.36 152.281L419.657 152.281L419.657 154.146Z" fill="#D92927"/>
<path d="M401.411 154.14L403.114 154.14L403.114 152.275L401.411 152.275L401.411 154.14Z" fill="#D92927"/>
<path d="M383.165 154.134L384.869 154.134L384.869 152.269L383.165 152.269L383.165 154.134Z" fill="#D92927"/>
<path d="M364.92 154.145L366.624 154.145L366.624 152.28L364.92 152.28L364.92 154.145Z" fill="#D92927"/>
<path d="M346.675 154.138L348.378 154.138L348.378 152.273L346.675 152.273L346.675 154.138Z" fill="#D92927"/>
<path d="M328.429 154.132L330.132 154.132L330.132 152.267L328.429 152.267L328.429 154.132Z" fill="#D92927"/>
<path d="M310.183 154.143L311.887 154.143L311.887 152.278L310.183 152.278L310.183 154.143Z" fill="#D92927"/>
<path d="M291.938 154.137L293.642 154.137L293.642 152.272L291.938 152.272L291.938 154.137Z" fill="#D92927"/>
<path d="M273.693 154.146L275.396 154.146L275.396 152.282L273.693 152.282L273.693 154.146Z" fill="#D92927"/>
<path d="M255.447 154.141L257.15 154.141L257.15 152.276L255.447 152.276L255.447 154.141Z" fill="#D92927"/>
<path d="M237.202 154.135L238.905 154.135L238.905 152.27L237.202 152.27L237.202 154.135Z" fill="#D92927"/>
<path d="M218.956 154.145L220.659 154.145L220.659 152.28L218.956 152.28L218.956 154.145Z" fill="#D92927"/>
<path d="M200.71 154.139L202.414 154.139L202.414 152.274L200.71 152.274L200.71 154.139Z" fill="#D92927"/>
<path d="M182.465 154.133L184.168 154.133L184.168 152.268L182.465 152.268L182.465 154.133Z" fill="#D92927"/>
<path d="M164.22 154.143L165.923 154.143L165.923 152.278L164.22 152.278L164.22 154.143Z" fill="#D92927"/>
<path d="M145.974 154.137L147.677 154.137L147.677 152.272L145.974 152.272L145.974 154.137Z" fill="#D92927"/>
<path d="M127.728 154.147L129.432 154.147L129.432 152.282L127.728 152.282L127.728 154.147Z" fill="#D92927"/>
<path d="M109.483 154.141L111.186 154.141L111.186 152.276L109.483 152.276L109.483 154.141Z" fill="#D92927"/>
<path d="M91.2372 154.135L92.9404 154.135L92.9404 152.27L91.2372 152.27L91.2372 154.135Z" fill="#D92927"/>
<path d="M72.9915 154.145L74.6948 154.145L74.6948 152.28L72.9915 152.28L72.9915 154.145Z" fill="#D92927"/>
<path d="M54.7463 154.139L56.4497 154.139L56.4497 152.274L54.7463 152.274L54.7463 154.139Z" fill="#D92927"/>
<path d="M36.5004 154.133L38.2036 154.133L38.2036 152.268L36.5004 152.268L36.5004 154.133Z" fill="#D92927"/>
<path d="M18.2552 154.143L19.9585 154.143L19.9585 152.278L18.2552 152.278L18.2552 154.143Z" fill="#D92927"/>
<path d="M0.00964367 154.137L1.71289 154.137L1.71289 152.272L0.00964374 152.272L0.00964367 154.137Z" fill="#D92927"/>
<path d="M839.298 135.106L841.001 135.106L841.001 133.242L839.298 133.242L839.298 135.106Z" fill="#D92927"/>
<path d="M821.053 135.101L822.756 135.101L822.756 133.236L821.053 133.236L821.053 135.101Z" fill="#D92927"/>
<path d="M802.807 135.11L804.51 135.11L804.51 133.245L802.807 133.245L802.807 135.11Z" fill="#D92927"/>
<path d="M784.561 135.104L786.265 135.104L786.265 133.24L784.561 133.24L784.561 135.104Z" fill="#D92927"/>
<path d="M766.316 135.099L768.019 135.099L768.019 133.234L766.316 133.234L766.316 135.099Z" fill="#D92927"/>
<path d="M748.071 135.108L749.774 135.108L749.774 133.243L748.071 133.243L748.071 135.108Z" fill="#D92927"/>
<path d="M729.825 135.103L731.528 135.103L731.528 133.238L729.825 133.238L729.825 135.103Z" fill="#D92927"/>
<path d="M711.58 135.112L713.283 135.112L713.283 133.247L711.58 133.247L711.58 135.112Z" fill="#D92927"/>
<path d="M693.334 135.106L695.037 135.106L695.037 133.242L693.334 133.242L693.334 135.106Z" fill="#D92927"/>
<path d="M675.088 135.101L676.792 135.101L676.792 133.236L675.088 133.236L675.088 135.101Z" fill="#D92927"/>
<path d="M656.843 135.11L658.546 135.11L658.546 133.245L656.843 133.245L656.843 135.11Z" fill="#D92927"/>
<path d="M638.598 135.104L640.301 135.104L640.301 133.24L638.598 133.24L638.598 135.104Z" fill="#D92927"/>
<path d="M620.352 135.099L622.055 135.099L622.055 133.234L620.352 133.234L620.352 135.099Z" fill="#D92927"/>
<path d="M602.106 135.109L603.81 135.109L603.81 133.244L602.106 133.244L602.106 135.109Z" fill="#D92927"/>
<path d="M583.861 135.103L585.564 135.103L585.564 133.238L583.861 133.238L583.861 135.103Z" fill="#D92927"/>
<path d="M565.615 135.113L567.318 135.113L567.318 133.248L565.615 133.248L565.615 135.113Z" fill="#D92927"/>
<path d="M547.37 135.107L549.073 135.107L549.073 133.242L547.37 133.242L547.37 135.107Z" fill="#D92927"/>
<path d="M529.124 135.101L530.827 135.101L530.827 133.236L529.124 133.236L529.124 135.101Z" fill="#D92927"/>
<path d="M510.879 135.111L512.582 135.111L512.582 133.246L510.879 133.246L510.879 135.111Z" fill="#D92927"/>
<path d="M492.633 135.105L494.336 135.105L494.336 133.24L492.633 133.24L492.633 135.105Z" fill="#D92927"/>
<path d="M474.388 135.099L476.091 135.099L476.091 133.234L474.388 133.234L474.388 135.099Z" fill="#D92927"/>
<path d="M456.142 135.109L457.845 135.109L457.845 133.244L456.142 133.244L456.142 135.109Z" fill="#D92927"/>
<path d="M437.896 135.103L439.6 135.103L439.6 133.238L437.896 133.238L437.896 135.103Z" fill="#D92927"/>
<path d="M419.651 135.113L421.354 135.113L421.354 133.248L419.651 133.248L419.651 135.113Z" fill="#D92927"/>
<path d="M401.406 135.107L403.109 135.107L403.109 133.242L401.406 133.242L401.406 135.107Z" fill="#D92927"/>
<path d="M383.16 135.101L384.863 135.101L384.863 133.236L383.16 133.236L383.16 135.101Z" fill="#D92927"/>
<path d="M364.914 135.111L366.618 135.111L366.618 133.246L364.914 133.246L364.914 135.111Z" fill="#D92927"/>
<path d="M346.669 135.105L348.372 135.105L348.372 133.24L346.669 133.24L346.669 135.105Z" fill="#D92927"/>
<path d="M328.423 135.099L330.126 135.099L330.126 133.234L328.423 133.234L328.423 135.099Z" fill="#D92927"/>
<path d="M310.178 135.109L311.881 135.109L311.881 133.244L310.178 133.244L310.178 135.109Z" fill="#D92927"/>
<path d="M291.932 135.103L293.636 135.103L293.636 133.238L291.932 133.238L291.932 135.103Z" fill="#D92927"/>
<path d="M273.687 135.113L275.39 135.113L275.39 133.248L273.687 133.248L273.687 135.113Z" fill="#D92927"/>
<path d="M255.441 135.107L257.145 135.107L257.145 133.242L255.441 133.242L255.441 135.107Z" fill="#D92927"/>
<path d="M237.196 135.101L238.899 135.101L238.899 133.236L237.196 133.236L237.196 135.101Z" fill="#D92927"/>
<path d="M218.95 135.111L220.653 135.111L220.653 133.246L218.95 133.246L218.95 135.111Z" fill="#D92927"/>
<path d="M200.705 135.105L202.408 135.105L202.408 133.241L200.705 133.241L200.705 135.105Z" fill="#D92927"/>
<path d="M182.459 135.1L184.163 135.1L184.163 133.235L182.459 133.235L182.459 135.1Z" fill="#D92927"/>
<path d="M164.214 135.109L165.917 135.109L165.917 133.244L164.214 133.244L164.214 135.109Z" fill="#D92927"/>
<path d="M145.968 135.104L147.671 135.104L147.671 133.239L145.968 133.239L145.968 135.104Z" fill="#D92927"/>
<path d="M127.723 135.114L129.426 135.114L129.426 133.249L127.723 133.249L127.723 135.114Z" fill="#D92927"/>
<path d="M109.477 135.107L111.18 135.107L111.18 133.242L109.477 133.242L109.477 135.107Z" fill="#D92927"/>
<path d="M91.2313 135.102L92.9346 135.102L92.9346 133.237L91.2313 133.237L91.2313 135.102Z" fill="#D92927"/>
<path d="M72.9862 135.112L74.6895 135.112L74.6895 133.247L72.9862 133.247L72.9862 135.112Z" fill="#D92927"/>
<path d="M54.7405 135.105L56.4438 135.105L56.4438 133.241L54.7405 133.241L54.7405 135.105Z" fill="#D92927"/>
<path d="M36.4951 135.1L38.1982 135.1L38.1982 133.235L36.4951 133.235L36.4951 135.1Z" fill="#D92927"/>
<path d="M18.2494 135.11L19.9526 135.11L19.9526 133.245L18.2494 133.245L18.2494 135.11Z" fill="#D92927"/>
<path d="M0.0037843 135.104L1.70703 135.104L1.70703 133.239L0.00378436 133.239L0.0037843 135.104Z" fill="#D92927"/>
<path d="M839.307 116.073L841.011 116.073L841.011 114.208L839.307 114.208L839.307 116.073Z" fill="#D92927"/>
<path d="M821.062 116.067L822.765 116.067L822.765 114.202L821.062 114.202L821.062 116.067Z" fill="#D92927"/>
<path d="M802.816 116.077L804.52 116.077L804.52 114.212L802.816 114.212L802.816 116.077Z" fill="#D92927"/>
<path d="M784.571 116.071L786.274 116.071L786.274 114.206L784.571 114.206L784.571 116.071Z" fill="#D92927"/>
<path d="M766.325 116.065L768.028 116.065L768.028 114.2L766.325 114.2L766.325 116.065Z" fill="#D92927"/>
<path d="M748.08 116.075L749.783 116.075L749.783 114.21L748.08 114.21L748.08 116.075Z" fill="#D92927"/>
<path d="M729.834 116.069L731.538 116.069L731.538 114.204L729.834 114.204L729.834 116.069Z" fill="#D92927"/>
<path d="M711.589 116.079L713.292 116.079L713.292 114.214L711.589 114.214L711.589 116.079Z" fill="#D92927"/>
<path d="M693.343 116.073L695.046 116.073L695.046 114.208L693.343 114.208L693.343 116.073Z" fill="#D92927"/>
<path d="M675.098 116.067L676.801 116.067L676.801 114.202L675.098 114.202L675.098 116.067Z" fill="#D92927"/>
<path d="M656.852 116.077L658.555 116.077L658.555 114.212L656.852 114.212L656.852 116.077Z" fill="#D92927"/>
<path d="M638.607 116.071L640.31 116.071L640.31 114.206L638.607 114.206L638.607 116.071Z" fill="#D92927"/>
<path d="M620.361 116.065L622.064 116.065L622.064 114.201L620.361 114.201L620.361 116.065Z" fill="#D92927"/>
<path d="M602.116 116.076L603.819 116.076L603.819 114.211L602.116 114.211L602.116 116.076Z" fill="#D92927"/>
<path d="M583.87 116.069L585.573 116.069L585.573 114.204L583.87 114.204L583.87 116.069Z" fill="#D92927"/>
<path d="M565.624 116.08L567.328 116.08L567.328 114.215L565.624 114.215L565.624 116.08Z" fill="#D92927"/>
<path d="M547.379 116.074L549.082 116.074L549.082 114.209L547.379 114.209L547.379 116.074Z" fill="#D92927"/>
<path d="M529.133 116.067L530.836 116.067L530.836 114.202L529.133 114.202L529.133 116.067Z" fill="#D92927"/>
<path d="M510.888 116.078L512.591 116.078L512.591 114.213L510.888 114.213L510.888 116.078Z" fill="#D92927"/>
<path d="M492.642 116.072L494.346 116.072L494.346 114.207L492.642 114.207L492.642 116.072Z" fill="#D92927"/>
<path d="M474.397 116.065L476.1 116.065L476.1 114.201L474.397 114.201L474.397 116.065Z" fill="#D92927"/>
<path d="M456.151 116.076L457.854 116.076L457.854 114.211L456.151 114.211L456.151 116.076Z" fill="#D92927"/>
<path d="M437.906 116.07L439.609 116.07L439.609 114.205L437.906 114.205L437.906 116.07Z" fill="#D92927"/>
<path d="M419.66 116.08L421.363 116.08L421.363 114.215L419.66 114.215L419.66 116.08Z" fill="#D92927"/>
<path d="M401.415 116.074L403.118 116.074L403.118 114.209L401.415 114.209L401.415 116.074Z" fill="#D92927"/>
<path d="M383.169 116.068L384.873 116.068L384.873 114.203L383.169 114.203L383.169 116.068Z" fill="#D92927"/>
<path d="M364.924 116.078L366.627 116.078L366.627 114.213L364.924 114.213L364.924 116.078Z" fill="#D92927"/>
<path d="M346.678 116.072L348.381 116.072L348.381 114.207L346.678 114.207L346.678 116.072Z" fill="#D92927"/>
<path d="M328.432 116.066L330.136 116.066L330.136 114.201L328.432 114.201L328.432 116.066Z" fill="#D92927"/>
<path d="M310.187 116.076L311.89 116.076L311.89 114.211L310.187 114.211L310.187 116.076Z" fill="#D92927"/>
<path d="M291.941 116.07L293.645 116.07L293.645 114.205L291.941 114.205L291.941 116.07Z" fill="#D92927"/>
<path d="M273.696 116.08L275.399 116.08L275.399 114.215L273.696 114.215L273.696 116.08Z" fill="#D92927"/>
<path d="M255.451 116.074L257.154 116.074L257.154 114.209L255.451 114.209L255.451 116.074Z" fill="#D92927"/>
<path d="M237.205 116.068L238.908 116.068L238.908 114.203L237.205 114.203L237.205 116.068Z" fill="#D92927"/>
<path d="M218.959 116.078L220.663 116.078L220.663 114.213L218.959 114.213L218.959 116.078Z" fill="#D92927"/>
<path d="M200.714 116.072L202.417 116.072L202.417 114.207L200.714 114.207L200.714 116.072Z" fill="#D92927"/>
<path d="M182.468 116.066L184.171 116.066L184.171 114.201L182.468 114.201L182.468 116.066Z" fill="#D92927"/>
<path d="M164.223 116.076L165.926 116.076L165.926 114.211L164.223 114.211L164.223 116.076Z" fill="#D92927"/>
<path d="M145.977 116.07L147.681 116.07L147.681 114.205L145.977 114.205L145.977 116.07Z" fill="#D92927"/>
<path d="M127.732 116.08L129.435 116.08L129.435 114.215L127.732 114.215L127.732 116.08Z" fill="#D92927"/>
<path d="M109.486 116.074L111.189 116.074L111.189 114.209L109.486 114.209L109.486 116.074Z" fill="#D92927"/>
<path d="M91.2406 116.068L92.9438 116.068L92.9438 114.203L91.2406 114.203L91.2406 116.068Z" fill="#D92927"/>
<path d="M72.995 116.078L74.6982 116.078L74.6982 114.213L72.995 114.213L72.995 116.078Z" fill="#D92927"/>
<path d="M54.7495 116.072L56.4526 116.072L56.4526 114.207L54.7495 114.207L54.7495 116.072Z" fill="#D92927"/>
<path d="M36.5038 116.066L38.207 116.066L38.207 114.201L36.5038 114.201L36.5038 116.066Z" fill="#D92927"/>
<path d="M18.2587 116.076L19.9619 116.076L19.9619 114.211L18.2587 114.211L18.2587 116.076Z" fill="#D92927"/>
<path d="M0.0130616 116.07L1.71631 116.07L1.71631 114.205L0.0130617 114.205L0.0130616 116.07Z" fill="#D92927"/>
<path d="M839.302 97.0396L841.005 97.0396L841.005 95.1745L839.302 95.1745L839.302 97.0396Z" fill="#D92927"/>
<path d="M821.057 97.0332L822.76 97.0332L822.76 95.1683L821.057 95.1683L821.057 97.0332Z" fill="#D92927"/>
<path d="M802.811 97.0435L804.514 97.0435L804.514 95.1785L802.811 95.1785L802.811 97.0435Z" fill="#D92927"/>
<path d="M784.565 97.0376L786.269 97.0376L786.269 95.1725L784.565 95.1725L784.565 97.0376Z" fill="#D92927"/>
<path d="M766.32 97.0312L768.023 97.0312L768.023 95.1663L766.32 95.1663L766.32 97.0312Z" fill="#D92927"/>
<path d="M748.075 97.0415L749.778 97.0415L749.778 95.1766L748.075 95.1766L748.075 97.0415Z" fill="#D92927"/>
<path d="M729.829 97.0356L731.532 97.0356L731.532 95.1707L729.829 95.1707L729.829 97.0356Z" fill="#D92927"/>
<path d="M711.583 97.0454L713.287 97.0454L713.287 95.1805L711.583 95.1805L711.583 97.0454Z" fill="#D92927"/>
<path d="M693.338 97.0396L695.041 97.0396L695.041 95.1746L693.338 95.1746L693.338 97.0396Z" fill="#D92927"/>
<path d="M675.092 97.0337L676.795 97.0337L676.795 95.1688L675.092 95.1688L675.092 97.0337Z" fill="#D92927"/>
<path d="M656.847 97.0435L658.55 97.0435L658.55 95.1785L656.847 95.1785L656.847 97.0435Z" fill="#D92927"/>
<path d="M638.601 97.0376L640.305 97.0376L640.305 95.1727L638.601 95.1727L638.601 97.0376Z" fill="#D92927"/>
<path d="M620.356 97.0317L622.059 97.0317L622.059 95.1667L620.356 95.1667L620.356 97.0317Z" fill="#D92927"/>
<path d="M602.11 97.042L603.813 97.042L603.813 95.1769L602.11 95.1769L602.11 97.042Z" fill="#D92927"/>
<path d="M583.865 97.0356L585.568 97.0356L585.568 95.1708L583.865 95.1708L583.865 97.0356Z" fill="#D92927"/>
<path d="M565.619 97.0459L567.322 97.0459L567.322 95.181L565.619 95.181L565.619 97.0459Z" fill="#D92927"/>
<path d="M547.374 97.04L549.077 97.04L549.077 95.175L547.374 95.175L547.374 97.04Z" fill="#D92927"/>
<path d="M529.128 97.0337L530.832 97.0337L530.832 95.1687L529.128 95.1687L529.128 97.0337Z" fill="#D92927"/>
<path d="M510.883 97.0439L512.586 97.0439L512.586 95.179L510.883 95.179L510.883 97.0439Z" fill="#D92927"/>
<path d="M492.637 97.0381L494.34 97.0381L494.34 95.1731L492.637 95.1731L492.637 97.0381Z" fill="#D92927"/>
<path d="M474.391 97.0322L476.095 97.0322L476.095 95.1673L474.391 95.1673L474.391 97.0322Z" fill="#D92927"/>
<path d="M456.146 97.042L457.849 97.042L457.849 95.1771L456.146 95.1771L456.146 97.042Z" fill="#D92927"/>
<path d="M437.9 97.0361L439.604 97.0361L439.604 95.1712L437.9 95.1712L437.9 97.0361Z" fill="#D92927"/>
<path d="M419.655 97.0464L421.358 97.0464L421.358 95.1815L419.655 95.1815L419.655 97.0464Z" fill="#D92927"/>
<path d="M401.41 97.04L403.113 97.04L403.113 95.1751L401.41 95.1751L401.41 97.04Z" fill="#D92927"/>
<path d="M383.164 97.0342L384.867 97.0342L384.867 95.1692L383.164 95.1692L383.164 97.0342Z" fill="#D92927"/>
<path d="M364.918 97.0444L366.622 97.0444L366.622 95.1795L364.918 95.1795L364.918 97.0444Z" fill="#D92927"/>
<path d="M346.673 97.0381L348.376 97.0381L348.376 95.1731L346.673 95.1731L346.673 97.0381Z" fill="#D92927"/>
<path d="M328.428 97.0322L330.131 97.0322L330.131 95.1673L328.428 95.1673L328.428 97.0322Z" fill="#D92927"/>
<path d="M310.182 97.0425L311.885 97.0425L311.885 95.1776L310.182 95.1776L310.182 97.0425Z" fill="#D92927"/>
<path d="M291.936 97.0361L293.64 97.0361L293.64 95.1711L291.936 95.1711L291.936 97.0361Z" fill="#D92927"/>
<path d="M273.691 97.0464L275.394 97.0464L275.394 95.1815L273.691 95.1815L273.691 97.0464Z" fill="#D92927"/>
<path d="M255.445 97.04L257.148 97.04L257.148 95.1752L255.445 95.1752L255.445 97.04Z" fill="#D92927"/>
<path d="M237.2 97.0342L238.903 97.0342L238.903 95.1692L237.2 95.1692L237.2 97.0342Z" fill="#D92927"/>
<path d="M218.954 97.0444L220.658 97.0444L220.658 95.1794L218.954 95.1794L218.954 97.0444Z" fill="#D92927"/>
<path d="M200.709 97.0386L202.412 97.0386L202.412 95.1736L200.709 95.1736L200.709 97.0386Z" fill="#D92927"/>
<path d="M182.463 97.0322L184.167 97.0322L184.167 95.1673L182.463 95.1673L182.463 97.0322Z" fill="#D92927"/>
<path d="M164.218 97.0425L165.921 97.0425L165.921 95.1776L164.218 95.1776L164.218 97.0425Z" fill="#D92927"/>
<path d="M145.972 97.0366L147.675 97.0366L147.675 95.1718L145.972 95.1718L145.972 97.0366Z" fill="#D92927"/>
<path d="M127.726 97.0464L129.43 97.0464L129.43 95.1815L127.726 95.1815L127.726 97.0464Z" fill="#D92927"/>
<path d="M109.481 97.0405L111.184 97.0405L111.184 95.1756L109.481 95.1756L109.481 97.0405Z" fill="#D92927"/>
<path d="M91.2358 97.0347L92.939 97.0347L92.939 95.1697L91.2358 95.1697L91.2358 97.0347Z" fill="#D92927"/>
<path d="M72.9901 97.0444L74.6934 97.0444L74.6934 95.1796L72.9901 95.1796L72.9901 97.0444Z" fill="#D92927"/>
<path d="M54.7446 97.0386L56.4478 97.0386L56.4478 95.1736L54.7446 95.1736L54.7446 97.0386Z" fill="#D92927"/>
<path d="M36.4988 97.0327L38.2021 97.0327L38.2021 95.1678L36.4988 95.1678L36.4988 97.0327Z" fill="#D92927"/>
<path d="M18.2533 97.0425L19.9565 97.0425L19.9565 95.1775L18.2533 95.1775L18.2533 97.0425Z" fill="#D92927"/>
<path d="M0.00762951 97.0366L1.71094 97.0366L1.71094 95.1716L0.00762958 95.1716L0.00762951 97.0366Z" fill="#D92927"/>
<path d="M839.296 78.0063L841 78.0063L841 76.1414L839.296 76.1414L839.296 78.0063Z" fill="#D92927"/>
<path d="M821.051 78L822.754 78L822.754 76.1351L821.051 76.1351L821.051 78Z" fill="#D92927"/>
<path d="M802.805 78.0103L804.508 78.0103L804.508 76.1453L802.805 76.1453L802.805 78.0103Z" fill="#D92927"/>
<path d="M784.56 78.0044L786.263 78.0044L786.263 76.1393L784.56 76.1393L784.56 78.0044Z" fill="#D92927"/>
<path d="M766.314 77.998L768.018 77.998L768.018 76.1331L766.314 76.1331L766.314 77.998Z" fill="#D92927"/>
<path d="M748.069 78.0083L749.772 78.0083L749.772 76.1434L748.069 76.1434L748.069 78.0083Z" fill="#D92927"/>
<path d="M729.823 78.0024L731.526 78.0024L731.526 76.1375L729.823 76.1375L729.823 78.0024Z" fill="#D92927"/>
<path d="M711.578 78.0122L713.281 78.0122L713.281 76.1472L711.578 76.1472L711.578 78.0122Z" fill="#D92927"/>
<path d="M693.332 78.0063L695.035 78.0063L695.035 76.1414L693.332 76.1414L693.332 78.0063Z" fill="#D92927"/>
<path d="M675.086 78.0005L676.79 78.0005L676.79 76.1355L675.086 76.1355L675.086 78.0005Z" fill="#D92927"/>
<path d="M656.841 78.0103L658.544 78.0103L658.544 76.1453L656.841 76.1453L656.841 78.0103Z" fill="#D92927"/>
<path d="M638.596 78.0044L640.299 78.0044L640.299 76.1394L638.596 76.1394L638.596 78.0044Z" fill="#D92927"/>
<path d="M620.35 77.9985L622.053 77.9985L622.053 76.1335L620.35 76.1335L620.35 77.9985Z" fill="#D92927"/>
<path d="M602.104 78.0088L603.808 78.0088L603.808 76.1439L602.104 76.1439L602.104 78.0088Z" fill="#D92927"/>
<path d="M583.859 78.0024L585.562 78.0024L585.562 76.1375L583.859 76.1375L583.859 78.0024Z" fill="#D92927"/>
<path d="M565.613 78.0127L567.316 78.0127L567.316 76.1478L565.613 76.1478L565.613 78.0127Z" fill="#D92927"/>
<path d="M547.368 78.0068L549.071 78.0068L549.071 76.1418L547.368 76.1418L547.368 78.0068Z" fill="#D92927"/>
<path d="M529.122 78.0005L530.825 78.0005L530.825 76.1356L529.122 76.1356L529.122 78.0005Z" fill="#D92927"/>
<path d="M510.877 78.0107L512.58 78.0107L512.58 76.1458L510.877 76.1458L510.877 78.0107Z" fill="#D92927"/>
<path d="M492.631 78.0049L494.334 78.0049L494.334 76.14L492.631 76.14L492.631 78.0049Z" fill="#D92927"/>
<path d="M474.386 77.999L476.089 77.999L476.089 76.134L474.386 76.134L474.386 77.999Z" fill="#D92927"/>
<path d="M456.14 78.0088L457.843 78.0088L457.843 76.1439L456.14 76.1439L456.14 78.0088Z" fill="#D92927"/>
<path d="M437.894 78.0029L439.598 78.0029L439.598 76.1379L437.894 76.1379L437.894 78.0029Z" fill="#D92927"/>
<path d="M419.649 78.0132L421.352 78.0132L421.352 76.1482L419.649 76.1482L419.649 78.0132Z" fill="#D92927"/>
<path d="M401.404 78.0068L403.107 78.0068L403.107 76.1419L401.404 76.1419L401.404 78.0068Z" fill="#D92927"/>
<path d="M383.158 78.001L384.861 78.001L384.861 76.136L383.158 76.136L383.158 78.001Z" fill="#D92927"/>
<path d="M364.912 78.0112L366.616 78.0112L366.616 76.1462L364.912 76.1462L364.912 78.0112Z" fill="#D92927"/>
<path d="M346.667 78.0049L348.37 78.0049L348.37 76.14L346.667 76.14L346.667 78.0049Z" fill="#D92927"/>
<path d="M328.421 77.999L330.125 77.999L330.125 76.1341L328.421 76.1341L328.421 77.999Z" fill="#D92927"/>
<path d="M310.176 78.0093L311.879 78.0093L311.879 76.1442L310.176 76.1442L310.176 78.0093Z" fill="#D92927"/>
<path d="M291.93 78.0029L293.633 78.0029L293.633 76.138L291.93 76.138L291.93 78.0029Z" fill="#D92927"/>
<path d="M273.685 78.0132L275.388 78.0132L275.388 76.1483L273.685 76.1483L273.685 78.0132Z" fill="#D92927"/>
<path d="M255.439 78.0073L257.143 78.0073L257.143 76.1423L255.439 76.1423L255.439 78.0073Z" fill="#D92927"/>
<path d="M237.194 78.001L238.897 78.001L238.897 76.136L237.194 76.136L237.194 78.001Z" fill="#D92927"/>
<path d="M218.948 78.0112L220.651 78.0112L220.651 76.1462L218.948 76.1462L218.948 78.0112Z" fill="#D92927"/>
<path d="M200.703 78.0054L202.406 78.0054L202.406 76.1404L200.703 76.1404L200.703 78.0054Z" fill="#D92927"/>
<path d="M182.457 77.999L184.16 77.999L184.16 76.1341L182.457 76.1341L182.457 77.999Z" fill="#D92927"/>
<path d="M164.212 78.0093L165.915 78.0093L165.915 76.1443L164.212 76.1443L164.212 78.0093Z" fill="#D92927"/>
<path d="M145.966 78.0034L147.669 78.0034L147.669 76.1385L145.966 76.1385L145.966 78.0034Z" fill="#D92927"/>
<path d="M127.721 78.0132L129.424 78.0132L129.424 76.1483L127.721 76.1483L127.721 78.0132Z" fill="#D92927"/>
<path d="M109.475 78.0073L111.178 78.0073L111.178 76.1423L109.475 76.1423L109.475 78.0073Z" fill="#D92927"/>
<path d="M91.2293 78.0015L92.9326 78.0015L92.9326 76.1365L91.2293 76.1365L91.2293 78.0015Z" fill="#D92927"/>
<path d="M72.9838 78.0112L74.687 78.0112L74.687 76.1463L72.9838 76.1463L72.9838 78.0112Z" fill="#D92927"/>
<path d="M54.7382 78.0054L56.4414 78.0054L56.4414 76.1406L54.7382 76.1406L54.7382 78.0054Z" fill="#D92927"/>
<path d="M36.493 77.9995L38.1963 77.9995L38.1963 76.1346L36.493 76.1346L36.493 77.9995Z" fill="#D92927"/>
<path d="M18.2476 78.0093L19.9507 78.0093L19.9507 76.1443L18.2476 76.1443L18.2476 78.0093Z" fill="#D92927"/>
<path d="M0.00189221 78.0034L1.70508 78.0034L1.70508 76.1384L0.00189227 76.1384L0.00189221 78.0034Z" fill="#D92927"/>
<path d="M839.306 58.9731L841.009 58.9731L841.009 57.1081L839.306 57.1081L839.306 58.9731Z" fill="#D92927"/>
<path d="M821.06 58.9668L822.763 58.9668L822.763 57.1019L821.06 57.1019L821.06 58.9668Z" fill="#D92927"/>
<path d="M802.814 58.9771L804.518 58.9771L804.518 57.1121L802.814 57.1121L802.814 58.9771Z" fill="#D92927"/>
<path d="M784.569 58.9712L786.272 58.9712L786.272 57.1062L784.569 57.1062L784.569 58.9712Z" fill="#D92927"/>
<path d="M766.323 58.9648L768.026 58.9648L768.026 57.0999L766.323 57.0999L766.323 58.9648Z" fill="#D92927"/>
<path d="M748.078 58.9751L749.781 58.9751L749.781 57.1102L748.078 57.1102L748.078 58.9751Z" fill="#D92927"/>
<path d="M729.832 58.9692L731.536 58.9692L731.536 57.1042L729.832 57.1042L729.832 58.9692Z" fill="#D92927"/>
<path d="M711.587 58.979L713.29 58.979L713.29 57.1141L711.587 57.1141L711.587 58.979Z" fill="#D92927"/>
<path d="M693.341 58.9731L695.044 58.9731L695.044 57.1082L693.341 57.1082L693.341 58.9731Z" fill="#D92927"/>
<path d="M675.096 58.9673L676.799 58.9673L676.799 57.1022L675.096 57.1022L675.096 58.9673Z" fill="#D92927"/>
<path d="M656.85 58.9771L658.553 58.9771L658.553 57.1122L656.85 57.1122L656.85 58.9771Z" fill="#D92927"/>
<path d="M638.605 58.9712L640.308 58.9712L640.308 57.1062L638.605 57.1062L638.605 58.9712Z" fill="#D92927"/>
<path d="M620.359 58.9653L622.062 58.9653L622.063 57.1003L620.359 57.1003L620.359 58.9653Z" fill="#D92927"/>
<path d="M602.114 58.9756L603.817 58.9756L603.817 57.1106L602.114 57.1106L602.114 58.9756Z" fill="#D92927"/>
<path d="M583.868 58.9692L585.571 58.9692L585.571 57.1042L583.868 57.1042L583.868 58.9692Z" fill="#D92927"/>
<path d="M565.622 58.9795L567.326 58.9795L567.326 57.1145L565.622 57.1145L565.622 58.9795Z" fill="#D92927"/>
<path d="M547.377 58.9736L549.08 58.9736L549.08 57.1088L547.377 57.1088L547.377 58.9736Z" fill="#D92927"/>
<path d="M529.131 58.9678L530.834 58.9678L530.834 57.1028L529.131 57.1028L529.131 58.9678Z" fill="#D92927"/>
<path d="M510.886 58.9775L512.589 58.9775L512.589 57.1126L510.886 57.1126L510.886 58.9775Z" fill="#D92927"/>
<path d="M492.641 58.9717L494.344 58.9717L494.344 57.1068L492.641 57.1068L492.641 58.9717Z" fill="#D92927"/>
<path d="M474.395 58.9658L476.098 58.9658L476.098 57.1009L474.395 57.1009L474.395 58.9658Z" fill="#D92927"/>
<path d="M456.149 58.9756L457.853 58.9756L457.853 57.1107L456.149 57.1107L456.149 58.9756Z" fill="#D92927"/>
<path d="M437.904 58.9697L439.607 58.9697L439.607 57.1048L437.904 57.1048L437.904 58.9697Z" fill="#D92927"/>
<path d="M419.658 58.98L421.361 58.98L421.361 57.1151L419.658 57.1151L419.658 58.98Z" fill="#D92927"/>
<path d="M401.413 58.9736L403.116 58.9736L403.116 57.1086L401.413 57.1086L401.413 58.9736Z" fill="#D92927"/>
<path d="M383.167 58.9678L384.871 58.9678L384.871 57.1027L383.167 57.1027L383.167 58.9678Z" fill="#D92927"/>
<path d="M364.922 58.978L366.625 58.978L366.625 57.1131L364.922 57.1131L364.922 58.978Z" fill="#D92927"/>
<path d="M346.676 58.9722L348.379 58.9722L348.379 57.1072L346.676 57.1072L346.676 58.9722Z" fill="#D92927"/>
<path d="M328.431 58.9658L330.134 58.9658L330.134 57.1008L328.431 57.1008L328.431 58.9658Z" fill="#D92927"/>
<path d="M310.185 58.9761L311.888 58.9761L311.888 57.1111L310.185 57.1111L310.185 58.9761Z" fill="#D92927"/>
<path d="M291.94 58.9697L293.643 58.9697L293.643 57.1047L291.94 57.1047L291.94 58.9697Z" fill="#D92927"/>
<path d="M273.694 58.98L275.397 58.98L275.397 57.1149L273.694 57.1149L273.694 58.98Z" fill="#D92927"/>
<path d="M255.449 58.9741L257.152 58.9741L257.152 57.1093L255.449 57.1093L255.449 58.9741Z" fill="#D92927"/>
<path d="M237.203 58.9683L238.906 58.9683L238.906 57.1033L237.203 57.1033L237.203 58.9683Z" fill="#D92927"/>
<path d="M218.957 58.978L220.661 58.978L220.661 57.113L218.957 57.113L218.957 58.978Z" fill="#D92927"/>
<path d="M200.712 58.9722L202.415 58.9722L202.415 57.1072L200.712 57.1072L200.712 58.9722Z" fill="#D92927"/>
<path d="M182.466 58.9663L184.169 58.9663L184.169 57.1013L182.466 57.1013L182.466 58.9663Z" fill="#D92927"/>
<path d="M164.221 58.9761L165.924 58.9761L165.924 57.1111L164.221 57.1111L164.221 58.9761Z" fill="#D92927"/>
<path d="M145.975 58.9702L147.679 58.9702L147.679 57.1053L145.975 57.1053L145.975 58.9702Z" fill="#D92927"/>
<path d="M127.73 58.98L129.433 58.98L129.433 57.115L127.73 57.115L127.73 58.98Z" fill="#D92927"/>
<path d="M109.484 58.9741L111.188 58.9741L111.188 57.1091L109.484 57.1091L109.484 58.9741Z" fill="#D92927"/>
<path d="M91.2387 58.9683L92.9419 58.9683L92.9419 57.1033L91.2387 57.1033L91.2387 58.9683Z" fill="#D92927"/>
<path d="M72.993 58.9785L74.6963 58.9785L74.6963 57.1136L72.993 57.1136L72.993 58.9785Z" fill="#D92927"/>
<path d="M54.7474 58.9722L56.4507 58.9722L56.4507 57.1072L54.7474 57.1072L54.7474 58.9722Z" fill="#D92927"/>
<path d="M36.5023 58.9663L38.2056 58.9663L38.2056 57.1014L36.5023 57.1014L36.5023 58.9663Z" fill="#D92927"/>
<path d="M18.2567 58.9766L19.96 58.9766L19.96 57.1115L18.2567 57.1115L18.2567 58.9766Z" fill="#D92927"/>
<path d="M0.0110475 58.9702L1.71436 58.9702L1.71436 57.1052L0.0110475 57.1052L0.0110475 58.9702Z" fill="#D92927"/>
<path d="M839.3 39.9399L841.003 39.9399L841.003 38.075L839.3 38.075L839.3 39.9399Z" fill="#D92927"/>
<path d="M821.055 39.9336L822.758 39.9336L822.758 38.0686L821.055 38.0686L821.055 39.9336Z" fill="#D92927"/>
<path d="M802.809 39.9438L804.512 39.9438L804.512 38.0789L802.809 38.0789L802.809 39.9438Z" fill="#D92927"/>
<path d="M784.563 39.938L786.267 39.938L786.267 38.0731L784.563 38.0731L784.563 39.938Z" fill="#D92927"/>
<path d="M766.318 39.9316L768.021 39.9316L768.021 38.0667L766.318 38.0667L766.318 39.9316Z" fill="#D92927"/>
<path d="M748.072 39.9419L749.775 39.9419L749.775 38.077L748.072 38.077L748.072 39.9419Z" fill="#D92927"/>
<path d="M729.827 39.936L731.53 39.936L731.53 38.0711L729.827 38.0711L729.827 39.936Z" fill="#D92927"/>
<path d="M711.581 39.9458L713.285 39.9458L713.285 38.0809L711.581 38.0809L711.581 39.9458Z" fill="#D92927"/>
<path d="M693.336 39.9399L695.039 39.9399L695.039 38.075L693.336 38.075L693.336 39.9399Z" fill="#D92927"/>
<path d="M675.09 39.9341L676.793 39.9341L676.793 38.0691L675.09 38.0691L675.09 39.9341Z" fill="#D92927"/>
<path d="M656.845 39.9438L658.548 39.9438L658.548 38.0789L656.845 38.0789L656.845 39.9438Z" fill="#D92927"/>
<path d="M638.599 39.938L640.302 39.938L640.302 38.073L638.599 38.073L638.599 39.938Z" fill="#D92927"/>
<path d="M620.353 39.9321L622.057 39.9321L622.057 38.0673L620.353 38.0673L620.353 39.9321Z" fill="#D92927"/>
<path d="M602.108 39.9424L603.811 39.9424L603.811 38.0773L602.108 38.0773L602.108 39.9424Z" fill="#D92927"/>
<path d="M583.863 39.936L585.566 39.936L585.566 38.071L583.863 38.071L583.863 39.936Z" fill="#D92927"/>
<path d="M565.617 39.9463L567.32 39.9463L567.32 38.0814L565.617 38.0814L565.617 39.9463Z" fill="#D92927"/>
<path d="M547.372 39.9404L549.075 39.9404L549.075 38.0755L547.372 38.0755L547.372 39.9404Z" fill="#D92927"/>
<path d="M529.126 39.9341L530.829 39.9341L530.829 38.0691L529.126 38.0691L529.126 39.9341Z" fill="#D92927"/>
<path d="M510.88 39.9443L512.583 39.9443L512.583 38.0794L510.88 38.0794L510.88 39.9443Z" fill="#D92927"/>
<path d="M492.635 39.9385L494.338 39.9385L494.338 38.0736L492.635 38.0736L492.635 39.9385Z" fill="#D92927"/>
<path d="M474.39 39.9326L476.093 39.9326L476.093 38.0676L474.39 38.0676L474.39 39.9326Z" fill="#D92927"/>
<path d="M456.144 39.9424L457.847 39.9424L457.847 38.0775L456.144 38.0775L456.144 39.9424Z" fill="#D92927"/>
<path d="M437.898 39.9365L439.602 39.9365L439.602 38.0715L437.898 38.0715L437.898 39.9365Z" fill="#D92927"/>
<path d="M419.653 39.9468L421.356 39.9468L421.356 38.0818L419.653 38.0818L419.653 39.9468Z" fill="#D92927"/>
<path d="M401.408 39.9404L403.111 39.9404L403.111 38.0755L401.408 38.0755L401.408 39.9404Z" fill="#D92927"/>
<path d="M383.162 39.9346L384.865 39.9346L384.865 38.0696L383.162 38.0696L383.162 39.9346Z" fill="#D92927"/>
<path d="M364.916 39.9448L366.62 39.9448L366.62 38.0798L364.916 38.0798L364.916 39.9448Z" fill="#D92927"/>
<path d="M346.671 39.9385L348.374 39.9385L348.374 38.0735L346.671 38.0735L346.671 39.9385Z" fill="#D92927"/>
<path d="M328.425 39.9326L330.128 39.9326L330.128 38.0677L328.425 38.0677L328.425 39.9326Z" fill="#D92927"/>
<path d="M310.18 39.9429L311.883 39.9429L311.883 38.0778L310.18 38.0778L310.18 39.9429Z" fill="#D92927"/>
<path d="M291.934 39.937L293.637 39.937L293.637 38.0721L291.934 38.0721L291.934 39.937Z" fill="#D92927"/>
<path d="M273.688 39.9468L275.392 39.9468L275.392 38.0818L273.688 38.0818L273.688 39.9468Z" fill="#D92927"/>
<path d="M255.443 39.9409L257.146 39.9409L257.146 38.076L255.443 38.076L255.443 39.9409Z" fill="#D92927"/>
<path d="M237.197 39.9351L238.9 39.9351L238.9 38.0701L237.197 38.0701L237.197 39.9351Z" fill="#D92927"/>
<path d="M218.952 39.9448L220.655 39.9448L220.655 38.0799L218.952 38.0799L218.952 39.9448Z" fill="#D92927"/>
<path d="M200.706 39.939L202.41 39.939L202.41 38.074L200.706 38.074L200.706 39.939Z" fill="#D92927"/>
<path d="M182.461 39.9331L184.164 39.9331L184.164 38.0681L182.461 38.0681L182.461 39.9331Z" fill="#D92927"/>
<path d="M164.215 39.9429L165.918 39.9429L165.918 38.078L164.215 38.078L164.215 39.9429Z" fill="#D92927"/>
<path d="M145.97 39.937L147.673 39.937L147.673 38.0721L145.97 38.0721L145.97 39.937Z" fill="#D92927"/>
<path d="M127.724 39.9468L129.427 39.9468L129.427 38.0818L127.724 38.0818L127.724 39.9468Z" fill="#D92927"/>
<path d="M109.479 39.9409L111.182 39.9409L111.182 38.076L109.479 38.076L109.479 39.9409Z" fill="#D92927"/>
<path d="M91.2333 39.9351L92.9365 39.9351L92.9365 38.07L91.2333 38.07L91.2333 39.9351Z" fill="#D92927"/>
<path d="M72.9876 39.9448L74.6909 39.9448L74.6909 38.08L72.9876 38.08L72.9876 39.9448Z" fill="#D92927"/>
<path d="M54.7421 39.939L56.4453 39.939L56.4453 38.074L54.7421 38.074L54.7421 39.939Z" fill="#D92927"/>
<path d="M36.4969 39.9331L38.2002 39.9331L38.2002 38.0682L36.4969 38.0682L36.4969 39.9331Z" fill="#D92927"/>
<path d="M18.2509 39.9434L19.9541 39.9434L19.9541 38.0782L18.2509 38.0782L18.2509 39.9434Z" fill="#D92927"/>
<path d="M0.00573742 39.937L1.70898 39.937L1.70898 38.072L0.00573749 38.072L0.00573742 39.937Z" fill="#D92927"/>
<path d="M839.294 20.9062L840.998 20.9062L840.998 19.0412L839.294 19.0412L839.294 20.9062Z" fill="#D92927"/>
<path d="M821.049 20.8999L822.752 20.8999L822.752 19.035L821.049 19.035L821.049 20.8999Z" fill="#D92927"/>
<path d="M802.803 20.9102L804.506 20.9102L804.506 19.0452L802.803 19.0452L802.803 20.9102Z" fill="#D92927"/>
<path d="M784.557 20.9043L786.261 20.9043L786.261 19.0394L784.557 19.0394L784.557 20.9043Z" fill="#D92927"/>
<path d="M766.312 20.8979L768.015 20.8979L768.015 19.033L766.312 19.033L766.312 20.8979Z" fill="#D92927"/>
<path d="M748.067 20.9082L749.77 20.9082L749.77 19.0432L748.067 19.0432L748.067 20.9082Z" fill="#D92927"/>
<path d="M729.821 20.9023L731.524 20.9023L731.524 19.0374L729.821 19.0374L729.821 20.9023Z" fill="#D92927"/>
<path d="M711.576 20.9121L713.279 20.9121L713.279 19.0472L711.576 19.0472L711.576 20.9121Z" fill="#D92927"/>
<path d="M693.33 20.9062L695.033 20.9062L695.033 19.0413L693.33 19.0413L693.33 20.9062Z" fill="#D92927"/>
<path d="M675.084 20.9004L676.788 20.9004L676.788 19.0354L675.084 19.0354L675.084 20.9004Z" fill="#D92927"/>
<path d="M656.839 20.9102L658.542 20.9102L658.542 19.0452L656.839 19.0452L656.839 20.9102Z" fill="#D92927"/>
<path d="M638.593 20.9043L640.296 20.9043L640.296 19.0392L638.593 19.0392L638.593 20.9043Z" fill="#D92927"/>
<path d="M620.348 20.8984L622.051 20.8984L622.051 19.0335L620.348 19.0335L620.348 20.8984Z" fill="#D92927"/>
<path d="M602.102 20.9087L603.806 20.9087L603.806 19.0437L602.102 19.0437L602.102 20.9087Z" fill="#D92927"/>
<path d="M583.857 20.9023L585.56 20.9023L585.56 19.0373L583.857 19.0373L583.857 20.9023Z" fill="#D92927"/>
<path d="M565.611 20.9126L567.314 20.9126L567.314 19.0476L565.611 19.0476L565.611 20.9126Z" fill="#D92927"/>
<path d="M547.366 20.9067L549.069 20.9067L549.069 19.0419L547.366 19.0419L547.366 20.9067Z" fill="#D92927"/>
<path d="M529.12 20.9004L530.823 20.9004L530.823 19.0355L529.12 19.0355L529.12 20.9004Z" fill="#D92927"/>
<path d="M510.875 20.9106L512.578 20.9106L512.578 19.0458L510.875 19.0458L510.875 20.9106Z" fill="#D92927"/>
<path d="M492.629 20.9048L494.332 20.9048L494.332 19.0399L492.629 19.0399L492.629 20.9048Z" fill="#D92927"/>
<path d="M474.384 20.8989L476.087 20.8989L476.087 19.0339L474.384 19.0339L474.384 20.8989Z" fill="#D92927"/>
<path d="M456.138 20.9087L457.841 20.9087L457.841 19.0438L456.138 19.0438L456.138 20.9087Z" fill="#D92927"/>
<path d="M437.892 20.9028L439.596 20.9028L439.596 19.0379L437.892 19.0379L437.892 20.9028Z" fill="#D92927"/>
<path d="M419.647 20.9126L421.35 20.9126L421.35 19.0476L419.647 19.0476L419.647 20.9126Z" fill="#D92927"/>
<path d="M401.402 20.9067L403.105 20.9067L403.105 19.0418L401.402 19.0418L401.402 20.9067Z" fill="#D92927"/>
<path d="M383.156 20.9009L384.859 20.9009L384.859 19.0359L383.156 19.0359L383.156 20.9009Z" fill="#D92927"/>
<path d="M364.911 20.9106L366.614 20.9106L366.614 19.0457L364.911 19.0457L364.911 20.9106Z" fill="#D92927"/>
<path d="M346.665 20.9048L348.368 20.9048L348.368 19.0398L346.665 19.0398L346.665 20.9048Z" fill="#D92927"/>
<path d="M328.419 20.8989L330.123 20.8989L330.123 19.0339L328.419 19.0339L328.419 20.8989Z" fill="#D92927"/>
<path d="M310.174 20.9087L311.877 20.9087L311.877 19.0438L310.174 19.0438L310.174 20.9087Z" fill="#D92927"/>
<path d="M291.929 20.9028L293.632 20.9028L293.632 19.038L291.929 19.038L291.929 20.9028Z" fill="#D92927"/>
<path d="M273.683 20.9131L275.386 20.9131L275.386 19.048L273.683 19.048L273.683 20.9131Z" fill="#D92927"/>
<path d="M255.437 20.9072L257.141 20.9072L257.141 19.0423L255.437 19.0423L255.437 20.9072Z" fill="#D92927"/>
<path d="M237.192 20.9009L238.895 20.9009L238.895 19.0359L237.192 19.0359L237.192 20.9009Z" fill="#D92927"/>
<path d="M218.946 20.9111L220.649 20.9111L220.649 19.0462L218.946 19.0462L218.946 20.9111Z" fill="#D92927"/>
<path d="M200.701 20.9053L202.404 20.9053L202.404 19.0403L200.701 19.0403L200.701 20.9053Z" fill="#D92927"/>
<path d="M182.455 20.8989L184.159 20.8989L184.159 19.0339L182.455 19.0339L182.455 20.8989Z" fill="#D92927"/>
<path d="M164.21 20.9092L165.913 20.9092L165.913 19.0443L164.21 19.0443L164.21 20.9092Z" fill="#D92927"/>
<path d="M145.964 20.9033L147.667 20.9033L147.667 19.0385L145.964 19.0385L145.964 20.9033Z" fill="#D92927"/>
<path d="M127.719 20.9131L129.422 20.9131L129.422 19.0482L127.719 19.0482L127.719 20.9131Z" fill="#D92927"/>
<path d="M109.473 20.9072L111.176 20.9072L111.176 19.0423L109.473 19.0423L109.473 20.9072Z" fill="#D92927"/>
<path d="M91.2274 20.9014L92.9307 20.9014L92.9307 19.0364L91.2274 19.0364L91.2274 20.9014Z" fill="#D92927"/>
<path d="M72.9818 20.9111L74.6851 20.9111L74.6851 19.0462L72.9818 19.0462L72.9818 20.9111Z" fill="#D92927"/>
<path d="M54.7368 20.9053L56.4399 20.9053L56.4399 19.0403L54.7368 19.0403L54.7368 20.9053Z" fill="#D92927"/>
<path d="M36.4911 20.8994L38.1943 20.8994L38.1943 19.0345L36.4911 19.0345L36.4911 20.8994Z" fill="#D92927"/>
<path d="M18.2455 20.9092L19.9487 20.9092L19.9487 19.0442L18.2455 19.0442L18.2455 20.9092Z" fill="#D92927"/>
<path d="M-0.000121951 20.9033L1.70312 20.9033L1.70313 19.0383L-0.000121889 19.0383L-0.000121951 20.9033Z" fill="#D92927"/>
<path d="M839.304 1.87256L841.007 1.87256L841.007 0.00769055L839.304 0.00769046L839.304 1.87256Z" fill="#D92927"/>
<path d="M821.058 1.8667L822.761 1.8667L822.761 0.00177014L821.058 0.00177005L821.058 1.8667Z" fill="#D92927"/>
<path d="M802.812 1.87695L804.516 1.87695L804.516 0.012024L802.812 0.012024L802.812 1.87695Z" fill="#D92927"/>
<path d="M784.567 1.87109L786.27 1.87109L786.27 0.00610363L784.567 0.00610355L784.567 1.87109Z" fill="#D92927"/>
<path d="M766.322 1.86475L768.025 1.86475L768.025 -0.000182986L766.322 -0.000183076L766.322 1.86475Z" fill="#D92927"/>
<path d="M748.076 1.875L749.779 1.875L749.779 0.0100709L748.076 0.0100708L748.076 1.875Z" fill="#D92927"/>
<path d="M729.83 1.86914L731.534 1.86914L731.534 0.00427258L729.83 0.00427249L729.83 1.86914Z" fill="#D92927"/>
<path d="M711.585 1.87891L713.288 1.87891L713.288 0.0139772L711.585 0.0139771L711.585 1.87891Z" fill="#D92927"/>
<path d="M693.339 1.87305L695.042 1.87305L695.042 0.00805688L693.339 0.00805679L693.339 1.87305Z" fill="#D92927"/>
<path d="M675.094 1.86719L676.797 1.86719L676.797 0.00225842L675.094 0.00225833L675.094 1.86719Z" fill="#D92927"/>
<path d="M656.849 1.87695L658.552 1.87695L658.552 0.012024L656.849 0.012024L656.849 1.87695Z" fill="#D92927"/>
<path d="M638.603 1.87109L640.306 1.87109L640.306 0.00610363L638.603 0.00610355L638.603 1.87109Z" fill="#D92927"/>
<path d="M620.357 1.86523L622.061 1.86523L622.061 0.000305295L620.357 0.000305205L620.357 1.86523Z" fill="#D92927"/>
<path d="M602.112 1.87549L603.815 1.87549L603.815 0.0104982L602.112 0.0104981L602.112 1.87549Z" fill="#D92927"/>
<path d="M583.866 1.86914L585.569 1.86914L585.569 0.00415051L583.866 0.00415042L583.866 1.86914Z" fill="#D92927"/>
<path d="M565.62 1.87939L567.324 1.87939L567.324 0.0144655L565.62 0.0144654L565.62 1.87939Z" fill="#D92927"/>
<path d="M547.375 1.87354L549.079 1.87354L549.079 0.00860608L547.375 0.00860599L547.375 1.87354Z" fill="#D92927"/>
<path d="M529.13 1.86719L530.833 1.86719L530.833 0.00219738L529.13 0.0021973L529.13 1.86719Z" fill="#D92927"/>
<path d="M510.884 1.87744L512.587 1.87744L512.587 0.0124513L510.884 0.0124512L510.884 1.87744Z" fill="#D92927"/>
<path d="M492.639 1.87158L494.342 1.87158L494.342 0.00671399L492.639 0.0067139L492.639 1.87158Z" fill="#D92927"/>
<path d="M474.393 1.86572L476.096 1.86572L476.096 0.000671506L474.393 0.000671416L474.393 1.86572Z" fill="#D92927"/>
<path d="M456.147 1.87549L457.851 1.87549L457.851 0.0106202L456.147 0.0106201L456.147 1.87549Z" fill="#D92927"/>
<path d="M437.902 1.86963L439.605 1.86963L439.605 0.00463879L437.902 0.0046387L437.902 1.86963Z" fill="#D92927"/>
<path d="M419.657 1.87988L421.36 1.87988L421.36 0.0149537L419.657 0.0149536L419.657 1.87988Z" fill="#D92927"/>
<path d="M401.411 1.87354L403.114 1.87354L403.114 0.00866711L401.411 0.00866702L401.411 1.87354Z" fill="#D92927"/>
<path d="M383.165 1.86768L384.869 1.86768L384.869 0.00268567L383.165 0.00268558L383.165 1.86768Z" fill="#D92927"/>
<path d="M364.92 1.87793L366.623 1.87793L366.623 0.0129396L364.92 0.0129395L364.92 1.87793Z" fill="#D92927"/>
<path d="M346.674 1.87158L348.377 1.87158L348.377 0.00659192L346.674 0.00659183L346.674 1.87158Z" fill="#D92927"/>
<path d="M328.429 1.86572L330.132 1.86572L330.132 0.000793576L328.429 0.000793487L328.429 1.86572Z" fill="#D92927"/>
<path d="M310.183 1.87598L311.886 1.87598L311.886 0.0110475L310.183 0.0110474L310.183 1.87598Z" fill="#D92927"/>
<path d="M291.938 1.86963L293.641 1.86963L293.641 0.00463879L291.938 0.0046387L291.938 1.86963Z" fill="#D92927"/>
<path d="M273.692 1.87988L275.395 1.87988L275.395 0.0150148L273.692 0.0150147L273.692 1.87988Z" fill="#D92927"/>
<path d="M255.446 1.87402L257.149 1.87402L257.149 0.00915539L255.446 0.0091553L255.446 1.87402Z" fill="#D92927"/>
<path d="M237.201 1.86816L238.904 1.86816L238.904 0.00323498L237.201 0.00323489L237.201 1.86816Z" fill="#D92927"/>
<path d="M218.956 1.87793L220.659 1.87793L220.659 0.0130006L218.956 0.0130005L218.956 1.87793Z" fill="#D92927"/>
<path d="M200.71 1.87207L202.413 1.87207L202.413 0.00720227L200.71 0.00720218L200.71 1.87207Z" fill="#D92927"/>
<path d="M182.464 1.86621L184.167 1.86621L184.167 0.00128186L182.464 0.00128177L182.464 1.86621Z" fill="#D92927"/>
<path d="M164.219 1.87598L165.922 1.87598L165.922 0.0110475L164.219 0.0110474L164.219 1.87598Z" fill="#D92927"/>
<path d="M145.974 1.87012L147.677 1.87012L147.677 0.00518811L145.974 0.00518802L145.974 1.87012Z" fill="#D92927"/>
<path d="M127.728 1.88037L129.431 1.88037L129.431 0.015381L127.728 0.0153809L127.728 1.88037Z" fill="#D92927"/>
<path d="M109.482 1.87402L111.186 1.87402L111.186 0.00909436L109.482 0.00909427L109.482 1.87402Z" fill="#D92927"/>
<path d="M91.2367 1.86816L92.9399 1.86816L92.9399 0.00323498L91.2367 0.00323489L91.2367 1.86816Z" fill="#D92927"/>
<path d="M72.9911 1.87842L74.6943 1.87842L74.6943 0.0134889L72.9911 0.0134888L72.9911 1.87842Z" fill="#D92927"/>
<path d="M54.7455 1.87207L56.4487 1.87207L56.4487 0.00720227L54.7455 0.00720218L54.7455 1.87207Z" fill="#D92927"/>
<path d="M36.4999 1.86621L38.2031 1.86621L38.2031 0.00128186L36.4999 0.00128177L36.4999 1.86621Z" fill="#D92927"/>
<path d="M18.2546 1.87646L19.958 1.87646L19.958 0.0113527L18.2546 0.0113526L18.2546 1.87646Z" fill="#D92927"/>
<path d="M0.00915539 1.87012L1.7124 1.87012L1.7124 0.00512707L0.00915546 0.00512698L0.00915539 1.87012Z" fill="#D92927"/>
</svg>
