<?xml version="1.0" encoding="UTF-8"?>
<svg width="88px" height="100px" viewBox="0 0 88 100" version="1.1" xmlns="http://www.w3.org/2000/svg" xmlns:xlink="http://www.w3.org/1999/xlink">
    <!-- Generator: Sketch 50.2 (55047) - http://www.bohemiancoding.com/sketch -->
    <title>database</title>
    <desc>Created with Sketch.</desc>
    <defs>
        <linearGradient x1="100%" y1="50%" x2="-2.22044605e-14%" y2="50%" id="linearGradient-1">
            <stop stop-color="#E77E2A" offset="0%"></stop>
            <stop stop-color="#E05528" offset="100%"></stop>
        </linearGradient>
    </defs>
    <g id="Page-1" stroke="none" stroke-width="1" fill="none" fill-rule="evenodd">
        <g id="homepage" transform="translate(-364.000000, -1316.000000)" fill="url(#linearGradient-1)" fill-rule="nonzero">
            <g id="database" transform="translate(364.000000, 1316.000000)">
                <path d="M88,14.2857422 L88,23.2142578 C88,31.0826172 68.2917321,37.5 44,37.5 C19.7082679,37.5 0,31.0826172 0,23.2142578 L0,14.2857422 C0,6.41738281 19.7082679,0 44,0 C68.2917321,0 88,6.41738281 88,14.2857422 Z M88,34.375 L88,54.4642578 C88,62.3326172 68.2917321,68.75 44,68.75 C19.7082679,68.75 0,62.3326172 0,54.4642578 L0,34.375 C9.453125,40.8482422 26.7551429,43.8617188 44,43.8617188 C61.2448571,43.8617188 78.5466786,40.8482422 88,34.375 Z M88,65.625 L88,85.7142578 C88,93.5826172 68.2917321,100 44,100 C19.7082679,100 0,93.5826172 0,85.7142578 L0,65.625 C9.453125,72.0982422 26.7551429,75.1117187 44,75.1117187 C61.2448571,75.1117187 78.5466786,72.0982422 88,65.625 Z" id="Shape"></path>
            </g>
        </g>
    </g>
</svg>