<svg height="100" viewBox="0 0 100 100" width="100" xmlns="http://www.w3.org/2000/svg" xmlns:xlink="http://www.w3.org/1999/xlink"><linearGradient id="a" x1="100%" x2="0%" y1="50%" y2="50%"><stop offset="0" stop-color="#e77e2a"/><stop offset="1" stop-color="#e05528"/></linearGradient><path d="m50 100c27.6143145 0 50-22.3856855 50-50s-22.3856855-50-50-50-50 22.3856855-50 50 22.3856855 50 50 50zm-20.846371-15.4677419 10.7683468-10.7683468c6.4125 2.7229839 13.7354839 2.7262097 20.1560484 0l10.7683468 10.7683468c-12.7453629 7.7256048-28.9473791 7.7256048-41.692742 0zm36.9754033-34.5322581c0 8.8935484-7.2354839 16.1290323-16.1290323 16.1290323s-16.1290323-7.2354839-16.1290323-16.1290323 7.2354839-16.1290323 16.1290323-16.1290323 16.1290323 7.2354839 16.1290323 16.1290323zm18.4032258 20.846371-10.7683468-10.7683468c2.7227822-6.4125 2.7262097-13.7354839 0-20.1560484l10.7683468-10.7683468c7.7256048 12.7453629 7.7256048 28.9473791 0 41.692742zm-13.6860887-55.3786291-10.7683468 10.7683468c-6.4125-2.7227822-13.7354839-2.7262097-20.1558468 0l-10.7683468-10.7683468c12.7453629-7.7256048 28.9473791-7.7256048 41.6925404 0zm-55.3784275 13.6858871 10.7683468 10.7683468c-2.7229839 6.4125-2.7262097 13.7354839 0 20.1560484l-10.7683468 10.7683468c-7.7256048-12.7453629-7.7256048-28.9473791 0-41.692742z" fill="url(#a)" transform=""/></svg>