<?xml version="1.0" encoding="UTF-8"?>
<svg width="100px" height="100px" viewBox="0 0 100 100" version="1.1" xmlns="http://www.w3.org/2000/svg" xmlns:xlink="http://www.w3.org/1999/xlink">
    <!-- Generator: Sketch 50.2 (55047) - http://www.bohemiancoding.com/sketch -->
    <title>life-ring</title>
    <desc>Created with Sketch.</desc>
    <defs>
        <linearGradient x1="100%" y1="50%" x2="-2.22044605e-14%" y2="50%" id="linearGradient-1">
            <stop stop-color="#E77E2A" offset="0%"></stop>
            <stop stop-color="#E05528" offset="100%"></stop>
        </linearGradient>
    </defs>
    <g id="Page-1" stroke="none" stroke-width="1" fill="none" fill-rule="evenodd">
        <g id="homepage" transform="translate(-997.000000, -1919.000000)" fill="url(#linearGradient-1)" fill-rule="nonzero">
            <g id="life-ring" transform="translate(997.000000, 1919.000000)">
                <path d="M50,100 C77.6143145,100 100,77.6143145 100,50 C100,22.3856855 77.6143145,0 50,0 C22.3856855,0 0,22.3856855 0,50 C0,77.6143145 22.3856855,100 50,100 Z M29.153629,84.5322581 L39.9219758,73.7639113 C46.3344758,76.4868952 53.6574597,76.490121 60.0780242,73.7639113 L70.846371,84.5322581 C58.1010081,92.2578629 41.8989919,92.2578629 29.153629,84.5322581 Z M66.1290323,50 C66.1290323,58.8935484 58.8935484,66.1290323 50,66.1290323 C41.1064516,66.1290323 33.8709677,58.8935484 33.8709677,50 C33.8709677,41.1064516 41.1064516,33.8709677 50,33.8709677 C58.8935484,33.8709677 66.1290323,41.1064516 66.1290323,50 Z M84.5322581,70.846371 L73.7639113,60.0780242 C76.4866935,53.6655242 76.490121,46.3425403 73.7639113,39.9219758 L84.5322581,29.153629 C92.2578629,41.8989919 92.2578629,58.1010081 84.5322581,70.846371 Z M70.8461694,15.4677419 L60.0778226,26.2360887 C53.6653226,23.5133065 46.3423387,23.509879 39.9219758,26.2360887 L29.153629,15.4677419 C41.8989919,7.7421371 58.1010081,7.7421371 70.8461694,15.4677419 Z M15.4677419,29.153629 L26.2360887,39.9219758 C23.5131048,46.3344758 23.509879,53.6574597 26.2360887,60.0780242 L15.4677419,70.846371 C7.7421371,58.1010081 7.7421371,41.8989919 15.4677419,29.153629 Z" id="Shape"></path>
            </g>
        </g>
    </g>
</svg>