<svg height="100" viewBox="0 0 124 100" width="124" xmlns="http://www.w3.org/2000/svg" xmlns:xlink="http://www.w3.org/1999/xlink"><linearGradient id="a" x1="100%" x2="0%" y1="50%" y2="50%"><stop offset="0" stop-color="#e77e2a"/><stop offset="1" stop-color="#e05528"/></linearGradient><path d="m120.683845 35.1575095-53.4395082 22.1614729c-3.4237635 1.3523438-7.064692 1.3523438-10.4884555 0l-38.8536305-16.112771c-1.6592739 2.9786478-2.1347361 6.0026081-2.309111 9.9830794 1.8014863 1.4578135 3.006998 4.1114611 3.006998 7.1440152 0 3.112502-1.2704179 5.8244829-3.1513417 7.2554735l3.1381667 32.056271c.1220624 1.246355-.6006246 2.3549495-1.536824 2.3549495h-9.29999381c-.93542438 0-1.6588864-1.1075528-1.53682398-2.3552099l3.13816667-32.056271c-1.88092375-1.4307302-3.15134166-4.1427111-3.15134166-7.2552131 0-3.1338563 1.28766164-5.8622435 3.19009163-7.2854215.18348113-4.6747427.76996195-8.6539119 2.35444845-12.3950602l-8.42850692-3.4953148c-4.43222206-1.7710949-4.41090958-10.2190172 0-11.9817787l53.43950832-22.16147293c3.4237635-1.35234383 7.0646921-1.35234383 10.4884556 0l53.4395079 22.16147293c4.432416 1.7710949 4.411104 10.2190171.000194 11.9817787zm-51.6112844 30.1242385-.0401062.0166667-.0401063.0158854c-4.564914 1.8030695-9.4193703 1.8030695-13.9842844 0l-.0401063-.0158854-.0401062-.0166667-29.2395681-12.1276121-2.4381484 21.8458477c0 9.2046935 17.3489448 16.6666776 38.7499743 16.6666776 21.4010296 0 38.749974-7.4619841 38.749974-16.6666776l-2.4379543-21.8458477z" fill="url(#a)" transform=""/></svg>