<svg height="100" viewBox="0 0 88 100" width="88" xmlns="http://www.w3.org/2000/svg" xmlns:xlink="http://www.w3.org/1999/xlink"><linearGradient id="a" x1="100%" x2="0%" y1="50%" y2="50%"><stop offset="0" stop-color="#e77e2a"/><stop offset="1" stop-color="#e05528"/></linearGradient><path d="m88 14.2857422v8.9285156c0 7.8683594-19.7082679 14.2857422-44 14.2857422s-44-6.4173828-44-14.2857422v-8.9285156c0-7.86835939 19.7082679-14.2857422 44-14.2857422s44 6.41738281 44 14.2857422zm0 20.0892578v20.0892578c0 7.8683594-19.7082679 14.2857422-44 14.2857422s-44-6.4173828-44-14.2857422v-20.0892578c9.453125 6.4732422 26.7551429 9.4867188 44 9.4867188s34.5466786-3.0134766 44-9.4867188zm0 31.25v20.0892578c0 7.8683594-19.7082679 14.2857422-44 14.2857422s-44-6.4173828-44-14.2857422v-20.0892578c9.453125 6.4732422 26.7551429 9.4867187 44 9.4867187s34.5466786-3.0134765 44-9.4867187z" fill="url(#a)" transform=""/></svg>