<?xml version="1.0" encoding="UTF-8"?>
<svg width="660px" height="571px" viewBox="0 0 660 571" version="1.1" xmlns="http://www.w3.org/2000/svg" xmlns:xlink="http://www.w3.org/1999/xlink">
    <!-- Generator: Sketch 49.2 (51160) - http://www.bohemiancoding.com/sketch -->
    <title>Why Training Copy 3</title>
    <desc>Created with Sketch.</desc>
    <defs>
        <radialGradient cx="2.84501445%" cy="123.616114%" fx="2.84501445%" fy="123.616114%" r="155.617297%" id="radialGradient-1">
            <stop stop-color="#EFAD2D" offset="0%"></stop>
            <stop stop-color="#D82425" offset="100%"></stop>
        </radialGradient>
    </defs>
    <g id="Why-Training-Copy-3" stroke="none" stroke-width="1" fill="none" fill-rule="evenodd">
        <g id="support" transform="translate(148.000000, 104.000000)" fill="url(#radialGradient-1)" fill-rule="nonzero">
            <path d="M348.833333,136.5 L342.554333,136.5 C326.8265,80.6866667 283.3285,37.1735 227.5,21.4456667 L227.5,15.1666667 C227.5,6.79466667 220.7205,0 212.333333,0 L151.666667,0 C143.2795,0 136.5,6.79466667 136.5,15.1666667 L136.5,21.4456667 C80.6715,37.1735 37.1735,80.6866667 21.4456667,136.5 L15.1666667,136.5 C6.7795,136.5 0,143.294667 0,151.666667 L0,212.333333 C0,220.705333 6.7795,227.5 15.1666667,227.5 L21.4456667,227.5 C37.1735,283.313333 80.6715,326.8265 136.5,342.554333 L136.5,348.833333 C136.5,357.205333 143.2795,364 151.666667,364 L212.333333,364 C220.7205,364 227.5,357.205333 227.5,348.833333 L227.5,342.554333 C283.3285,326.8265 326.8265,283.313333 342.554333,227.5 L348.833333,227.5 C357.2205,227.5 364,220.705333 364,212.333333 L364,151.666667 C364,143.294667 357.2205,136.5 348.833333,136.5 Z M182,242.666667 C148.542333,242.666667 121.333333,215.457667 121.333333,182 C121.333333,148.542333 148.542333,121.333333 182,121.333333 C215.457667,121.333333 242.666667,148.542333 242.666667,182 C242.666667,215.457667 215.457667,242.666667 182,242.666667 Z M310.643667,136.5 L260.684667,136.5 C252.707,122.743833 241.256167,111.293 227.5,103.315333 L227.5,53.3563333 C266.432833,67.0366667 296.963333,97.5671667 310.643667,136.5 Z M136.5,53.3563333 L136.5,103.315333 C122.743833,111.293 111.293,122.743833 103.315333,136.5 L53.3563333,136.5 C67.0366667,97.5671667 97.5671667,67.0366667 136.5,53.3563333 Z M53.3563333,227.5 L103.315333,227.5 C111.293,241.256167 122.743833,252.707 136.5,260.684667 L136.5,310.643667 C97.5671667,296.963333 67.0366667,266.432833 53.3563333,227.5 Z M227.5,310.643667 L227.5,260.684667 C241.256167,252.707 252.707,241.241 260.684667,227.5 L310.643667,227.5 C296.963333,266.432833 266.432833,296.963333 227.5,310.643667 Z" id="Shape"></path>
        </g>
    </g>
</svg>