<svg height="100" viewBox="0 0 120 100" width="120" xmlns="http://www.w3.org/2000/svg" xmlns:xlink="http://www.w3.org/1999/xlink"><linearGradient id="a" x1="100%" x2="0%" y1="50%" y2="50%"><stop offset="0" stop-color="#e77e2a"/><stop offset="1" stop-color="#e05528"/></linearGradient><g fill="url(#a)" transform=""><path d="m84.5736585 30.4824561c.645-1.6760651 1.0068293-3.5087719 1.0068293-5.4197995 0-8.302005-6.7646341-15.0375939-15.102439-15.0375939-3.0991464 0-5.9937805.9398496-8.385 2.5375939-4.3576829-7.51879695-12.4909756-12.5626566-21.8198781-12.5626566-13.9068292 0-25.1707317 11.2155388-25.1707317 25.0626566 0 .4229324.0157317.8458647.0314634 1.268797-8.80975606 3.0858396-15.1339024 11.4505013-15.1339024 21.287594 0 12.4530075 10.1469512 22.556391 22.6536585 22.556391h57.892683c11.122317 0 20.1365855-8.9755639 20.1365855-20.0501253 0-9.6961153-6.9219514-17.7944862-16.1092685-19.6428572z" transform="translate(0 29.824561)"/><path d="m41.9487805 15.1572582c.3199219-.8334156.4993902-1.7447204.4993902-2.6949699 0-4.12813299-3.3552782-7.47737298-7.4908536-7.47737298-1.5371856 0-2.9729326.46733581-4.1589844 1.26180669-2.1614234-3.73868649-6.1955602-6.24672201-10.8227229-6.24672201-6.8978278 0-12.48475614 5.57687402-12.48475614 12.4622883 0 .2103011.00780297.4206022.01560594.6309034-4.36966463 1.5344192-7.5064596 5.6937079-7.5064596 10.5851561 0 6.1921995 5.0329173 11.2160595 11.2362805 11.2160595h28.714939c5.5167016 0 9.9878049-4.463057 9.9878049-9.9698307 0-4.8213478-3.4333079-8.8482247-7.9902439-9.7673184z" transform="translate(62.634146)"/><path d="m21.0731707 7.62061404c.1607143-.4190163.2508711-.87719299.2508711-1.35494988 0-2.07550125-1.6855401-3.7593985-3.7630662-3.7593985-.7722125 0-1.4934669.23496241-2.0892857.6343985-1.0858014-1.87969925-3.1123693-3.14066416-5.4368467-3.14066416-3.46515679 0-6.271777 2.80388471-6.271777 6.26566416 0 .10573308.00391986.21146617.00783972.31719925-2.19512195.7714599-3.77090592 2.86262531-3.77090592 5.32189849 0 3.1132519 2.5283101 5.6390977 5.6445993 5.6390977h14.4250871c2.7713415 0 5.0174216-2.2438909 5.0174216-5.0125313 0-2.4240288-1.7247387-4.44862153-4.0139373-4.91071426z" transform="translate(94.829268 40.935673)"/></g></svg>