<?xml version="1.0" encoding="UTF-8" standalone="no"?><!DOCTYPE svg PUBLIC "-//W3C//DTD SVG 1.1//EN" "http://www.w3.org/Graphics/SVG/1.1/DTD/svg11.dtd"><svg width="100%" height="100%" viewBox="0 0 835 156" version="1.1" xmlns="http://www.w3.org/2000/svg" xmlns:xlink="http://www.w3.org/1999/xlink" xml:space="preserve" xmlns:serif="http://www.serif.com/" style="fill-rule:evenodd;clip-rule:evenodd;stroke-linejoin:round;stroke-miterlimit:2;"><g><path d="M237.567,74.02c4.628,0 8.781,-3.799 8.781,-9.971c0,-6.169 -4.153,-9.729 -8.781,-9.729l-13.647,0l0,19.7l13.647,0Zm-13.647,16.257l0,29.787l-18.632,0l0,-81.767l35.009,0c10.324,0 24.564,8.427 24.564,25.396c0,22.312 -16.494,26.584 -25.038,26.584l-15.903,0Z" style="fill:#fff;fill-rule:nonzero;"/><path d="M293.816,100.484c0,1.779 0.237,5.221 5.577,5.221l5.815,0l0,14.832l-7.595,0c-14.833,0 -21.36,-3.796 -21.36,-18.274l0,-66.456l17.563,0l0,64.677Z" style="fill:#fff;fill-rule:nonzero;"/><path d="M345.201,95.973c-1.069,-0.356 -3.442,-1.188 -7.596,-1.188c-6.052,0 -8.425,3.918 -8.425,7.24c0,2.255 1.187,5.46 7.239,5.46c2.61,0 6.882,-1.78 8.782,-3.322l0,-8.19Zm-15.19,25.04c-9.851,0 -18.276,-6.409 -18.276,-17.801c0,-13.172 11.868,-19.463 21.598,-19.463c5.696,0 9.612,0.832 11.868,1.662l0,-2.372c0,-4.155 -3.205,-7.478 -11.63,-7.478c-4.628,0 -9.614,1.306 -16.852,3.679l0,-13.647c7.12,-2.849 13.292,-4.39 22.548,-4.39c11.868,0 23.972,6.169 23.972,25.632l0,15.545c0,5.46 2.61,5.105 7.714,3.205l0,12.106c-5.46,2.966 -19.345,7.24 -23.38,-3.443c-2.729,5.223 -13.053,6.765 -17.562,6.765Z" style="fill:#fff;fill-rule:nonzero;"/><path d="M435.747,88.616l0,31.448l-18.514,0l0,-30.855c0,-11.749 -3.441,-14.004 -9.374,-14.004c-3.206,0 -7.715,2.255 -9.02,2.967l0,41.892l-17.802,0l0,-57.437l16.496,0l1.306,4.865c5.222,-3.799 9.85,-6.289 15.428,-6.289c7.95,0 21.48,3.678 21.48,27.413Z" style="fill:#fff;fill-rule:nonzero;"/><path d="M484.637,85.887c0,-4.272 -1.661,-10.92 -9.376,-10.92c-7.594,0 -9.374,7.36 -9.374,10.92l18.75,0Zm-37.145,5.102c0,-18.989 13.173,-29.786 27.769,-29.786c17.446,0 27.532,11.748 27.532,30.616l-0.236,5.222l-36.433,0c0.356,4.272 3.679,10.682 15.071,10.682c4.748,0 13.648,-1.899 17.921,-2.85l0,12.58c-7.715,2.255 -14.36,3.799 -22.905,3.916c-16.139,0 -28.719,-9.374 -28.719,-30.38Z" style="fill:#fff;fill-rule:nonzero;"/><path d="M510.032,75.681l0,-13.054l8.544,0l0,-12.698l17.683,-5.104l0,17.802l11.393,0l0,13.054l-11.393,0l0,24.683c0,2.016 0.237,5.697 5.577,5.697l5.933,0l0,14.476l-7.713,0c-14.953,0 -21.48,-3.796 -21.48,-18.274l0,-26.582l-8.544,0Z" style="fill:#fff;fill-rule:nonzero;"/><path d="M560.112,105.941c4.508,1.899 13.884,6.29 24.683,6.29c11.273,0 19.225,-3.203 19.818,-13.528c0.356,-9.494 -12.104,-12.342 -28.125,-17.682c-9.495,-3.205 -14.004,-8.426 -16.021,-13.054c-1.186,-2.612 -1.78,-5.34 -1.662,-8.308c0.476,-13.884 10.563,-22.547 31.331,-22.547c7.476,0 17.8,2.967 21.241,4.508l0,9.377c-7.832,-2.849 -13.409,-4.629 -21.48,-4.629c-14.477,0 -20.292,6.291 -20.648,13.885c0,1.423 0.356,2.847 1.068,4.152c1.304,2.255 3.798,4.987 9.375,6.766l4.747,1.661c18.038,5.696 31.566,10.68 30.618,26.701c-1.544,17.09 -13.529,21.836 -30.262,21.836c-9.968,0 -18.512,-3.322 -24.683,-5.577l0,-9.851Z" style="fill:#fff;fill-rule:nonzero;"/><path d="M626.447,91.583c0,-19.463 14.241,-30.263 28.006,-30.263c8.07,0 14.479,1.188 17.327,2.017l0,7.834c-3.204,-0.95 -11.037,-1.899 -15.191,-1.899c-14.478,0 -19.462,10.8 -19.462,22.191c0,11.393 4.984,21.956 19.462,21.956c4.154,0 11.987,-0.95 15.191,-1.9l0,7.833c-2.848,0.829 -9.257,2.017 -17.327,2.017c-13.765,0 -28.006,-10.561 -28.006,-30.024l0,0.238Z" style="fill:#fff;fill-rule:nonzero;"/><path d="M719.367,93.48c-3.204,-0.473 -7.002,-0.947 -10.444,-0.947c-10.562,0 -16.97,3.323 -16.97,11.035c0,5.46 3.679,10.324 11.867,10.324c4.867,0 13.411,-3.559 15.547,-6.289l0,-14.123Zm10.205,15.784c0,6.289 7.833,3.205 9.139,2.255l0,7.477c-1.544,0.829 -5.103,2.373 -8.782,2.373c-2.018,0 -7.714,-0.117 -9.613,-6.765c-2.255,2.493 -10.563,6.765 -17.92,6.765c-15.189,0 -20.412,-7.833 -20.412,-18.274c0,-12.106 11.749,-17.802 23.497,-17.802c4.63,0 10.088,0.712 13.886,1.186l0,-2.73c0,-9.493 -5.578,-14.477 -13.528,-14.477c-9.376,0 -17.328,4.033 -19.464,4.984l0,-7.951c2.254,-0.594 9.613,-4.985 21.361,-4.985c11.275,0 21.836,5.696 21.836,24.685l0,23.259Z" style="fill:#fff;fill-rule:nonzero;"/><path d="M759.476,103.331c0,4.865 0.237,9.02 11.868,9.02l1.423,0l0,8.186l-3.559,0c-13.767,0 -19.819,-3.44 -19.819,-16.496l0,-68.234l10.087,0l0,67.524Z" style="fill:#fff;fill-rule:nonzero;"/><path d="M824.509,87.784c0,-10.797 -7.714,-18.392 -17.089,-18.392c-9.493,0 -17.208,7.595 -17.208,18.392l34.297,0Zm-44.502,3.087c0,-18.988 13.053,-29.551 27.413,-29.551c17.089,0 27.057,11.512 27.057,30.619l-0.237,3.085l-44.028,0c0,11.867 10.443,18.395 19.937,18.395c6.29,0 16.852,-2.374 19.938,-3.323l0,7.833c-2.85,0.83 -11.156,3.323 -21.718,3.44c-15.901,0 -28.362,-9.256 -28.362,-30.498Z" style="fill:#fff;fill-rule:nonzero;"/><rect x="35.603" y="39.881" width="134.083" height="77.413" style="fill:url(#_Linear1);"/><path d="M180.217,3.639c-0.821,5.02 -12.184,14.009 -30.436,24.777l-9.034,-5.247l-10.04,-5.794c5.202,-1.826 10.222,-3.514 15.058,-4.975l0,-0.045c13.279,-4.152 25.006,-7.119 34.452,-8.716Z" style="fill:#da2526;fill-rule:nonzero;"/><path d="M25.071,153.536c0.821,-5.02 12.184,-14.008 30.436,-24.776l9.034,5.247l10.039,5.794c-5.201,1.826 -10.221,3.514 -15.057,4.974l0,0.046c-13.279,4.152 -25.007,7.118 -34.452,8.715Z" style="fill:#da2526;fill-rule:nonzero;"/><path d="M55.507,128.76c9.993,-5.887 20.605,-14.365 34.11,-20.937c0.184,-0.091 -0.136,0.092 0,0c2.739,-1.506 5.02,-2.144 7.987,-3.423c0.273,-0.091 2.577,-1.048 2.852,-1.14c21.035,-8.716 42.493,-9.48 56.183,-1.996c4.29,2.281 8.154,8.011 10.71,11.752c0.912,1.324 1.734,2.784 2.372,4.289l-67.077,38.695l-17.705,-10.221l-10.359,-5.978l-10.039,-5.794l-9.034,-5.247Z" style="fill:url(#_Linear2);"/><path d="M35.612,117.305l0.045,0c17.614,-10.86 40.612,-22.861 66.347,-34.177c24.779,-10.905 48.243,-19.484 67.681,-25.188l0.036,59.365c-0.638,-1.505 -1.46,-2.965 -2.372,-4.289c-2.556,-3.741 -6.069,-6.753 -10.358,-9.035c-13.69,-7.482 -35.046,-7.529 -56.082,1.187c-0.273,0.091 -0.501,0.228 -0.776,0.32c-2.965,1.277 -5.84,2.645 -8.577,4.152c-0.137,0.091 -0.32,0.183 -0.503,0.273c-13.506,6.571 -25.553,12.96 -35.546,18.847c-18.252,10.768 -29.615,19.756 -30.436,24.776c-13.872,2.327 -22.907,1.735 -24.732,-2.419c-2.736,-6.205 11.27,-18.981 35.273,-33.812Z" style="fill:url(#_Linear3);"/><path d="M149.781,28.416c-9.993,5.887 -20.605,14.365 -34.112,20.937c-0.182,0.091 0.138,-0.092 0,0c-2.737,1.506 -5.02,2.144 -7.985,3.423c-0.275,0.091 -2.579,1.048 -2.852,1.14c-21.036,8.716 -42.493,9.48 -56.183,1.996c-4.29,-2.281 -8.154,-8.011 -10.71,-11.752c-0.912,-1.324 -1.734,-2.784 -2.372,-4.289l67.077,-38.696l17.704,10.221l10.359,5.979l10.04,5.794l9.034,5.247Z" style="fill:url(#_Linear4);"/><path d="M169.676,39.871l-0.045,0c-17.614,10.86 -62.315,36.251 -66.987,38.717c-41.076,21.685 -67.198,38.817 -67.041,38.707l0,-77.424c0.638,1.505 1.424,2.965 2.336,4.289c2.556,3.741 6.069,6.753 10.358,9.035c13.69,7.482 35.046,7.529 56.08,-1.187c0.275,-0.091 0.503,-0.228 0.776,-0.32c2.967,-1.277 5.842,-2.645 8.579,-4.152c0.137,-0.091 0.32,-0.183 0.503,-0.273c13.506,-6.571 25.553,-12.96 35.546,-18.847c18.252,-10.768 29.615,-19.757 30.436,-24.777c13.872,-2.327 22.907,-1.734 24.732,2.418c2.738,6.206 -11.27,18.983 -35.273,33.814Z" style="fill:url(#_Linear5);"/></g><defs><linearGradient id="_Linear1" x1="0" y1="0" x2="1" y2="0" gradientUnits="userSpaceOnUse" gradientTransform="matrix(134.083,0,0,134.083,35.6035,78.5873)"><stop offset="0" style="stop-color:#ef542b;stop-opacity:1"/><stop offset="1" style="stop-color:#d82426;stop-opacity:1"/></linearGradient><linearGradient id="_Linear2" x1="0" y1="0" x2="1" y2="0" gradientUnits="userSpaceOnUse" gradientTransform="matrix(2.36877e-09,-52.6403,52.6403,2.36877e-09,112.614,155.801)"><stop offset="0" style="stop-color:#ef542b;stop-opacity:1"/><stop offset="1" style="stop-color:#d82426;stop-opacity:1"/></linearGradient><linearGradient id="_Linear3" x1="0" y1="0" x2="1" y2="0" gradientUnits="userSpaceOnUse" gradientTransform="matrix(113.322,-66.8783,66.8783,113.322,62.4608,141.007)"><stop offset="0" style="stop-color:#ef542b;stop-opacity:1"/><stop offset="1" style="stop-color:#d82426;stop-opacity:1"/></linearGradient><linearGradient id="_Linear4" x1="0" y1="0" x2="1" y2="0" gradientUnits="userSpaceOnUse" gradientTransform="matrix(2.58772e-09,57.5056,-57.5056,2.58772e-09,92.6741,1.00072)"><stop offset="0" style="stop-color:#ef542b;stop-opacity:1"/><stop offset="1" style="stop-color:#d82426;stop-opacity:1"/></linearGradient><linearGradient id="_Linear5" x1="0" y1="0" x2="1" y2="0" gradientUnits="userSpaceOnUse" gradientTransform="matrix(-113.321,66.8781,-66.8781,-113.321,142.832,16.1756)"><stop offset="0" style="stop-color:#ef542b;stop-opacity:1"/><stop offset="1" style="stop-color:#d82426;stop-opacity:1"/></linearGradient></defs></svg>