<svg width="113" height="112" viewBox="0 0 113 112" fill="none" xmlns="http://www.w3.org/2000/svg">
<path d="M85.9001 21.0378C88.5872 21.7918 90.6871 23.8917 91.4412 26.5788L111.756 98.9704C113.98 106.899 104.219 112.612 98.3962 106.789L54.521 62.9135C54.5743 63.068 54.623 63.2247 54.667 63.3833L65.2799 101.656C67.4769 109.579 57.7276 115.264 51.914 109.45L29.5492 87.0857C29.6951 87.4222 29.8188 87.7709 29.9185 88.13L33.6169 101.458C35.8155 109.381 26.0656 115.068 20.2514 109.254L3.22488 92.2276C-2.58932 86.4134 3.09772 76.6634 11.0209 78.862L24.3489 82.5604C24.708 82.6601 25.0568 82.7838 25.3933 82.9297L3.02855 60.565C-2.78511 54.7513 2.90035 45.002 10.8231 47.199L49.0956 57.812C49.2543 57.856 49.4109 57.9047 49.5654 57.9579L5.69019 14.0827C-0.132731 8.25978 5.57993 -1.50151 13.5085 0.723389L85.9001 21.0378Z" fill="url(#paint0_linear)"/>
<defs>
<linearGradient id="paint0_linear" x1="135.676" y1="69.3639" x2="-98.8591" y2="107.329" gradientUnits="userSpaceOnUse">
<stop offset="0.136827" stop-color="#FF7A00"/>
<stop offset="1" stop-color="#FF0F00"/>
</linearGradient>
</defs>
</svg>
