<svg height="120" viewBox="0 0 132 120" width="132" xmlns="http://www.w3.org/2000/svg"><g fill="none" fill-rule="evenodd" transform=""><path d="m22.9806643 42.4160991-.0037151.0037151z"/><g fill-rule="nonzero"><path d="m74.4681356 73.3597523.0149152-.0631579 4.2172882-24.6018576z" fill="#264d63"/><path d="m104.928814 48.6390093-13.688475 24.6427244-25.8705085 46.6959753 25.8779661-46.7034056 13.6884744-24.6390093 14.948814-27.0204334z" fill="#264d63"/><path d="m105.394915.30092879-4.392542 7.99876161 4.396271-7.99876161z" fill="#264d63"/><path d="m22.980678 42.4160991 16.7759322-17.9405573z" fill="#264d63"/><path d="m26.5528814 48.9139319 18.5284745-14.6637771z" fill="#264d63"/><path d="m26.5528814 48.9139319-1.2454238-2.2588235 1.2416949 2.2588235 13.181356 24.1114551 2.140339 3.9306502-2.140339-3.9380805z" fill="#264d63"/><path d="m31.1728814 40.3616099 8.5837288-15.8860681 5.3247457 9.774613 10.3176272 18.9659443-10.3138984-18.9696595-5.3247457-9.7783281-13.2671187-24.16718271h-.0037288l13.2671187 24.17461301z" fill="#264d63"/><path d="m69.7922034 79.6160991.0633898.1114551 2.4833899 4.5510836z" fill="#264d63"/><path d="m87.3288136 33.1170279-8.6359322 15.5739938-9.6054238 17.6247678 9.6128814-17.6210527z" fill="#264d63"/><path d="m52.900678 97.2260062 12.4654237 22.7554178 6.8647458-35.1455107z" fill="#f16626"/><path d="m72.3389831 84.2786378-2.4833899-4.5510836-8.520339-15.6-8.4345762 33.098452 19.3301695-12.3900929z" fill="#f4802a"/><path d="m39.7305085 73.0179567 2.140339 3.9380805 11.0298305 20.269969 8.4345762-33.098452z" fill="#f89a2b"/><path d="m39.7305085 73.0179567 21.6047457-8.8904025-5.9362711-10.9114551-10.3176272-18.9659443z" fill="#f16626"/><path d="m74.4681356 73.3597523 4.2322034-24.6650155-9.6128814 17.6210527-3.2776271 6.0074303 3.9823729 7.2928793 2.5467797 4.6625387z" fill="#f7981d"/><path d="m26.5528814 48.9139319 13.1776271 24.1040248 5.3508474-38.7678019z" fill="#f89a2b"/><path d="m91.240339 73.2817337 13.688475-24.6427244-30.4457632 24.6575851z" fill="#f4802a"/><path d="m39.7566102 24.4755418-8.5837288 15.8860681-4.62 8.552322 18.5284745-14.6637771z" fill="#f5ae5a"/><path d="m74.4830508 73.2965944 17.5440678-48.6613003-4.698305 8.4817338-8.6284746 15.5777089z" fill="#f5ae5a"/><path d="m26.5528814 48.9139319 4.62-8.552322 8.5837288-15.8860681-16.7759322 17.9405573-.0037288.0037151 2.3305084 4.2352942z" fill="#cc4d27"/><path d="m104.928814 48.6390093-12.9016954-24.0037152-17.5440678 48.6613003z" fill="#f16739"/><path d="m22.980678 42.4160991 16.7759322-17.9405573-13.2671187-24.17461301v-.00371517l-3.5125423 42.12260058z" fill="#f16739"/><path d="m104.928814 48.6390093.46983-48.33808051v-.00371517.00371517l-4.396271 7.99876161-8.9752544 16.3356037z" fill="#f89a2b"/><path d="m26.4894915.29721362h-26.39627116l22.88372886 42.12260058z" fill="#f89a2b"/><path d="m105.398644.29721362v.00371517l-.46983 48.33808051 14.956271-27.0241486 11.797966-21.31764708z" fill="#cc4d27"/><path d="m74.4830508 73.2965944-.0149152.0631579-2.1291525 10.9188855-.1081356.5572755-6.8647458 35.1455107.0037288-.003715 25.8705085-46.6959753z" fill="#cc4d27"/></g></g></svg>