<svg width="146" height="133" viewBox="0 0 146 133" fill="none" xmlns="http://www.w3.org/2000/svg">
<path d="M92.5792 36.148L83.9437 51.7211L83.9402 51.7274L83.9368 51.7337L72.809 72.1462L70.0921 67.1718L70.0905 67.1689L48.5172 27.5124L48.5135 27.5057L35.2464 3.33847L34.6769 2.30103L33.4934 2.30093L33.4899 2.30093H33.4898L7.09354 2.29721L3.73039 2.29674L5.33586 5.25195L28.2196 47.3746L28.2247 47.384L30.5547 51.6186L30.5551 51.6193L30.5559 51.6208L31.7942 53.8733L31.7964 53.8774L44.9737 77.9814L44.9755 77.9848L58.1439 102.182L58.1468 102.187L70.616 124.939L72.3603 128.122L74.1193 124.947L99.9962 78.2456L99.9972 78.2436L113.685 53.6066L113.686 53.6035L128.627 26.5972L128.635 26.5833L128.635 26.583L140.433 5.26565L142.076 2.29721H138.683H112.399H111.215L110.646 3.33418L97.2777 27.6661L97.2743 27.6723L92.5797 36.1471L92.5793 36.1479L92.5792 36.148Z" stroke="rgba(255,255,255,0.8)" stroke-width="4"/>
<path d="M111.929 52.639L98.2404 77.2817L72.3699 123.978L98.2478 77.2743L111.936 52.6353L126.885 25.6149L111.929 52.639Z" fill="#264D63"/>
<path d="M112.395 4.30093L108.002 12.2997L112.399 4.30093H112.395Z" fill="#264D63"/>
<path d="M29.9807 46.4161L46.7566 28.4755L29.9807 46.4161Z" fill="#264D63"/>
<path d="M33.553 52.9139L52.0815 38.2502L33.553 52.9139Z" fill="#264D63"/>
<path d="M33.5528 52.9139L32.3074 50.6551L33.5491 52.9139L46.7304 77.0254L48.8708 80.956L46.7304 77.018L33.5528 52.9139Z" fill="#264D63"/>
<path d="M38.1729 44.3616L46.7566 28.4755L52.0814 38.2502L62.399 57.2161L52.0851 38.2464L46.7603 28.4681L33.4932 4.30093H33.4895L46.7566 28.4755L38.1729 44.3616Z" fill="#264D63"/>
<path d="M94.3288 37.117L85.6928 52.691L76.0874 70.3158L85.7003 52.6947L94.3288 37.117Z" fill="#264D63"/>
<path d="M59.9006 101.226L72.3661 123.981L79.2308 88.8359L59.9006 101.226Z" fill="#F16626"/>
<path d="M79.3389 88.2786L76.8555 83.7276L68.3352 68.1276L59.9006 101.226L79.2308 88.8359L79.3389 88.2786Z" fill="#F4802A"/>
<path d="M46.7305 77.018L48.8708 80.956L59.9006 101.226L68.3352 68.1276L46.7305 77.018Z" fill="#F89A2B"/>
<path d="M46.7305 77.018L68.3352 68.1276L62.3989 57.2161L52.0813 38.2502L46.7305 77.018Z" fill="#F16626"/>
<path d="M81.4681 77.3597L85.7003 52.6947L76.0874 70.3158L72.8098 76.3232L76.7922 83.6161L79.339 88.2786L81.4681 77.3597Z" fill="#F7981D"/>
<path d="M33.553 52.9139L46.7306 77.018L52.0815 38.2502L33.553 52.9139Z" fill="#F89A2B"/>
<path d="M98.2404 77.2817L111.929 52.639L81.4832 77.2966L98.2404 77.2817Z" fill="#F4802A"/>
<path d="M46.7567 28.4755L38.173 44.3616L33.553 52.9139L52.0815 38.2502L46.7567 28.4755Z" fill="#F5AE5A"/>
<path d="M81.4832 77.2966L99.0272 28.6353L94.3289 37.117L85.7004 52.6947L81.4832 77.2966Z" fill="#F5AE5A"/>
<path d="M33.553 52.9139L38.173 44.3616L46.7567 28.4755L29.9808 46.4161L29.9771 46.4198L32.3076 50.6551L33.553 52.9139Z" fill="#CC4D27"/>
<path d="M111.929 52.639L99.0272 28.6353L81.4832 77.2966L111.929 52.639Z" fill="#F16739"/>
<path d="M29.9808 46.4161L46.7567 28.4755L33.4896 4.30093V4.29721L29.9771 46.4198L29.9808 46.4161Z" fill="#F16739"/>
<path d="M111.929 52.639L112.399 4.30093V4.29721V4.30093L108.002 12.2997L99.0271 28.6353L111.929 52.639Z" fill="#F89A2B"/>
<path d="M33.4895 4.29721H7.09326L29.977 46.4198L33.4895 4.29721Z" fill="#F89A2B"/>
<path d="M112.399 4.29721V4.30093L111.929 52.639L126.885 25.6149L138.683 4.29721H112.399Z" fill="#CC4D27"/>
<path d="M81.4832 77.2966L81.4682 77.3597L79.3391 88.2786L79.231 88.8359L72.3662 123.981L72.3699 123.978L98.2404 77.2817L81.4832 77.2966Z" fill="#CC4D27"/>
</svg>
