<?xml version="1.0" encoding="UTF-8"?>
<svg width="132px" height="120px" viewBox="0 0 132 120" version="1.1" xmlns="http://www.w3.org/2000/svg" xmlns:xlink="http://www.w3.org/1999/xlink">
    <!-- Generator: Sketch 50.2 (55047) - http://www.bohemiancoding.com/sketch -->
    <title>vitess-orange-logos-01</title>
    <desc>Created with Sketch.</desc>
    <defs></defs>
    <g id="Page-1" stroke="none" stroke-width="1" fill="none" fill-rule="evenodd">
        <g id="homepage" transform="translate(-337.000000, -672.000000)">
            <g id="vitess-orange-logos-01" transform="translate(337.000000, 672.000000)">
                <polygon id="Shape" points="22.9806643 42.4160991 22.9769492 42.4198142 22.9769492 42.4198142 22.9806643 42.4160991"></polygon>
                <polygon id="Shape" fill="#264D63" fill-rule="nonzero" points="74.4681356 73.3597523 74.4830508 73.2965944 78.700339 48.6947368"></polygon>
                <polygon id="Shape" fill="#264D63" fill-rule="nonzero" points="104.928814 48.6390093 91.240339 73.2817337 65.3698305 119.977709 65.3698305 119.977709 91.2477966 73.2743034 104.936271 48.6352941 119.885085 21.6148607 104.928814 48.6390093"></polygon>
                <polygon id="Shape" fill="#264D63" fill-rule="nonzero" points="105.394915 0.300928793 101.002373 8.2996904 105.398644 0.300928793"></polygon>
                <polygon id="Shape" fill="#264D63" fill-rule="nonzero" points="22.980678 42.4160991 39.7566102 24.4755418 22.980678 42.4160991"></polygon>
                <polygon id="Shape" fill="#264D63" fill-rule="nonzero" points="26.5528814 48.9139319 26.5528814 48.9139319 45.0813559 34.2501548"></polygon>
                <polygon id="Shape" fill="#264D63" fill-rule="nonzero" points="26.5528814 48.9139319 25.3074576 46.6551084 26.5491525 48.9139319 39.7305085 73.025387 41.8708475 76.9560372 39.7305085 73.0179567"></polygon>
                <polygon id="Shape" fill="#264D63" fill-rule="nonzero" points="31.1728814 40.3616099 39.7566102 24.4755418 45.0813559 34.2501548 55.3989831 53.2160991 45.0850847 34.2464396 39.760339 24.4681115 26.4932203 0.300928793 26.4894915 0.300928793 39.7566102 24.4755418"></polygon>
                <polygon id="Shape" fill="#264D63" fill-rule="nonzero" points="69.7922034 79.6160991 69.8555932 79.7275542 72.3389831 84.2786378"></polygon>
                <polygon id="Shape" fill="#264D63" fill-rule="nonzero" points="87.3288136 33.1170279 78.6928814 48.6910217 69.0874576 66.3157895 78.700339 48.6947368"></polygon>
                <polygon id="Shape" fill="#F16626" fill-rule="nonzero" points="52.900678 97.2260062 65.3661017 119.981424 72.2308475 84.8359133"></polygon>
                <polygon id="Shape" fill="#F4802A" fill-rule="nonzero" points="72.3389831 84.2786378 69.8555932 79.7275542 61.3352542 64.1275542 52.900678 97.2260062 72.2308475 84.8359133"></polygon>
                <polygon id="Shape" fill="#F89A2B" fill-rule="nonzero" points="39.7305085 73.0179567 41.8708475 76.9560372 52.900678 97.2260062 61.3352542 64.1275542"></polygon>
                <polygon id="Shape" fill="#F16626" fill-rule="nonzero" points="39.7305085 73.0179567 61.3352542 64.1275542 55.3989831 53.2160991 45.0813559 34.2501548"></polygon>
                <polygon id="Shape" fill="#F7981D" fill-rule="nonzero" points="74.4681356 73.3597523 78.700339 48.6947368 69.0874576 66.3157895 65.8098305 72.3232198 69.7922034 79.6160991 72.3389831 84.2786378"></polygon>
                <polygon id="Shape" fill="#F89A2B" fill-rule="nonzero" points="26.5528814 48.9139319 39.7305085 73.0179567 45.0813559 34.2501548"></polygon>
                <polygon id="Shape" fill="#F4802A" fill-rule="nonzero" points="91.240339 73.2817337 104.928814 48.6390093 74.4830508 73.2965944"></polygon>
                <polygon id="Shape" fill="#F5AE5A" fill-rule="nonzero" points="39.7566102 24.4755418 31.1728814 40.3616099 26.5528814 48.9139319 45.0813559 34.2501548"></polygon>
                <polygon id="Shape" fill="#F5AE5A" fill-rule="nonzero" points="74.4830508 73.2965944 92.0271186 24.6352941 87.3288136 33.1170279 78.700339 48.6947368"></polygon>
                <polygon id="Shape" fill="#CC4D27" fill-rule="nonzero" points="26.5528814 48.9139319 31.1728814 40.3616099 39.7566102 24.4755418 22.980678 42.4160991 22.9769492 42.4198142 25.3074576 46.6551084 26.5528814 48.9139319"></polygon>
                <polygon id="Shape" fill="#F16739" fill-rule="nonzero" points="104.928814 48.6390093 92.0271186 24.6352941 92.0271186 24.6352941 74.4830508 73.2965944"></polygon>
                <polygon id="Shape" fill="#F16739" fill-rule="nonzero" points="22.980678 42.4160991 39.7566102 24.4755418 26.4894915 0.300928793 26.4894915 0.297213622 26.4894915 0.297213622 22.9769492 42.4198142"></polygon>
                <polygon id="Shape" fill="#F89A2B" fill-rule="nonzero" points="104.928814 48.6390093 105.398644 0.300928793 105.398644 0.297213622 105.398644 0.300928793 101.002373 8.2996904 92.0271186 24.6352941 92.0271186 24.6352941 104.928814 48.6390093"></polygon>
                <polygon id="Shape" fill="#F89A2B" fill-rule="nonzero" points="26.4894915 0.297213622 0.093220339 0.297213622 22.9769492 42.4198142 22.9769492 42.4198142"></polygon>
                <polygon id="Shape" fill="#CC4D27" fill-rule="nonzero" points="105.398644 0.297213622 105.398644 0.300928793 104.928814 48.6390093 119.885085 21.6148607 131.683051 0.297213622"></polygon>
                <polygon id="Shape" fill="#CC4D27" fill-rule="nonzero" points="74.4830508 73.2965944 74.4681356 73.3597523 72.3389831 84.2786378 72.2308475 84.8359133 65.3661017 119.981424 65.3698305 119.977709 91.240339 73.2817337"></polygon>
            </g>
        </g>
    </g>
</svg>