<svg width="32" height="32" viewBox="0 0 32 32" fill="none" xmlns="http://www.w3.org/2000/svg">
  <path className='icon-color-secondary' d="M20 26C20 28.2091 18.2091 30 16 30C13.7909 30 12 28.2091 12 26"
    stroke="currentColor" stroke-width="2" />
  <path className='icon-color-secondary' d="M5 21H19" stroke="currentColor" stroke-width="2" stroke-linecap="round"
    stroke-linejoin="round" />
  <circle className='icon-color-secondary' cx="23" cy="21" r="1" fill="currentColor" />
  <path
    d="M26 14.6667V17.6374C26 17.8772 26.0431 18.1151 26.1273 18.3396L27.9866 23.2977C28.477 24.6052 27.5104 26 26.114 26H5.886C4.48959 26 3.52303 24.6052 4.01334 23.2977L5.94952 18.1346C5.9829 18.0456 6 17.9513 6 17.8562V12C6 6.4771 10.4772 1.99995 16 1.99995V1.99995C16.9411 1.99531 17.7812 2.10156 19 2.45312"
    stroke="currentColor" stroke-width="2" stroke-linecap="round" stroke-linejoin="round" />
  <g class='text-blue'>
    <circle className='icon-color-secondary' cx="24" cy="8" r="4" fill="currentColor" />
  </g>
</svg>