<svg width="24" height="24" viewBox="0 0 24 24" fill="none" xmlns="http://www.w3.org/2000/svg">
  <path
    d="M2.25 5.75C2.25 4.64543 3.14543 3.75 4.25 3.75H10C11.1046 3.75 12 4.64543 12 5.75V6.75V21L11.9338 20.8013C11.5254 19.5763 10.379 18.75 9.08772 18.75H8.25H4.25C3.14543 18.75 2.25 17.8546 2.25 16.75V5.75Z"
    stroke="currentColor" stroke-width="1.5" stroke-linejoin="round" />
  <path
    d="M21.75 5.75C21.75 4.64543 20.8546 3.75 19.75 3.75H15C13.3431 3.75 12 5.09315 12 6.75V6.75V21L12.0662 20.8013C12.4746 19.5763 13.621 18.75 14.9123 18.75H15.75H19.75C20.8546 18.75 21.75 17.8546 21.75 16.75V5.75Z"
    stroke="currentColor" stroke-width="1.5" stroke-linejoin="round" />
</svg>