<svg width="16" height="16" viewBox="0 0 16 16" fill="none" xmlns="http://www.w3.org/2000/svg">
  <path
    d="M9 1.5C8.17157 1.5 7.5 2.17157 7.5 3V6C7.5 6.82843 8.17157 7.5 9 7.5H12C12.8284 7.5 13.5 6.82843 13.5 6V3C13.5 2.17157 12.8284 1.5 12 1.5H9Z"
    stroke="currentColor" />
  <path d="M10.5 7.5V8.5C10.5 9.60457 9.60457 10.5 8.5 10.5V10.5" stroke="currentColor" stroke-linecap="round" />
  <path className='icon-color-secondary' fill-rule="evenodd" clip-rule="evenodd"
    d="M4.5 3C4.77614 3 5 3.22386 5 3.5V8H5.5C6.32843 8 7 8.67157 7 9.5V11.5C7 12.3284 6.32843 13 5.5 13H5V14.5C5 14.7761 4.77614 15 4.5 15C4.22386 15 4 14.7761 4 14.5V13H3.5C2.67157 13 2 12.3284 2 11.5V9.5C2 8.67157 2.67157 8 3.5 8H4V3.5C4 3.22386 4.22386 3 4.5 3ZM4.5 12H5.5C5.77614 12 6 11.7761 6 11.5V9.5C6 9.22386 5.77614 9 5.5 9H4.5H3.5C3.22386 9 3 9.22386 3 9.5V11.5C3 11.7761 3.22386 12 3.5 12H4.5Z"
    fill="currentColor" />
</svg>