<svg width="24" height="24" viewBox="0 0 24 24" fill="none" xmlns="http://www.w3.org/2000/svg">
  <path
    d="M12 4C12 2.89543 12.8954 2 14 2H18C19.1046 2 20 2.89543 20 4V8C20 9.10457 19.1046 10 18 10H14C12.8954 10 12 9.10457 12 8V4Z"
    stroke="currentColor" stroke-width="1.5" />
  <path d="M16 10V14C16 15.1046 15.1046 16 14 16H12.5" stroke="currentColor" stroke-width="1.5"
    stroke-linecap="round" />
  <path className='icon-color-secondary' fill-rule="evenodd" clip-rule="evenodd"
    d="M7 4.25C7.41421 4.25 7.75 4.58579 7.75 5V12.25H8.5C9.74264 12.25 10.75 13.2574 10.75 14.5V17.5C10.75 18.7426 9.74264 19.75 8.5 19.75H7.75V22C7.75 22.4142 7.41421 22.75 7 22.75C6.58579 22.75 6.25 22.4142 6.25 22V19.75H5.5C4.25736 19.75 3.25 18.7426 3.25 17.5V14.5C3.25 13.2574 4.25736 12.25 5.5 12.25H6.25V5C6.25 4.58579 6.58579 4.25 7 4.25ZM7 18.25H8.5C8.91421 18.25 9.25 17.9142 9.25 17.5V14.5C9.25 14.0858 8.91421 13.75 8.5 13.75H7H5.5C5.08579 13.75 4.75 14.0858 4.75 14.5V17.5C4.75 17.9142 5.08579 18.25 5.5 18.25H7Z"
    fill="currentColor" />
</svg>