<svg width="32" height="32" viewBox="0 0 32 32" fill="none" xmlns="http://www.w3.org/2000/svg">
  <path className='icon-color-secondary' d="M12 24H20" stroke="currentColor" stroke-width="2" stroke-linecap="round" />
  <path className='icon-color-tertiary' d="M12 27H20" stroke="currentColor" stroke-width="2" stroke-linecap="round" />
  <path
    d="M15.9998 1.99993C10.3635 1.99993 5.99997 6.59369 5.99997 11.9999C5.99997 14.4999 6.49997 16.9999 8.99997 19.4999C11.0593 21.5593 12 22.9406 12 25L12 28.0006C12 29.1052 12.8954 30 14 30L17.9999 29.9999C19.1045 29.9999 20 29.1051 20 28.0005L20 25C20 22.9406 20.9406 21.5593 23 19.4999C25.5 16.9999 26 14.4999 26 11.9999C26 6.59369 21.6361 1.99993 15.9998 1.99993Z"
    stroke="currentColor" stroke-width="2" stroke-linejoin="round" />
  <path className='icon-color-tertiary'
    d="M21 12C21 12.5523 21.4477 13 22 13C22.5523 13 23 12.5523 23 12H21ZM16 5C15.4477 5 15 5.44772 15 6C15 6.55228 15.4477 7 16 7V5ZM16 7C18.7614 7 21 9.23858 21 12H23C23 8.13401 19.866 5 16 5V7Z"
    fill="currentColor" />
</svg>