<svg width="16" height="16" viewBox="0 0 16 16" fill="none" xmlns="http://www.w3.org/2000/svg">
  <path className='icon-color-secondary' d="M6 12H10" stroke="currentColor" stroke-linecap="round" />
  <path
    d="M7.99983 1.00005C5.26293 1.00005 2.99992 3.21877 2.99992 5.95568C2.99992 7.25518 3.44524 8.50005 4.44524 9.50005C5.44524 10.5001 5.99993 11.0001 5.99993 12.0001L5.99993 13.5003C5.99994 14.0526 6.44765 14.5 6.99993 14.5L7.99987 14.5L8.99989 14.5C9.55219 14.5 9.99992 14.0526 9.9999 13.5003L9.9999 12.0001C9.99993 11.0001 10.5546 10.5001 11.5546 9.50006C12.5546 8.50005 12.9999 7.25695 12.9999 5.95568C12.9999 3.21877 10.7367 1.00006 7.99983 1.00005Z"
    stroke="currentColor" stroke-linejoin="round" />
  <path className='icon-color-tertiary'
    d="M10.5 6C10.5 6.27614 10.7239 6.5 11 6.5C11.2761 6.5 11.5 6.27614 11.5 6H10.5ZM8 2.5C7.72386 2.5 7.5 2.72386 7.5 3C7.5 3.27614 7.72386 3.5 8 3.5V2.5ZM8 3.5C9.38071 3.5 10.5 4.61929 10.5 6H11.5C11.5 4.067 9.933 2.5 8 2.5V3.5Z"
    fill="currentColor" />
</svg>