<svg width="24" height="24" viewBox="0 0 24 24" fill="none" xmlns="http://www.w3.org/2000/svg">
  <path className='icon-color-secondary' d="M9 18H15" stroke="currentColor" stroke-width="1.5" stroke-linecap="round" />
  <path
    d="M12 1.99994C7.89459 1.99994 4.50008 5.32801 4.50008 9.43337C4.50008 11.3826 5.16806 13.2499 6.66806 14.7499C8.16806 16.2499 9.00009 16.9999 9.00009 18.4999L9.00011 20.0001C9.00014 21.1047 9.89556 21.9999 11.0001 21.9999L12.0001 21.9999L13 21.9999C14.1046 21.9999 15.0001 21.1045 15.0001 19.9999L15.0001 18.4999C15.0001 16.9999 15.8321 16.2499 17.3321 14.7499C18.8321 13.2499 19.5001 11.3853 19.5001 9.43337C19.5001 5.32801 16.1053 1.99994 12 1.99994Z"
    stroke="currentColor" stroke-width="1.5" stroke-linejoin="round" />
  <path className='icon-color-tertiary'
    d="M15.75 9C15.75 9.41421 16.0858 9.75 16.5 9.75C16.9142 9.75 17.25 9.41421 17.25 9H15.75ZM12 3.75C11.5858 3.75 11.25 4.08579 11.25 4.5C11.25 4.91421 11.5858 5.25 12 5.25V3.75ZM12 5.25C14.0711 5.25 15.75 6.92893 15.75 9H17.25C17.25 6.1005 14.8995 3.75 12 3.75V5.25Z"
    fill="currentColor" />
</svg>