<svg width="16" height="16" viewBox="0 0 16 16" fill="none" xmlns="http://www.w3.org/2000/svg">
  <path fill-rule="evenodd" clip-rule="evenodd"
    d="M3.5 2.5C3.22386 2.5 3 2.72386 3 3V13.5C3 13.7761 3.22386 14 3.5 14H12.5C12.7761 14 13 13.7761 13 13.5V3C13 2.72386 12.7761 2.5 12.5 2.5H11C11 2.5 11 2.25391 11 2C11 1.71484 10.9102 1.5 10.9102 1.5H12.5C13.3284 1.5 14 2.17157 14 3V13.5C14 14.3284 13.3284 15 12.5 15H3.5C2.67157 15 2 14.3284 2 13.5V3C2 2.17157 2.67157 1.5 3.5 1.5H5.08984C5.08984 1.5 5 1.72656 5 2C5 2.27344 5 2.5 5 2.5H3.5Z"
    fill="currentColor" />
  <path className='icon-color-secondary'
    d="M9.5 1H6.5C5.94772 1 5.5 1.44772 5.5 2V3C5.5 3.55228 5.94772 4 6.5 4H9.5C10.0523 4 10.5 3.55228 10.5 3V2C10.5 1.44772 10.0523 1 9.5 1Z"
    stroke="currentColor" />
  <path d="M10.5 7L7.0016 10.4979L5.5 9" stroke="currentColor" stroke-linecap="round" stroke-linejoin="round" />
</svg>