<svg width="32" height="32" viewBox="0 0 32 32" fill="none" xmlns="http://www.w3.org/2000/svg">
  <path className='icon-color-tertiary' fill-rule="evenodd" clip-rule="evenodd"
    d="M21.2937 8.79237C21.9114 9.08801 22.4122 9.58883 22.7079 10.2066L24.9683 7.94621C24.3858 7.60204 23.8982 7.11443 23.5541 6.53198L21.2937 8.79237ZM21.2936 22.2077C21.9114 21.912 22.4122 21.4112 22.7078 20.7935L24.9683 23.0539C24.3858 23.3981 23.8982 23.8857 23.5541 24.4681L21.2936 22.2077ZM10.7068 8.79238L8.44644 6.53202C8.10228 7.11446 7.61467 7.60207 7.03223 7.94623L9.2926 10.2066C9.58823 9.58885 10.089 9.08802 10.7068 8.79238ZM9.47141 21.1147C9.84034 21.6913 10.4011 22.1334 11.0636 22.3509L8.61964 24.7949C8.32826 24.1775 7.88354 23.6466 7.33461 23.2515L9.47141 21.1147Z"
    fill="currentColor" />
  <path className='icon-color-secondary' fill-rule="evenodd" clip-rule="evenodd"
    d="M9 11.5C9 9.84315 10.3431 8.5 12 8.5H20C21.6569 8.5 23 9.84315 23 11.5V19.5C23 21.1569 21.6569 22.5 20 22.5H12C10.3431 22.5 9 21.1569 9 19.5V11.5ZM12 10.5C11.4477 10.5 11 10.9477 11 11.5V19.5C11 20.0523 11.4477 20.5 12 20.5H20C20.5523 20.5 21 20.0523 21 19.5V11.5C21 10.9477 20.5523 10.5 20 10.5H12Z"
    fill="currentColor" />
  <path
    d="M5 0.5C7.20914 0.5 9 2.29086 9 4.5C9 6.70914 7.20914 8.5 5 8.5C2.79086 8.5 1 6.70914 1 4.5C1 2.29086 2.79086 0.5 5 0.5Z"
    fill="currentColor" />
  <path
    d="M27 30.5C24.7909 30.5 23 28.7091 23 26.5C23 24.2909 24.7909 22.5 27 22.5C29.2091 22.5 31 24.2909 31 26.5C31 28.7091 29.2091 30.5 27 30.5Z"
    fill="currentColor" />
  <path
    d="M23 4.5C23 2.29086 24.7909 0.5 27 0.5C29.2091 0.5 31 2.29086 31 4.5C31 6.70914 29.2091 8.5 27 8.5C24.7909 8.5 23 6.70914 23 4.5Z"
    fill="currentColor" />
  <path
    d="M5 30.5C7.20914 30.5 9 28.7091 9 26.5C9 24.2909 7.20914 22.5 5 22.5C2.79086 22.5 1 24.2909 1 26.5C1 28.7091 2.79086 30.5 5 30.5Z"
    fill="currentColor" />
</svg>