<svg width="24" height="24" viewBox="0 0 24 24" fill="none" xmlns="http://www.w3.org/2000/svg">
  <path className='icon-color-secondary' fill-rule="evenodd" clip-rule="evenodd"
    d="M7.25 9.5C7.25 8.25736 8.25736 7.25 9.5 7.25H14.5C15.7426 7.25 16.75 8.25736 16.75 9.5V14.5C16.75 15.7426 15.7426 16.75 14.5 16.75H9.5C8.25736 16.75 7.25 15.7426 7.25 14.5V9.5ZM9.5 8.75C9.08579 8.75 8.75 9.08579 8.75 9.5V14.5C8.75 14.9142 9.08579 15.25 9.5 15.25H14.5C14.9142 15.25 15.25 14.9142 15.25 14.5V9.5C15.25 9.08579 14.9142 8.75 14.5 8.75H9.5Z"
    fill="currentColor" />
  <path
    d="M3.5 1C4.88071 1 6 2.11929 6 3.5C6 4.88071 4.88071 6 3.5 6C2.11929 6 1 4.88071 1 3.5C1 2.11929 2.11929 1 3.5 1Z"
    fill="currentColor" />
  <path
    d="M20.5 23C19.1193 23 18 21.8807 18 20.5C18 19.1193 19.1193 18 20.5 18C21.8807 18 23 19.1193 23 20.5C23 21.8807 21.8807 23 20.5 23Z"
    fill="currentColor" />
  <path
    d="M18 3.5C18 2.11929 19.1193 1 20.5 1C21.8807 1 23 2.11929 23 3.5C23 4.88071 21.8807 6 20.5 6C19.1193 6 18 4.88071 18 3.5Z"
    fill="currentColor" />
  <path
    d="M3.5 23C4.88071 23 6 21.8807 6 20.5C6 19.1193 4.88071 18 3.5 18C2.11929 18 1 19.1193 1 20.5C1 21.8807 2.11929 23 3.5 23Z"
    fill="currentColor" />
  <g className='icon-color-tertiary'>
    <path
      d="M4.65625 5.71703L7.46914 8.52992C7.69086 8.0666 8.06648 7.69098 8.5298 7.46926L5.71691 4.65637C5.48027 5.10913 5.10901 5.48039 4.65625 5.71703Z"
      fill="currentColor" />
    <path
      d="M18.2828 19.3436C18.5195 18.8908 18.8907 18.5196 19.3435 18.2829L16.5306 15.47C16.3089 15.9334 15.9333 16.309 15.4699 16.5307L18.2828 19.3436Z"
      fill="currentColor" />
    <path
      d="M18.2828 4.65638L15.4699 7.46926C15.9333 7.69099 16.3089 8.06661 16.5306 8.52993L19.3435 5.71704C18.8907 5.4804 18.5195 5.10914 18.2828 4.65638Z"
      fill="currentColor" />
    <path
      d="M5.71691 19.3436C5.48027 18.8908 5.10901 18.5196 4.65625 18.2829L7.46914 15.47C7.69086 15.9334 8.06648 16.309 8.5298 16.5307L5.71691 19.3436Z"
      fill="currentColor" />
  </g>
</svg>