<svg width="16" height="16" viewBox="0 0 16 16" fill="none" xmlns="http://www.w3.org/2000/svg">
  <path className='icon-color-secondary' fill-rule="evenodd" clip-rule="evenodd"
    d="M3.1465 3.85382L4.77671 5.48407C4.60079 5.78181 4.49984 6.12911 4.49984 6.49998V9.49998C4.49984 9.87086 4.60079 10.2182 4.77671 10.5159L3.14648 12.1461C3.45537 12.2939 3.70579 12.5443 3.85362 12.8532L5.4838 11.223C5.78157 11.399 6.12891 11.5 6.49984 11.5H9.49984C9.87076 11.5 10.2181 11.399 10.5159 11.2231L12.1461 12.8532C12.2939 12.5443 12.5443 12.2939 12.8532 12.1461L11.223 10.5159C11.3989 10.2182 11.4998 9.87087 11.4998 9.49998V6.49998C11.4998 6.12904 11.3989 5.78169 11.2229 5.48392L12.853 3.85376C12.5442 3.70592 12.2938 3.4555 12.146 3.14661L10.5157 4.77685C10.218 4.60093 9.87071 4.49998 9.49984 4.49998H6.49984C6.12891 4.49998 5.78156 4.60096 5.48378 4.77693L3.85363 3.14674C3.7058 3.45561 3.45538 3.70602 3.1465 3.85382ZM6.49984 5.49998C5.94755 5.49998 5.49984 5.9477 5.49984 6.49998V9.49998C5.49984 10.0523 5.94755 10.5 6.49984 10.5H9.49984C10.0521 10.5 10.4998 10.0523 10.4998 9.49998V6.49998C10.4998 5.9477 10.0521 5.49998 9.49984 5.49998H6.49984Z"
    fill="currentColor" />
  <path
    d="M2.5 1C3.32843 1 4 1.67157 4 2.5C4 3.32843 3.32843 4 2.5 4C1.67157 4 1 3.32843 1 2.5C1 1.67157 1.67157 1 2.5 1Z"
    fill="currentColor" />
  <path
    d="M13.5 15C12.6716 15 12 14.3284 12 13.5C12 12.6716 12.6716 12 13.5 12C14.3284 12 15 12.6716 15 13.5C15 14.3284 14.3284 15 13.5 15Z"
    fill="currentColor" />
  <path
    d="M12 2.5C12 1.67157 12.6716 1 13.5 1C14.3284 1 15 1.67157 15 2.5C15 3.32843 14.3284 4 13.5 4C12.6716 4 12 3.32843 12 2.5Z"
    fill="currentColor" />
  <path
    d="M2.5 15C3.32843 15 4 14.3284 4 13.5C4 12.6716 3.32843 12 2.5 12C1.67157 12 1 12.6716 1 13.5C1 14.3284 1.67157 15 2.5 15Z"
    fill="currentColor" />
</svg>