<svg xmlns="http://www.w3.org/2000/svg" width="24" height="24" fill="none" viewBox="0 0 24 24">
  <path className='icon-color-tertiary' stroke="currentColor" stroke-width="1.5" d="M5.586 10.025l4.3-2.695a4 4 0 014.246 0l4.307 2.695"/>
  <path className='icon-color-secondary' stroke="currentColor" stroke-linecap="round" stroke-width="1.5" d="M3.734 13.234l6.086 3.92a4 4 0 004.33 0l6.094-3.92"/>
  <path stroke="currentColor" stroke-linecap="round" stroke-width="1.5" d="M3.734 17.422L9.82 21.34a4 4 0 004.33 0l6.094-3.92"/>
  <path stroke="currentColor" stroke-width="1.499" d="M4.637 9.214a2 2 0 01.034-3.375l5.745-3.573a3 3 0 013.168 0L19.33 5.84a2 2 0 01.034 3.375l-5.728 3.723a3 3 0 01-3.27 0L4.637 9.214z"/>
</svg>
