<svg width="24" height="24" viewBox="0 0 24 24" fill="none" xmlns="http://www.w3.org/2000/svg">
  <path className='icon-color-secondary'
    d="M6.75 19H6C3.51472 19 1.5 16.9853 1.5 14.5C1.5 12.0147 3.51472 10 6 10C6.56234 10 7.10058 10.1031 7.59685 10.2916C8.17474 6.72399 11.2693 4 15 4C19.1421 4 22.5 7.35786 22.5 11.5C22.5 15.389 19.54 18.5867 15.75 18.963"
    stroke="currentColor" stroke-width="1.5" stroke-linecap="round" stroke-linejoin="round" />
  <path
    d="M10.5 19C10.5 19.4142 10.1642 19.75 9.75 19.75C9.33579 19.75 9 19.4142 9 19C9 18.5858 9.33579 18.25 9.75 18.25C10.1642 18.25 10.5 18.5858 10.5 19Z"
    fill="currentColor" />
  <path
    d="M13.5 19C13.5 19.4142 13.1642 19.75 12.75 19.75C12.3358 19.75 12 19.4142 12 19C12 18.5858 12.3358 18.25 12.75 18.25C13.1642 18.25 13.5 18.5858 13.5 19Z"
    fill="currentColor" />
</svg>