<svg width="32" height="32" viewBox="0 0 32 32" fill="none" xmlns="http://www.w3.org/2000/svg">
  <path
    d="M29.2539 14.8975C29.7145 15.5606 29.7145 16.4394 29.2539 17.1025C27.0586 20.263 23.1083 25 16 25C8.89169 25 4.94138 20.263 2.74608 17.1025C2.28547 16.4394 2.28546 15.5606 2.74608 14.8975C4.94138 11.737 8.89169 7 16 7C23.1083 7 27.0586 11.737 29.2539 14.8975Z"
    stroke="currentColor" stroke-width="2" stroke-linejoin="round" />
  <path
    d="M20 16C20 18.2091 18.2091 20 16 20C13.7909 20 12 18.2091 12 16C12 13.7909 13.7909 12 16 12C18.2091 12 20 13.7909 20 16Z"
    fill="currentColor" />
</svg>