<svg width="16" height="16" viewBox="0 0 16 16" fill="none" xmlns="http://www.w3.org/2000/svg">
  <path
    d="M4.44731 4.43527C3.00605 5.26895 2.03186 6.50033 1.37339 7.44825C1.14307 7.77981 1.14273 8.21969 1.37304 8.55125C2.47069 10.1315 4.44584 12.5 8 12.5C9.42854 12.5 10.602 12.1174 11.5659 11.5571M13.2167 10.2714C13.3068 10.1815 13.394 10.0909 13.4783 10C13.9405 9.50184 14.3181 8.99589 14.6264 8.55207C14.8567 8.22051 14.8573 7.78031 14.627 7.44875C13.5293 5.8685 11.5542 3.5 8 3.5C7.48865 3.5 7.00999 3.54903 6.56192 3.63768"
    stroke="currentColor" stroke-linecap="round" stroke-linejoin="round" />
  <path
    d="M6 8.00003C6 9.1046 6.89543 10 8 10C8.55028 10 9.04866 9.77779 9.41027 9.41818L6.58579 6.58582C6.22386 6.94774 6 7.44774 6 8.00003Z"
    fill="currentColor" />
  <path d="M13.5 13.5L2.5 2.5" stroke="currentColor" stroke-linecap="round" stroke-linejoin="round" />
</svg>