<svg width="24" height="24" viewBox="0 0 24 24" fill="none" xmlns="http://www.w3.org/2000/svg">
  <path
    d="M6.67097 6.6529C4.64495 7.82483 3.23424 9.52068 2.25198 10.8995C1.78351 11.5571 1.78296 12.4421 2.25141 13.0997C3.93275 15.46 6.86972 18.75 12 18.75C14.1428 18.75 15.903 18.176 17.3488 17.3356M19.8251 15.4071C19.9602 15.2722 20.0909 15.1363 20.2174 15C20.8178 14.353 21.3229 13.6972 21.7478 13.1007C22.2163 12.4432 22.217 11.5579 21.7486 10.9003C20.0673 8.53998 17.1303 5.25 12 5.25C11.233 5.25 10.515 5.32354 9.84288 5.45652"
    stroke="currentColor" stroke-width="1.5" stroke-linecap="round" stroke-linejoin="round" />
  <path
    d="M9 12C9 13.6568 10.3431 15 12 15C12.8254 15 13.573 14.6666 14.1154 14.1272L9.87868 9.87866C9.33579 10.4216 9 11.1716 9 12Z"
    fill="currentColor" />
  <path d="M20.25 20.25L3.75 3.75" stroke="currentColor" stroke-width="1.5" stroke-linecap="round"
    stroke-linejoin="round" />
</svg>