<svg width="24" height="24" viewBox="0 0 24 24" fill="none" xmlns="http://www.w3.org/2000/svg">
  <path
    d="M21.7486 10.9003C22.217 11.5579 22.217 12.4421 21.7486 13.0997C20.0673 15.46 17.1303 18.75 12 18.75C6.86972 18.75 3.93275 15.46 2.25141 13.0997C1.78296 12.4421 1.78296 11.5579 2.25141 10.9003C3.93275 8.53998 6.86972 5.25 12 5.25C17.1303 5.25 20.0673 8.53998 21.7486 10.9003Z"
    stroke="currentColor" stroke-width="1.5" stroke-linejoin="round" />
  <path
    d="M15 12C15 13.6569 13.6569 15 12 15C10.3431 15 9 13.6569 9 12C9 10.3431 10.3431 9 12 9C13.6569 9 15 10.3431 15 12Z"
    fill="currentColor" />
</svg>