<svg width="16" height="16" viewBox="0 0 16 16" fill="none" xmlns="http://www.w3.org/2000/svg">
  <path
    d="M14.627 7.44875C14.8573 7.78031 14.8573 8.21969 14.627 8.55125C13.5293 10.1315 11.5542 12.5 8 12.5C4.44584 12.5 2.47069 10.1315 1.37304 8.55125C1.14273 8.21969 1.14273 7.78031 1.37304 7.44875C2.47069 5.8685 4.44584 3.5 8 3.5C11.5542 3.5 13.5293 5.8685 14.627 7.44875Z"
    stroke="currentColor" stroke-linejoin="round" />
  <path d="M10 8C10 9.10457 9.10457 10 8 10C6.89543 10 6 9.10457 6 8C6 6.89543 6.89543 6 8 6C9.10457 6 10 6.89543 10 8Z"
    fill="currentColor" />
</svg>