<svg width="32" height="32" viewBox="0 0 32 32" fill="none" xmlns="http://www.w3.org/2000/svg">
  <path fill-rule="evenodd" clip-rule="evenodd"
    d="M16 30C16.4666 30 16.9279 29.9771 17.3828 29.9325C17.6788 29.8272 17.9258 29.6045 18.0579 29.3071L19.4838 26.0989C19.5482 25.954 19.669 25.8424 19.8167 25.7847C19.9523 25.7318 20.0866 25.6761 20.2194 25.6178C20.3646 25.554 20.5292 25.5474 20.6773 25.6043L23.9544 26.8648C24.2572 26.9812 24.5883 26.9645 24.8716 26.8308C25.5873 26.2438 26.2438 25.5873 26.8307 24.8716C26.9645 24.5884 26.9812 24.2573 26.8647 23.9544L25.6043 20.6773C25.5474 20.5293 25.5539 20.3647 25.6177 20.2194C25.6761 20.0866 25.7318 19.9523 25.7847 19.8167C25.8424 19.669 25.954 19.5482 26.0989 19.4838L29.3071 18.0579C29.6045 17.9258 29.8272 17.6788 29.9325 17.3828C29.9771 16.9279 30 16.4666 30 16C30 15.5334 29.9771 15.0721 29.9325 14.6172C29.8272 14.3212 29.6045 14.0742 29.3071 13.9421L26.0989 12.5162C25.954 12.4518 25.8424 12.3309 25.7847 12.1833C25.7318 12.0476 25.6761 11.9134 25.6178 11.7806C25.5539 11.6353 25.5474 11.4707 25.6043 11.3227L26.8647 8.04563C26.9812 7.74271 26.9645 7.41148 26.8306 7.12818C26.5438 6.77851 26.2405 6.44297 25.9217 6.12277L25.8772 6.07826C25.557 5.75952 25.2215 5.45617 24.8719 5.16942C24.5886 5.03555 24.2573 5.01877 23.9544 5.13529L20.6774 6.39567C20.5293 6.45262 20.3647 6.44605 20.2195 6.38223C20.0866 6.32387 19.9523 6.26817 19.8167 6.21521C19.669 6.15757 19.5482 6.04592 19.4838 5.90107L18.0579 2.69284C17.9258 2.3955 17.6788 2.17276 17.3828 2.06743C16.9279 2.02283 16.4666 2 16 2C15.5334 2 15.0721 2.02283 14.6172 2.06743C14.3212 2.17276 14.0742 2.3955 13.9421 2.69284L12.5162 5.90107C12.4518 6.04592 12.3309 6.15757 12.1833 6.21521C12.0476 6.26817 11.9133 6.32387 11.7805 6.38223C11.6352 6.44605 11.4707 6.45262 11.3226 6.39567L8.04558 5.13529C7.74265 5.01877 7.41141 5.03554 7.12811 5.16942C6.77848 5.45616 6.44298 5.75949 6.12283 6.07822L6.07822 6.12283C5.75947 6.44301 5.45611 6.77853 5.16936 7.12819C5.03549 7.41148 5.01873 7.74271 5.13524 8.04563L6.39563 11.3227C6.45259 11.4707 6.44601 11.6353 6.3822 11.7806C6.32384 11.9134 6.26816 12.0476 6.21521 12.1833C6.15757 12.3309 6.04592 12.4518 5.90107 12.5162L2.69284 13.9421C2.3955 14.0742 2.17276 14.3212 2.06743 14.6172C2.02283 15.0721 2 15.5334 2 16C2 16.4666 2.02283 16.9279 2.06743 17.3828C2.17277 17.6788 2.3955 17.9258 2.69284 18.0579L5.90107 19.4838C6.04592 19.5482 6.15757 19.669 6.21522 19.8167C6.26817 19.9523 6.32386 20.0866 6.38222 20.2194C6.44603 20.3647 6.45261 20.5293 6.39565 20.6773L5.13524 23.9544C5.01876 24.2573 5.03549 24.5884 5.16925 24.8716C5.75619 25.5873 6.41268 26.2438 7.12839 26.8308C7.41163 26.9645 7.74275 26.9812 8.04558 26.8648L11.3227 25.6043C11.4708 25.5474 11.6353 25.554 11.7806 25.6178C11.9134 25.6761 12.0477 25.7318 12.1833 25.7847C12.3309 25.8424 12.4518 25.954 12.5162 26.0989L13.9421 29.3071C14.0742 29.6045 14.3212 29.8272 14.6172 29.9325C15.0721 29.9771 15.5334 30 16 30Z"
    stroke="currentColor" stroke-width="2.1" />
  <path className='icon-color-secondary'
    d="M16 20C18.2091 20 20 18.2091 20 16C20 13.7909 18.2091 12 16 12C13.7909 12 12 13.7909 12 16" stroke="currentColor"
    stroke-width="2" stroke-linecap="round" />
  <path className='icon-color-tertiary'
    d="M14.1875 18.8594C14.1875 19.4117 13.7398 19.8594 13.1875 19.8594C12.6352 19.8594 12.1875 19.4117 12.1875 18.8594C12.1875 18.3071 12.6352 17.8594 13.1875 17.8594C13.7398 17.8594 14.1875 18.3071 14.1875 18.8594Z"
    fill="currentColor" />
</svg>