<svg width="16" height="16" viewBox="0 0 16 16" fill="none" xmlns="http://www.w3.org/2000/svg">
  <path fill-rule="evenodd" clip-rule="evenodd"
    d="M8 15C8.23331 15 8.46395 14.9886 8.6914 14.9663C8.83939 14.9136 8.96289 14.8023 9.02896 14.6536L9.7419 13.0495C9.77409 12.977 9.83452 12.9212 9.90836 12.8924C9.97617 12.8659 10.0433 12.8381 10.1097 12.8089C10.1823 12.777 10.2646 12.7737 10.3386 12.8022L11.9772 13.4324C12.1286 13.4906 12.2942 13.4823 12.4358 13.4154C12.7937 13.1219 13.1219 12.7937 13.4154 12.4358C13.4823 12.2942 13.4906 12.1286 13.4324 11.9772L12.8022 10.3387C12.7737 10.2646 12.777 10.1824 12.8089 10.1097C12.8381 10.0433 12.8659 9.97618 12.8924 9.90835C12.9212 9.83452 12.977 9.77409 13.0495 9.74191L14.6536 9.02896C14.8023 8.96289 14.9136 8.83939 14.9663 8.6914C14.9886 8.46395 15 8.23331 15 8C15 7.76669 14.9886 7.53605 14.9663 7.3086C14.9136 7.16061 14.8023 7.03711 14.6536 6.97104L13.0495 6.25809C12.977 6.2259 12.9212 6.16548 12.8924 6.09164C12.8659 6.02383 12.8381 5.9567 12.8089 5.89029C12.777 5.81766 12.7737 5.73538 12.8022 5.66134L13.4324 4.02282C13.4906 3.87136 13.4822 3.70574 13.4153 3.5641C13.2719 3.38926 13.1202 3.22149 12.9609 3.06139L12.9386 3.03913C12.7785 2.87976 12.6108 2.72809 12.4359 2.58471C12.2943 2.51778 12.1287 2.50939 11.9772 2.56764L10.3387 3.19784C10.2647 3.22631 10.1824 3.22303 10.1098 3.19112C10.0433 3.16194 9.97618 3.13409 9.90836 3.10761C9.83452 3.07879 9.77409 3.02296 9.7419 2.95054L9.02896 1.34642C8.96289 1.19775 8.8394 1.08638 8.69141 1.03371C8.46396 1.01141 8.23331 1 8 1C7.76669 1 7.53604 1.01141 7.30859 1.03371C7.1606 1.08638 7.03711 1.19775 6.97104 1.34642L6.25809 2.95054C6.22591 3.02296 6.16548 3.07879 6.09164 3.10761C6.02381 3.13409 5.95667 3.16194 5.89025 3.19112C5.81762 3.22303 5.73534 3.22631 5.66129 3.19784L4.0228 2.56765C3.87133 2.50939 3.70571 2.51777 3.56406 2.58471C3.38924 2.72808 3.2215 2.87975 3.06142 3.03911L3.03911 3.06142C2.87974 3.22151 2.72806 3.38927 2.58468 3.5641C2.51775 3.70574 2.50937 3.87136 2.56762 4.02282L3.19782 5.66134C3.2263 5.73538 3.22301 5.81766 3.1911 5.89029C3.16192 5.9567 3.13408 6.02383 3.10761 6.09164C3.07879 6.16548 3.02296 6.2259 2.95054 6.25809L1.34642 6.97104C1.19775 7.03711 1.08638 7.1606 1.03371 7.30859C1.01141 7.53604 1 7.76669 1 8C1 8.23331 1.01141 8.46396 1.03371 8.69141C1.08638 8.8394 1.19775 8.96289 1.34642 9.02896L2.95054 9.74191C3.02296 9.77409 3.07879 9.83452 3.10761 9.90836C3.13409 9.97618 3.16193 10.0433 3.19111 10.1097C3.22302 10.1824 3.22631 10.2646 3.19783 10.3387L2.56762 11.9772C2.50938 12.1286 2.51775 12.2942 2.58463 12.4358C2.8781 12.7937 3.20634 13.1219 3.5642 13.4154C3.70582 13.4823 3.87138 13.4906 4.0228 13.4324L5.66135 12.8022C5.73539 12.7737 5.81768 12.777 5.8903 12.8089C5.95671 12.8381 6.02383 12.8659 6.09164 12.8924C6.16548 12.9212 6.22591 12.977 6.25809 13.0495L6.97104 14.6536C7.03711 14.8023 7.16061 14.9136 7.3086 14.9663C7.53605 14.9886 7.76669 15 8 15Z"
    stroke="currentColor" />
  <path className='icon-color-secondary'
    d="M10.5 8C10.5 9.38071 9.38071 10.5 8 10.5C6.61929 10.5 5.5 9.38071 5.5 8C5.5 6.61929 6.61929 5.5 8 5.5C9.38071 5.5 10.5 6.61929 10.5 8Z"
    stroke="currentColor" />
</svg>