<svg width="24" height="24" viewBox="0 0 24 24" fill="none" xmlns="http://www.w3.org/2000/svg">
  <path fill-rule="evenodd" clip-rule="evenodd"
    d="M12 22C12.3333 22 12.6628 21.9837 12.9877 21.9518C13.1991 21.8766 13.3756 21.7175 13.4699 21.5051L14.4884 19.2135C14.5344 19.1101 14.6207 19.0303 14.7262 18.9891C14.8231 18.9513 14.919 18.9115 15.0139 18.8699C15.1176 18.8243 15.2352 18.8196 15.3409 18.8603L17.6817 19.7606C17.898 19.8438 18.1345 19.8318 18.3369 19.7363C18.8481 19.317 19.317 18.8481 19.7362 18.3369C19.8318 18.1346 19.8437 17.8981 19.7605 17.6818L18.8602 15.341C18.8196 15.2352 18.8243 15.1177 18.8698 15.0139C18.9115 14.919 18.9513 14.8231 18.9891 14.7262C19.0303 14.6207 19.1101 14.5344 19.2135 14.4884L21.5051 13.4699C21.7175 13.3756 21.8766 13.1991 21.9518 12.9877C21.9837 12.6628 22 12.3333 22 12C22 11.6667 21.9837 11.3372 21.9518 11.0123C21.8766 10.8009 21.7175 10.6244 21.5051 10.5301L19.2135 9.51156C19.1101 9.46558 19.0303 9.37925 18.9891 9.27378C18.9513 9.1769 18.9115 9.081 18.8699 8.98612C18.8243 8.88237 18.8196 8.76482 18.8603 8.65905L19.7605 6.31831C19.8438 6.10194 19.8318 5.86535 19.7362 5.66299C19.5313 5.41322 19.3146 5.17355 19.0869 4.94484L19.0551 4.91305C18.8265 4.68538 18.5868 4.4687 18.3371 4.26388C18.1347 4.16825 17.8981 4.15627 17.6817 4.23949L15.341 5.13977C15.2352 5.18045 15.1177 5.17575 15.0139 5.13017C14.919 5.08848 14.8231 5.0487 14.7262 5.01087C14.6207 4.9697 14.5344 4.88995 14.4884 4.78648L13.4699 2.49489C13.3756 2.2825 13.1991 2.1234 12.9877 2.04816C12.6628 2.01631 12.3333 2 12 2C11.6667 2 11.3372 2.01631 11.0123 2.04816C10.8009 2.1234 10.6244 2.2825 10.5301 2.49488L9.51156 4.78648C9.46558 4.88995 9.37925 4.9697 9.27378 5.01087C9.17688 5.0487 9.08096 5.08848 8.98607 5.13017C8.88231 5.17575 8.76476 5.18045 8.65899 5.13977L6.31828 4.23949C6.1019 4.15627 5.8653 4.16825 5.66294 4.26388C5.41321 4.46869 5.17357 4.68536 4.94488 4.91302L4.91302 4.94488C4.68534 5.17358 4.46866 5.41324 4.26383 5.663C4.16821 5.86535 4.15624 6.10194 4.23946 6.31832L5.13974 8.65905C5.18042 8.76482 5.17573 8.88237 5.13015 8.98612C5.08846 9.081 5.04869 9.1769 5.01087 9.27378C4.9697 9.37925 4.88995 9.46558 4.78648 9.51156L2.49489 10.5301C2.2825 10.6244 2.1234 10.8009 2.04816 11.0123C2.01631 11.3372 2 11.6667 2 12C2 12.3333 2.01631 12.6628 2.04816 12.9877C2.1234 13.1991 2.2825 13.3756 2.49488 13.4699L4.78648 14.4884C4.88995 14.5344 4.9697 14.6207 5.01087 14.7262C5.04869 14.8231 5.08847 14.919 5.13016 15.0139C5.17574 15.1177 5.18044 15.2352 5.13976 15.341L4.23946 17.6818C4.15626 17.8981 4.16821 18.1346 4.26375 18.3369C4.683 18.8481 5.15192 19.317 5.66314 19.7363C5.86546 19.8318 6.10197 19.8438 6.31828 19.7606L8.65908 18.8603C8.76485 18.8196 8.88239 18.8243 8.98615 18.8699C9.08101 18.9115 9.17691 18.9513 9.27378 18.9891C9.37925 19.0303 9.46558 19.1101 9.51156 19.2135L10.5301 21.5051C10.6244 21.7175 10.8009 21.8766 11.0123 21.9518C11.3372 21.9837 11.6667 22 12 22Z"
    stroke="currentColor" stroke-width="1.5" />
  <path className='icon-color-secondary'
    d="M15 12C15 13.6569 13.6569 15 12 15C10.3431 15 9 13.6569 9 12C9 10.3431 10.3431 9 12 9C13.6569 9 15 10.3431 15 12Z"
    stroke="currentColor" stroke-width="1.5" />
</svg>