<svg width="24" height="24" viewBox="0 0 24 24" fill="none" xmlns="http://www.w3.org/2000/svg">
  <path className='icon-color-tertiary' fill-rule="evenodd" clip-rule="evenodd"
    d="M14.5237 21.4177C14.4912 21.4264 14.2918 21.449 13.8679 21.081C13.4679 20.7338 13.0044 20.1494 12.516 19.335C11.9906 18.4586 11.4624 17.3597 10.9715 16.0996C11.6249 15.9628 12.2933 15.8036 12.9705 15.6222C15.8189 14.859 18.3364 13.8318 20.1063 12.7706C20.9867 12.2427 21.7203 11.6839 22.2138 11.1155C22.6865 10.5709 23.0723 9.85598 22.8666 9.08823L21.4177 9.47646C21.4264 9.5089 21.449 9.70835 21.081 10.1322C20.7338 10.5322 20.1494 10.9958 19.335 11.4841C17.7151 12.4553 15.3354 13.4356 12.5823 14.1733C11.8567 14.3677 11.1452 14.5345 10.4561 14.6743C10.2326 14.0076 10.0213 13.3079 9.82686 12.5823C9.08918 9.82926 8.74825 7.27818 8.77942 5.38975C8.79508 4.44022 8.90439 3.70237 9.07718 3.20166C9.26027 2.6711 9.44426 2.59088 9.4767 2.58219L9.08847 1.1333C8.32072 1.33902 7.89447 2.03067 7.65923 2.71234C7.41369 3.42387 7.29656 4.33863 7.27962 5.365C7.24557 7.42835 7.61475 10.1222 8.37797 12.9705C8.55944 13.6478 8.75583 14.3064 8.96406 14.9406C7.62728 15.1455 6.41151 15.2376 5.38975 15.2207C4.44022 15.205 3.70237 15.0957 3.20166 14.923C2.6711 14.7399 2.59088 14.5559 2.58219 14.5234L1.1333 14.9117C1.33902 15.6794 2.03067 16.1057 2.71234 16.3409C3.42387 16.5864 4.33863 16.7036 5.365 16.7205C6.55476 16.7401 7.95415 16.6257 9.47192 16.379C10.0171 17.8167 10.6177 19.0858 11.2295 20.1063C11.7574 20.9867 12.3162 21.7203 12.8846 22.2138C13.4292 22.6865 14.1441 23.0723 14.9119 22.8666L14.5237 21.4177Z"
    fill="currentColor" />
  <path
    d="M1.85765 14.7175C1.42882 13.1172 5.62202 10.6031 11.2234 9.10217C16.8248 7.60128 21.7133 7.68195 22.1421 9.28235"
    stroke="currentColor" stroke-width="1.5" />
  <path
    d="M9.28257 1.85777C10.883 1.42894 13.3971 5.62214 14.898 11.2235C16.3988 16.8249 16.3182 21.7134 14.7178 22.1422"
    stroke="currentColor" stroke-width="1.5" />
  <circle cx="12" cy="12.0001" r="10.5" transform="rotate(165 12 12.0001)" stroke="currentColor" stroke-width="1.5" />
</svg>