<svg width="32" height="32" viewBox="0 0 32 32" fill="none" xmlns="http://www.w3.org/2000/svg">
  <path className='icon-color-tertiary' fill-rule="evenodd" clip-rule="evenodd"
    d="M19.3644 28.557C19.3212 28.5686 19.0552 28.5987 18.4901 28.1081C17.9568 27.6451 17.3387 26.866 16.6875 25.78C15.9869 24.6115 15.2828 23.1463 14.6282 21.4662C15.4994 21.2838 16.3907 21.0716 17.2937 20.8296C21.0915 19.812 24.4482 18.4424 26.8081 17.0275C27.9819 16.3237 28.9601 15.5786 29.618 14.8208C30.2483 14.0947 30.7628 13.1414 30.4885 12.1177L28.5567 12.6354C28.5683 12.6786 28.5983 12.9445 28.1077 13.5097C27.6447 14.043 26.8656 14.6611 25.7796 15.3122C23.6198 16.6072 20.4468 17.9142 16.7761 18.8978C15.8086 19.157 14.8598 19.3795 13.941 19.5658C13.643 18.6769 13.3612 17.744 13.102 16.7765C12.1184 13.1057 11.6638 9.70428 11.7054 7.18637C11.7263 5.92034 11.872 4.93653 12.1024 4.26893C12.3465 3.56151 12.5919 3.45455 12.6351 3.44296L12.1175 1.51111C11.0938 1.7854 10.5255 2.7076 10.2118 3.6165C9.88443 4.56521 9.72825 5.78488 9.70567 7.15337C9.66027 9.9045 10.1525 13.4963 11.1701 17.2941C11.4121 18.1971 11.674 19.0752 11.9516 19.9209C10.1693 20.1941 8.54832 20.3168 7.186 20.2944C5.91997 20.2735 4.93617 20.1277 4.26856 19.8974C3.56114 19.6532 3.45419 19.4079 3.44259 19.3647L1.51074 19.8823C1.78503 20.906 2.70723 21.4743 3.61613 21.7879C4.56484 22.1153 5.78451 22.2715 7.153 22.2941C8.73932 22.3203 10.6051 22.1677 12.6288 21.8387C13.3557 23.7557 14.1564 25.4478 14.9722 26.8084C15.676 27.9823 16.4211 28.9605 17.179 29.6184C17.9051 30.2487 18.8584 30.7632 19.882 30.4889L19.3644 28.557Z"
    fill="currentColor" />
  <path
    d="M2.47703 19.6235C1.90526 17.4897 7.49619 14.1375 14.9647 12.1364C22.4332 10.1352 28.9512 10.2427 29.5229 12.3766"
    stroke="currentColor" stroke-width="2" />
  <path
    d="M12.3766 2.47703C14.5105 1.90526 17.8626 7.49619 19.8638 14.9647C21.865 22.4332 21.7574 28.9512 19.6235 29.5229"
    stroke="currentColor" stroke-width="2" />
  <circle cx="16.0001" cy="16" r="14" transform="rotate(165 16.0001 16)" stroke="currentColor" stroke-width="2" />
</svg>