<svg width="16" height="16" viewBox="0 0 16 16" fill="none" xmlns="http://www.w3.org/2000/svg">
  <path className='icon-color-tertiary' fill-rule="evenodd" clip-rule="evenodd"
    d="M9.68245 14.2785C9.66082 14.2843 9.52786 14.2993 9.24529 14.054C8.97863 13.8225 8.66957 13.4329 8.34402 12.8899C7.99372 12.3057 7.64166 11.5732 7.31439 10.7332C7.75004 10.642 8.19578 10.5358 8.64735 10.4148C10.5462 9.90601 12.2246 9.22121 13.4045 8.51377C13.9915 8.16187 14.4805 7.78932 14.8095 7.41038C15.1247 7.04734 15.3819 6.5707 15.2447 6.05886L14.2788 6.31768C14.2846 6.33931 14.2996 6.47227 14.0543 6.75484C13.8229 7.0215 13.4333 7.33055 12.8903 7.65611C11.8104 8.30358 10.2239 8.95711 8.38853 9.44889C7.90472 9.57853 7.43026 9.68978 6.97078 9.78296C6.82174 9.33847 6.68087 8.87196 6.55124 8.38817C6.05945 6.5528 5.83217 4.85208 5.85294 3.59312C5.86339 2.96011 5.93626 2.46821 6.05145 2.1344C6.17351 1.78069 6.29617 1.72721 6.3178 1.72142L6.05898 0.755493C5.54715 0.892639 5.26298 1.35374 5.10616 1.80819C4.94246 2.28254 4.86437 2.89238 4.85308 3.57662C4.83038 4.95219 5.0765 6.74809 5.58531 8.64698C5.7063 9.09853 5.83725 9.53761 5.97608 9.96048C5.085 10.0971 4.2746 10.1584 3.59349 10.1472C2.96047 10.1367 2.46857 10.0639 2.13477 9.94868C1.78106 9.82661 1.72758 9.70396 1.72179 9.68233L0.755859 9.94114C0.893006 10.453 1.35411 10.7371 1.80855 10.894C2.28291 11.0577 2.89274 11.1358 3.57699 11.147C4.37009 11.1601 5.30292 11.0839 6.31466 10.9194C6.6781 11.8778 7.07847 12.7238 7.48636 13.4042C7.83826 13.9911 8.21081 14.4802 8.58975 14.8091C8.95279 15.1243 9.42943 15.3815 9.94127 15.2444L9.68245 14.2785Z"
    fill="currentColor" />
  <path
    d="M1.23876 9.8117C0.952874 8.74477 3.74834 7.06871 7.4826 6.06811C11.2169 5.06752 14.4758 5.1213 14.7617 6.18823"
    stroke="currentColor" />
  <path
    d="M6.18806 1.23851C7.25499 0.95263 8.93105 3.74809 9.93164 7.48236C10.9322 11.2166 10.8785 14.4756 9.81152 14.7615"
    stroke="currentColor" />
  <circle cx="8.00003" cy="7.99996" r="7" transform="rotate(165 8.00003 7.99996)" stroke="currentColor" />
</svg>