<svg width="24" height="24" viewBox="0 0 24 24" fill="none" xmlns="http://www.w3.org/2000/svg">
  <path
    d="M11.9999 2C7.44359 2 3.5312 5.76563 3.53115 10.4844C3.53115 12.6478 4.30939 14.6383 5.67177 16.1097C6.26792 16.7536 9.28671 19.8646 10.9301 21.5559C11.5169 22.1598 12.4848 22.1619 13.074 21.5604C14.7294 19.8703 17.7764 16.7548 18.3749 16.1097C19.7406 14.6377 20.5468 12.6507 20.5468 10.4844C20.5467 5.70314 16.6405 2 11.9999 2Z"
    stroke="currentColor" stroke-width="1.5" />
  <path className='icon-color-secondary'
    d="M15.0312 10.6005C15.0312 12.2573 13.6881 13.6005 12.0312 13.6005C10.3744 13.6005 9.03125 12.2573 9.03125 10.6005C9.03125 8.94361 10.3744 7.60046 12.0312 7.60046C13.6881 7.60046 15.0312 8.94361 15.0312 10.6005Z"
    fill="currentColor" />
</svg>