<svg width="32" height="32" viewBox="0 0 32 32" fill="none" xmlns="http://www.w3.org/2000/svg">
  <path
    d="M16.0001 2C9.53241 2 3.97881 7.34527 3.97874 14.0435C3.97874 17.1144 5.06622 19.94 7.00011 22.0286C7.84971 22.9462 12.1747 27.2259 14.506 29.5269C15.3348 30.3449 16.6641 30.3437 17.4913 29.5241C19.8212 27.2157 24.1476 22.9189 25.0001 22C26.9387 19.9105 28.0001 17.1187 28.0001 14.0436C28 7.25664 22.5874 2 16.0001 2Z"
    stroke="currentColor" stroke-width="2" />
  <path className='icon-color-secondary'
    d="M20.042 14.1339C20.042 16.3431 18.2511 18.1339 16.042 18.1339C13.8329 18.1339 12.042 16.3431 12.042 14.1339C12.042 11.9248 13.8329 10.1339 16.042 10.1339C18.2511 10.1339 20.042 11.9248 20.042 14.1339Z"
    fill="currentColor" />
</svg>