<svg width="16" height="16" viewBox="0 0 16 16" fill="none" xmlns="http://www.w3.org/2000/svg">
  <path
    d="M7.99982 1.50006C4.96225 1.50006 2.49982 3.96249 2.49982 7.00006C2.49982 8.44232 3.05496 9.75492 3.96321 10.7358L7.2781 14.1925C7.67172 14.603 8.32796 14.603 8.7216 14.1925L12.0327 10.7399C12.9432 9.7585 13.4998 8.44429 13.4998 7.00006C13.4998 3.9625 11.0374 1.50006 7.99982 1.50006Z"
    stroke="currentColor" />
  <path className='icon-color-secondary'
    d="M10 7C10 8.10457 9.10457 9 8 9C6.89543 9 6 8.10457 6 7C6 5.89543 6.89543 5 8 5C9.10457 5 10 5.89543 10 7Z"
    fill="currentColor" />
</svg>