<svg width="32" height="32" viewBox="0 0 32 32" fill="none" xmlns="http://www.w3.org/2000/svg">
  <path className='icon-color-tertiary' d="M11 14L18 21" stroke="currentColor" stroke-width="2" stroke-linecap="round"
    stroke-linejoin="round" />
  <path
    d="M10.726 21.2739L13.9715 28.2259C14.6365 29.6502 16.609 29.7861 17.4629 28.4664L20.5722 23.6611C20.8514 23.2296 21 22.7265 21 22.2125L21 19.5"
    stroke="currentColor" stroke-width="2" stroke-linecap="round" />
  <path
    d="M10.7261 21.2739L3.7741 18.0285C2.34978 17.3635 2.21391 15.391 3.53362 14.5371L8.33879 11.4278C8.77035 11.1486 9.27343 11 9.78746 11L12.5001 11"
    stroke="currentColor" stroke-width="2" stroke-linecap="round" />
  <path
    d="M24.6598 16.1436C28.2587 13.2821 30.0024 8.68013 29.2033 4.15227V4.15227C29.0813 3.46042 28.5394 2.91872 27.8476 2.79663V2.79663C23.3197 1.99759 18.7161 3.73808 15.8503 7.33355L9.97333 14.7068C8.809 16.1676 8.7171 18.2143 9.74242 19.7758V19.7758C10.3905 20.7628 11.2358 21.6078 12.2234 22.2549V22.2549C13.7778 23.2734 15.8101 23.1801 17.2646 22.0235L24.6598 16.1436Z"
    stroke="currentColor" stroke-width="2" />
  <path className='icon-color-secondary'
    d="M24 10C24 8.89543 23.1046 8 22 8C20.8954 8 20 8.89543 20 10C20 11.1046 20.8954 12 22 12C23.1046 12 24 11.1046 24 10Z"
    fill="currentColor" />
  <path className='icon-color-secondary'
    d="M6.98575 25.0142C5.63342 23.6619 3.44086 23.6619 2.08853 25.0142C1.44644 25.6563 1.03235 26.6589 1 27.5V30C1 30.5523 1.44772 31 2 31H4.5C5.34224 30.9684 6.34278 30.5544 6.98575 29.9114C8.33808 28.5591 8.33808 26.3666 6.98575 25.0142Z"
    fill="currentColor" />
</svg>