<svg width="24" height="24" viewBox="0 0 24 24" fill="none" xmlns="http://www.w3.org/2000/svg">
  <path
    d="M8.04454 15.9554L10.392 21.0809C10.8786 22.1432 12.3392 22.2659 12.9962 21.2997L15.4039 17.759C15.6294 17.4274 15.75 17.0355 15.75 16.6344L15.75 14.25"
    stroke="currentColor" stroke-width="1.5" stroke-linecap="round" />
  <path
    d="M8.04452 15.9554L2.91913 13.608C1.85682 13.1214 1.73407 11.6608 2.70027 11.0038L6.24091 8.59615C6.57259 8.3706 6.96443 8.24999 7.36553 8.24999L9.74999 8.24999"
    stroke="currentColor" stroke-width="1.5" stroke-linecap="round" />
  <path
    d="M18.5807 11.9892C21.238 9.8585 22.5136 6.44266 21.9034 3.09171V3.09171C21.8111 2.58525 21.4147 2.18888 20.9082 2.09664V2.09664C17.5572 1.48639 14.1402 2.75961 12.0063 5.41439L7.48991 11.0332C6.61152 12.126 6.53936 13.6629 7.30892 14.8349V14.8349C7.79365 15.5731 8.42586 16.2051 9.16455 16.6891V16.6891C10.3312 17.4535 11.8573 17.3803 12.9454 16.5078L18.5807 11.9892Z"
    stroke="currentColor" stroke-width="1.5" />
  <circle r="1.5" transform="matrix(-0.707107 -0.707107 -0.707107 0.707107 15.9998 8.00049)" fill="currentColor" />
  <path className='icon-color-secondary'
    d="M5.78619 18.2607C4.77194 17.2464 3.12752 17.2464 2.11327 18.2607C1.6317 18.7423 1.32114 19.4942 1.29688 20.125V21.75C1.29688 22.3023 1.74459 22.75 2.29688 22.75H3.92188C4.55355 22.7263 5.30396 22.4158 5.78619 21.9336C6.80044 20.9193 6.80044 19.2749 5.78619 18.2607Z"
    fill="currentColor" />
</svg>