<svg width="16" height="16" viewBox="0 0 16 16" fill="none" xmlns="http://www.w3.org/2000/svg">
  <path
    d="M5.36291 10.6369L6.93555 14.0021C7.26217 14.7011 8.22367 14.7826 8.66327 14.1486L10.3216 11.757C10.4377 11.5896 10.4999 11.3908 10.4999 11.1872L10.4999 9.49996"
    stroke="currentColor" stroke-linecap="round" />
  <path
    d="M5.3632 10.637L1.99799 9.06434C1.29907 8.73772 1.21758 7.77621 1.85154 7.33662L4.24312 5.67828C4.41048 5.56224 4.60928 5.50005 4.81294 5.50005L6.50018 5.50005"
    stroke="currentColor" stroke-linecap="round" />
  <path
    d="M12.2872 8.07272C14.1201 6.60299 15 4.24682 14.5791 1.93541V1.93541C14.5313 1.6734 14.3262 1.46835 14.0642 1.42063V1.42063C11.7527 0.999674 9.39577 1.87797 7.92379 3.70926L4.99298 7.35546C4.40738 8.08399 4.35927 9.10857 4.87231 9.88989V9.88989C5.19547 10.382 5.61694 10.8034 6.1094 11.1261V11.1261C6.88718 11.6357 7.90455 11.5869 8.62999 11.0052L12.2872 8.07272Z"
    stroke="currentColor" />
  <circle r="1" transform="matrix(-0.707107 -0.707107 -0.707107 0.707107 10.6664 5.33362)" fill="currentColor" />
  <path className='icon-color-secondary'
    d="M3.99288 12.0071C3.31671 11.331 2.22043 11.331 1.54427 12.0071C1.22322 12.3282 1.01618 12.8295 1 13.25L1 14.5C1 14.7761 1.22386 15 1.5 15H2.75C3.17112 14.9842 3.67139 14.7772 3.99288 14.4557C4.66904 13.7796 4.66904 12.6833 3.99288 12.0071Z"
    fill="currentColor" />
</svg>