<svg width="16" height="16" viewBox="0 0 16 16" fill="none" xmlns="http://www.w3.org/2000/svg">
  <path d="M7 3.5H9" stroke="currentColor" />
  <path d="M7 12.5H9" stroke="currentColor" />
  <path d="M3.5 7L3.5 9" stroke="currentColor" />
  <path d="M12.5 7L12.5 9" stroke="currentColor" />
  <path className='icon-color-secondary'
    d="M5 1.5H3C2.17157 1.5 1.5 2.17157 1.5 3V5C1.5 5.82843 2.17157 6.5 3 6.5H5C5.82843 6.5 6.5 5.82843 6.5 5V3C6.5 2.17157 5.82843 1.5 5 1.5Z"
    stroke="currentColor" />
  <path className='icon-color-secondary'
    d="M13 1.5H11C10.1716 1.5 9.5 2.17157 9.5 3V5C9.5 5.82843 10.1716 6.5 11 6.5H13C13.8284 6.5 14.5 5.82843 14.5 5V3C14.5 2.17157 13.8284 1.5 13 1.5Z"
    stroke="currentColor" />
  <path className='icon-color-secondary'
    d="M13 9.5H11C10.1716 9.5 9.5 10.1716 9.5 11V13C9.5 13.8284 10.1716 14.5 11 14.5H13C13.8284 14.5 14.5 13.8284 14.5 13V11C14.5 10.1716 13.8284 9.5 13 9.5Z"
    stroke="currentColor" />
  <path className='icon-color-secondary'
    d="M5 9.5H3C2.17157 9.5 1.5 10.1716 1.5 11V13C1.5 13.8284 2.17157 14.5 3 14.5H5C5.82843 14.5 6.5 13.8284 6.5 13V11C6.5 10.1716 5.82843 9.5 5 9.5Z"
    stroke="currentColor" />
</svg>