<svg width="16" height="16" viewBox="0 0 16 16" fill="none" xmlns="http://www.w3.org/2000/svg">
  <path className='icon-color-tertiary'
    d="M11 2.5H13.5C14.0523 2.5 14.5 2.94772 14.5 3.5V6.5V9.5V12.5C14.5 13.0523 14.0523 13.5 13.5 13.5H11"
    stroke="currentColor" stroke-linecap="round" />
  <path className='icon-color-secondary'
    d="M9 11.5V13.5C9 14.0523 8.55228 14.5 8 14.5H2.5C1.94772 14.5 1.5 14.0523 1.5 13.5V2.5C1.5 1.94772 1.94772 1.5 2.5 1.5H8C8.55228 1.5 9 1.94772 9 2.5V4.5"
    stroke="currentColor" stroke-linecap="round" />
  <path d="M9 6.5V8" stroke="currentColor" stroke-linecap="round" stroke-linejoin="round" />
  <path
    d="M9.5 9.5C9.5 9.77614 9.27614 10 9 10C8.72386 10 8.5 9.77614 8.5 9.5C8.5 9.22386 8.72386 9 9 9C9.27614 9 9.5 9.22386 9.5 9.5Z"
    fill="currentColor" />
  <path
    d="M12.5 8C12.5 9.933 10.933 11.5 9 11.5C7.067 11.5 5.5 9.933 5.5 8C5.5 6.067 7.067 4.5 9 4.5C10.933 4.5 12.5 6.067 12.5 8Z"
    stroke="currentColor" />
</svg>