<svg width="16" height="16" viewBox="0 0 16 16" fill="none" xmlns="http://www.w3.org/2000/svg">
  <path className='icon-color-tertiary'
    d="M11 2.5H13.5C14.0523 2.5 14.5 2.94772 14.5 3.5V6.5V9.5V12.5C14.5 13.0523 14.0523 13.5 13.5 13.5H11"
    stroke="currentColor" stroke-linecap="round" />
  <path className='icon-color-secondary'
    d="M9 11V13.5C9 14.0523 8.55228 14.5 8 14.5H2.5C1.94772 14.5 1.5 14.0523 1.5 13.5V2.5C1.5 1.94772 1.94772 1.5 2.5 1.5H8C8.55228 1.5 9 1.94772 9 2.5V5"
    stroke="currentColor" stroke-linecap="round" />
  <path d="M3.5 8H6" stroke="currentColor" stroke-linecap="round" stroke-linejoin="round" />
  <path
    d="M10.5 5H7.5C6.67157 5 6 5.67157 6 6.5V9.5C6 10.3284 6.67157 11 7.5 11H10.5C11.3284 11 12 10.3284 12 9.5V6.5C12 5.67157 11.3284 5 10.5 5Z"
    stroke="currentColor" />
</svg>