<svg width="32" height="32" viewBox="0 0 32 32" fill="none" xmlns="http://www.w3.org/2000/svg">
  <path className='icon-color-tertiary' d="M20 4H28C29.1045 4 30 4.89543 30 6L30 26C30 27.1046 29.1046 28 28 28H20"
    stroke="currentColor" stroke-width="2" stroke-linecap="round" />
  <path className='icon-color-secondary'
    d="M16 22V28C16 29.1046 15.1046 30 14 30H4C2.89543 30 2 29.1046 2 28V4C2 2.89543 2.89543 2 4 2H14C15.1046 2 16 2.89543 16 4V9.99998"
    stroke="currentColor" stroke-width="2" stroke-linecap="round" />
  <path d="M6 16H9.99998" stroke="currentColor" stroke-width="2" stroke-linecap="round" stroke-linejoin="round" />
  <path
    d="M10 12C10 10.8954 10.8954 10 12 10H20C21.1046 10 22 10.8954 22 12V20C22 21.1046 21.1046 22 20 22H12C10.8954 22 10 21.1046 10 20V12Z"
    stroke="currentColor" stroke-width="2" />
  <path className='icon-color-secondary' fill-rule="evenodd" clip-rule="evenodd"
    d="M17 14C17 13.4477 16.5523 13 16 13C15.4477 13 15 13.4477 15 14V15H14C13.4477 15 13 15.4477 13 16C13 16.5523 13.4477 17 14 17H15V18C15 18.5523 15.4477 19 16 19C16.5523 19 17 18.5523 17 18V17H18C18.5523 17 19 16.5523 19 16C19 15.4477 18.5523 15 18 15H17V14Z"
    fill="currentColor" />
</svg>