<svg width="24" height="24" viewBox="0 0 24 24" fill="none" xmlns="http://www.w3.org/2000/svg">
  <path className='icon-color-tertiary' d="M15.5 4H19C20.1046 4 21 4.89543 21 6V18C21 19.1046 20.1046 20 19 20H15.5"
    stroke="currentColor" stroke-width="1.5" stroke-linecap="round" />
  <path className='icon-color-secondary'
    d="M13 17.5V20C13 21.1046 12.1046 22 11 22H5C3.89543 22 3 21.1046 3 20V4C3 2.89543 3.89543 2 5 2H11C12.1046 2 13 2.89543 13 4V6.5"
    stroke="currentColor" stroke-width="1.5" stroke-linecap="round" />
  <path d="M13 9.75V12" stroke="currentColor" stroke-width="1.5" stroke-linecap="round" stroke-linejoin="round" />
  <path
    d="M13.75 14.25C13.75 14.6642 13.4142 15 13 15C12.5858 15 12.25 14.6642 12.25 14.25C12.25 13.8358 12.5858 13.5 13 13.5C13.4142 13.5 13.75 13.8358 13.75 14.25Z"
    fill="currentColor" />
  <path
    d="M18.5 12C18.5 15.0376 16.0376 17.5 13 17.5C9.96243 17.5 7.5 15.0376 7.5 12C7.5 8.96243 9.96243 6.5 13 6.5C16.0376 6.5 18.5 8.96243 18.5 12Z"
    stroke="currentColor" stroke-width="1.5" />
</svg>