<svg width="24" height="24" viewBox="0 0 24 24" fill="none" xmlns="http://www.w3.org/2000/svg">
  <path className='icon-color-tertiary' d="M15.5 4H19C20.1046 4 21 4.89543 21 6V18C21 19.1046 20.1046 20 19 20H15.5"
    stroke="currentColor" stroke-width="1.5" stroke-linecap="round" />
  <path className='icon-color-secondary'
    d="M13 16.5V20C13 21.1046 12.1046 22 11 22H5C3.89543 22 3 21.1046 3 20V4C3 2.89543 3.89543 2 5 2H11C12.1046 2 13 2.89543 13 4V7.5"
    stroke="currentColor" stroke-width="1.5" stroke-linecap="round" />
  <path d="M5.5 12H9" stroke="currentColor" stroke-width="1.5" stroke-linecap="round" stroke-linejoin="round" />
  <path
    d="M9 10C9 8.89543 9.89543 8 11 8H15C16.1046 8 17 8.89543 17 10V14C17 15.1046 16.1046 16 15 16H11C9.89543 16 9 15.1046 9 14V10Z"
    stroke="currentColor" stroke-width="1.5" />
</svg>