<svg width="24" height="24" viewBox="0 0 24 24" fill="none" xmlns="http://www.w3.org/2000/svg">
  <path fill-rule="evenodd" clip-rule="evenodd"
    d="M13.25 5.75H10.7344V4.25H13.25V5.75ZM5.75 10.75V13.25H4.25V10.75H5.75ZM18.25 13.25V10.75H19.75V13.25H18.25ZM10.7344 18.25H13.25V19.75H10.7344V18.25Z"
    fill="currentColor" />
  <path className='icon-color-secondary'
    d="M2 4C2 2.89543 2.89543 2 4 2H8C9.10457 2 10 2.89543 10 4V8C10 9.10457 9.10457 10 8 10H4C2.89543 10 2 9.10457 2 8V4Z"
    stroke="currentColor" stroke-width="1.5" />
  <path className='icon-color-secondary'
    d="M2 16C2 14.8954 2.89543 14 4 14H8C9.10457 14 10 14.8954 10 16V20C10 21.1046 9.10457 22 8 22H4C2.89543 22 2 21.1046 2 20V16Z"
    stroke="currentColor" stroke-width="1.5" />
  <path className='icon-color-secondary'
    d="M14 4C14 2.89543 14.8954 2 16 2H20C21.1046 2 22 2.89543 22 4V8C22 9.10457 21.1046 10 20 10H16C14.8954 10 14 9.10457 14 8V4Z"
    stroke="currentColor" stroke-width="1.5" />
  <path className='icon-color-secondary'
    d="M14 16C14 14.8954 14.8954 14 16 14H20C21.1046 14 22 14.8954 22 16V20C22 21.1046 21.1046 22 20 22H16C14.8954 22 14 21.1046 14 20V16Z"
    stroke="currentColor" stroke-width="1.5" />
</svg>