<svg width="32" height="32" viewBox="0 0 32 32" fill="none" xmlns="http://www.w3.org/2000/svg">
  <g className='icon-color-secondary'>
    <path fill-rule="evenodd" clip-rule="evenodd"
      d="M4 1.5C2.34315 1.5 1 2.84315 1 4.5V10.5C1 12.1569 2.34315 13.5 4 13.5H10C11.6569 13.5 13 12.1569 13 10.5V4.5C13 2.84315 11.6569 1.5 10 1.5H4ZM3 4.5C3 3.94772 3.44772 3.5 4 3.5H10C10.5523 3.5 11 3.94772 11 4.5V10.5C11 11.0523 10.5523 11.5 10 11.5H4C3.44772 11.5 3 11.0523 3 10.5V4.5Z"
      fill="currentColor" />
    <path fill-rule="evenodd" clip-rule="evenodd"
      d="M4 19.5C2.34315 19.5 1 20.8431 1 22.5V28.5C1 30.1569 2.34315 31.5 4 31.5H10C11.6569 31.5 13 30.1569 13 28.5V22.5C13 20.8431 11.6569 19.5 10 19.5H4ZM3 22.5C3 21.9477 3.44772 21.5 4 21.5H10C10.5523 21.5 11 21.9477 11 22.5V28.5C11 29.0523 10.5523 29.5 10 29.5H4C3.44772 29.5 3 29.0523 3 28.5V22.5Z"
      fill="currentColor" />
    <path fill-rule="evenodd" clip-rule="evenodd"
      d="M19 4.5C19 2.84315 20.3431 1.5 22 1.5H28C29.6569 1.5 31 2.84315 31 4.5V10.5C31 12.1569 29.6569 13.5 28 13.5H22C20.3431 13.5 19 12.1569 19 10.5V4.5ZM22 3.5C21.4477 3.5 21 3.94772 21 4.5V10.5C21 11.0523 21.4477 11.5 22 11.5H28C28.5523 11.5 29 11.0523 29 10.5V4.5C29 3.94772 28.5523 3.5 28 3.5H22Z"
      fill="currentColor" />
    <path fill-rule="evenodd" clip-rule="evenodd"
      d="M22 19.5C20.3431 19.5 19 20.8431 19 22.5V28.5C19 30.1569 20.3431 31.5 22 31.5H28C29.6569 31.5 31 30.1569 31 28.5V22.5C31 20.8431 29.6569 19.5 28 19.5H22ZM21 22.5C21 21.9477 21.4477 21.5 22 21.5H28C28.5523 21.5 29 21.9477 29 22.5V28.5C29 29.0523 28.5523 29.5 28 29.5H22C21.4477 29.5 21 29.0523 21 28.5V22.5Z"
      fill="currentColor" />
  </g>
  <g className='icon-color-tertiary'>
    <path d="M8 11.5H6V10.5C6 9.94772 6.44772 9.5 7 9.5C7.55228 9.5 8 9.94772 8 10.5V11.5Z" fill="currentColor" />
    <path d="M11 8.5H10C9.44772 8.5 9 8.05228 9 7.5C9 6.94772 9.44772 6.5 10 6.5H11V8.5Z" fill="currentColor" />
    <path d="M11 24.5V26.5H10C9.44772 26.5 9 26.0523 9 25.5C9 24.9477 9.44772 24.5 10 24.5H11Z" fill="currentColor" />
    <path d="M8 21.5V22.5C8 23.0523 7.55228 23.5 7 23.5C6.44772 23.5 6 23.0523 6 22.5V21.5H8Z" fill="currentColor" />
    <path d="M21 8.5V6.5H22C22.5523 6.5 23 6.94772 23 7.5C23 8.05228 22.5523 8.5 22 8.5H21Z" fill="currentColor" />
    <path d="M24 11.5V10.5C24 9.94772 24.4477 9.5 25 9.5C25.5523 9.5 26 9.94772 26 10.5V11.5H24Z" fill="currentColor" />
    <path d="M21 26.5V24.5H22C22.5523 24.5 23 24.9477 23 25.5C23 26.0523 22.5523 26.5 22 26.5H21Z"
      fill="currentColor" />
    <path d="M26 21.5V22.5C26 23.0523 25.5523 23.5 25 23.5C24.4477 23.5 24 23.0523 24 22.5V21.5H26Z"
      fill="currentColor" />
  </g>
  <circle cx="16" cy="7.5" r="1" fill="currentColor" />
  <circle cx="7" cy="16.5" r="1" fill="currentColor" />
  <circle cx="25" cy="16.5" r="1" fill="currentColor" />
  <circle cx="16" cy="25.5" r="1" fill="currentColor" />
</svg>