<svg width="24" height="24" viewBox="0 0 24 24" fill="none" xmlns="http://www.w3.org/2000/svg">
  <path fill-rule="evenodd" clip-rule="evenodd"
    d="M1.25098 10.0933C1.25098 8.09822 3.30917 6.76742 5.12851 7.58612L11.1285 10.2861C12.1151 10.7301 12.7496 11.7114 12.7496 12.7933L12.7496 19.9069C12.7496 21.902 10.6914 23.2328 8.87207 22.4141L2.87207 19.7141C1.88548 19.2701 1.25098 18.2888 1.25098 17.2069L1.25098 10.0933ZM4.51353 8.95275C3.68589 8.58031 2.7496 9.18571 2.7496 10.0933L2.7496 17.2069C2.7496 17.6991 3.03824 18.1455 3.48705 18.3475L9.48705 21.0475C10.3147 21.4199 11.251 20.8145 11.251 19.9069L11.251 12.7933C11.251 12.3011 10.9623 11.8547 10.5135 11.6527L4.51353 8.95275Z"
    fill="currentColor" />
  <g className='icon-color-secondary'>
    <path
      d="M9.51353 5.95275C8.68589 5.58031 7.7496 6.18571 7.7496 7.09328V8.76552L6.25098 8.09114V7.09328C6.25098 5.09822 8.30917 3.76742 10.1285 4.58612L16.1285 7.28612C17.1151 7.73009 17.7496 8.71139 17.7496 9.79328L17.7496 16.764C17.7496 18.8078 15.5988 20.1371 13.7708 19.2231L12.7497 18.7126L12.7497 17.037L14.441 17.8827C15.2725 18.2985 16.251 17.6938 16.251 16.764L16.251 9.79328C16.251 9.30112 15.9623 8.85471 15.5135 8.65275L9.51353 5.95275Z"
      fill="currentColor" />
    <path d="M11.2511 17.4805C11.2507 17.4932 11.2507 17.5059 11.2511 17.5185V17.4805Z" fill="currentColor" />
  </g>
  <path
    d="M14.5135 3.45275C13.6859 3.08031 12.7496 3.6857 12.7496 4.59328L12.7496 5.7657L11.251 5.09132V4.59328C11.251 2.59821 13.3092 1.26741 15.1285 2.08613L21.1283 4.78609C22.1149 5.23006 22.7494 6.21136 22.7494 7.29323V14.4225C22.7494 16.4121 20.7015 17.7429 18.8834 16.9348L17.7496 16.4309L17.7496 14.7934C17.768 14.7999 17.7864 14.8073 17.8046 14.8153L19.4921 15.5654C20.3191 15.933 21.2507 15.3276 21.2507 14.4225V7.29323C21.2507 6.80108 20.9621 6.35468 20.5133 6.15271L14.5135 3.45275Z"
    fill="currentColor" />
</svg>