<svg width="16" height="16" viewBox="0 0 16 16" fill="none" xmlns="http://www.w3.org/2000/svg">
  <path fill-rule="evenodd" clip-rule="evenodd"
    d="M1.99976 6.06151C1.99976 5.69695 2.37764 5.45517 2.70865 5.60795L7.20946 7.68541C7.38669 7.76721 7.50019 7.9446 7.50019 8.1398L7.50019 13.4385C7.50019 13.803 7.1223 14.0448 6.79129 13.892L2.28995 11.8143C2.11304 11.7327 1.99976 11.5556 1.99976 11.3608L1.99976 6.06151ZM3.12735 4.70084C2.13433 4.24249 1.00067 4.96781 1.00067 6.06151L1.00067 11.3608C1.00067 11.9453 1.34053 12.4765 1.87125 12.7214L6.37259 14.7991C7.36562 15.2575 8.49927 14.5322 8.49927 13.4385L8.49927 8.1398C8.49927 7.55492 8.1592 7.02341 7.62816 6.77829L3.12735 4.70084Z"
    fill="currentColor" />
  <path className='icon-color-secondary'
    d="M5.99069 3.84224C5.65968 3.68946 5.2818 3.93123 5.2818 4.2958V5.69776L4.28271 5.23661V4.2958C4.28271 3.2021 5.41637 2.47678 6.40939 2.93513L10.9102 5.01258C11.4412 5.2577 11.7813 5.7892 11.7813 6.37409V11.6727C11.7813 12.7665 10.6477 13.4918 9.65463 13.0334L8.49872 12.4999V11.3995L10.0733 12.1263C10.4043 12.2791 10.7822 12.0373 10.7822 11.6727V6.37409C10.7822 6.17889 10.6687 6.0015 10.4915 5.9197L5.99069 3.84224Z"
    fill="currentColor" />
  <path
    d="M9.20895 2.10787C8.87794 1.95508 8.50006 2.19686 8.50006 2.56143L8.50006 3.80459C8.50006 3.8359 8.49718 3.86654 8.49167 3.89625L7.50098 3.43898V2.56143C7.50098 1.46772 8.63463 0.742401 9.62765 1.20075L14.1285 3.27821C14.6595 3.52332 14.9996 4.05483 14.9996 4.63971L14.9996 9.93837C14.9996 11.0321 13.8659 11.7574 12.8729 11.299L11.7813 10.7952V9.69482L13.2916 10.3919C13.6226 10.5447 14.0005 10.3029 14.0005 9.93837L14.0005 4.63971C14.0005 4.44451 13.887 4.26713 13.7098 4.18532L9.20895 2.10787Z"
    fill="currentColor" />
</svg>