<svg width="32" height="32" viewBox="0 0 32 32" fill="none" xmlns="http://www.w3.org/2000/svg">
  <path fill-rule="evenodd" clip-rule="evenodd"
    d="M3.49904 12.68C3.49904 11.9438 4.26822 11.4604 4.93154 11.7798L14.4345 16.3552C14.7809 16.522 15.0012 16.8725 15.0012 17.257L15.0012 28.3204C15.0012 29.0566 14.232 29.54 13.5687 29.2206L4.06472 24.6447C3.71891 24.4782 3.49904 24.1283 3.49904 23.7445L3.49904 12.68ZM5.79836 9.97942C3.80841 9.02132 1.50088 10.4714 1.50088 12.68L1.50088 23.7445C1.50088 24.896 2.16047 25.9456 3.1979 26.4451L12.7019 31.021C14.6918 31.9791 16.9994 30.529 16.9994 28.3204L16.9994 17.257C16.9994 16.1049 16.3394 15.0546 15.3013 14.5548L5.79836 9.97942Z"
    fill="currentColor" />
  <g className='icon-color-secondary'>
    <path
      d="M11.9316 7.77949C11.2683 7.46012 10.4991 7.94347 10.4991 8.67967L10.4991 12.2424L8.50098 11.2804V8.67967C8.50098 6.47108 10.8085 5.02102 12.7985 5.97914L22.3011 10.5545C23.3392 11.0543 23.9991 12.1046 23.9991 13.2567L23.9991 24.2668C23.9991 26.4949 21.6544 27.944 19.6615 26.9476L16.9993 25.6165V23.3825L20.5551 25.1604C21.2194 25.4925 22.001 25.0095 22.001 24.2668L22.001 13.2567C22.001 12.8722 21.7807 12.5216 21.4343 12.3548L11.9316 7.77949Z"
      fill="currentColor" />
    <path d="M15.0012 23.9702C15.0006 23.9895 15.0006 24.0088 15.0012 24.028V23.9702Z" fill="currentColor" />
  </g>
  <path
    d="M18.9312 4.77949C18.2678 4.46012 17.4987 4.94347 17.4987 5.67967L17.4987 8.24225L15.5005 7.28017V5.67967C15.5005 3.47108 17.808 2.02102 19.798 2.97914L29.3006 7.55448C30.3387 8.05429 30.9987 9.10455 30.9987 10.2567L30.9987 21.2668C30.9987 23.4949 28.6539 24.944 26.661 23.9476L23.999 22.6166V20.3826L27.5546 22.1604C28.2189 22.4925 29.0005 22.0095 29.0005 21.2668V10.2567C29.0005 9.87216 28.7802 9.52164 28.4338 9.35483L18.9312 4.77949Z"
    fill="currentColor" />
  <path d="M22.0009 20.965C22.0001 20.9878 22.0001 21.0105 22.0009 21.0332V20.965Z" fill="currentColor" />
</svg>