<svg width="32" height="32" viewBox="0 0 32 32" fill="none" xmlns="http://www.w3.org/2000/svg">
<path d="M23 8.99998C23 12.866 19.866 16 16 16C12.134 16 9 12.866 9 8.99998C9 5.134 12.134 2 16 2C19.866 2 23 5.134 23 8.99998Z" stroke="#30313A" stroke-width="1.93939"/>
<path d="M16 16C10.6522 16 6.24362 19.6265 5.16491 24.6111C5.03392 25.2164 5.25748 25.8344 5.75 26.2098C7.20452 27.3184 10.7355 29.5 16 29.5C21.2645 29.5 24.7955 27.3184 26.25 26.2098C26.7425 25.8344 26.9661 25.2164 26.8351 24.6111C25.7564 19.6265 21.3478 16 16 16Z" stroke="#30313A" stroke-width="2" stroke-linecap="round"/>
</svg>
