<svg width="800" height="600" viewBox="0 0 800 600" fill="none" xmlns="http://www.w3.org/2000/svg">
<g clip-path="url(#clip0)">
<circle r="386" transform="matrix(-1 0 0 1 400 300)" stroke="url(#paint0_linear)" stroke-width="4"/>
<circle r="323" transform="matrix(0 1 1 0 346 300)" stroke="#999999" stroke-width="2"/>
<path d="M253.5 525C378.042 525 479 424.262 479 300C479 175.738 378.042 75 253.5 75C128.958 75 28 175.738 28 300C28 424.262 128.958 525 253.5 525Z" stroke="#999999" stroke-width="2"/>
<circle r="130" transform="matrix(0 1 1 0 164 300)" stroke="#999999" stroke-width="2"/>
<path d="M189.743 262.79L188.908 260.973C189.689 260.615 190.611 260.794 191.199 261.42C191.788 262.045 191.912 262.977 191.507 263.734L189.743 262.79ZM164.287 271.626L164.739 273.574C163.906 273.767 163.042 273.409 162.59 272.684L164.287 271.626ZM179.883 287.598L178.801 289.28C178.075 288.812 177.731 287.932 177.947 287.097L179.883 287.598ZM205.156 300L205.851 298.125C206.656 298.423 207.181 299.202 207.155 300.061C207.129 300.919 206.558 301.665 205.736 301.914L205.156 300ZM179.998 310.954L178.059 311.443C177.844 310.59 178.212 309.696 178.965 309.241L179.998 310.954ZM189.743 337.21L191.543 336.337C191.908 337.091 191.765 337.994 191.183 338.597C190.602 339.201 189.705 339.378 188.938 339.04L189.743 337.21ZM163.566 328.26L161.835 327.259C162.278 326.493 163.172 326.109 164.033 326.316L163.566 328.26ZM152.534 352.622L154.424 353.278C154.149 354.07 153.409 354.606 152.571 354.622C151.733 354.637 150.974 354.129 150.67 353.348L152.534 352.622ZM140.35 327.781L139.896 325.833C140.735 325.637 141.605 326.001 142.055 326.736L140.35 327.781ZM115.324 337.21L116.244 338.985C115.491 339.376 114.573 339.248 113.955 338.667C113.336 338.087 113.152 337.179 113.494 336.402L115.324 337.21ZM123.864 310.776L124.909 309.07C125.623 309.507 125.989 310.344 125.826 311.165L123.864 310.776ZM99.9118 300L99.3071 301.906C98.4983 301.65 97.9395 300.911 97.9128 300.063C97.8862 299.215 98.3975 298.442 99.1886 298.135L99.9118 300ZM123.377 288.177L125.331 287.748C125.51 288.565 125.162 289.407 124.459 289.859L123.377 288.177ZM115.324 262.79L113.476 263.554C113.162 262.794 113.345 261.919 113.938 261.349C114.53 260.779 115.412 260.63 116.159 260.973L115.324 262.79ZM140.007 271.443L141.686 272.53C141.225 273.242 140.364 273.586 139.538 273.387L140.007 271.443ZM152.534 247.378L150.687 246.611C151.003 245.851 151.751 245.362 152.573 245.378C153.395 245.394 154.124 245.912 154.41 246.683L152.534 247.378ZM189.743 262.79C190.578 264.608 190.578 264.608 190.578 264.608C190.577 264.608 190.577 264.608 190.577 264.608C190.576 264.609 190.575 264.609 190.574 264.61C190.572 264.61 190.57 264.612 190.566 264.613C190.559 264.617 190.549 264.621 190.535 264.627C190.509 264.639 190.47 264.657 190.419 264.68C190.318 264.726 190.17 264.792 189.977 264.878C189.592 265.049 189.031 265.296 188.319 265.6C186.897 266.208 184.87 267.049 182.447 267.982C177.612 269.842 171.151 272.087 164.739 273.574L163.835 269.677C169.992 268.25 176.26 266.077 181.01 264.248C183.38 263.336 185.361 262.515 186.747 261.922C187.44 261.626 187.983 261.387 188.352 261.223C188.537 261.141 188.677 261.078 188.771 261.035C188.818 261.014 188.853 260.998 188.876 260.988C188.888 260.982 188.896 260.979 188.901 260.976C188.904 260.975 188.906 260.974 188.907 260.974C188.908 260.973 188.908 260.973 188.908 260.973C188.908 260.973 188.908 260.973 188.908 260.973C188.908 260.973 188.908 260.973 189.743 262.79ZM177.947 287.097C179.585 280.77 182.098 274.456 184.184 269.75C185.23 267.391 186.176 265.422 186.86 264.041C187.203 263.35 187.481 262.805 187.674 262.432C187.77 262.245 187.846 262.101 187.898 262.002C187.923 261.953 187.943 261.915 187.957 261.889C187.964 261.876 187.969 261.866 187.973 261.859C187.975 261.856 187.977 261.853 187.978 261.851C187.978 261.85 187.979 261.849 187.979 261.848C187.979 261.848 187.979 261.848 187.979 261.848C187.979 261.847 187.98 261.847 189.743 262.79C191.507 263.734 191.507 263.734 191.507 263.734C191.507 263.734 191.507 263.734 191.507 263.734C191.507 263.734 191.506 263.734 191.506 263.735C191.506 263.736 191.505 263.737 191.503 263.74C191.501 263.745 191.496 263.753 191.491 263.764C191.479 263.786 191.461 263.82 191.437 263.865C191.39 263.955 191.319 264.09 191.227 264.268C191.044 264.623 190.776 265.148 190.444 265.817C189.78 267.157 188.86 269.073 187.841 271.371C185.797 275.98 183.38 282.071 181.82 288.099L177.947 287.097ZM205.156 300C204.462 301.875 204.461 301.875 204.461 301.875C204.461 301.875 204.461 301.875 204.46 301.875C204.46 301.875 204.459 301.874 204.458 301.874C204.455 301.873 204.452 301.872 204.448 301.871C204.441 301.868 204.429 301.864 204.415 301.858C204.386 301.847 204.344 301.831 204.288 301.811C204.178 301.769 204.017 301.708 203.808 301.627C203.391 301.467 202.786 301.23 202.026 300.925C200.506 300.314 198.366 299.425 195.875 298.31C190.905 296.086 184.484 292.938 178.801 289.28L180.966 285.916C186.408 289.419 192.623 292.473 197.509 294.659C199.945 295.749 202.037 296.618 203.518 297.214C204.258 297.511 204.845 297.74 205.245 297.894C205.445 297.971 205.598 298.03 205.701 298.068C205.752 298.088 205.79 298.102 205.816 298.111C205.828 298.116 205.838 298.12 205.843 298.122C205.846 298.123 205.849 298.124 205.85 298.124C205.85 298.124 205.851 298.124 205.851 298.125C205.851 298.125 205.851 298.125 205.851 298.125C205.851 298.125 205.851 298.125 205.156 300ZM178.965 309.241C184.659 305.808 191.068 303.022 196.019 301.101C198.502 300.138 200.634 299.386 202.147 298.875C202.904 298.619 203.507 298.423 203.923 298.291C204.131 298.224 204.292 298.174 204.402 298.139C204.458 298.122 204.5 298.109 204.529 298.1C204.544 298.096 204.555 298.092 204.563 298.09C204.567 298.089 204.57 298.088 204.572 298.087C204.573 298.087 204.574 298.087 204.575 298.086C204.575 298.086 204.576 298.086 204.576 298.086C204.576 298.086 204.576 298.086 205.156 300C205.736 301.914 205.736 301.914 205.736 301.914C205.736 301.914 205.736 301.914 205.736 301.914C205.736 301.914 205.736 301.914 205.735 301.914C205.734 301.915 205.732 301.915 205.729 301.916C205.723 301.918 205.714 301.921 205.702 301.924C205.677 301.932 205.64 301.944 205.589 301.959C205.488 301.991 205.337 302.038 205.139 302.101C204.743 302.228 204.161 302.417 203.427 302.665C201.959 303.161 199.884 303.892 197.466 304.83C192.615 306.712 186.445 309.402 181.031 312.667L178.965 309.241ZM189.743 337.21C187.943 338.082 187.943 338.082 187.943 338.081C187.943 338.081 187.943 338.081 187.943 338.081C187.943 338.08 187.942 338.079 187.942 338.078C187.941 338.076 187.939 338.073 187.937 338.07C187.934 338.062 187.929 338.052 187.922 338.038C187.909 338.01 187.89 337.97 187.865 337.918C187.814 337.813 187.741 337.658 187.647 337.458C187.459 337.059 187.189 336.476 186.854 335.737C186.186 334.261 185.261 332.16 184.235 329.654C182.187 324.653 179.712 317.992 178.059 311.443L181.937 310.464C183.525 316.753 185.922 323.219 187.936 328.138C188.941 330.591 189.846 332.647 190.498 334.087C190.824 334.807 191.087 335.373 191.267 335.757C191.358 335.949 191.427 336.096 191.474 336.194C191.497 336.243 191.515 336.279 191.527 336.303C191.532 336.315 191.537 336.324 191.539 336.33C191.541 336.333 191.542 336.335 191.542 336.336C191.543 336.337 191.543 336.337 191.543 336.337C191.543 336.337 191.543 336.337 191.543 336.337C191.543 336.337 191.543 336.337 189.743 337.21ZM164.033 326.316C170.563 327.884 177.192 330.152 182.17 332.018C184.663 332.953 186.752 333.791 188.22 334.395C188.954 334.698 189.533 334.943 189.93 335.112C190.128 335.197 190.282 335.263 190.386 335.308C190.438 335.33 190.478 335.348 190.505 335.36C190.518 335.366 190.529 335.37 190.536 335.373C190.54 335.375 190.543 335.376 190.545 335.377C190.546 335.378 190.546 335.378 190.547 335.378C190.547 335.378 190.548 335.378 190.548 335.379C190.548 335.379 190.548 335.379 189.743 337.21C188.938 339.04 188.938 339.04 188.938 339.04C188.938 339.04 188.938 339.04 188.938 339.04C188.938 339.04 188.937 339.04 188.937 339.04C188.936 339.039 188.933 339.038 188.931 339.037C188.925 339.035 188.916 339.031 188.904 339.025C188.88 339.015 188.843 338.999 188.795 338.978C188.697 338.936 188.551 338.873 188.359 338.791C187.977 338.627 187.413 338.389 186.696 338.094C185.26 337.502 183.212 336.681 180.765 335.763C175.863 333.925 169.404 331.719 163.099 330.205L164.033 326.316ZM152.534 352.622C150.645 351.967 150.645 351.966 150.645 351.966C150.645 351.966 150.645 351.966 150.645 351.965C150.645 351.965 150.645 351.964 150.646 351.963C150.647 351.961 150.648 351.958 150.649 351.954C150.651 351.947 150.655 351.937 150.66 351.923C150.669 351.896 150.683 351.856 150.701 351.805C150.738 351.702 150.791 351.551 150.862 351.355C151.003 350.965 151.21 350.397 151.478 349.682C152.015 348.252 152.798 346.23 153.784 343.858C155.753 339.122 158.549 332.943 161.835 327.259L165.298 329.261C162.133 334.735 159.413 340.737 157.478 345.393C156.513 347.716 155.747 349.693 155.223 351.088C154.961 351.785 154.76 352.336 154.625 352.711C154.558 352.898 154.507 353.042 154.473 353.138C154.456 353.185 154.443 353.221 154.435 353.245C154.431 353.257 154.428 353.265 154.426 353.271C154.425 353.274 154.424 353.276 154.424 353.277C154.424 353.277 154.424 353.278 154.423 353.278C154.423 353.278 154.423 353.278 154.423 353.278C154.423 353.278 154.424 353.278 152.534 352.622ZM142.055 326.736C145.564 332.462 148.649 338.755 150.849 343.594C151.951 346.019 152.836 348.089 153.447 349.555C153.752 350.288 153.988 350.87 154.149 351.271C154.23 351.471 154.291 351.626 154.333 351.732C154.354 351.785 154.37 351.825 154.381 351.853C154.386 351.867 154.39 351.877 154.393 351.885C154.395 351.888 154.396 351.891 154.396 351.893C154.397 351.894 154.397 351.895 154.397 351.896C154.398 351.896 154.398 351.896 154.398 351.896C154.398 351.897 154.398 351.897 152.534 352.622C150.67 353.348 150.67 353.348 150.67 353.348C150.67 353.348 150.67 353.348 150.67 353.347C150.67 353.347 150.67 353.347 150.67 353.346C150.669 353.345 150.668 353.343 150.667 353.34C150.665 353.334 150.661 353.325 150.657 353.313C150.647 353.289 150.632 353.251 150.613 353.202C150.574 353.103 150.515 352.955 150.437 352.762C150.282 352.376 150.052 351.809 149.754 351.092C149.157 349.659 148.289 347.629 147.208 345.25C145.04 340.483 142.033 334.355 138.645 328.826L142.055 326.736ZM115.324 337.21C114.404 335.434 114.404 335.434 114.404 335.434C114.404 335.434 114.405 335.433 114.405 335.433C114.406 335.433 114.406 335.432 114.408 335.432C114.41 335.431 114.412 335.429 114.416 335.428C114.423 335.424 114.433 335.419 114.446 335.412C114.473 335.398 114.511 335.379 114.561 335.353C114.661 335.303 114.807 335.229 114.996 335.134C115.374 334.945 115.925 334.674 116.623 334.34C118.02 333.672 120.01 332.753 122.393 331.742C127.147 329.726 133.521 327.321 139.896 325.833L140.804 329.729C134.745 331.143 128.607 333.452 123.955 335.425C121.636 336.408 119.701 337.302 118.349 337.949C117.672 338.272 117.142 338.533 116.783 338.713C116.604 338.802 116.467 338.871 116.376 338.918C116.331 338.941 116.297 338.958 116.275 338.97C116.264 338.975 116.256 338.979 116.251 338.982C116.248 338.983 116.246 338.984 116.245 338.985C116.245 338.985 116.244 338.985 116.244 338.985C116.244 338.985 116.244 338.985 116.244 338.985C116.244 338.985 116.244 338.985 115.324 337.21ZM125.826 311.165C124.52 317.739 122.348 324.454 120.516 329.499C119.598 332.028 118.76 334.151 118.151 335.644C117.846 336.39 117.599 336.98 117.426 337.385C117.34 337.587 117.273 337.743 117.227 337.85C117.204 337.903 117.186 337.944 117.174 337.972C117.168 337.986 117.163 337.996 117.16 338.004C117.158 338.008 117.157 338.011 117.156 338.013C117.155 338.014 117.155 338.015 117.155 338.015C117.154 338.016 117.154 338.016 117.154 338.016C117.154 338.016 117.154 338.017 115.324 337.21C113.494 336.402 113.494 336.403 113.494 336.403C113.494 336.403 113.494 336.403 113.494 336.402C113.494 336.402 113.494 336.402 113.495 336.401C113.495 336.4 113.496 336.398 113.497 336.395C113.5 336.39 113.504 336.381 113.509 336.369C113.519 336.345 113.536 336.308 113.557 336.258C113.6 336.16 113.664 336.012 113.746 335.818C113.911 335.43 114.151 334.859 114.447 334.133C115.04 332.679 115.859 330.606 116.756 328.134C118.556 323.178 120.653 316.677 121.903 310.386L125.826 311.165ZM99.9118 300C100.517 298.094 100.517 298.094 100.517 298.094C100.517 298.094 100.518 298.094 100.518 298.094C100.519 298.094 100.52 298.095 100.521 298.095C100.523 298.096 100.526 298.097 100.529 298.098C100.537 298.1 100.548 298.104 100.561 298.108C100.589 298.117 100.629 298.13 100.681 298.147C100.785 298.18 100.936 298.23 101.132 298.295C101.523 298.426 102.091 298.619 102.805 298.87C104.231 299.373 106.244 300.112 108.596 301.06C113.289 302.95 119.39 305.692 124.909 309.07L122.82 312.482C117.567 309.266 111.693 306.619 107.102 304.77C104.813 303.848 102.856 303.13 101.475 302.643C100.784 302.399 100.238 302.214 99.8665 302.09C99.6808 302.028 99.5388 301.981 99.4442 301.951C99.397 301.935 99.3616 301.924 99.3386 301.916C99.3271 301.913 99.3187 301.91 99.3134 301.908C99.3107 301.908 99.3089 301.907 99.3078 301.907C99.3073 301.906 99.307 301.906 99.3069 301.906C99.3068 301.906 99.3069 301.906 99.3068 301.906C99.3069 301.906 99.3071 301.906 99.9118 300ZM124.459 289.859C119.012 293.36 113.054 296.36 108.481 298.477C106.189 299.538 104.234 300.382 102.85 300.962C102.157 301.252 101.607 301.477 101.228 301.629C101.039 301.705 100.893 301.763 100.792 301.803C100.742 301.823 100.704 301.838 100.678 301.848C100.664 301.853 100.654 301.857 100.647 301.86C100.644 301.861 100.641 301.862 100.639 301.863C100.638 301.864 100.637 301.864 100.636 301.864C100.636 301.864 100.636 301.864 100.636 301.864C100.635 301.865 100.635 301.865 99.9118 300C99.1886 298.135 99.1885 298.135 99.1884 298.135C99.1885 298.135 99.1884 298.135 99.1885 298.135C99.1887 298.135 99.189 298.135 99.1896 298.135C99.1907 298.135 99.1926 298.134 99.1952 298.133C99.2005 298.131 99.2088 298.127 99.2201 298.123C99.2428 298.114 99.2775 298.101 99.3237 298.082C99.4161 298.046 99.5547 297.991 99.7359 297.918C100.098 297.772 100.631 297.555 101.304 297.273C102.651 296.709 104.56 295.884 106.8 294.847C111.29 292.769 117.065 289.857 122.296 286.494L124.459 289.859ZM115.324 262.79C117.173 262.027 117.173 262.027 117.173 262.027C117.173 262.028 117.173 262.028 117.173 262.028C117.173 262.029 117.174 262.029 117.174 262.03C117.175 262.032 117.176 262.035 117.177 262.039C117.18 262.046 117.184 262.056 117.19 262.069C117.201 262.095 117.216 262.134 117.237 262.184C117.278 262.284 117.337 262.432 117.414 262.623C117.567 263.005 117.788 263.563 118.061 264.271C118.607 265.686 119.363 267.703 120.206 270.114C121.888 274.929 123.929 281.359 125.331 287.748L121.424 288.605C120.07 282.435 118.085 276.172 116.429 271.434C115.603 269.069 114.862 267.093 114.329 265.711C114.062 265.02 113.848 264.478 113.7 264.11C113.627 263.926 113.57 263.785 113.532 263.691C113.513 263.645 113.498 263.609 113.489 263.586C113.484 263.575 113.481 263.566 113.478 263.561C113.477 263.558 113.476 263.556 113.476 263.555C113.476 263.555 113.476 263.554 113.476 263.554C113.475 263.554 113.475 263.554 113.475 263.554C113.475 263.554 113.476 263.554 115.324 262.79ZM139.538 273.387C133.259 271.872 126.997 269.675 122.324 267.867C119.983 266.962 118.031 266.15 116.661 265.563C115.976 265.269 115.436 265.032 115.066 264.868C114.881 264.785 114.739 264.721 114.642 264.677C114.593 264.655 114.556 264.638 114.53 264.627C114.517 264.621 114.508 264.616 114.501 264.613C114.497 264.612 114.495 264.61 114.493 264.609C114.492 264.609 114.491 264.609 114.49 264.608C114.49 264.608 114.49 264.608 114.49 264.608C114.489 264.608 114.489 264.608 115.324 262.79C116.159 260.973 116.159 260.973 116.159 260.973C116.159 260.973 116.159 260.973 116.159 260.973C116.159 260.973 116.159 260.973 116.16 260.974C116.161 260.974 116.163 260.975 116.165 260.976C116.171 260.978 116.179 260.982 116.19 260.987C116.212 260.997 116.245 261.012 116.29 261.033C116.38 261.073 116.515 261.134 116.692 261.213C117.047 261.371 117.569 261.6 118.236 261.886C119.57 262.457 121.478 263.251 123.768 264.137C128.357 265.912 134.436 268.041 140.476 269.499L139.538 273.387ZM152.534 247.378C154.381 248.145 154.381 248.145 154.381 248.145C154.381 248.146 154.381 248.146 154.381 248.146C154.38 248.147 154.38 248.148 154.38 248.149C154.379 248.151 154.378 248.153 154.376 248.157C154.373 248.164 154.369 248.174 154.363 248.188C154.352 248.215 154.335 248.254 154.314 248.305C154.271 248.408 154.207 248.558 154.124 248.752C153.958 249.14 153.713 249.704 153.398 250.414C152.769 251.834 151.856 253.839 150.72 256.188C148.454 260.877 145.281 266.975 141.686 272.53L138.328 270.356C141.797 264.997 144.888 259.063 147.119 254.447C148.232 252.144 149.127 250.179 149.742 248.792C150.049 248.099 150.287 247.55 150.447 247.177C150.527 246.99 150.588 246.847 150.628 246.751C150.648 246.703 150.663 246.667 150.673 246.644C150.678 246.632 150.682 246.623 150.684 246.618C150.685 246.615 150.686 246.613 150.687 246.612C150.687 246.611 150.687 246.611 150.687 246.611C150.687 246.61 150.687 246.61 150.687 246.61C150.687 246.61 150.687 246.611 152.534 247.378ZM162.59 272.684C159.107 267.098 156.126 260.943 154.023 256.208C152.969 253.835 152.13 251.808 151.554 250.371C151.266 249.653 151.043 249.082 150.892 248.688C150.817 248.492 150.759 248.34 150.72 248.236C150.7 248.184 150.685 248.144 150.675 248.116C150.67 248.103 150.666 248.092 150.663 248.085C150.662 248.081 150.661 248.078 150.66 248.076C150.66 248.075 150.659 248.074 150.659 248.074C150.659 248.073 150.659 248.073 150.659 248.073C150.659 248.073 150.659 248.072 152.534 247.378C154.41 246.683 154.409 246.683 154.409 246.683C154.409 246.683 154.409 246.683 154.409 246.683C154.41 246.683 154.41 246.684 154.41 246.684C154.41 246.685 154.411 246.687 154.412 246.69C154.414 246.696 154.417 246.704 154.422 246.716C154.431 246.74 154.444 246.776 154.462 246.824C154.499 246.92 154.553 247.064 154.626 247.253C154.771 247.63 154.986 248.183 155.267 248.883C155.828 250.282 156.647 252.263 157.678 254.584C159.745 259.236 162.64 265.204 165.984 270.568L162.59 272.684Z" fill="url(#paint1_linear)"/>
</g>
<defs>
<linearGradient id="paint0_linear" x1="-91.5497" y1="50.3607" x2="893.101" y2="240.144" gradientUnits="userSpaceOnUse">
<stop stop-color="#503821"/>
<stop offset="0.619792" stop-color="#E9A261"/>
<stop offset="1" stop-color="#FFDEBF"/>
</linearGradient>
<linearGradient id="paint1_linear" x1="230.944" y1="313.751" x2="117.141" y2="236.729" gradientUnits="userSpaceOnUse">
<stop stop-color="#503821"/>
<stop offset="0.619792" stop-color="#E9A261"/>
<stop offset="1" stop-color="#FFDEBF"/>
</linearGradient>
<clipPath id="clip0">
<rect width="800" height="600" fill="white"/>
</clipPath>
</defs>
</svg>
