<svg width="800" height="600" viewBox="0 0 800 600" fill="none" xmlns="http://www.w3.org/2000/svg">
<g clip-path="url(#clip0)">
<path d="M400.868 -61.8019L400 -62.2198L399.132 -61.8019L117.673 73.7417L116.805 74.1596L116.591 75.0986L47.0761 379.663L46.8618 380.602L47.4623 381.355L242.238 625.596L242.839 626.349H243.802H556.198H557.161L557.762 625.596L752.538 381.355L753.138 380.602L752.924 379.663L683.409 75.0986L683.195 74.1596L682.327 73.7417L400.868 -61.8019Z" stroke="url(#paint0_linear)" stroke-width="4"/>
<path d="M400.434 -16.901L400 -17.1099L399.566 -16.901L152.507 102.076L152.073 102.285L151.966 102.755L90.9479 370.094L90.8407 370.564L91.141 370.94L262.111 585.33L262.411 585.706H262.893H537.107H537.589L537.889 585.33L708.859 370.94L709.159 370.564L709.052 370.094L648.034 102.755L647.927 102.285L647.493 102.076L400.434 -16.901Z" stroke="#666666" stroke-width="2"/>
<path d="M400.434 28.099L400 27.8901L399.566 28.099L187.69 130.133L187.256 130.342L187.149 130.812L134.82 360.081L134.712 360.55L135.013 360.927L281.636 544.786L281.936 545.163H282.418H517.582H518.064L518.364 544.786L664.987 360.927L665.288 360.55L665.18 360.081L612.851 130.812L612.744 130.342L612.31 130.133L400.434 28.099Z" stroke="#666666" stroke-width="2"/>
<path d="M400.434 85.099L400 84.8901L399.566 85.099L232.254 165.672L231.82 165.881L231.713 166.351L190.391 347.397L190.283 347.866L190.584 348.243L306.367 493.431L306.667 493.807H307.149H492.851H493.333L493.633 493.431L609.416 348.243L609.717 347.866L609.609 347.397L568.287 166.351L568.18 165.881L567.746 165.672L400.434 85.099Z" stroke="#999999" stroke-width="2"/>
<path d="M400.434 134.099L400 133.89L399.566 134.099L270.564 196.223L270.13 196.432L270.023 196.902L238.162 336.493L238.055 336.963L238.355 337.339L327.627 449.283L327.928 449.66H328.409H471.591H472.072L472.373 449.283L561.645 337.339L561.945 336.963L561.838 336.493L529.977 196.902L529.87 196.432L529.436 196.223L400.434 134.099Z" stroke="#999999" stroke-width="2"/>
<path d="M400.434 188.099L400 187.89L399.566 188.099L312.783 229.892L312.349 230.101L312.242 230.57L290.808 324.477L290.701 324.947L291.001 325.323L351.057 400.631L351.357 401.008H351.839H448.161H448.643L448.943 400.631L508.999 325.323L509.299 324.947L509.192 324.477L487.758 230.57L487.651 230.101L487.217 229.892L400.434 188.099Z" stroke="#999999" stroke-width="2"/>
<path d="M400.312 350.136C393.4 350.136 386.92 348.84 380.872 346.248C374.92 343.656 369.64 340.104 365.032 335.592C360.424 330.984 356.824 325.656 354.232 319.608C351.64 313.56 350.344 307.08 350.344 300.168C350.344 293.256 351.64 286.824 354.232 280.872C356.824 274.824 360.376 269.496 364.888 264.888C369.496 260.28 374.824 256.68 380.872 254.088C386.92 251.496 393.4 250.2 400.312 250.2C407.224 250.2 413.704 251.496 419.752 254.088C425.8 256.68 431.08 260.28 435.592 264.888C440.2 269.4 443.8 274.68 446.392 280.728C448.984 286.776 450.28 293.256 450.28 300.168C450.28 307.08 448.984 313.56 446.392 319.608C443.8 325.656 440.2 330.984 435.592 335.592C431.08 340.104 425.8 343.656 419.752 346.248C413.704 348.84 407.224 350.136 400.312 350.136ZM400.312 344.52C406.36 344.52 412.072 343.368 417.448 341.064C422.824 338.76 427.528 335.592 431.56 331.56C435.688 327.432 438.904 322.68 441.208 317.304C443.512 311.928 444.664 306.216 444.664 300.168C444.664 294.12 443.512 288.408 441.208 283.032C438.904 277.656 435.688 272.952 431.56 268.92C427.528 264.792 422.824 261.576 417.448 259.272C412.168 256.968 406.456 255.816 400.312 255.816C394.264 255.816 388.552 256.968 383.176 259.272C377.8 261.576 373.048 264.792 368.92 268.92C364.888 272.952 361.72 277.656 359.416 283.032C357.112 288.312 355.96 294.024 355.96 300.168C355.96 306.216 357.112 311.928 359.416 317.304C361.72 322.68 364.888 327.432 368.92 331.56C373.048 335.592 377.8 338.76 383.176 341.064C388.552 343.368 394.264 344.52 400.312 344.52ZM417.16 317.736C410.344 317.736 404.68 313.752 400.168 305.784C395.464 313.56 389.944 317.448 383.608 317.448C378.616 317.448 374.584 315.864 371.512 312.696C368.44 309.432 366.904 305.16 366.904 299.88C366.904 294.792 368.44 290.616 371.512 287.352C374.68 284.088 378.712 282.456 383.608 282.456C390.136 282.456 395.656 286.44 400.168 294.408C404.776 286.632 410.44 282.744 417.16 282.744C422.248 282.744 426.28 284.376 429.256 287.64C432.232 290.904 433.72 295.08 433.72 300.168C433.72 305.064 432.184 309.24 429.112 312.696C426.04 316.056 422.056 317.736 417.16 317.736ZM384.04 311.256C386.536 311.256 388.84 310.392 390.952 308.664C393.16 306.936 395.224 304.008 397.144 299.88C395.32 295.944 393.304 293.112 391.096 291.384C388.984 289.56 386.488 288.648 383.608 288.648C380.536 288.648 378.04 289.752 376.12 291.96C374.2 294.072 373.24 296.76 373.24 300.024C373.24 303.384 374.2 306.12 376.12 308.232C378.136 310.248 380.776 311.256 384.04 311.256ZM416.872 311.544C419.944 311.544 422.44 310.488 424.36 308.376C426.376 306.168 427.384 303.432 427.384 300.168C427.384 296.808 426.376 294.072 424.36 291.96C422.344 289.848 419.704 288.792 416.44 288.792C413.944 288.792 411.688 289.704 409.672 291.528C407.656 293.352 405.592 296.232 403.48 300.168C405.304 304.104 407.272 306.984 409.384 308.808C411.592 310.632 414.088 311.544 416.872 311.544Z" fill="url(#paint1_linear)"/>
</g>
<defs>
<linearGradient id="paint0_linear" x1="-45.8278" y1="-12.7869" x2="877.282" y2="165.135" gradientUnits="userSpaceOnUse">
<stop stop-color="#503821"/>
<stop offset="0.619792" stop-color="#E9A261"/>
<stop offset="1" stop-color="#FFDEBF"/>
</linearGradient>
<linearGradient id="paint1_linear" x1="329.291" y1="204.492" x2="480.687" y2="219.676" gradientUnits="userSpaceOnUse">
<stop stop-color="#503821"/>
<stop offset="0.619792" stop-color="#E9A261"/>
<stop offset="1" stop-color="#FFDEBF"/>
</linearGradient>
<clipPath id="clip0">
<rect width="800" height="600" fill="white"/>
</clipPath>
</defs>
</svg>
