<svg width="800" height="600" viewBox="0 0 800 600" fill="none" xmlns="http://www.w3.org/2000/svg">
<g clip-path="url(#clip0)">
<path d="M372.219 32.4443L419.061 128.549C421.884 134.342 420.692 141.29 416.1 145.811L281.623 278.196C274.461 285.247 262.528 283.398 257.835 274.511L208.44 180.96C205.348 175.105 206.462 167.915 211.18 163.268L348.211 28.3285C355.517 21.1339 367.726 23.2271 372.219 32.4443Z" stroke="#E1E1E1" stroke-width="2"/>
<path d="M540.219 338.444L587.061 434.549C589.884 440.342 588.692 447.29 584.1 451.811L449.623 584.196C442.461 591.247 430.528 589.398 425.835 580.511L376.44 486.96C373.348 481.105 374.462 473.915 379.18 469.268L516.211 334.328C523.517 327.134 535.726 329.227 540.219 338.444Z" stroke="#999999" stroke-width="2"/>
<path d="M457.32 184.882L504.162 280.987C506.797 286.394 505.685 292.879 501.399 297.098L366.921 429.484C360.237 436.064 349.099 434.338 344.72 426.044L295.324 332.493C292.439 327.028 293.478 320.317 297.881 315.981L434.912 181.041C441.731 174.326 453.127 176.28 457.32 184.882Z" stroke="url(#paint0_linear)" stroke-width="4"/>
<path d="M642.219 9.44434L689.061 105.549C691.884 111.342 690.692 118.29 686.1 122.811L551.623 255.196C544.461 262.247 532.528 260.398 527.835 251.511L478.44 157.96C475.348 152.105 476.462 144.915 481.18 140.268L618.211 5.32846C625.517 -1.8661 637.726 0.2271 642.219 9.44434Z" stroke="#CCCCCC" stroke-width="2"/>
<path d="M717.219 162.444L764.061 258.549C766.884 264.342 765.692 271.29 761.1 275.811L626.623 408.196C619.461 415.247 607.528 413.398 602.835 404.511L553.44 310.96C550.348 305.105 551.462 297.915 556.18 293.268L693.211 158.328C700.517 151.134 712.726 153.227 717.219 162.444Z" stroke="#CCCCCC" stroke-width="2"/>
<path d="M792.219 315.444L839.061 411.549C841.884 417.342 840.692 424.29 836.1 428.811L701.623 561.196C694.461 568.247 682.528 566.398 677.835 557.511L628.44 463.96C625.348 458.105 626.462 450.915 631.18 446.268L768.211 311.328C775.517 304.134 787.726 306.227 792.219 315.444Z" stroke="#999999" stroke-width="2"/>
<path d="M867.219 468.444L914.061 564.549C916.884 570.342 915.692 577.29 911.1 581.811L776.623 714.196C769.461 721.247 757.528 719.398 752.835 710.511L703.44 616.96C700.348 611.105 701.462 603.915 706.18 599.268L843.211 464.328C850.517 457.134 862.726 459.227 867.219 468.444Z" stroke="#999999" stroke-width="2"/>
<path d="M273.219 353.444L320.061 449.549C322.884 455.342 321.692 462.29 317.1 466.811L182.623 599.196C175.461 606.247 163.528 604.398 158.835 595.511L109.44 501.96C106.348 496.105 107.462 488.915 112.18 484.268L249.211 349.328C256.517 342.134 268.726 344.227 273.219 353.444Z" stroke="#CCCCCC" stroke-width="2"/>
<path d="M193.219 204.444L240.061 300.549C242.884 306.342 241.692 313.29 237.1 317.811L102.623 450.196C95.4612 457.247 83.5277 455.398 78.8353 446.511L29.4401 352.96C26.3483 347.105 27.4618 339.915 32.1798 335.268L169.211 200.328C176.517 193.134 188.726 195.227 193.219 204.444Z" stroke="#CCCCCC" stroke-width="2"/>
<path d="M113.219 55.4443L160.061 151.549C162.884 157.342 161.692 164.29 157.1 168.811L22.623 301.196C15.4612 308.247 3.52773 306.398 -1.16471 297.511L-50.5599 203.96C-53.6517 198.105 -52.5382 190.915 -47.8202 186.268L89.2106 51.3285C96.5166 44.1339 108.726 46.2271 113.219 55.4443Z" stroke="#E1E1E1" stroke-width="2"/>
<path d="M33.219 -93.5557L80.0607 2.54917C82.8839 8.34158 81.6922 15.2899 77.1002 19.8105L-57.377 152.196C-64.5388 159.247 -76.4723 157.398 -81.1647 148.511L-130.56 54.96C-133.652 49.1045 -132.538 41.9145 -127.82 37.2685L9.21059 -97.6715C16.5166 -104.866 28.7265 -102.773 33.219 -93.5557Z" stroke="#E1E1E1" stroke-width="2"/>
<path d="M295.219 -119.556L342.061 -23.4508C344.884 -17.6584 343.692 -10.7101 339.1 -6.18947L204.623 126.196C197.461 133.247 185.528 131.398 180.835 122.511L131.44 28.96C128.348 23.1045 129.462 15.9145 134.18 11.2685L271.211 -123.672C278.517 -130.866 290.726 -128.773 295.219 -119.556Z" stroke="#E1E1E1" stroke-width="2"/>
<path d="M557.219 -145.556L604.061 -49.4508C606.884 -43.6584 605.692 -36.7101 601.1 -32.1895L466.623 100.196C459.461 107.247 447.528 105.398 442.835 96.5106L393.44 2.96001C390.348 -2.89548 391.462 -10.0855 396.18 -14.7315L533.211 -149.672C540.517 -156.866 552.726 -154.773 557.219 -145.556Z" stroke="#E1E1E1" stroke-width="2"/>
<path d="M819.219 -171.556L866.061 -75.4508C868.884 -69.6584 867.692 -62.7101 863.1 -58.1895L728.623 74.1963C721.461 81.2467 709.528 79.3977 704.835 70.5106L655.44 -23.04C652.348 -28.8955 653.462 -36.0855 658.18 -40.7315L795.211 -175.672C802.517 -182.866 814.726 -180.773 819.219 -171.556Z" stroke="#CCCCCC" stroke-width="2"/>
<path d="M896.219 -18.5557L943.061 77.5492C945.884 83.3416 944.692 90.2899 940.1 94.8105L805.623 227.196C798.461 234.247 786.528 232.398 781.835 223.511L732.44 129.96C729.348 124.105 730.462 116.915 735.18 112.268L872.211 -22.6715C879.517 -29.8661 891.726 -27.7729 896.219 -18.5557Z" stroke="#CCCCCC" stroke-width="2"/>
<path d="M612.219 494.444L659.061 590.549C661.884 596.342 660.692 603.29 656.1 607.811L521.623 740.196C514.461 747.247 502.528 745.398 497.835 736.511L448.44 642.96C445.348 637.105 446.462 629.915 451.18 625.268L588.211 490.328C595.517 483.134 607.726 485.227 612.219 494.444Z" stroke="#999999" stroke-width="2"/>
<path d="M352.219 513.444L399.061 609.549C401.884 615.342 400.692 622.29 396.1 626.811L261.623 759.196C254.461 766.247 242.528 764.398 237.835 755.511L188.44 661.96C185.348 656.105 186.462 648.915 191.18 644.268L328.211 509.328C335.517 502.134 347.726 504.227 352.219 513.444Z" stroke="#CCCCCC" stroke-width="2"/>
<path d="M92.219 532.444L139.061 628.549C141.884 634.342 140.692 641.29 136.1 645.811L1.62296 778.196C-5.53883 785.247 -17.4723 783.398 -22.1647 774.511L-71.5599 680.96C-74.6517 675.105 -73.5382 667.915 -68.8202 663.268L68.2106 528.328C75.5166 521.134 87.7265 523.227 92.219 532.444Z" stroke="#CCCCCC" stroke-width="2"/>
<path d="M13.219 382.444L60.0607 478.549C62.8839 484.342 61.6922 491.29 57.1002 495.811L-77.377 628.196C-84.5388 635.247 -96.4723 633.398 -101.165 624.511L-150.56 530.96C-153.652 525.105 -152.538 517.915 -147.82 513.268L-10.7894 378.328C-3.48338 371.134 8.72649 373.227 13.219 382.444Z" stroke="#CCCCCC" stroke-width="2"/>
</g>
<defs>
<linearGradient id="paint0_linear" x1="261.417" y1="182.492" x2="551.214" y2="226.661" gradientUnits="userSpaceOnUse">
<stop stop-color="#503821"/>
<stop offset="0.619792" stop-color="#E9A261"/>
<stop offset="1" stop-color="#FFDEBF"/>
</linearGradient>
<clipPath id="clip0">
<rect width="800" height="600" fill="white"/>
</clipPath>
</defs>
</svg>
