<svg width="800" height="600" viewBox="0 0 800 600" fill="none" xmlns="http://www.w3.org/2000/svg">
<g clip-path="url(#clip0)">
<path fill-rule="evenodd" clip-rule="evenodd" d="M156.696 175.444C171.269 207.448 180.309 251.731 180.309 300.698C180.309 349.665 171.269 393.948 156.696 425.952C142.63 456.84 123.589 475.947 102.819 477.338C82.0482 475.947 63.0071 456.84 48.9414 425.952C34.3681 393.948 25.328 349.665 25.328 300.698C25.328 251.731 34.3681 207.448 48.9414 175.444C63.0071 144.556 82.0482 125.449 102.819 124.058C123.589 125.449 142.63 144.556 156.696 175.444ZM102.819 122.053C102.009 122.002 101.197 121.977 100.381 121.977V122L20.4282 122V121.977C-2.55179 121.977 -23.0307 142.386 -37.7067 174.616C-52.4236 206.934 -61.4999 251.512 -61.4999 300.698C-61.4999 349.884 -52.4236 394.462 -37.7067 426.78C-23.2386 458.553 -3.13092 478.839 19.453 479.407V479.443H101.356V479.407C101.845 479.395 102.332 479.373 102.819 479.343C103.628 479.394 104.44 479.419 105.256 479.419V479.111C126.251 476.449 144.886 456.712 158.516 426.78C173.233 394.462 182.309 349.884 182.309 300.698C182.309 251.512 173.233 206.934 158.516 174.616C144.886 144.684 126.251 124.947 105.256 122.285V121.977C104.44 121.977 103.628 122.002 102.819 122.053ZM92.9761 477.443C75.0132 471.598 59.126 453.143 47.1213 426.78C32.4044 394.462 23.328 349.884 23.328 300.698C23.328 251.512 32.4044 206.934 47.1213 174.616C59.0943 148.322 74.9294 129.896 92.8339 124L19.453 124V123.99C-1.88504 124.56 -21.4914 143.832 -35.8865 175.444C-50.4599 207.448 -59.4999 251.731 -59.4999 300.698C-59.4999 349.665 -50.4599 393.948 -35.8865 425.952C-21.2724 458.045 -1.28716 477.419 20.4282 477.419V477.443H92.9761Z" fill="#999999"/>
<path fill-rule="evenodd" clip-rule="evenodd" d="M473.196 175.468C487.769 207.471 496.809 251.754 496.809 300.721C496.809 349.688 487.769 393.971 473.196 425.975C459.13 456.864 440.089 475.97 419.319 477.361C398.548 475.97 379.507 456.864 365.441 425.975C350.868 393.971 341.828 349.688 341.828 300.721C341.828 251.754 350.868 207.471 365.441 175.468C379.507 144.579 398.548 125.472 419.319 124.082C440.089 125.472 459.13 144.579 473.196 175.468ZM419.319 122.077C418.509 122.026 417.697 122 416.881 122V122.023L336.928 122.023V122C313.948 122 293.469 142.41 278.793 174.639C264.076 206.958 255 251.536 255 300.721C255 349.907 264.076 394.485 278.793 426.804C293.261 458.576 313.369 478.862 335.953 479.431V479.466H417.856V479.431C418.345 479.418 418.832 479.397 419.319 479.366C420.128 479.417 420.94 479.443 421.756 479.443V479.135C442.751 476.473 461.386 456.735 475.016 426.804C489.733 394.485 498.809 349.907 498.809 300.721C498.809 251.536 489.733 206.958 475.016 174.639C461.386 144.707 442.751 124.97 421.756 122.308V122C420.94 122 420.128 122.026 419.319 122.077ZM409.476 477.466C391.513 471.621 375.626 453.167 363.621 426.804C348.904 394.485 339.828 349.907 339.828 300.721C339.828 251.536 348.904 206.958 363.621 174.639C375.594 148.346 391.429 129.919 409.334 124.023L335.953 124.023V124.013C314.615 124.584 295.009 143.856 280.613 175.468C266.04 207.471 257 251.754 257 300.721C257 349.688 266.04 393.971 280.613 425.975C295.228 458.068 315.213 477.443 336.928 477.443V477.466H409.476Z" fill="#999999"/>
<path fill-rule="evenodd" clip-rule="evenodd" d="M672.693 175.444C687.266 207.448 696.306 251.731 696.306 300.698C696.306 349.665 687.266 393.948 672.693 425.952C658.669 456.749 639.699 475.834 619 477.325V477H615.733C596.166 474.019 578.305 455.305 564.939 425.952C550.365 393.948 541.325 349.665 541.325 300.698C541.325 251.731 550.365 207.448 564.939 175.444C579.004 144.556 598.045 125.449 618.816 124.058C639.586 125.449 658.627 144.556 672.693 175.444ZM607.684 477C590.25 470.707 574.835 452.51 563.119 426.78C548.402 394.462 539.325 349.884 539.325 300.698C539.325 251.512 548.402 206.934 563.119 174.616C575.092 148.322 590.927 129.896 608.831 124L579.122 124C557.912 124.76 538.434 143.996 524.113 175.444C509.54 207.448 500.5 251.731 500.5 300.698C500.5 349.665 509.54 393.948 524.113 425.952C538.407 457.34 557.837 476.562 579 477.391V477H607.684ZM580.428 479V479.419C557.448 479.419 536.969 459.01 522.293 426.78C507.576 394.462 498.5 349.884 498.5 300.698C498.5 251.512 507.576 206.934 522.293 174.616C536.664 143.056 556.6 122.829 579 122.003V122H579.081C579.529 121.984 579.978 121.977 580.428 121.977V122L616.378 122V121.977C616.828 121.977 617.278 121.984 617.726 122L619 122V122.042C619.748 121.999 620.5 121.977 621.253 121.977V122.285C642.248 124.947 660.883 144.684 674.513 174.616C689.23 206.934 698.306 251.512 698.306 300.698C698.306 349.884 689.23 394.462 674.513 426.78C660.883 456.712 642.248 476.449 621.253 479.111V479.419C620.438 479.419 619.625 479.394 618.816 479.343C618.006 479.394 617.194 479.419 616.378 479.419V479.111C616.108 479.077 615.838 479.04 615.568 479H580.428Z" fill="#999999"/>
<path fill-rule="evenodd" clip-rule="evenodd" d="M745.693 175.444C760.266 207.448 769.306 251.731 769.306 300.698C769.306 349.665 760.266 393.948 745.693 425.952C731.669 456.749 712.699 475.834 692 477.325V477H688.733C669.166 474.019 651.305 455.305 637.939 425.952C623.365 393.948 614.325 349.665 614.325 300.698C614.325 251.731 623.365 207.448 637.939 175.444C652.004 144.556 671.045 125.449 691.816 124.058C712.586 125.449 731.627 144.556 745.693 175.444ZM680.684 477C663.25 470.707 647.835 452.51 636.119 426.78C621.402 394.462 612.325 349.884 612.325 300.698C612.325 251.512 621.402 206.934 636.119 174.616C648.092 148.322 663.927 129.896 681.831 124L652.122 124C630.912 124.76 611.434 143.996 597.113 175.444C582.54 207.448 573.5 251.731 573.5 300.698C573.5 349.665 582.54 393.948 597.113 425.952C611.407 457.34 630.837 476.562 652 477.391V477H680.684ZM653.428 479V479.419C630.448 479.419 609.969 459.01 595.293 426.78C580.576 394.462 571.5 349.884 571.5 300.698C571.5 251.512 580.576 206.934 595.293 174.616C609.664 143.056 629.6 122.829 652 122.003V122H652.081C652.529 121.984 652.978 121.977 653.428 121.977V122L689.378 122V121.977C689.828 121.977 690.278 121.984 690.726 122L692 122V122.042C692.748 121.999 693.5 121.977 694.253 121.977V122.285C715.248 124.947 733.883 144.684 747.513 174.616C762.23 206.934 771.306 251.512 771.306 300.698C771.306 349.884 762.23 394.462 747.513 426.78C733.883 456.712 715.248 476.449 694.253 479.111V479.419C693.438 479.419 692.625 479.394 691.816 479.343C691.006 479.394 690.194 479.419 689.378 479.419V479.111C689.108 479.077 688.838 479.04 688.568 479H653.428Z" fill="#999999"/>
<path fill-rule="evenodd" clip-rule="evenodd" d="M818.693 175.444C833.266 207.448 842.306 251.731 842.306 300.698C842.306 349.665 833.266 393.948 818.693 425.952C804.669 456.749 785.699 475.834 765 477.325V477H761.733C742.166 474.019 724.305 455.305 710.939 425.952C696.365 393.948 687.325 349.665 687.325 300.698C687.325 251.731 696.365 207.448 710.939 175.444C725.004 144.556 744.045 125.449 764.816 124.058C785.586 125.449 804.627 144.556 818.693 175.444ZM753.684 477C736.25 470.707 720.835 452.51 709.119 426.78C694.402 394.462 685.325 349.884 685.325 300.698C685.325 251.512 694.402 206.934 709.119 174.616C721.092 148.322 736.927 129.896 754.831 124L725.122 124C703.912 124.76 684.434 143.996 670.113 175.444C655.54 207.448 646.5 251.731 646.5 300.698C646.5 349.665 655.54 393.948 670.113 425.952C684.407 457.34 703.837 476.562 725 477.391V477H753.684ZM726.428 479V479.419C703.448 479.419 682.969 459.01 668.293 426.78C653.576 394.462 644.5 349.884 644.5 300.698C644.5 251.512 653.576 206.934 668.293 174.616C682.664 143.056 702.6 122.829 725 122.003V122H725.081C725.529 121.984 725.978 121.977 726.428 121.977V122L762.378 122V121.977C762.828 121.977 763.278 121.984 763.726 122L765 122V122.042C765.748 121.999 766.5 121.977 767.253 121.977V122.285C788.248 124.947 806.883 144.684 820.513 174.616C835.23 206.934 844.306 251.512 844.306 300.698C844.306 349.884 835.23 394.462 820.513 426.78C806.883 456.712 788.248 476.449 767.253 479.111V479.419C766.438 479.419 765.625 479.394 764.816 479.343C764.006 479.394 763.194 479.419 762.378 479.419V479.111C762.108 479.077 761.838 479.04 761.568 479H726.428Z" fill="#999999"/>
<path fill-rule="evenodd" clip-rule="evenodd" d="M891.693 175.444C906.266 207.448 915.306 251.731 915.306 300.698C915.306 349.665 906.266 393.948 891.693 425.952C877.669 456.749 858.699 475.834 838 477.325V477H834.733C815.166 474.019 797.305 455.305 783.939 425.952C769.365 393.948 760.325 349.665 760.325 300.698C760.325 251.731 769.365 207.448 783.939 175.444C798.004 144.556 817.045 125.449 837.816 124.058C858.586 125.449 877.627 144.556 891.693 175.444ZM826.684 477C809.25 470.707 793.835 452.51 782.119 426.78C767.402 394.462 758.325 349.884 758.325 300.698C758.325 251.512 767.402 206.934 782.119 174.616C794.092 148.322 809.927 129.896 827.831 124L798.122 124C776.912 124.76 757.434 143.996 743.113 175.444C728.54 207.448 719.5 251.731 719.5 300.698C719.5 349.665 728.54 393.948 743.113 425.952C757.407 457.34 776.837 476.562 798 477.391V477H826.684ZM799.428 479V479.419C776.448 479.419 755.969 459.01 741.293 426.78C726.576 394.462 717.5 349.884 717.5 300.698C717.5 251.512 726.576 206.934 741.293 174.616C755.664 143.056 775.6 122.829 798 122.003V122H798.081C798.529 121.984 798.978 121.977 799.428 121.977V122L835.378 122V121.977C835.828 121.977 836.278 121.984 836.726 122L838 122V122.042C838.748 121.999 839.5 121.977 840.253 121.977V122.285C861.248 124.947 879.883 144.684 893.513 174.616C908.23 206.934 917.306 251.512 917.306 300.698C917.306 349.884 908.23 394.462 893.513 426.78C879.883 456.712 861.248 476.449 840.253 479.111V479.419C839.438 479.419 838.625 479.394 837.816 479.343C837.006 479.394 836.194 479.419 835.378 479.419V479.111C835.108 479.077 834.838 479.04 834.568 479H799.428Z" fill="#999999"/>
<path fill-rule="evenodd" clip-rule="evenodd" d="M340.282 296C339.724 248.565 330.744 205.643 316.426 174.201C302.741 144.146 283.843 123.937 262.257 121.276V120.977C261.441 120.977 260.628 121.002 259.819 121.051C259.01 121.002 258.197 120.977 257.381 120.977V121L177.428 121V120.977C153.816 120.977 133.09 141.904 118.383 174.201C104.066 205.643 95.0852 248.565 94.5275 296L-6 296L-6 286.453L-26 298L-6 309.547V300L94.5005 300C94.5001 300.233 94.4999 300.465 94.4999 300.698C94.4999 349.993 103.594 394.718 118.383 427.195C132.887 459.047 153.245 479.84 176.453 480.407V480.442H258.356V480.407C258.845 480.395 259.333 480.375 259.819 480.345C260.628 480.394 261.441 480.419 262.257 480.419V480.12C283.843 477.459 302.741 457.25 316.426 427.195C331.215 394.718 340.31 349.993 340.31 300.698C340.31 300.465 340.309 300.233 340.309 300L651 300V309.547L671 298L651 286.453V296L340.282 296ZM336.282 296C335.724 249.015 326.821 206.681 312.786 175.859C298.766 145.071 279.982 126.453 259.819 125.061C239.656 126.453 220.872 145.071 206.852 175.859C192.817 206.681 183.914 249.015 183.356 296L336.282 296ZM336.309 300L183.329 300C183.329 300.233 183.329 300.465 183.329 300.698C183.329 349.556 192.35 393.691 206.852 425.537C220.872 456.325 239.656 474.942 259.819 476.335C279.982 474.942 298.766 456.325 312.786 425.537C327.288 393.691 336.31 349.556 336.31 300.698C336.31 300.465 336.309 300.233 336.309 300ZM179.356 296C179.914 248.565 188.894 205.643 203.212 174.201C214.12 150.246 228.34 132.545 244.593 125L176.453 125V124.99C155.737 125.562 136.382 144.328 122.023 175.859C107.988 206.681 99.0857 249.015 98.5278 296H179.356ZM98.5005 300H179.329C179.329 300.233 179.329 300.465 179.329 300.698C179.329 349.993 188.423 394.718 203.212 427.195C214.143 451.2 228.398 468.923 244.693 476.442H177.428V476.419C156.345 476.419 136.607 457.562 122.023 425.537C107.522 393.691 98.4999 349.556 98.4999 300.698C98.4999 300.465 98.5001 300.233 98.5005 300Z" fill="url(#paint0_linear)"/>
</g>
<defs>
<linearGradient id="paint0_linear" x1="-109.086" y1="144.548" x2="704.149" y2="448.473" gradientUnits="userSpaceOnUse">
<stop stop-color="#BD5B00"/>
<stop offset="0.619792" stop-color="#E9A261"/>
<stop offset="1" stop-color="#FFDEBF"/>
</linearGradient>
<clipPath id="clip0">
<rect width="800" height="600" fill="white"/>
</clipPath>
</defs>
</svg>
