<svg width="800" height="600" viewBox="0 0 800 600" fill="none" xmlns="http://www.w3.org/2000/svg">
<g clip-path="url(#clip0)">
<rect x="232.206" y="610.513" width="434.083" height="349.377" rx="3" transform="rotate(-18.5053 232.206 610.513)" stroke="#999999" stroke-width="2"/>
<rect x="287.266" y="-129.959" width="434.083" height="349.377" rx="3" transform="rotate(-18.5053 287.266 -129.959)" stroke="#999999" stroke-width="2"/>
<rect x="507.266" y="-25.5732" width="148.59" height="277.219" rx="3" transform="rotate(-18.5053 507.266 -25.5732)" stroke="#999999" stroke-width="2"/>
<path d="M671.493 189.691C673.792 196.561 670.087 203.994 663.217 206.294C656.347 208.593 648.913 204.888 646.614 198.018C644.314 191.148 648.02 183.714 654.89 181.415C661.76 179.115 669.193 182.821 671.493 189.691Z" stroke="#999999" stroke-width="2"/>
<rect x="603.266" y="264.041" width="434.083" height="349.377" rx="3" transform="rotate(-18.5053 603.266 264.041)" stroke="#999999" stroke-width="2"/>
<path d="M626.856 271.632C627.781 274.395 626.291 277.384 623.528 278.308C620.766 279.233 617.777 277.743 616.852 274.98C615.928 272.218 617.418 269.229 620.18 268.304C622.943 267.38 625.932 268.87 626.856 271.632Z" stroke="#999999" stroke-width="2"/>
<path d="M640.244 267.151C641.168 269.914 639.679 272.903 636.916 273.827C634.154 274.752 631.165 273.262 630.24 270.499C629.316 267.737 630.805 264.748 633.568 263.823C636.33 262.899 639.319 264.389 640.244 267.151Z" stroke="#999999" stroke-width="2"/>
<path d="M653.631 262.67C654.556 265.433 653.066 268.422 650.304 269.346C647.541 270.271 644.552 268.781 643.628 266.018C642.703 263.256 644.193 260.267 646.956 259.343C649.718 258.418 652.707 259.908 653.631 262.67Z" stroke="#999999" stroke-width="2"/>
<rect x="405.355" y="228.342" width="148.59" height="277.219" rx="3" transform="rotate(-18.5053 405.355 228.342)" stroke="#999999" stroke-width="2"/>
<path d="M569.582 443.606C571.881 450.476 568.176 457.91 561.306 460.209C554.435 462.509 547.002 458.803 544.703 451.933C542.403 445.063 546.108 437.63 552.979 435.33C559.849 433.031 567.282 436.736 569.582 443.606Z" stroke="#999999" stroke-width="2"/>
<rect x="3.26569" y="482.427" width="148.59" height="277.219" rx="3" transform="rotate(-18.5053 3.26569 482.427)" stroke="#999999" stroke-width="2"/>
<rect x="-387.734" y="214.041" width="434.083" height="349.377" rx="3" transform="rotate(-18.5053 -387.734 214.041)" stroke="#999999" stroke-width="2"/>
<rect x="-93.7343" y="-113.959" width="434.083" height="349.377" rx="3" transform="rotate(-18.5053 -93.7343 -113.959)" stroke="#999999" stroke-width="2"/>
<path d="M354.62 186.461C351.659 177.573 345.083 171.262 336.157 167.128C327.271 163.014 315.987 161.016 303.338 160.698C278.033 160.062 246.746 166.14 216.916 176.247C187.085 186.355 158.512 200.558 138.678 216.314C128.765 224.189 120.934 232.531 116.259 241.039C111.565 249.58 110.005 258.393 112.872 267.001L200.419 529.778C206.687 548.593 227.166 556.944 252.576 558.348C278.153 559.761 309.639 554.231 339.547 544.309C369.455 534.388 397.993 520.005 417.621 503.552C437.126 487.202 448.483 468.199 442.166 449.237L442.028 448.822L441.889 448.405L441.749 447.987L441.61 447.567L441.469 447.146L441.329 446.724L441.188 446.301L441.046 445.877L440.905 445.451L440.762 445.024L440.62 444.596L440.477 444.167L440.333 443.737L440.19 443.305L440.045 442.872L439.901 442.438L439.756 442.003L439.61 441.567L439.465 441.129L439.318 440.69L439.172 440.251L439.025 439.81L438.878 439.367L438.73 438.924L438.582 438.48L438.434 438.034L438.285 437.587L438.136 437.14L437.986 436.691L437.836 436.241L437.686 435.789L437.535 435.337L437.384 434.884L437.233 434.429L437.081 433.974L436.929 433.517L436.776 433.06L436.623 432.601L436.47 432.141L436.317 431.68L436.163 431.218L436.008 430.755L435.854 430.291L435.699 429.826L435.544 429.36L435.388 428.893L435.232 428.425L435.076 427.955L434.919 427.485L434.762 427.014L434.605 426.542L434.447 426.069L434.289 425.594L434.131 425.119L433.972 424.643L433.813 424.166L433.654 423.688L433.494 423.209L433.334 422.729L433.174 422.248L433.014 421.766L432.853 421.283L432.691 420.799L432.53 420.314L432.368 419.828L432.206 419.342L432.044 418.854L431.881 418.366L431.718 417.876L431.554 417.386L431.391 416.895L431.227 416.403L431.063 415.91L430.898 415.416L430.733 414.921L430.568 414.425L430.403 413.929L430.237 413.431L430.071 412.933L429.905 412.434L429.738 411.934L429.571 411.433L429.404 410.932L429.237 410.429L429.069 409.926L428.901 409.422L428.733 408.917L428.564 408.411L428.396 407.905L428.227 407.397L428.057 406.889L427.888 406.38L427.718 405.87L427.548 405.36L427.378 404.849L427.207 404.337L427.036 403.824L426.865 403.31L426.694 402.796L426.522 402.281L426.35 401.765L426.178 401.248L426.006 400.731L425.833 400.213L425.66 399.694L425.487 399.175L425.314 398.654L425.14 398.133L424.967 397.612L424.792 397.089L424.618 396.566L424.444 396.043L424.269 395.518L424.094 394.993L423.919 394.467L423.744 393.941L423.568 393.414L423.392 392.886L423.216 392.358L423.04 391.829L422.863 391.299L422.687 390.769L422.51 390.238L422.333 389.706L422.155 389.174L421.978 388.641L421.8 388.107L421.622 387.573L421.444 387.039L421.266 386.503L421.087 385.967L420.908 385.431L420.729 384.894L420.55 384.356L420.371 383.818L420.192 383.279L420.012 382.74L419.832 382.2L419.652 381.66L419.472 381.119L419.291 380.577L419.111 380.035L418.93 379.493L418.749 378.95L418.568 378.406L418.387 377.862L418.205 377.317L418.024 376.772L417.842 376.226L417.66 375.68L417.478 375.134L417.295 374.587L417.113 374.039L416.93 373.491L416.748 372.942L416.565 372.393L416.382 371.844L416.199 371.294L416.015 370.744L415.832 370.193L415.648 369.641L415.464 369.09L415.28 368.538L415.096 367.985L414.912 367.432L414.728 366.879L414.543 366.325L414.358 365.771L414.174 365.216L413.989 364.661L413.804 364.106L413.619 363.55L413.433 362.994L413.248 362.438L413.062 361.881L412.877 361.324L412.691 360.766L412.505 360.208L412.319 359.65L412.133 359.091L411.947 358.532L411.761 357.973L411.574 357.413L411.388 356.854L411.201 356.293L411.014 355.733L410.827 355.172L410.64 354.611L410.453 354.049L410.266 353.488L410.079 352.926L409.892 352.363L409.704 351.801L409.517 351.238L409.329 350.675L409.141 350.112L408.954 349.548L408.766 348.984L408.578 348.42L408.39 347.856L408.202 347.291L408.014 346.726L407.825 346.161L407.637 345.596L407.449 345.031L407.26 344.465L407.072 343.899L406.883 343.333L406.694 342.767L406.506 342.2L406.317 341.634L406.128 341.067L405.939 340.5L405.75 339.933L405.561 339.366L405.372 338.798L405.183 338.231L404.994 337.663L404.805 337.095L404.616 336.527L404.426 335.959L404.237 335.391L404.048 334.822L403.858 334.254L403.669 333.685L403.479 333.116L403.29 332.548L403.1 331.979L402.911 331.41L402.721 330.841L402.532 330.272L402.342 329.702L402.152 329.133L401.963 328.564L401.773 327.994L401.583 327.425L401.393 326.855L401.204 326.286L401.014 325.716L400.824 325.147L400.634 324.577L400.445 324.007L400.255 323.438L400.065 322.868L399.875 322.298L399.685 321.728L399.496 321.159L399.306 320.589L399.116 320.019L398.926 319.45L398.736 318.88L398.547 318.31L398.357 317.741L398.167 317.171L397.977 316.602L397.788 316.032L397.598 315.463L397.408 314.894L397.219 314.324L397.029 313.755L396.839 313.186L396.65 312.617L396.46 312.048L396.271 311.479L396.081 310.911L395.892 310.342L395.702 309.773L395.513 309.205L395.324 308.637L395.134 308.068L394.945 307.5L394.756 306.932L394.567 306.365L394.378 305.797L394.189 305.23L394 304.662L393.811 304.095L393.622 303.528L393.433 302.961L393.244 302.394L393.055 301.828L392.867 301.262L392.678 300.695L392.49 300.13L392.301 299.564L392.113 298.998L391.924 298.433L391.736 297.868L391.548 297.303L391.36 296.738L391.172 296.174L390.984 295.61L390.796 295.046L390.608 294.482L390.42 293.918L390.233 293.355L390.045 292.792L389.858 292.23L389.67 291.667L389.483 291.105L389.296 290.543L389.109 289.982L388.922 289.42L388.735 288.859L388.548 288.299L388.361 287.738L388.175 287.178L387.988 286.619L387.802 286.059L387.616 285.5L387.429 284.941L387.243 284.383L387.058 283.825L386.872 283.267L386.686 282.71L386.5 282.153L386.315 281.596L386.13 281.04L385.944 280.484L385.759 279.929L385.574 279.373L385.39 278.819L385.205 278.264L385.02 277.71L384.836 277.157L384.652 276.604L384.468 276.051L384.284 275.499L384.1 274.947L383.916 274.395L383.732 273.844L383.549 273.294L383.366 272.744L383.183 272.194L383 271.645L382.817 271.096L382.634 270.548L382.452 270L382.269 269.453L382.087 268.906L381.905 268.359L381.723 267.814L381.542 267.268L381.36 266.723L381.179 266.179L380.997 265.635L380.816 265.092L380.636 264.549L380.455 264.007L380.274 263.465L380.094 262.924L379.914 262.383L379.734 261.843L379.554 261.303L379.375 260.764L379.195 260.226L379.016 259.688L378.837 259.151L378.658 258.614L378.48 258.078L378.301 257.542L378.123 257.007L377.945 256.473L377.767 255.939L377.59 255.406L377.412 254.874L377.235 254.342L377.058 253.811L376.881 253.28L376.705 252.75L376.528 252.221L376.352 251.692L376.176 251.164L376.001 250.636L375.825 250.11L375.65 249.584L375.475 249.058L375.3 248.534L375.125 248.01L374.951 247.486L374.777 246.964L374.603 246.442L374.429 245.92L374.256 245.4L374.083 244.88L373.91 244.361L373.737 243.843L373.565 243.325L373.392 242.808L373.22 242.292L373.049 241.776L372.877 241.262L372.706 240.748L372.535 240.235L372.364 239.722L372.194 239.211L372.024 238.7L371.854 238.19L371.684 237.68L371.515 237.172L371.346 236.664L371.177 236.157L371.008 235.651L370.84 235.146L370.672 234.641L370.504 234.138L370.336 233.635L370.169 233.133L370.002 232.632L369.835 232.131L369.669 231.632L369.503 231.133L369.337 230.636L369.172 230.139L369.006 229.643L368.841 229.147L368.677 228.653L368.512 228.16L368.348 227.667L368.184 227.176L368.021 226.685L367.858 226.195L367.695 225.706L367.532 225.218L367.37 224.731L367.208 224.245L367.046 223.76L366.885 223.276L366.724 222.792L366.563 222.31L366.403 221.829L366.243 221.348L366.083 220.869L365.924 220.39L365.765 219.912L365.606 219.436L365.447 218.96L365.289 218.486L365.131 218.012L364.974 217.539L364.817 217.068L364.66 216.597L364.504 216.127L364.347 215.659L364.192 215.191L364.036 214.725L363.881 214.259L363.726 213.795L363.572 213.331L363.418 212.869L363.264 212.407L363.111 211.947L362.958 211.488L362.805 211.03L362.653 210.573L362.501 210.117L362.349 209.662L362.198 209.208L362.047 208.755L361.897 208.303L361.747 207.853L361.597 207.403L361.448 206.955L361.299 206.508L361.15 206.062L361.002 205.617L360.854 205.173L360.707 204.73L360.559 204.289L360.413 203.849L360.266 203.409L360.121 202.971L359.975 202.534L359.83 202.099L359.685 201.664L359.541 201.231L359.397 200.799L359.253 200.368L359.11 199.938L358.967 199.509L358.825 199.082L358.683 198.656L358.541 198.231L358.4 197.807L358.259 197.385L358.119 196.963L357.979 196.543L357.84 196.125L357.7 195.707L357.562 195.291L357.423 194.876L357.286 194.462L357.148 194.05L357.011 193.638L356.875 193.229L356.738 192.82L356.603 192.413L356.468 192.007L356.333 191.602L356.198 191.198L356.064 190.796L355.931 190.395L355.798 189.996L355.665 189.598L355.533 189.201L355.401 188.805L355.27 188.411L355.139 188.018L355.008 187.627L354.878 187.237L354.749 186.848L354.62 186.461Z" stroke="url(#paint0_linear)" stroke-width="4"/>
<path fill-rule="evenodd" clip-rule="evenodd" d="M150.417 234.134C167.202 218.515 192.743 203.775 223.069 193.672C253.395 183.569 282.672 180.045 305.471 182.477C327.494 184.826 343.091 192.671 348.187 205.081C348.931 207.951 349.132 210.95 348.817 214.043C340.618 207.047 327.903 202.713 312.542 201.074C289.398 198.605 259.829 202.188 229.295 212.361C198.761 222.533 172.951 237.4 155.912 253.257C144.603 263.781 137.028 274.875 134.663 285.391C133.159 283.758 131.893 282.006 130.883 280.14L130.388 278.655L130.177 278.725C130.044 278.435 129.917 278.143 129.795 277.848C126.425 264.86 134.201 249.225 150.417 234.134ZM128.538 279.944C128.699 280.283 128.868 280.618 129.045 280.95L131.517 288.369L131.174 288.484C131.858 290.537 132.789 292.471 133.949 294.285C134.03 295.369 134.175 296.442 134.388 297.503L134.2 297.566C134.368 298.072 134.552 298.571 134.75 299.063C134.887 299.576 135.039 300.086 135.208 300.593L135.396 300.53C135.558 300.869 135.727 301.204 135.904 301.536L138.375 308.955L138.032 309.07C138.927 311.756 140.244 314.237 141.943 316.512C141.946 318.276 142.115 320.014 142.457 321.722L142.268 321.785C142.437 322.293 142.622 322.793 142.821 323.287C142.957 323.798 143.109 324.307 143.277 324.812L143.465 324.75C143.627 325.089 143.796 325.425 143.973 325.757L149.672 342.862L149.329 342.976C150.508 346.517 152.422 349.702 154.977 352.53C154.728 355.234 154.849 357.889 155.366 360.473L155.178 360.535C155.347 361.041 155.53 361.54 155.729 362.031C155.865 362.545 156.018 363.056 156.187 363.563L156.375 363.5C156.537 363.839 156.706 364.173 156.882 364.504L165.809 391.301L165.466 391.415C166.432 394.313 167.889 396.972 169.787 399.393C169.743 401.388 169.908 403.353 170.293 405.278L170.106 405.341C170.274 405.847 170.458 406.345 170.656 406.837C170.792 407.35 170.945 407.861 171.114 408.368L171.302 408.305C171.464 408.644 171.633 408.978 171.809 409.309L183.964 445.793L183.62 445.908C184.586 448.806 186.043 451.466 187.941 453.886C187.898 455.881 188.063 457.846 188.448 459.771L188.26 459.834C188.429 460.34 188.613 460.839 188.811 461.331C188.948 461.844 189.1 462.354 189.269 462.861L189.457 462.798C189.619 463.137 189.788 463.472 189.964 463.804L206.153 512.396L205.81 512.51C210.633 526.987 227.72 535.512 250.767 537.971C273.911 540.44 303.48 536.857 334.014 526.684C364.548 516.512 390.357 501.645 407.396 485.789C424.126 470.22 432.683 453.406 428.295 439.061L428.646 438.944L411.702 388.083L411.351 388.2C411.242 387.9 411.128 387.601 411.009 387.306C410.873 386.793 410.72 386.283 410.552 385.776L410.363 385.839C409.517 384.067 408.471 382.395 407.239 380.825C407.302 377.964 406.935 375.167 406.106 372.458L406.457 372.341L393.547 333.59L393.196 333.707C393.087 333.407 392.974 333.109 392.855 332.814C392.718 332.301 392.566 331.79 392.397 331.283L392.208 331.345C391.362 329.574 390.316 327.903 389.085 326.333C389.147 323.472 388.78 320.674 387.951 317.965L388.302 317.848L378.62 288.785L378.269 288.902C378.16 288.602 378.047 288.304 377.928 288.009C377.791 287.495 377.639 286.985 377.47 286.477L377.281 286.54C376.145 284.163 374.65 281.966 372.829 279.952C373.159 276.373 372.841 272.882 371.814 269.527L372.165 269.41L365.71 250.034L365.359 250.151C365.25 249.849 365.135 249.549 365.016 249.252C364.88 248.741 364.728 248.232 364.559 247.727L364.371 247.789C363.621 246.218 362.713 244.725 361.657 243.311C361.652 240.686 361.281 238.116 360.517 235.62L360.868 235.503L357.641 225.815L357.29 225.932C357.181 225.632 357.068 225.333 356.948 225.038C356.812 224.525 356.66 224.015 356.491 223.508L356.303 223.571C355.836 222.594 355.309 221.648 354.724 220.733C354.58 218.797 354.228 216.895 353.659 215.034L354.01 214.917L350.782 205.229L350.432 205.346C350.323 205.044 350.208 204.744 350.088 204.448C349.952 203.936 349.8 203.427 349.632 202.922L349.444 202.984C343.386 190.304 327.11 182.774 305.684 180.488C282.54 178.019 252.971 181.602 222.437 191.775C191.903 201.947 166.093 216.814 149.054 232.67C133.28 247.35 124.772 263.137 127.529 276.917L127.341 276.98C127.51 277.488 127.694 277.988 127.893 278.482C128.029 278.993 128.182 279.502 128.35 280.007L128.538 279.944ZM350.955 212.076C350.921 213.276 350.812 214.486 350.63 215.706C351.184 216.253 351.712 216.815 352.213 217.39C352.038 216.603 351.823 215.825 351.567 215.058L351.91 214.943L350.955 212.076ZM133.616 288.342L133.281 288.454C133.484 289.013 133.709 289.564 133.953 290.105C134.009 289.343 134.095 288.578 134.21 287.809C133.802 287.405 133.407 286.994 133.027 286.575L133.616 288.342ZM348.478 216.423C340.813 209.332 328.25 204.761 312.329 203.063C289.53 200.631 260.253 204.155 229.927 214.258C199.601 224.362 174.06 239.101 157.275 254.721C145.554 265.628 138.242 276.82 136.362 287.091C139.716 290.195 144.008 292.815 149.109 294.923C152.81 289.062 157.846 283.185 163.982 277.476C181.02 261.619 206.83 246.752 237.364 236.58C267.898 226.407 297.467 222.824 320.611 225.293C328.944 226.182 336.498 227.865 342.975 230.335C345.792 225.588 347.655 220.918 348.478 216.423ZM344.852 231.085C347.413 226.721 349.221 222.375 350.177 218.124C351.135 219.164 351.997 220.253 352.757 221.388C352.971 225.395 352.242 229.599 350.641 233.918C348.837 232.889 346.904 231.945 344.852 231.085ZM341.908 232.066C335.745 229.757 328.507 228.147 320.399 227.282C297.599 224.85 268.322 228.374 237.996 238.477C207.67 248.581 182.129 263.32 165.344 278.94C159.374 284.495 154.548 290.124 151.001 295.668C157.164 297.977 164.402 299.587 172.51 300.452C179.914 301.242 188.001 301.403 196.585 300.916C211.565 291.028 229.864 282.13 250.274 275.331C270.683 268.531 290.662 264.676 308.579 263.604C315.74 258.846 322.114 253.867 327.565 248.794C333.535 243.239 338.361 237.61 341.908 232.066ZM312.421 263.416C318.566 259.165 324.099 254.752 328.928 250.258C335.063 244.549 340.099 238.672 343.8 232.811C345.983 233.713 348.017 234.709 349.893 235.796C346.493 243.785 340.184 252.121 331.398 260.298C330.223 261.391 329.006 262.479 327.747 263.562C322.868 263.263 317.744 263.213 312.421 263.416ZM305.113 265.85C288.33 267.184 269.822 270.926 250.906 277.228C231.989 283.53 214.935 291.636 200.706 300.634C217.488 299.301 235.997 295.559 254.913 289.257C273.829 282.955 290.884 274.849 305.113 265.85ZM197.24 302.881C215.157 301.809 235.135 297.954 255.545 291.154C275.955 284.354 294.254 275.457 309.234 265.569C314.893 265.248 320.336 265.208 325.51 265.445C308.902 279.123 285.716 291.775 258.746 300.76C231.775 309.746 205.634 313.527 184.142 312.543C188.14 309.251 192.519 306.018 197.24 302.881ZM193.398 303.069C185.931 303.354 178.857 303.14 172.298 302.44C163.965 301.552 156.411 299.869 149.934 297.399C148.728 299.43 147.698 301.447 146.849 303.442C154.361 307.795 164.409 310.682 176.343 311.955C177.938 312.126 179.565 312.267 181.222 312.378C184.947 309.212 189.017 306.099 193.398 303.069ZM148.057 296.649C143.39 294.693 139.337 292.3 136.023 289.472C135.88 290.879 135.843 292.266 135.916 293.63C138.148 296.965 141.253 299.892 145.124 302.388C145.951 300.483 146.931 298.568 148.057 296.649ZM354.72 224.914C354.477 228.2 353.684 231.563 352.386 234.965C353.418 235.617 354.402 236.299 355.336 237.012C356.057 233.074 355.98 229.271 355.046 225.672C354.942 225.417 354.833 225.164 354.72 224.914ZM330.556 263.764C331.306 263.099 332.041 262.431 332.76 261.762C341.508 253.621 348.021 245.14 351.618 236.85C352.767 237.591 353.849 238.37 354.86 239.186C352.778 247.393 347.355 256.12 339.094 264.776C337.279 264.491 335.42 264.247 333.52 264.044C332.544 263.94 331.555 263.847 330.556 263.764ZM181.904 314.426C204.092 315.787 231.328 312.003 259.378 302.658C287.428 293.313 311.491 280.006 328.43 265.61C330.086 265.722 331.713 265.863 333.308 266.033C334.688 266.18 336.042 266.349 337.371 266.539C336.422 267.488 335.439 268.435 334.424 269.38C317.639 285 292.098 299.739 261.772 309.843C231.446 319.946 202.168 323.47 179.369 321.038C177.989 320.891 176.635 320.722 175.307 320.532C176.256 319.583 177.238 318.636 178.254 317.691C179.428 316.598 180.645 315.509 181.904 314.426ZM179.095 314.224C178.096 314.142 177.108 314.048 176.131 313.944C164.249 312.677 153.951 309.796 146.101 305.319C145.626 306.602 145.227 307.874 144.907 309.134C151.495 314.452 161.069 318.183 172.87 320.154C174.152 318.838 175.493 317.528 176.891 316.227C177.61 315.557 178.345 314.89 179.095 314.224ZM144.356 304.272C141.277 302.328 138.625 300.113 136.459 297.628C136.519 297.896 136.583 298.164 136.652 298.43C136.774 298.726 136.902 299.02 137.035 299.311L137.247 299.241L137.742 300.726C139.113 303.259 140.953 305.579 143.223 307.679C143.543 306.549 143.921 305.413 144.356 304.272ZM357.095 238.442C357.518 236.492 357.76 234.563 357.814 232.662L358.769 235.529L358.426 235.644C358.98 237.307 359.343 239.018 359.522 240.769C358.765 239.963 357.956 239.187 357.095 238.442ZM140.139 309.04L140.475 308.929L139.886 307.161C140.744 308.107 141.674 309.013 142.673 309.878C142.431 310.992 142.249 312.098 142.127 313.197C141.329 311.872 140.665 310.486 140.139 309.04ZM356.545 240.641C354.266 248.693 349.022 257.04 341.463 265.176C344.617 265.746 347.627 266.447 350.474 267.276C356.278 259.236 359.47 251.312 359.644 243.982C358.723 242.813 357.689 241.699 356.545 240.641ZM179.157 323.027C177.258 322.824 175.399 322.58 173.584 322.295C171.265 324.724 169.17 327.159 167.31 329.586C172.119 330.936 177.44 331.927 183.201 332.542C201.612 334.506 224.247 332.586 248.247 326.454C253.707 324.194 259.368 322.079 265.201 320.136C271.034 318.193 276.832 316.49 282.556 315.024C305.438 305.536 324.702 293.497 338.256 280.884C342.497 276.937 346.161 272.953 349.2 268.988C346.255 268.162 343.119 267.47 339.807 266.917C338.526 268.233 337.185 269.543 335.786 270.844C318.747 286.701 292.938 301.568 262.404 311.74C231.87 321.913 202.301 325.496 179.157 323.027ZM144.432 311.308C151.085 316.385 160.287 319.919 171.215 321.895C169.033 324.243 167.044 326.609 165.264 328.98C155.798 326.028 148.491 321.602 143.956 315.842C143.991 314.354 144.151 312.841 144.432 311.308ZM352.487 267.893C357.568 260.716 360.707 253.515 361.474 246.627C362.104 247.676 362.652 248.762 363.114 249.886C364.795 256.367 363.702 263.507 360.169 270.91C357.785 269.779 355.218 268.773 352.487 267.893ZM339.619 282.348C327.846 293.304 311.885 303.788 293.073 312.577C303.644 310.366 313.873 308.985 323.506 308.409C330.667 303.651 337.041 298.672 342.492 293.599C349.967 286.643 355.649 279.571 359.272 272.696C356.808 271.528 354.127 270.493 351.246 269.594C348.023 273.888 344.116 278.163 339.619 282.348ZM266.236 323.244C260.403 325.187 254.605 326.89 248.881 328.356C236.66 333.423 225.471 339.218 215.633 345.44C232.415 344.106 250.924 340.364 269.84 334.062C288.757 327.76 305.811 319.654 320.04 310.656C308.437 311.578 296.008 313.651 283.19 316.926C277.73 319.186 272.069 321.301 266.236 323.244ZM182.989 334.53C198.981 336.236 218.039 335.053 238.364 330.803C228.579 335.375 219.566 340.405 211.512 345.721C202.928 346.209 194.841 346.047 187.438 345.257C177.284 344.174 168.496 341.922 161.474 338.594C162.745 336.182 164.27 333.746 166.036 331.299C171.19 332.801 176.88 333.879 182.989 334.53ZM144.078 319.055C148.822 324.107 155.653 327.985 164.023 330.682C162.365 333.023 160.914 335.368 159.685 337.703C153.339 334.38 148.602 330.103 145.811 324.947L145.316 323.461L145.104 323.531C144.971 323.241 144.844 322.948 144.723 322.653C144.417 321.475 144.203 320.275 144.078 319.055ZM365.882 256.879C365.747 261.715 364.387 266.729 361.959 271.801C365.396 273.595 368.41 275.672 370.937 278.031C371.022 275.099 370.626 272.262 369.722 269.55L370.066 269.436L365.882 256.879ZM151.771 342.836L151.436 342.947C152.338 345.429 153.65 347.734 155.34 349.858C155.947 346.455 157.113 342.986 158.787 339.489C154.464 337.233 150.811 334.529 147.955 331.381L151.771 342.836ZM327.348 308.221C333.493 303.971 339.026 299.557 343.855 295.063C351.397 288.044 357.278 280.772 361.061 273.587C364.9 275.597 368.15 277.957 370.737 280.649C369.61 289.818 364.012 299.793 354.694 309.689C352.667 309.357 350.583 309.077 348.448 308.85C341.889 308.15 334.815 307.936 327.348 308.221ZM212.167 347.686C230.084 346.614 250.063 342.759 270.472 335.959C290.882 329.16 309.181 320.262 324.161 310.374C332.745 309.887 340.832 310.048 348.235 310.838C349.859 311.011 351.447 311.214 352.999 311.447C351.897 312.564 350.748 313.679 349.553 314.791C332.768 330.411 307.227 345.15 276.901 355.253C246.575 365.357 217.297 368.88 194.498 366.448C192.875 366.275 191.287 366.072 189.735 365.84C190.837 364.723 191.986 363.608 193.181 362.496C198.632 357.424 205.006 352.444 212.167 347.686ZM208.325 347.874C200.858 348.159 193.784 347.945 187.225 347.246C176.98 346.153 167.913 343.861 160.577 340.38C158.711 344.29 157.525 348.127 157.07 351.832C163.47 358.494 173.932 363.119 187.324 365.449C188.747 363.968 190.247 362.494 191.818 361.032C196.647 356.538 202.18 352.125 208.325 347.874ZM372.467 282.624C370.872 291.559 365.424 300.957 357.04 310.101C362.024 311.036 366.642 312.3 370.812 313.891C376.097 304.987 378.023 296.349 376.025 288.642C375.146 286.498 373.953 284.491 372.467 282.624ZM188.039 367.598C190.067 367.929 192.151 368.209 194.286 368.437C217.43 370.906 246.999 367.323 277.533 357.151C308.067 346.978 333.877 332.111 350.915 316.255C352.487 314.792 353.987 313.319 355.41 311.837C360.661 312.751 365.462 314.018 369.745 315.622C366.198 321.166 361.372 326.795 355.402 332.35C338.618 347.97 313.077 362.709 282.751 372.812C252.424 382.916 223.147 386.44 200.348 384.007C192.239 383.142 185.002 381.532 178.839 379.224C181.303 375.372 184.385 371.479 188.039 367.598ZM185.694 367.186C173.501 364.897 163.505 360.645 156.87 354.451C156.8 356.834 157.049 359.156 157.631 361.398C157.753 361.695 157.881 361.99 158.014 362.281L158.226 362.211L158.72 363.694C162.116 369.969 168.394 374.944 176.946 378.479C179.33 374.705 182.266 370.924 185.694 367.186ZM372.689 314.641C376.48 308.182 378.62 301.763 378.792 295.631L386.203 317.875L385.86 317.989C386.505 319.926 386.892 321.926 387.029 323.979C383.361 320.191 378.502 317.077 372.689 314.641ZM167.574 391.385L167.908 391.274L160.864 370.13C164.604 374.252 169.709 377.612 175.894 380.204C172.704 385.64 170.684 391.046 170.02 396.276C169.016 394.731 168.197 393.1 167.574 391.385ZM171.818 398.716C172.094 393.065 174.14 387.072 177.771 380.955C184.248 383.425 191.802 385.107 200.136 385.996C222.144 388.344 249.962 385.219 278.895 376.16C250.711 386.121 226.855 400.049 210.661 414.89L210.636 414.887C192.702 412.974 179.028 407.416 171.818 398.716ZM356.765 333.814C340.562 348.892 316.429 363.075 287.844 373.179C316.37 364.246 343.813 361.084 365.672 363.247L365.69 363.229C378.893 350.943 386.501 338.295 387.053 327.009C383.443 322.653 378.212 319.085 371.637 316.367C367.936 322.228 362.9 328.105 356.765 333.814ZM368.282 363.534C380.005 352.308 387.451 340.488 388.851 329.449C389.68 330.724 390.382 332.057 390.953 333.448C393.481 343.201 389.725 354.446 380.83 365.832C376.91 364.836 372.712 364.07 368.282 363.534ZM283.988 376.526C313.119 366.821 341.283 363.187 363.666 365.071C346.885 380.004 322.17 393.987 293.038 403.692C263.907 413.397 235.744 417.031 213.361 415.147C230.141 400.214 254.857 386.231 283.988 376.526ZM293.671 405.589C263.544 415.626 234.358 419.248 211.355 416.971L211.336 416.989C207.91 420.177 204.861 423.389 202.214 426.596C206.255 427.574 210.622 428.316 215.275 428.813C238.074 431.245 267.352 427.721 297.678 417.617C328.004 407.514 353.545 392.775 370.33 377.155C373.756 373.967 376.805 370.754 379.452 367.548C375.41 366.569 371.044 365.827 366.39 365.331L366.365 365.328C349.324 380.946 323.797 395.553 293.671 405.589ZM171.842 401.746C179.583 409.74 192.631 414.733 208.744 416.685C205.521 419.771 202.621 422.902 200.082 426.05C187.306 422.59 178.052 416.639 173.647 408.499L173.153 407.016L172.942 407.087C172.808 406.795 172.68 406.5 172.558 406.203C172.181 404.749 171.944 403.262 171.842 401.746ZM393.72 340.437C393.486 348.765 389.622 357.622 382.921 366.392C392.303 369.041 399.954 373.071 405.183 378.471C405.046 376.418 404.659 374.418 404.014 372.482L404.358 372.367L393.72 340.437ZM186.063 445.767L185.728 445.878C186.351 447.593 187.171 449.225 188.175 450.77C189.121 443.312 192.826 435.498 198.745 427.752C188.941 424.984 181.027 420.707 175.791 414.935L186.063 445.767ZM200.835 428.312C205.247 429.432 210.012 430.262 215.063 430.801C238.207 433.27 267.776 429.688 298.31 419.515C328.844 409.342 354.653 394.475 371.692 378.619C375.411 375.159 378.725 371.637 381.584 368.094C392.082 370.937 400.202 375.462 405.208 381.501C404.656 392.787 397.048 405.435 383.845 417.722C367.06 433.342 341.519 448.081 311.193 458.185C280.867 468.288 251.589 471.812 228.79 469.38C210.856 467.467 197.183 461.909 189.973 453.209C190.356 445.374 194.14 436.883 200.835 428.312ZM407.005 383.941C405.557 395.361 397.639 407.617 385.207 419.186C368.168 435.042 342.359 449.909 311.825 460.082C281.291 470.255 251.722 473.837 228.578 471.368C211.692 469.567 198.005 464.509 189.997 456.24C190.099 457.756 190.336 459.243 190.713 460.698C190.835 460.994 190.963 461.288 191.096 461.58L191.308 461.509L191.803 462.994C197.802 474.079 212.796 481.105 233.43 483.306C256.229 485.738 285.507 482.214 315.833 472.111C346.159 462.007 371.7 447.268 388.485 431.648C404.699 416.56 412.475 400.926 409.107 387.939C408.537 386.549 407.834 385.216 407.005 383.941ZM193.947 469.429C201.844 478.135 215.836 483.44 233.218 485.295C256.362 487.764 285.931 484.181 316.465 474.008C346.999 463.836 372.808 448.969 389.847 433.112C403.352 420.545 411.531 407.166 411.875 394.93L426.547 438.97L426.203 439.084C430.627 452.362 422.89 468.638 406.034 484.324C389.249 499.944 363.708 514.684 333.382 524.787C303.056 534.89 273.778 538.414 250.979 535.982C228.431 533.577 212.618 525.41 207.917 512.481L208.252 512.369L193.947 469.429Z" fill="#999999"/>
</g>
<defs>
<linearGradient id="paint0_linear" x1="78.1735" y1="251.112" x2="402.713" y2="186.557" gradientUnits="userSpaceOnUse">
<stop stop-color="#503821"/>
<stop offset="0.619792" stop-color="#E9A261"/>
<stop offset="1" stop-color="#FFDEBF"/>
</linearGradient>
<clipPath id="clip0">
<rect width="800" height="600" fill="white"/>
</clipPath>
</defs>
</svg>
