<svg width="800" height="600" viewBox="0 0 800 600" fill="none" xmlns="http://www.w3.org/2000/svg">
<g clip-path="url(#clip0)">
<path d="M410.204 287.443L406.224 294.771L400.287 305.89L398.224 302.034L388.281 283.373L382.167 272.002L370 272L380.546 291.82L381.62 293.813L382.193 294.876M410.204 287.443L406.227 294.773M410.204 287.443L412.369 283.452L418.532 272H430.645L425.208 282.031M382.193 294.876L388.267 306.221L394.337 317.608L400.084 328.314L412.01 306.338L418.319 294.745L425.208 282.031M382.193 294.876L388.267 306.217M425.208 282.031L418.315 294.746" stroke="url(#paint0_linear)" stroke-width="4" stroke-miterlimit="10" stroke-linecap="round"/>
<path d="M400.868 -61.8019L400 -62.2198L399.132 -61.8019L117.673 73.7417L116.805 74.1596L116.591 75.0986L47.0761 379.663L46.8618 380.602L47.4623 381.355L242.238 625.596L242.839 626.349H243.802H556.198H557.161L557.762 625.596L752.538 381.355L753.138 380.602L752.924 379.663L683.409 75.0986L683.195 74.1596L682.327 73.7417L400.868 -61.8019Z" stroke="url(#paint1_linear)" stroke-width="4"/>
<path d="M400.434 -16.901L400 -17.1099L399.566 -16.901L152.507 102.076L152.073 102.285L151.966 102.755L90.9479 370.094L90.8407 370.564L91.141 370.94L262.111 585.33L262.411 585.706H262.893H537.107H537.589L537.889 585.33L708.859 370.94L709.159 370.564L709.052 370.094L648.034 102.755L647.927 102.285L647.493 102.076L400.434 -16.901Z" stroke="#666666" stroke-width="2"/>
<path d="M400.434 28.099L400 27.8901L399.566 28.099L187.69 130.133L187.256 130.342L187.149 130.812L134.82 360.081L134.712 360.55L135.013 360.927L281.636 544.786L281.936 545.163H282.418H517.582H518.064L518.364 544.786L664.987 360.927L665.288 360.55L665.18 360.081L612.851 130.812L612.744 130.342L612.31 130.133L400.434 28.099Z" stroke="#666666" stroke-width="2"/>
<path d="M400.434 85.099L400 84.8901L399.566 85.099L232.254 165.672L231.82 165.881L231.713 166.351L190.391 347.397L190.283 347.866L190.584 348.243L306.367 493.431L306.667 493.807H307.149H492.851H493.333L493.633 493.431L609.416 348.243L609.717 347.866L609.609 347.397L568.287 166.351L568.18 165.881L567.746 165.672L400.434 85.099Z" stroke="#999999" stroke-width="2"/>
<path d="M400.434 134.099L400 133.89L399.566 134.099L270.564 196.223L270.13 196.432L270.023 196.902L238.162 336.493L238.055 336.963L238.355 337.339L327.627 449.283L327.928 449.66H328.409H471.591H472.072L472.373 449.283L561.645 337.339L561.945 336.963L561.838 336.493L529.977 196.902L529.87 196.432L529.436 196.223L400.434 134.099Z" stroke="#999999" stroke-width="2"/>
<path d="M400.434 188.099L400 187.89L399.566 188.099L312.783 229.892L312.349 230.101L312.242 230.57L290.808 324.477L290.701 324.947L291.001 325.323L351.057 400.631L351.357 401.008H351.839H448.161H448.643L448.943 400.631L508.999 325.323L509.299 324.947L509.192 324.477L487.758 230.57L487.651 230.101L487.217 229.892L400.434 188.099Z" stroke="#999999" stroke-width="2"/>
</g>
<defs>
<linearGradient id="paint0_linear" x1="362.771" y1="275.693" x2="440.082" y2="291.74" gradientUnits="userSpaceOnUse">
<stop stop-color="#503821"/>
<stop offset="0.619792" stop-color="#E9A261"/>
<stop offset="1" stop-color="#FFDEBF"/>
</linearGradient>
<linearGradient id="paint1_linear" x1="-45.8278" y1="-12.7869" x2="877.282" y2="165.135" gradientUnits="userSpaceOnUse">
<stop stop-color="#503821"/>
<stop offset="0.619792" stop-color="#E9A261"/>
<stop offset="1" stop-color="#FFDEBF"/>
</linearGradient>
<clipPath id="clip0">
<rect width="800" height="600" fill="white"/>
</clipPath>
</defs>
</svg>
