<svg width="16" height="16" viewBox="0 0 16 16" fill="none" xmlns="http://www.w3.org/2000/svg">
  <style>
    path {
      stroke: #262626;
    }
    @media (prefers-color-scheme: dark) {
      path {
        stroke: #fafafa;
      }
    }
  </style>
  <path d="M3.13008 11.0937C2.55283 10.2084 2.22327 9.19115 2.22327 8.03935C2.22327 4.88795 4.70903 2.29999 7.81947 2.29999C10.9299 2.29999 13.4577 4.85518 13.4577 8.00658C13.4577 11.158 10.9332 13.6739 7.81947 13.6804C7.44077 13.6673 7.16243 13.6378 6.88408 13.4904C6.65425 13.3692 6.46005 13.1792 6.34679 12.9171C6.16228 12.4651 6.35003 11.9377 6.61544 11.5314C6.88408 11.122 7.24981 10.7518 7.59612 10.4078L15.5457 2.40949" stroke-width="1.25" stroke-miterlimit="16"/>
  <path d="M9.72171 4.77954C9.72171 4.77954 4.46846 10.0597 2.74435 11.5683C1.02025 13.077 -0.650035 12.1341 2.3672 9.30541" stroke-width="1.25"/>
</svg>
