<svg width="909" height="259" viewBox="0 0 909 259" fill="none" xmlns="http://www.w3.org/2000/svg">
<path d="M320.697 0.436295L261.823 60.1774C239.288 25.0455 200.371 1.87891 156.298 1.87891C122.703 1.87891 91.104 15.3716 67.4878 39.9808C43.9547 64.4203 30.9824 96.8367 30.9824 131.29C30.9824 140.115 31.8139 148.771 33.5602 157.172C29.2361 161.669 21.6689 169.901 14.767 179.32C-0.284235 200.026 -3.61047 215.555 4.87143 225.399C6.11877 226.926 10.0271 230.999 17.5943 231.678C18.2595 231.763 18.8416 231.763 19.5069 231.763C31.6476 231.763 46.6988 222.683 64.0784 204.693L202.2 64.9295L192.554 55.0009L60.3364 188.824C49.9419 171.258 44.6199 151.995 44.6199 131.374C44.6199 100.57 56.1786 71.6334 77.217 49.8245C98.2554 27.9308 126.362 15.8807 156.298 15.8807C196.629 15.8807 232.053 37.6047 251.844 70.1908L146.735 176.859C139.917 183.818 131.351 192.388 125.115 201.978C113.806 219.204 116.3 232.018 118.795 238.043L118.878 238.213C121.789 244.916 126.778 250.263 133.347 253.827C140.831 257.815 148.398 258.409 156.049 258.664H156.215H156.381C190.143 258.579 221.825 245.341 245.524 221.241C269.39 197.141 282.529 164.894 282.529 130.611C282.529 109.735 277.623 90.0479 268.974 72.6517L330.343 10.3649L320.697 0.436295ZM19.5069 217.846H19.4237C17.0953 217.846 15.9312 216.998 15.5985 216.743L15.2659 216.319C12.6049 213.264 13.9354 204.184 25.7435 187.806C29.735 182.205 34.2254 177.029 37.8843 172.871C41.0442 181.866 45.202 190.522 50.3577 198.838C33.5602 215.216 23.9141 217.846 19.5069 217.846ZM235.878 211.397C214.757 232.782 186.484 244.662 156.465 244.747C148.897 244.492 144.241 243.898 139.75 241.437C135.925 239.401 133.181 236.43 131.435 232.612C128.108 224.126 133.929 213.773 136.59 209.7C142.079 201.299 150.062 193.237 156.465 186.788L258.746 83.0894C265.232 97.6004 268.891 113.724 268.891 130.696C268.725 161.245 257.083 189.928 235.878 211.397Z" fill="black"/>
<path d="M458.07 191.13C477.695 191.13 494.41 182.135 504.887 167.709V188.669H517.943V31H503.557V91.6745C492.996 78.2667 476.864 69.9505 457.987 69.9505C424.06 69.9505 399.612 96.0023 399.612 130.54C399.778 165.248 424.226 191.13 458.07 191.13ZM459.151 84.122C485.013 84.122 504.222 104.149 504.222 130.54C504.222 157.016 484.93 176.958 459.151 176.958C433.207 176.958 414.247 157.271 414.247 130.54C414.247 103.809 433.207 84.122 459.151 84.122Z" fill="black"/>
<path d="M865.65 119.917C849.352 117.201 835.132 114.825 835.132 100.824C835.132 89.2826 846.026 81.6453 863.073 81.6453C880.535 81.6453 891.179 89.5372 892.011 103.369H905.648C904.817 81.9847 888.685 68.492 863.405 68.492C838.209 68.492 821.245 81.7301 821.245 101.333C821.245 126.451 842.533 130.355 862.075 133.834C878.539 136.719 894.09 139.689 894.09 155.303C894.09 168.202 881.866 176.094 864.32 176.094C846.608 176.094 834.301 167.863 833.053 152.842H819C820.247 175.5 837.294 189.671 863.821 189.671C890.514 189.671 908.226 175.839 908.226 154.624C908.392 127.045 885.441 123.142 865.65 119.917Z" fill="black"/>
<path d="M779.137 160.565C770.987 170.154 759.346 175.5 745.958 175.5C720.761 175.5 701.636 155.303 701.636 129.082C701.636 102.775 720.595 82.6636 745.958 82.6636C758.514 82.6636 769.657 87.4157 777.64 95.6471L789.947 88.434C779.636 75.9597 764.169 68.492 745.958 68.492C712.363 68.492 687 94.459 687 129.082C687 163.62 712.446 189.671 745.958 189.671C764.751 189.671 780.966 181.525 791.361 167.778L779.137 160.565Z" fill="black"/>
<path d="M602.499 74C568.984 74 544 98.9843 544 132.5C544 166.016 569.287 191 602.499 191C635.71 191 661 165.711 661 132.5C661 98.9843 636.016 74 602.499 74ZM646.984 132.195C646.984 158.094 628.398 177.289 602.499 177.289C576.906 177.289 557.71 158.094 557.71 132.195C557.71 106.297 576.6 87.4063 602.499 87.4063C628.398 87.4063 646.984 106.297 646.984 132.195Z" fill="black"/>
</svg>
