<svg width="1602" height="254" viewBox="0 0 1602 254" fill="none" xmlns="http://www.w3.org/2000/svg">
<path d="M313.725 0.591354L256.095 59.1101C234.037 24.6971 195.943 2.00445 152.802 2.00445C119.918 2.00445 88.9865 15.221 65.8697 39.3268C42.8342 63.2663 30.1362 95.0194 30.1362 128.767C30.1362 137.412 30.9502 145.891 32.6595 154.12C28.4269 158.526 21.0197 166.588 14.2637 175.815C-0.469187 196.097 -3.72508 211.309 4.57745 220.951C5.79841 222.447 9.62409 226.437 17.0312 227.102C17.6824 227.185 18.2522 227.185 18.9034 227.185C30.7874 227.185 45.5203 218.291 62.5324 200.669L197.733 63.765L188.291 54.0396L58.8695 185.125C48.6948 167.918 43.4854 149.049 43.4854 128.851C43.4854 98.6768 54.7996 70.3318 75.3932 48.9691C95.9867 27.5233 123.499 15.7198 152.802 15.7198C192.28 15.7198 226.955 36.9993 246.328 68.9187L143.441 173.405C136.767 180.221 128.383 188.616 122.278 198.009C111.208 214.883 113.65 227.435 116.092 233.336L116.173 233.503C119.022 240.069 123.906 245.306 130.336 248.797C137.662 252.704 145.069 253.286 152.558 253.535H152.721H152.883C185.931 253.452 216.943 240.485 240.141 216.878C263.502 193.271 276.363 161.684 276.363 128.102C276.363 107.654 271.561 88.3695 263.095 71.3292L323.167 10.3168L313.725 0.591354ZM18.9034 213.553H18.822C16.5429 213.553 15.4033 212.722 15.0777 212.473L14.7521 212.057C12.1474 209.064 13.4498 200.17 25.0082 184.127C28.9153 178.641 33.3107 173.571 36.8922 169.498C39.9853 178.309 44.0552 186.787 49.1018 194.934C32.6595 210.976 23.2174 213.553 18.9034 213.553ZM230.699 207.236C210.024 228.183 182.349 239.82 152.965 239.903C145.558 239.654 140.999 239.072 136.604 236.661C132.86 234.666 130.174 231.757 128.464 228.017C125.208 219.704 130.906 209.563 133.511 205.573C138.883 197.344 146.697 189.447 152.965 183.13L253.084 81.5534C259.433 95.7675 263.014 111.561 263.014 128.186C262.851 158.11 251.456 186.206 230.699 207.236Z" fill="black"/>
<path d="M449.577 67.2547C430.367 67.2547 414.006 76.0657 403.75 90.1967V69.6652H390.97V224.108H405.052V164.675C415.39 177.809 431.181 185.955 449.658 185.955C482.868 185.955 506.799 160.436 506.799 126.605C506.636 92.6073 482.705 67.2547 449.577 67.2547ZM448.518 172.073C423.204 172.073 404.401 152.456 404.401 126.605C404.401 100.67 423.285 81.1362 448.518 81.1362C473.914 81.1362 492.473 100.421 492.473 126.605C492.473 152.788 473.914 172.073 448.518 172.073Z" fill="black"/>
<path d="M547.496 30.4308H533.415V184.874H547.496V30.4308Z" fill="black"/>
<path d="M677.326 90.0304C667.232 75.9826 651.197 67.2547 631.662 67.2547C599.103 67.2547 574.602 92.441 574.602 126.189C574.602 159.771 599.103 185.123 631.662 185.123C651.034 185.123 667.232 176.395 677.326 162.514V184.791H690.512V69.5821H677.326V90.0304ZM632.72 171.325C607.65 171.325 588.928 151.957 588.928 126.189C588.928 100.504 607.65 81.0531 632.72 81.0531C657.953 81.0531 676.349 100.171 676.349 126.189C676.349 152.207 657.953 171.325 632.72 171.325Z" fill="black"/>
<path d="M776.793 67.9207C756.199 67.9207 744.967 74.5705 736.827 85.6259V69.6662H722.745V184.958H736.827V124.86C736.827 99.5906 753.676 82.4672 773.944 82.4672C794.782 82.4672 813.34 92.1926 813.34 118.875V184.958H827.422V115.633C827.422 87.5377 803.41 67.9207 776.793 67.9207Z" fill="black"/>
<path d="M941.217 158.94C933.484 167.169 922.74 171.907 910.123 171.907C886.925 171.907 869.831 155.698 867.552 132.008H965.636C965.799 130.262 965.962 128.433 965.962 126.688C965.962 93.5216 943.496 67.2547 910.205 67.2547C878.053 67.2547 853.633 92.7735 853.633 126.605C853.633 160.519 878.053 186.038 910.205 186.038C926.972 186.038 941.461 179.388 951.962 167.335L941.217 158.94ZM867.878 118.708C871.052 96.1816 887.739 80.8869 910.205 80.8869C932.019 80.8869 948.868 95.6828 952.043 118.708H867.878Z" fill="black"/>
<path d="M1577.26 158.94C1569.52 167.169 1558.78 171.907 1546.16 171.907C1522.96 171.907 1505.87 155.698 1503.59 132.008H1601.67C1601.84 130.262 1602 128.433 1602 126.688C1602 93.5216 1579.53 67.2547 1546.24 67.2547C1514.09 67.2547 1489.67 92.7735 1489.67 126.605C1489.67 160.519 1514.09 186.038 1546.24 186.038C1563.01 186.038 1577.5 179.388 1588 167.335L1577.26 158.94ZM1503.92 118.708C1507.09 96.1816 1523.78 80.8869 1546.24 80.8869C1568.06 80.8869 1584.91 95.6828 1588.08 118.708H1503.92Z" fill="black"/>
<path d="M1012.6 146.307V80.6398H1052.16V67.5895H1012.6V45.3125H1010.24L976.054 77.7305V80.5567H998.52V146.723C998.52 170.413 1012.6 184.876 1035.56 184.876H1052.81V171.577H1037.26C1021.39 171.66 1012.6 162.516 1012.6 146.307Z" fill="black"/>
<path d="M1117.28 117.627C1101.32 114.967 1087.4 112.64 1087.4 98.9246C1087.4 87.6199 1098.07 80.1388 1114.75 80.1388C1131.85 80.1388 1142.27 87.8692 1143.08 101.418H1156.43C1155.62 80.4713 1139.82 67.2547 1115.08 67.2547C1090.42 67.2547 1073.81 80.2219 1073.81 99.4234C1073.81 124.028 1094.65 127.852 1113.78 131.26C1129.89 134.086 1145.12 136.995 1145.12 152.29C1145.12 164.925 1133.15 172.655 1115.98 172.655C1098.64 172.655 1086.59 164.592 1085.37 149.879H1071.61C1072.83 172.073 1089.52 185.955 1115.49 185.955C1141.62 185.955 1158.95 172.406 1158.95 151.625C1159.12 124.61 1136.65 120.786 1117.28 117.627Z" fill="black"/>
<path d="M1401.11 90.1967C1390.94 76.0657 1374.09 67.2547 1354.47 67.2547C1321.67 67.2547 1297 92.6073 1297 126.605C1297 160.436 1321.67 185.955 1354.47 185.955C1374.01 185.955 1390.94 177.227 1401.11 163.179V184.957H1413.73V67.5872H1401.11V90.1967ZM1355.53 172.073C1330.22 172.073 1311.41 152.539 1311.41 126.605C1311.41 100.753 1330.3 81.1363 1355.53 81.1363C1380.93 81.1363 1399.48 100.421 1399.48 126.605C1399.4 152.789 1380.93 172.073 1355.53 172.073Z" fill="black"/>
<path d="M1461.75 30.4308H1447.67V184.874H1461.75V30.4308Z" fill="black"/>
<path d="M1269.09 157.443C1261.11 166.836 1249.71 172.073 1236.61 172.073C1211.94 172.073 1193.22 152.29 1193.22 126.605C1193.22 100.836 1211.78 81.1363 1236.61 81.1363C1248.9 81.1363 1259.81 85.7912 1267.62 93.8541L1279.67 86.7886C1269.57 74.5695 1254.43 67.2547 1236.61 67.2547C1203.72 67.2547 1178.9 92.6904 1178.9 126.605C1178.9 160.436 1203.81 185.955 1236.61 185.955C1255 185.955 1270.88 177.975 1281.05 164.509L1269.09 157.443Z" fill="black"/>
</svg>
