<svg width="1618" height="257" viewBox="0 0 1618 257" fill="none" xmlns="http://www.w3.org/2000/svg">
<path d="M316.857 0.894287L258.652 59.9975C236.373 25.2408 197.899 2.3215 154.327 2.3215C121.114 2.3215 89.8743 15.6701 66.5266 40.0166C43.261 64.1952 30.4362 96.2655 30.4362 130.351C30.4362 139.082 31.2583 147.645 32.9847 155.956C28.7098 160.406 21.2287 168.549 14.4052 177.868C-0.47488 198.353 -3.76329 213.716 4.62216 223.455C5.85532 224.966 9.71921 228.996 17.2004 229.668C17.858 229.752 18.4335 229.752 19.0912 229.752C31.0939 229.752 45.974 220.768 63.156 202.97L199.707 64.6989L190.171 54.8764L59.4565 187.271C49.1802 169.893 43.9187 150.835 43.9187 130.435C43.9187 99.9594 55.346 71.3313 76.1452 49.7552C96.9444 28.0952 124.732 16.1738 154.327 16.1738C194.199 16.1738 229.221 37.6659 248.787 69.9041L144.873 175.434C138.132 182.318 129.664 190.797 123.498 200.284C112.318 217.326 114.784 230.003 117.25 235.964L117.333 236.132C120.21 242.764 125.143 248.053 131.637 251.579C139.036 255.525 146.517 256.113 154.081 256.365H154.245H154.409C187.787 256.281 219.109 243.184 242.539 219.341C266.133 195.498 279.123 163.596 279.123 129.679C279.123 109.026 274.272 89.5492 265.722 72.3387L326.394 10.7168L316.857 0.894287ZM19.0912 215.983H19.009C16.7071 215.983 15.5561 215.144 15.2273 214.892L14.8985 214.472C12.2677 211.45 13.5831 202.467 25.257 186.264C29.2031 180.723 33.6424 175.602 37.2597 171.488C40.3837 180.387 44.4942 188.95 49.5912 197.178C32.9847 213.381 23.4483 215.983 19.0912 215.983ZM233.003 209.603C212.121 230.759 184.17 242.512 154.492 242.596C147.011 242.345 142.407 241.757 137.967 239.322C134.186 237.307 131.473 234.369 129.746 230.591C126.458 222.196 132.213 211.953 134.843 207.924C140.269 199.612 148.161 191.637 154.492 185.256L255.61 82.665C262.023 97.021 265.64 112.972 265.64 129.763C265.476 159.986 253.966 188.362 233.003 209.603Z" fill="white"/>
<path d="M454.066 68.2234C434.664 68.2234 418.14 77.1225 407.782 91.3946V70.6581H394.875V226.644H409.097V166.617C419.538 179.882 435.486 188.109 454.148 188.109C487.69 188.109 511.86 162.335 511.86 128.166C511.695 93.8293 487.526 68.2234 454.066 68.2234ZM452.997 174.089C427.43 174.089 408.439 154.276 408.439 128.166C408.439 101.973 427.512 82.2437 452.997 82.2437C478.647 82.2437 497.391 101.721 497.391 128.166C497.391 154.612 478.647 174.089 452.997 174.089Z" fill="white"/>
<path d="M552.963 31.0317H538.741V187.017H552.963V31.0317Z" fill="white"/>
<path d="M684.09 91.2267C673.896 77.0386 657.7 68.2234 637.97 68.2234C605.086 68.2234 580.341 93.6614 580.341 127.746C580.341 161.664 605.086 187.269 637.97 187.269C657.536 187.269 673.896 178.454 684.09 164.434V186.934H697.408V70.5741H684.09V91.2267ZM639.039 173.333C613.718 173.333 594.81 153.772 594.81 127.746C594.81 101.805 613.718 82.1597 639.039 82.1597C664.524 82.1597 683.103 101.469 683.103 127.746C683.103 154.024 664.524 173.333 639.039 173.333Z" fill="white"/>
<path d="M784.551 68.8961C763.751 68.8961 752.406 75.6124 744.185 86.7782V70.6591H729.963V187.103H744.185V126.404C744.185 100.882 761.203 83.588 781.673 83.588C802.719 83.588 821.463 93.4105 821.463 120.36V187.103H835.685V117.085C835.685 88.7091 811.433 68.8961 784.551 68.8961Z" fill="white"/>
<path d="M950.617 160.824C942.807 169.136 931.955 173.921 919.213 173.921C895.783 173.921 878.518 157.55 876.216 133.623H975.28C975.445 131.86 975.609 130.013 975.609 128.25C975.609 94.7527 952.919 68.2234 919.295 68.2234C886.822 68.2234 862.158 93.9972 862.158 128.166C862.158 162.419 886.822 188.193 919.295 188.193C936.23 188.193 950.864 181.477 961.469 169.303L950.617 160.824ZM876.545 120.191C879.752 97.4393 896.605 81.9918 919.295 81.9918C941.327 81.9918 958.345 96.9355 961.551 120.191H876.545Z" fill="white"/>
<path d="M1593.01 160.824C1585.2 169.136 1574.35 173.921 1561.6 173.921C1538.17 173.921 1520.91 157.55 1518.61 133.623H1617.67C1617.84 131.86 1618 130.013 1618 128.25C1618 94.7527 1595.31 68.2234 1561.69 68.2234C1529.21 68.2234 1504.55 93.9972 1504.55 128.166C1504.55 162.419 1529.21 188.193 1561.69 188.193C1578.62 188.193 1593.25 181.477 1603.86 169.303L1593.01 160.824ZM1518.94 120.191C1522.14 97.4393 1539 81.9918 1561.69 81.9918C1583.72 81.9918 1600.74 96.9355 1603.94 120.191H1518.94Z" fill="white"/>
<path d="M1022.71 148.066V81.7423H1062.67V68.5616H1022.71V46.0621H1020.33L985.802 78.8039V81.6583H1008.49V148.485C1008.49 172.412 1022.71 187.02 1045.9 187.02H1063.33V173.587H1047.62C1031.59 173.671 1022.71 164.436 1022.71 148.066Z" fill="white"/>
<path d="M1128.44 119.099C1112.32 116.413 1098.27 114.062 1098.27 100.21C1098.27 88.7921 1109.03 81.2362 1125.89 81.2362C1143.15 81.2362 1153.67 89.0439 1154.5 102.728H1167.98C1167.16 81.5721 1151.21 68.2234 1126.22 68.2234C1101.31 68.2234 1084.54 81.3202 1084.54 100.713C1084.54 125.564 1105.58 129.426 1124.9 132.868C1141.18 135.722 1156.55 138.66 1156.55 154.108C1156.55 166.869 1144.47 174.677 1127.12 174.677C1109.61 174.677 1097.44 166.533 1096.21 151.673H1082.32C1083.55 174.089 1100.4 188.109 1126.63 188.109C1153.02 188.109 1170.53 174.425 1170.53 153.436C1170.69 126.151 1148 122.29 1128.44 119.099Z" fill="white"/>
<path d="M1415.11 91.3946C1404.83 77.1225 1387.81 68.2234 1368 68.2234C1334.87 68.2234 1309.96 93.8293 1309.96 128.166C1309.96 162.335 1334.87 188.109 1368 188.109C1387.73 188.109 1404.83 179.294 1415.11 165.106V187.102H1427.85V68.5593H1415.11V91.3946ZM1369.07 174.089C1343.5 174.089 1324.51 154.36 1324.51 128.166C1324.51 102.057 1343.58 82.2437 1369.07 82.2437C1394.72 82.2437 1413.46 101.721 1413.46 128.166C1413.38 154.612 1394.72 174.089 1369.07 174.089Z" fill="white"/>
<path d="M1476.35 31.0317H1462.13V187.017H1476.35V31.0317Z" fill="white"/>
<path d="M1281.76 159.313C1273.7 168.8 1262.19 174.089 1248.96 174.089C1224.05 174.089 1205.14 154.108 1205.14 128.166C1205.14 102.141 1223.88 82.2437 1248.96 82.2437C1261.37 82.2437 1272.39 86.9451 1280.28 95.0886L1292.45 87.9525C1282.25 75.6114 1266.96 68.2234 1248.96 68.2234C1215.75 68.2234 1190.67 93.9132 1190.67 128.166C1190.67 162.335 1215.83 188.109 1248.96 188.109C1267.54 188.109 1283.57 180.05 1293.85 166.449L1281.76 159.313Z" fill="white"/>
</svg>
