<svg width="316" height="95" viewBox="0 0 316 95" fill="none" xmlns="http://www.w3.org/2000/svg">
<path shape-rendering="geometricPrecision" d="M22.6935 73.9387C17.1893 66.5558 14 57.9211 14 48.0091C14 23.4334 33.7533 3.25177 58.4706 3.25177C83.1879 3.25177 103.276 23.178 103.276 47.7536C103.276 72.3293 83.2136 91.9489 58.4706 92C55.4613 91.8978 53.2493 91.6679 51.0374 90.5183C49.2112 89.5731 47.668 88.0914 46.7678 86.0477C45.3017 82.5223 46.7935 78.4093 48.9026 75.2416C51.0374 72.0483 53.9438 69.1615 56.6959 66.4791L122 2" stroke="white" stroke-width="5" stroke-miterlimit="10"/>
<path shape-rendering="geometricPrecision" d="M15.848 58.1738C15.848 58.1738 -1.40313 75.1487 4.07422 80.9007C5.64968 82.802 11.5205 83.9096 22.4003 73.1291L74 22" stroke="white" stroke-width="5" stroke-miterlimit="10"/>
<path d="M178.158 35.0769C174.252 30.3923 168.562 27.8269 162.09 27.8269C150.15 27.8269 141 36.9731 141 49.2423C141.112 61.5115 150.15 70.7692 162.09 70.7692C168.562 70.7692 174.476 68.0923 178.381 63.2962L178.604 69.9885H183.179V15H178.158V35.0769ZM178.27 49.2423C178.27 58.7231 171.574 65.75 162.201 65.75C153.051 65.75 146.133 58.7231 146.133 49.2423C146.133 39.8731 153.051 32.8462 162.201 32.8462C171.574 32.8462 178.27 39.7615 178.27 49.2423Z" fill="white"/>
<path d="M211.41 27.9385C199.136 27.9385 189.986 37.0846 189.986 49.3539C189.986 61.6231 199.247 70.7692 211.41 70.7692C223.573 70.7692 232.835 61.5116 232.835 49.3539C232.835 37.0846 223.685 27.9385 211.41 27.9385ZM227.702 49.2423C227.702 58.7231 220.895 65.75 211.41 65.75C202.037 65.75 195.007 58.7231 195.007 49.2423C195.007 39.7616 201.925 32.8462 211.41 32.8462C220.895 32.8462 227.702 39.7616 227.702 49.2423Z" fill="white"/>
<path d="M314.069 52.3656C313.176 50.9156 311.837 49.6887 310.163 48.7964C307.039 47.0118 302.91 46.3425 299.897 45.8964C296.773 45.3387 293.983 44.8925 291.975 43.8887C291.082 43.4425 290.301 42.8848 289.855 42.2156C289.408 41.4348 289.074 40.6541 289.074 39.5387C289.074 37.6425 289.966 35.9695 291.64 34.7425C293.426 33.4041 295.992 32.7348 299.116 32.7348C302.241 32.7348 304.807 33.4041 306.593 34.7425C308.266 35.9695 309.271 37.8656 309.382 40.0964L309.494 41.4348H314.404L314.292 39.9848C314.069 36.3041 312.507 33.181 309.829 31.0618C307.151 28.9425 303.468 27.8271 299.116 27.8271C294.765 27.8271 291.082 28.9425 288.404 30.9502C285.615 33.0695 284.052 36.081 284.052 39.5387C284.052 41.5464 284.499 43.331 285.391 44.8925C286.172 46.231 287.4 47.2348 288.962 48.1271C291.752 49.5771 295.322 50.2464 298.558 50.8041H298.782C302.018 51.3618 304.919 51.9195 307.039 53.0348C308.043 53.5925 308.824 54.2618 309.382 55.0425C309.94 55.9348 310.275 57.0502 310.275 58.2771C310.275 60.3964 309.271 62.2925 307.485 63.631C305.588 65.081 302.799 65.7502 299.451 65.7502C296.215 65.7502 293.426 64.9695 291.529 63.631C289.632 62.2925 288.627 60.3964 288.404 57.831L288.293 56.6041H283.16L283.271 58.1656C283.606 62.0695 285.28 65.1925 288.181 67.4233C290.971 69.5425 294.876 70.7695 299.451 70.7695C304.026 70.7695 307.932 69.6541 310.833 67.4233C313.734 65.1925 315.408 61.9579 315.408 58.2771C315.631 56.0464 315.073 54.0387 314.069 52.3656Z" fill="white"/>
<path d="M272.782 60.5081C269.769 63.9658 265.641 65.862 260.731 65.862C251.581 65.862 244.663 58.7235 244.663 49.3543C244.663 39.9851 251.581 32.8466 260.731 32.8466C265.306 32.8466 269.323 34.5197 272.224 37.4197L276.688 34.8543C272.894 30.3927 267.315 27.7158 260.731 27.7158C248.568 27.7158 239.307 36.9735 239.307 49.2427C239.307 61.512 248.568 70.7697 260.731 70.7697C267.538 70.7697 273.452 67.8697 277.246 62.962L272.782 60.5081Z" fill="white"/>
</svg>
