<svg width="130" height="130" viewBox="0 0 130 130" fill="none" xmlns="http://www.w3.org/2000/svg">
<style>
    path {
        stroke: #000;
    }

    @media (prefers-color-scheme: dark) {
        path {
            stroke: #fff;
        }
    }
</style>
<path d="M25.6935 91.9387C20.1893 84.5558 17 75.9211 17 66.0091C17 41.4334 36.7533 21.2518 61.4706 21.2518C86.1879 21.2518 106.276 41.178 106.276 65.7536C106.276 90.3293 86.2136 109.949 61.4706 110C58.4613 109.898 56.2493 109.668 54.0374 108.518C52.2112 107.573 50.668 106.091 49.7678 104.048C48.3017 100.522 49.7935 96.4093 51.9026 93.2416C54.0374 90.0483 56.9438 87.1615 59.6959 84.4791L125 20" stroke-width="10" stroke-miterlimit="10" stroke-linecap="round"/>
<path d="M17.848 78.1738C17.848 78.1738 0.596873 95.1487 6.07422 100.901C7.64968 102.802 13.5205 103.91 24.4003 93.1291L76 42" stroke-width="10" stroke-miterlimit="10" stroke-linecap="round"/>
</svg>
