<?xml version="1.0" encoding="utf-8"?>
<!-- Generator: Adobe Illustrator 24.0.1, SVG Export Plug-In . SVG Version: 6.00 Build 0)  -->
<svg version="1.1" id="Layer_1" xmlns="http://www.w3.org/2000/svg" xmlns:xlink="http://www.w3.org/1999/xlink" x="0px" y="0px"
	 viewBox="0 0 769.46 105.47" style="enable-background:new 0 0 769.46 105.47;" xml:space="preserve">
<style type="text/css">
	.st0{fill:#FFFFFF;}
	.st1{fill:url(#SVGID_1_);}
	.st2{fill:url(#SVGID_2_);}
	.st3{fill:url(#SVGID_3_);}
	.st4{fill:url(#SVGID_4_);}
	.st5{fill:url(#SVGID_5_);}
	.st6{fill:url(#SVGID_6_);}
	.st7{fill:url(#SVGID_7_);}
	.st8{fill:url(#SVGID_8_);}
	.st9{fill:url(#SVGID_9_);}
	.st10{fill:url(#SVGID_10_);}
	.st11{fill:url(#SVGID_11_);}
	.st12{fill:#CE413B;}
	.st13{fill:#214746;}
	.st14{fill:none;stroke:#CE413B;stroke-miterlimit:10;}
	.st15{fill:url(#SVGID_12_);}
	.st16{fill:url(#SVGID_13_);}
	.st17{fill:url(#SVGID_14_);}
	.st18{fill:url(#SVGID_15_);}
	.st19{fill:url(#SVGID_16_);}
	.st20{fill:url(#SVGID_17_);}
	.st21{fill:url(#SVGID_18_);}
	.st22{fill:url(#SVGID_19_);}
	.st23{fill:url(#SVGID_20_);}
	.st24{fill:url(#SVGID_21_);}
	.st25{fill:url(#SVGID_22_);}
	.st26{fill:url(#SVGID_23_);}
	.st27{fill:url(#SVGID_24_);}
	.st28{fill:url(#SVGID_25_);}
	.st29{fill:url(#SVGID_26_);}
	.st30{fill:url(#SVGID_27_);}
	.st31{fill:url(#SVGID_28_);}
	.st32{fill:url(#SVGID_29_);}
	.st33{fill:url(#SVGID_30_);}
	.st34{fill:url(#SVGID_31_);}
	.st35{fill:url(#SVGID_32_);}
	.st36{fill:url(#SVGID_33_);}
	.st37{fill:url(#SVGID_34_);}
	.st38{fill:url(#SVGID_35_);}
	.st39{fill:url(#SVGID_36_);}
	.st40{fill:url(#SVGID_37_);}
	.st41{fill:url(#SVGID_38_);}
	.st42{fill:url(#SVGID_39_);}
	.st43{fill:url(#SVGID_40_);}
	.st44{fill:url(#SVGID_41_);}
	.st45{fill:url(#SVGID_42_);}
	.st46{fill:url(#SVGID_43_);}
	.st47{fill:url(#SVGID_44_);}
	.st48{fill:url(#SVGID_45_);}
	.st49{fill:url(#SVGID_46_);}
	.st50{fill:url(#SVGID_47_);}
	.st51{fill:url(#SVGID_48_);}
	.st52{fill:url(#SVGID_49_);}
	.st53{fill:url(#SVGID_50_);}
	.st54{fill:url(#SVGID_51_);}
	.st55{fill:url(#SVGID_52_);}
	.st56{fill:url(#SVGID_53_);}
	.st57{fill:url(#SVGID_54_);}
	.st58{fill:url(#SVGID_55_);}
	.st59{fill:url(#SVGID_56_);}
	.st60{fill:url(#SVGID_57_);}
	.st61{fill:url(#SVGID_58_);}
	.st62{fill:url(#SVGID_59_);}
	.st63{fill:url(#SVGID_60_);}
	.st64{fill:url(#SVGID_61_);}
	.st65{fill:url(#SVGID_62_);}
	.st66{fill:url(#SVGID_63_);}
	.st67{fill:url(#SVGID_64_);}
	.st68{fill:url(#SVGID_65_);}
	.st69{fill:url(#SVGID_66_);}
</style>
<g>
	<g>
		<path class="st0" d="M305.49,34.03c3.36,0,6.54,0,9.98,0c0,3.21,0,6.36,0,9.84c4.68-2.03,9-3.99,13.39-5.78
			c6.69-2.72,13.45-5.14,20.88-4.94c9.72,0.27,14.8,4.66,15.22,14.3c0.39,8.93,0.08,17.89,0.08,27.04c-3.44,0-6.8,0-10.53,0
			c-0.06-0.94-0.18-1.96-0.18-2.98c-0.02-6.04,0.01-12.07-0.02-18.11c-0.01-1.46-0.1-2.92-0.26-4.37c-0.48-4.29-2.77-6.36-7.11-6.56
			c-4.92-0.22-9.42,1.45-13.82,3.28c-5.21,2.17-10.29,4.63-15.46,6.9c-0.67,0.3-1.58,0.72-1.76,0.86
			c0.06,6.22,0.03,14.51,0.03,20.95c-3.51,0-6.87,0-10.43,0C305.49,61.13,305.49,47.75,305.49,34.03z"/>
		<g>
			<g>
				<path class="st0" d="M613.02,37.48c0,3.35,0,6.64,0,9.98c-0.71-0.21-1.39-0.42-2.08-0.61c-3.46-0.98-6.91-2.01-10.39-2.92
					c-3.07-0.8-6.21-1.32-9.38-1.58c-3-0.25-6.01-0.36-9.01-0.03c-2.85,0.32-5.63,0.94-8.14,2.42c-2.95,1.74-4.7,4.3-5.16,7.71
					c-0.31,2.32-0.12,4.57,0.85,6.73c0.9,2.02,2.36,3.54,4.22,4.69c1.93,1.19,4.05,1.86,6.27,2.28c1.94,0.37,3.9,0.51,5.87,0.53
					c3.23,0.02,6.44-0.21,9.63-0.68c3.32-0.49,6.57-1.33,9.79-2.28c2.4-0.71,4.81-1.4,7.22-2.09c0.1-0.03,0.19-0.05,0.31-0.08
					c0,3.29,0,6.56,0,9.86c-1.37,0.37-2.75,0.77-4.13,1.12c-3.03,0.77-6.07,1.52-9.17,1.97c-2.51,0.37-5.03,0.66-7.55,0.92
					c-2.56,0.27-5.14,0.29-7.71,0.2c-4.52-0.15-8.95-0.82-13.19-2.48c-3.6-1.41-6.77-3.44-9.22-6.49c-1.65-2.06-2.74-4.39-3.37-6.94
					c-0.68-2.76-0.76-5.55-0.42-8.36c0.4-3.28,1.57-6.25,3.56-8.89c1.43-1.9,3.2-3.43,5.2-4.7c2.95-1.87,6.18-3.02,9.57-3.74
					c3.87-0.82,7.79-1.04,11.74-0.92c6.74,0.2,13.33,1.4,19.84,3.09C609.77,36.59,611.39,37.04,613.02,37.48z"/>
			</g>
		</g>
		<path class="st0" d="M453.45,42.7c-4.41,0-8.29,0-12.6,0c0-2.6,0-4.98,0-7.37c0-0.53-0.01-0.79-0.01-1.45
			c3.4,0,8.82,0.01,12.61,0.01c0-2.62-0.03-4.97-0.03-7.41c0-1.58,0.01-2.03,0.67-2.5c2.88-1.7,6.79-4.14,9.93-6.06
			c0,5.49,0,10.51,0,15.87c8.12,0,16.06,0,24.2,0c0,3.11,0,5.87,0,8.92c-8.04,0-15.91,0-24.17,0c0,2.57,0,4.86,0,7.16
			c0.01,3.31-0.09,6.62,0.06,9.92c0.17,3.82,2.2,5.8,6.02,6.2c4.64,0.48,9.1-0.42,13.57-1.52c1.48-0.36,2.8-0.65,4.7-1.09
			c0,3.1,0,4.04,0,6.82c0,0.73,0,2.16,0,2.73c-7.8,1.83-16.97,3.82-24.99,1.73c-6.45-1.68-9.85-6.05-9.93-12.66
			c-0.06-5.35-0.02-10.7-0.02-16.05C453.45,45,453.45,44.05,453.45,42.7z"/>
		<path class="st0" d="M217.05,13.47c3.49,0,6.78,0,10.27,0c0,20.32,0,40.57,0,61.03c-3.33,0-6.68,0-10.27,0
			C217.05,54.26,217.05,34.02,217.05,13.47z"/>
		<path class="st0" d="M690.18,13.48c3.47,0,6.76,0,10.26,0c0,20.3,0,40.56,0,61.02c-3.31,0-6.66,0-10.26,0
			C690.18,54.27,690.18,34.03,690.18,13.48z"/>
		<g>
			<g>
				<path class="st0" d="M546.97,46.17c-0.95-0.23-1.84-0.45-2.74-0.66c-3.61-0.82-7.21-1.7-10.83-2.45c-2.96-0.62-5.98-0.95-9-1.2
					c-2.88-0.24-5.76-0.32-8.65-0.25c-1.76,0.05-3.53,0.15-5.24,0.61c-0.74,0.2-1.47,0.44-2.07,0.95c-1.17,1.02-1.18,2.69,0.05,3.63
					c0.55,0.42,1.21,0.74,1.87,0.98c1.63,0.61,3.35,0.86,5.06,1.07c3.42,0.43,6.85,0.84,10.27,1.25c2.85,0.34,5.71,0.67,8.56,1.02
					c3.22,0.4,6.41,0.93,9.49,1.99c1.85,0.64,3.6,1.46,5.1,2.74c1.87,1.59,2.86,3.63,3.09,6.06c0.12,1.27,0.07,2.53-0.23,3.77
					c-0.51,2.08-1.64,3.76-3.3,5.1c-1.84,1.48-3.96,2.38-6.2,3.04c-2.46,0.72-4.97,1.1-7.52,1.34c-3.23,0.31-6.47,0.35-9.71,0.23
					c-2.78-0.11-5.56-0.31-8.33-0.57c-4.97-0.47-9.89-1.32-14.76-2.4c-1.38-0.31-2.76-0.66-4.15-1c0-3.09,0-6.16,0-9.26
					c0.15,0.04,0.29,0.06,0.42,0.1c3.6,0.88,7.18,1.79,10.79,2.65c3.22,0.76,6.48,1.27,9.76,1.67c4.37,0.53,8.76,0.66,13.16,0.56
					c2.29-0.05,4.57-0.2,6.79-0.79c0.91-0.24,1.79-0.59,2.53-1.22c1.19-1.01,1.22-2.85,0.07-3.91c-0.76-0.71-1.7-1.07-2.67-1.38
					c-1.58-0.5-3.22-0.74-4.86-0.94c-3.68-0.45-7.36-0.88-11.03-1.32c-2.35-0.28-4.69-0.53-7.04-0.83
					c-3.28-0.41-6.55-0.92-9.69-1.98c-1.94-0.66-3.79-1.5-5.35-2.88c-1.53-1.36-2.45-3.04-2.76-5.06c-0.28-1.8-0.19-3.57,0.44-5.28
					c0.73-1.99,2.06-3.49,3.81-4.65c1.99-1.32,4.19-2.1,6.5-2.64c2.72-0.63,5.49-0.91,8.27-1.01c2.8-0.1,5.6-0.07,8.38,0.18
					c2.99,0.27,5.98,0.62,8.95,1.03c4.17,0.58,8.3,1.46,12.41,2.34c0.27,0.06,0.35,0.16,0.35,0.43c-0.01,2.84-0.01,5.68-0.01,8.52
					C546.97,45.9,546.97,46.01,546.97,46.17z"/>
			</g>
		</g>
		<g>
			<g>
				<path class="st0" d="M670.22,64.79c-0.44,0.48-0.84,0.94-1.26,1.38c-2.08,2.14-4.53,3.76-7.19,5.09
					c-3.28,1.64-6.74,2.73-10.31,3.48c-2.99,0.63-6.01,1.01-9.06,1.15c-2.37,0.11-4.74,0.13-7.11-0.09
					c-2.55-0.23-5.05-0.68-7.42-1.69c-1.79-0.76-3.41-1.8-4.63-3.35c-0.98-1.23-1.55-2.64-1.8-4.18c-0.31-1.94-0.16-3.84,0.57-5.68
					c0.78-1.99,2.2-3.46,3.95-4.63c1.94-1.29,4.08-2.12,6.3-2.78c2.91-0.87,5.88-1.41,8.87-1.87c3.17-0.49,6.33-1,9.49-1.5
					c3.15-0.5,6.31-0.99,9.46-1.5c2.2-0.36,4.39-0.73,6.58-1.14c0.88-0.17,1.76-0.43,2.51-0.95c1.08-0.75,1.14-2.22,0.13-3.06
					c-0.73-0.6-1.6-0.86-2.49-1.06c-2.23-0.5-4.5-0.53-6.78-0.51c-2.94,0.02-5.88,0.22-8.79,0.59c-3.06,0.39-6.11,0.84-9.14,1.36
					c-5.09,0.87-10.08,2.24-15.1,3.4c-0.17,0.04-0.34,0.08-0.54,0.12c0-3.05,0-6.07,0-9.1c1.5-0.34,2.99-0.71,4.5-1.01
					c3.86-0.77,7.72-1.55,11.59-2.24c2.99-0.54,6.01-0.87,9.04-1.12c3.6-0.3,7.2-0.4,10.81-0.25c3.04,0.12,6.06,0.42,9,1.27
					c1.84,0.53,3.58,1.29,5.08,2.52c1.72,1.4,2.73,3.21,3.12,5.37c0.16,0.92,0.24,1.86,0.24,2.79c0.02,9.7,0.01,19.4,0.01,29.1
					c0,0.12,0,0.24,0,0.37c-3.29,0-6.54,0-9.88,0C670.04,71.65,670.13,68.24,670.22,64.79z M669.97,53.14
					c-0.44,0.24-0.83,0.49-1.25,0.68c-1.84,0.83-3.79,1.28-5.77,1.61c-3.24,0.54-6.48,1.05-9.72,1.58
					c-3.37,0.55-6.74,1.07-10.11,1.64c-2.06,0.35-4.12,0.72-6.16,1.14c-1.43,0.3-2.81,0.77-4.05,1.57c-1.73,1.12-2.03,3.15-0.68,4.7
					c0.66,0.76,1.53,1.17,2.46,1.47c1.82,0.58,3.71,0.74,5.6,0.77c4.66,0.07,9.23-0.49,13.72-1.75c4.09-1.15,7.97-2.75,11.37-5.36
					c1.62-1.25,3.01-2.71,3.91-4.58C669.82,55.5,670.06,54.36,669.97,53.14z"/>
			</g>
		</g>
		<g>
			<g>
				<path class="st0" d="M286.02,64.21c-0.44,0.48-0.84,0.94-1.26,1.38c-2.08,2.14-4.53,3.76-7.19,5.09
					c-3.28,1.64-6.74,2.73-10.31,3.48c-2.99,0.63-6.01,1.01-9.06,1.15c-2.37,0.11-4.74,0.13-7.11-0.09
					c-2.55-0.23-5.05-0.68-7.42-1.69c-1.79-0.76-3.41-1.8-4.63-3.35c-0.98-1.23-1.55-2.64-1.8-4.18c-0.31-1.94-0.16-3.84,0.57-5.68
					c0.78-1.99,2.2-3.46,3.95-4.63c1.94-1.29,4.08-2.12,6.3-2.78c2.91-0.87,5.88-1.41,8.87-1.87c3.17-0.49,6.33-1,9.49-1.5
					c3.15-0.5,6.31-0.99,9.46-1.5c2.2-0.36,4.39-0.73,6.58-1.14c0.88-0.17,1.76-0.43,2.51-0.95c1.08-0.75,1.14-2.22,0.13-3.06
					c-0.73-0.6-1.6-0.86-2.49-1.06c-2.23-0.5-4.5-0.53-6.78-0.51c-2.94,0.02-5.88,0.22-8.79,0.59c-3.06,0.39-6.11,0.84-9.14,1.36
					c-5.09,0.87-10.08,2.24-15.1,3.4c-0.17,0.04-0.34,0.08-0.54,0.12c0-3.05,0-6.07,0-9.1c1.5-0.34,2.99-0.71,4.5-1.01
					c3.86-0.77,7.72-1.55,11.59-2.24c2.99-0.54,6.01-0.87,9.04-1.12c3.6-0.3,7.2-0.4,10.81-0.25c3.04,0.12,6.06,0.42,9,1.27
					c1.84,0.53,3.58,1.29,5.08,2.52c1.72,1.4,2.73,3.21,3.12,5.37c0.16,0.92,0.24,1.86,0.24,2.79c0.02,9.7,0.01,19.4,0.01,29.1
					c0,0.12,0,0.24,0,0.37c-3.29,0-6.54,0-9.88,0C285.84,71.06,285.93,67.66,286.02,64.21z M285.77,52.55
					c-0.44,0.24-0.83,0.49-1.25,0.68c-1.84,0.83-3.79,1.28-5.77,1.61c-3.24,0.54-6.48,1.05-9.72,1.58
					c-3.37,0.55-6.74,1.07-10.11,1.64c-2.06,0.35-4.12,0.72-6.16,1.14c-1.43,0.3-2.81,0.77-4.05,1.57c-1.73,1.12-2.03,3.15-0.68,4.7
					c0.66,0.76,1.53,1.17,2.46,1.47c1.82,0.58,3.71,0.74,5.6,0.77c4.66,0.07,9.23-0.49,13.72-1.75c4.09-1.15,7.97-2.75,11.37-5.36
					c1.62-1.25,3.01-2.71,3.91-4.58C285.62,54.92,285.86,53.77,285.77,52.55z"/>
			</g>
		</g>
		<g>
			<g>
				<path class="st0" d="M434.34,55.79c-16.78,0-33.54,0-50.36,0c0.07,0.45,0.12,0.87,0.21,1.28c0.53,2.55,1.94,4.54,4.03,6.05
					c2.11,1.52,4.51,2.4,7.02,2.97c4.07,0.93,8.19,1.14,12.35,1.04c4.75-0.12,9.42-0.86,14.02-2.01c4.21-1.05,8.4-2.17,12.61-3.26
					c0.12-0.03,0.24-0.06,0.4-0.1c0,0.13,0,0.24,0,0.35c0,1.11,0.01,7.11,0.01,8.42c0,0.27-0.09,0.36-0.33,0.42
					c-4.08,1.12-8.18,2.14-12.33,2.93c-3.49,0.67-7,1.17-10.55,1.45c-3.58,0.28-7.17,0.29-10.75,0.04
					c-4.41-0.32-8.75-1.04-12.92-2.58c-3.18-1.17-6.1-2.78-8.56-5.14c-2.07-1.99-3.6-4.33-4.45-7.08c-1.27-4.09-1.27-8.21-0.01-12.3
					c0.99-3.21,2.85-5.87,5.39-8.05c2.71-2.32,5.85-3.83,9.21-4.93c2.75-0.89,5.58-1.42,8.45-1.76c3.42-0.39,6.84-0.48,10.27-0.31
					c4.42,0.22,8.77,0.87,12.97,2.33c2.97,1.03,5.74,2.43,8.12,4.52c2.61,2.3,4.43,5.1,5.07,8.57c0.19,1.02,0.27,2.08,0.29,3.12
					c0.02,1.2-0.08,2.4-0.13,3.6C434.38,55.5,434.36,55.63,434.34,55.79z M424.31,48.46c-0.01-0.07,0-0.11-0.01-0.15
					c-0.27-1.09-0.87-1.98-1.68-2.75c-1.15-1.1-2.53-1.82-3.99-2.38c-3.08-1.2-6.31-1.69-9.59-1.93c-2.95-0.21-5.9-0.23-8.84,0.05
					c-2.86,0.27-5.67,0.8-8.34,1.89c-2.1,0.85-4.03,2-5.53,3.75c-0.4,0.47-0.76,0.97-1.19,1.53
					C398.27,48.46,411.29,48.46,424.31,48.46z"/>
			</g>
		</g>
		<g>
			<g>
				<path class="st0" d="M769.17,55.81c-16.78,0-33.54,0-50.36,0c0.07,0.45,0.12,0.87,0.21,1.28c0.53,2.55,1.94,4.54,4.03,6.05
					c2.11,1.52,4.51,2.4,7.02,2.97c4.07,0.93,8.19,1.14,12.35,1.04c4.75-0.12,9.42-0.86,14.02-2.01c4.21-1.05,8.4-2.17,12.61-3.26
					c0.12-0.03,0.24-0.06,0.4-0.1c0,0.13,0,0.24,0,0.35c0,2.81,0,5.61,0.01,8.42c0,0.27-0.09,0.36-0.33,0.42
					c-4.08,1.12-8.18,2.14-12.33,2.93c-3.49,0.67-7,1.17-10.55,1.45c-3.58,0.28-7.17,0.29-10.75,0.04
					c-4.41-0.32-8.75-1.04-12.92-2.58c-3.18-1.17-6.1-2.78-8.56-5.14c-2.07-1.99-3.6-4.33-4.45-7.08c-1.27-4.09-1.27-8.21-0.01-12.3
					c0.99-3.21,2.85-5.87,5.39-8.05c2.71-2.32,5.85-3.83,9.21-4.93c2.75-0.89,5.58-1.42,8.45-1.76c3.42-0.39,6.84-0.48,10.27-0.31
					c4.42,0.22,8.77,0.87,12.97,2.33c2.97,1.03,5.74,2.43,8.12,4.52c2.61,2.3,4.43,5.1,5.07,8.57c0.19,1.02,0.27,2.08,0.29,3.12
					c0.02,1.2-0.08,2.4-0.13,3.6C769.21,55.52,769.19,55.65,769.17,55.81z M759.14,48.48c-0.01-0.07,0-0.11-0.01-0.15
					c-0.27-1.09-0.87-1.98-1.68-2.75c-1.15-1.1-2.53-1.82-3.99-2.38c-3.08-1.2-6.31-1.69-9.59-1.93c-2.95-0.21-5.89-0.23-8.84,0.05
					c-2.86,0.27-5.67,0.8-8.34,1.89c-2.1,0.85-4.03,2-5.53,3.75c-0.4,0.47-0.76,0.97-1.19,1.53
					C733.1,48.48,746.11,48.48,759.14,48.48z"/>
			</g>
		</g>
		<g>
			<g>
				<path class="st0" d="M141.83,42.92c3.35-3.02,7.44-6.21,10.07-8.84c-0.05,3.48-0.1,6.95-0.16,10.46
					c0.49-0.22,0.97-0.44,1.45-0.66c5.32-2.43,10.67-4.78,16.15-6.83c3.13-1.17,6.31-2.22,9.57-2.97c3.3-0.76,6.64-1.1,10.03-0.83
					c3.04,0.25,5.96,0.95,8.66,2.43c2.99,1.63,5.28,3.95,6.91,6.94c1.29,2.36,2.01,4.91,2.37,7.56c0.35,2.56,0.38,5.12,0.07,7.69
					c-0.4,3.36-1.35,6.54-3.22,9.4c-1.45,2.23-3.32,4.01-5.62,5.36c-2.17,1.27-4.52,2.01-6.99,2.41c-2.74,0.44-5.47,0.37-8.21,0.04
					c-3.9-0.46-7.66-1.53-11.36-2.79c-4.26-1.45-8.41-3.17-12.52-4.99c-2.15-0.95-4.27-1.94-6.41-2.91
					c-0.11-0.05-0.22-0.1-0.38-0.16c0,9.1,0,18.17,0,27.25c-3.49,0-6.94,0-10.41,0C141.83,72.34,141.83,62.06,141.83,42.92z
					 M150.88,54.26c0.65,0.29,1.23,0.56,1.82,0.82c5.28,2.35,10.54,4.73,15.85,7.03c3.76,1.63,7.62,3.01,11.66,3.81
					c2.86,0.56,5.72,0.69,8.56-0.05c3.35-0.87,5.79-2.85,6.98-6.14c1.26-3.51,1.25-7.09,0.1-10.63c-0.78-2.39-2.3-4.22-4.53-5.43
					c-1.62-0.89-3.38-1.29-5.21-1.45c-2.24-0.19-4.44,0.07-6.62,0.57c-3.25,0.75-6.38,1.85-9.44,3.14
					c-5.43,2.29-10.81,4.68-16.21,7.03C152.87,53.37,151.92,53.8,150.88,54.26z"/>
			</g>
		</g>
	</g>
</g>
<g>
	<g>
		<linearGradient id="SVGID_1_" gradientUnits="userSpaceOnUse" x1="95.7793" y1="19.3351" x2="112.4679" y2="-0.5536">
			<stop  offset="1.012517e-03" style="stop-color:#EC682E"/>
			<stop  offset="0.7096" style="stop-color:#CE413B"/>
			<stop  offset="1" style="stop-color:#B43430"/>
		</linearGradient>
		<path class="st1" d="M118.85,6.87c1.16-1.45,0.21-2.15-0.85-2.38c-2.45-0.52-7.16,0.65-8.12,0.82l-0.55,0.11
			c-0.38,0.07-0.75,0.17-1.11,0.3c-6.85,2.36-13.17,4.77-19.83,7.41l11.34,6.54C113.19,12.37,117.48,8.58,118.85,6.87z"/>
		<linearGradient id="SVGID_2_" gradientUnits="userSpaceOnUse" x1="62.3383" y1="1.9531" x2="62.3383" y2="36.4844">
			<stop  offset="1.012517e-03" style="stop-color:#EC682E"/>
			<stop  offset="0.7096" style="stop-color:#CE413B"/>
			<stop  offset="1" style="stop-color:#B43430"/>
		</linearGradient>
		<path class="st2" d="M26.64,30.36c2.61,4.43,6.72,7.94,11.55,9.66c5.57,1.99,11.23,0.83,16.83-0.54c0.27-0.07,0.53-0.14,0.8-0.21
			c0.8-0.21,1.6-0.43,2.4-0.66c0.17-0.05,0.35-0.1,0.52-0.15c0.41-0.12,0.82-0.25,1.24-0.38c4.25-1.35,8.4-3.03,12.49-4.81
			c1.79-0.78,3.58-1.59,5.35-2.41c6.34-2.93,12.49-6.27,18.67-9.53c1.12-0.59,2.19-1.16,3.2-1.71L68.88,1.82L24.97,27.17
			C24.97,27.17,26.04,29.34,26.64,30.36z"/>
		
			<linearGradient id="SVGID_3_" gradientUnits="userSpaceOnUse" x1="83.3796" y1="-2.1017" x2="73.075" y2="56.3387" gradientTransform="matrix(1 -2.730477e-03 2.730477e-03 1 0.2203 5.1307)">
			<stop  offset="1.012517e-03" style="stop-color:#EC682E"/>
			<stop  offset="0.7096" style="stop-color:#CE413B"/>
			<stop  offset="1" style="stop-color:#B43430"/>
		</linearGradient>
		<path class="st3" d="M96.5,21.33c-6.18,3.26-12.33,6.59-18.67,9.53c-1.78,0.82-3.56,1.62-5.35,2.41
			c-5.66,2.47-11.44,4.75-17.45,6.22c-5.6,1.37-11.26,2.53-16.83,0.54c-4.83-1.73-8.94-5.24-11.55-9.66
			c-0.6-1.02-1.66-3.19-1.66-3.19c0.01,16.86,0.02,33.8,0.03,50.66c12.18-7.02,24.35-14.04,36.53-21.06
			c12.01-6.92,24.55-13.67,36.5-20.73c7.19-4.24,14.41-8.63,21.45-13.11c6.13-3.9,11.95-7.62,16.36-13.39
			c0.54-0.71,1-1.48,1.29-2.32c1.22-3.63-0.98-5.64-3.96-5.92c-3.86-0.35-7.77,0.41-11.57,1.01c-4.08,0.65-7.97,1.6-11.84,2.83
			l-1.73,0.59l1.73-0.42c0.97-0.18,5.67-1.34,8.12-0.82c1.07,0.23,2.01,0.93,0.85,2.38C117.27,8.71,112.45,12.93,96.5,21.33z"/>
		<linearGradient id="SVGID_4_" gradientUnits="userSpaceOnUse" x1="49.4309" y1="92.936" x2="18.4359" y2="92.936">
			<stop  offset="1.012517e-03" style="stop-color:#EC682E"/>
			<stop  offset="0.7096" style="stop-color:#CE413B"/>
			<stop  offset="1" style="stop-color:#B43430"/>
		</linearGradient>
		<path class="st4" d="M18.97,98.08c-1.16,1.45-0.21,2.15,0.85,2.38c2.45,0.52,7.16-0.65,8.12-0.82l0.55-0.11
			c0.38-0.07,0.75-0.17,1.11-0.3c6.85-2.36,13.17-4.77,19.83-7.41l-11.34-6.54C24.62,92.58,20.33,96.36,18.97,98.08z"/>
		
			<linearGradient id="SVGID_5_" gradientUnits="userSpaceOnUse" x1="3306.7639" y1="-733.2255" x2="3306.7639" y2="-698.5671" gradientTransform="matrix(-1 0 0 -1 3382.1345 -630.0864)">
			<stop  offset="1.012517e-03" style="stop-color:#EC682E"/>
			<stop  offset="0.7096" style="stop-color:#CE413B"/>
			<stop  offset="1" style="stop-color:#B43430"/>
		</linearGradient>
		<path class="st5" d="M111.17,74.59c-2.61-4.43-6.72-7.94-11.55-9.66c-5.57-1.99-11.23-0.83-16.83,0.54
			c-0.27,0.07-0.53,0.14-0.8,0.21c-0.8,0.21-1.6,0.43-2.4,0.66c-0.17,0.05-0.35,0.1-0.52,0.15c-0.41,0.12-0.82,0.25-1.24,0.38
			c-4.25,1.35-8.4,3.03-12.49,4.81c-1.79,0.78-3.58,1.59-5.35,2.41c-6.34,2.93-12.49,6.27-18.67,9.53c-1.12,0.59-2.34,1.24-3.36,1.8
			l30.93,17.86l43.91-25.35C112.79,77.92,111.77,75.61,111.17,74.59z"/>
		
			<linearGradient id="SVGID_6_" gradientUnits="userSpaceOnUse" x1="3329.6975" y1="-728.2703" x2="3319.3928" y2="-669.8299" gradientTransform="matrix(-1 2.730477e-03 -2.730477e-03 -1 3381.9143 -635.2172)">
			<stop  offset="1.012517e-03" style="stop-color:#EC682E"/>
			<stop  offset="0.7096" style="stop-color:#CE413B"/>
			<stop  offset="1" style="stop-color:#B43430"/>
		</linearGradient>
		<path class="st6" d="M41.31,83.62c6.18-3.26,12.33-6.59,18.67-9.53c1.78-0.82,3.56-1.62,5.35-2.41
			c5.66-2.47,11.44-4.75,17.45-6.22c5.6-1.37,11.26-2.53,16.83-0.54c4.83,1.73,8.94,5.24,11.55,9.66c0.6,1.02,1.62,3.33,1.62,3.33
			c-0.01-16.86,0.03-33.94,0.02-50.8c-12.18,7.02-24.35,14.04-36.53,21.06c-12.01,6.92-24.55,13.67-36.5,20.73
			c-7.19,4.24-14.41,8.63-21.45,13.11c-6.13,3.9-11.95,7.62-16.36,13.39c-0.54,0.71-1,1.48-1.29,2.32
			c-1.22,3.63,0.98,5.64,3.96,5.92c3.86,0.35,7.77-0.41,11.57-1.01c4.08-0.65,7.97-1.6,11.84-2.83l1.73-0.59l-1.73,0.42
			c-0.97,0.18-5.67,1.34-8.12,0.82c-1.07-0.23-2.01-0.93-0.85-2.38C20.54,96.24,25.36,92.02,41.31,83.62z"/>
	</g>
	<g>
		<g>
			<linearGradient id="SVGID_7_" gradientUnits="userSpaceOnUse" x1="25.0488" y1="14.4844" x2="100.2949" y2="14.4844">
				<stop  offset="1.012517e-03" style="stop-color:#EC682E"/>
				<stop  offset="0.7096" style="stop-color:#CE413B"/>
				<stop  offset="1" style="stop-color:#B43430"/>
			</linearGradient>
			<polygon class="st7" points="100.29,19.98 68.83,1.8 25.05,27.17 68.87,4.55 			"/>
		</g>
		<linearGradient id="SVGID_8_" gradientUnits="userSpaceOnUse" x1="37.9198" y1="90.5967" x2="112.6892" y2="90.5967">
			<stop  offset="1.012517e-03" style="stop-color:#EC682E"/>
			<stop  offset="0.7096" style="stop-color:#CE413B"/>
			<stop  offset="1" style="stop-color:#B43430"/>
		</linearGradient>
		<polyline class="st8" points="37.92,85.51 68.88,103.27 112.69,77.92 68.9,99.15 37.92,85.51 		"/>
	</g>
	<g>
		<linearGradient id="SVGID_9_" gradientUnits="userSpaceOnUse" x1="25.0671" y1="35.0111" x2="137.3861" y2="35.0111">
			<stop  offset="1.012517e-03" style="stop-color:#EC682E"/>
			<stop  offset="0.7096" style="stop-color:#CE413B"/>
			<stop  offset="1" style="stop-color:#B43430"/>
		</linearGradient>
		<path class="st9" d="M29.61,34.35l-4.54,1.54c0-0.14,0-0.28,0-0.41l3.44-2.41C28.86,33.51,29.22,33.94,29.61,34.35z M31.94,36.54
			l-6.87,4.76c0,0.13,0,0.26,0,0.39l8.89-3.68C33.27,37.57,32.59,37.07,31.94,36.54z M25.81,28.78l-0.74,0.56c0,0.45,0,0.91,0,1.36
			l1.46-0.56C26.3,29.73,26.04,29.24,25.81,28.78z M133.09,1.36c-3.85-0.35-7.76,0.41-11.55,1.01c-4.07,0.65-7.96,1.6-11.82,2.82
			l-1.72,0.58l1.72-0.42c0.96-0.18,5.66-1.34,8.11-0.82c1.06,0.22,2.01,0.93,0.85,2.38c-1.47,1.84-6.28,6.06-22.2,14.44
			c-6.17,3.25-12.31,6.58-18.64,9.51c-1.77,0.82-3.55,1.62-5.35,2.4c-1.95,0.85-3.92,1.68-5.9,2.46L29.47,56.75l52.9-26.11
			c0.93-0.58,1.79-0.21,0.56,0.69L34.25,59.97l55.62-28.14c1.09-0.65,1.74-0.19,0.56,0.69L41.68,61.38l54.49-27.82
			c1.81-1,2.41-0.4,0.56,0.69l-56.87,34.5l31.82-17.76c8.8-4.95,17.72-9.87,26.33-14.95c7.18-4.24,14.38-8.62,21.42-13.09
			c6.12-3.89,11.93-7.61,16.34-13.37c0.54-0.71,1-1.48,1.28-2.32C138.26,3.64,136.06,1.63,133.09,1.36z M38.26,40.13
			c-0.47-0.17-0.93-0.36-1.39-0.56l-11.8,7.58c0,0.03,0,0.06,0,0.09l14.82-6.62C39.35,40.48,38.81,40.33,38.26,40.13z M44.76,41.19
			L26.47,52.41l27.04-12.45C50.6,40.64,47.67,41.19,44.76,41.19z"/>
		<linearGradient id="SVGID_10_" gradientUnits="userSpaceOnUse" x1="101.3745" y1="41.3024" x2="20.8726" y2="121.8043">
			<stop  offset="1.012517e-03" style="stop-color:#EC682E"/>
			<stop  offset="0.7096" style="stop-color:#CE413B"/>
			<stop  offset="1" style="stop-color:#B43430"/>
		</linearGradient>
		<path class="st10" d="M108.15,70.74l4.54-1.54c0,0.14,0,0.28,0,0.41l-3.44,2.41C108.89,71.58,108.53,71.15,108.15,70.74z
			 M105.81,68.55l6.87-4.77c0-0.13,0-0.26,0-0.39l-8.9,3.68C104.49,67.52,105.16,68.02,105.81,68.55z M111.95,76.32l0.74-0.56
			c0-0.45,0-0.91,0-1.36l-1.46,0.57C111.45,75.36,111.71,75.85,111.95,76.32z M4.6,103.64c3.85,0.35,7.76-0.41,11.56-1.01
			c4.07-0.65,7.96-1.6,11.83-2.83l1.73-0.59l-1.73,0.42c-0.96,0.18-5.66,1.34-8.11,0.82c-1.07-0.22-2.01-0.93-0.85-2.38
			c1.47-1.84,6.29-6.06,22.22-14.45c6.18-3.25,12.32-6.58,18.65-9.52c1.77-0.82,3.56-1.62,5.35-2.4c1.95-0.85,3.92-1.68,5.91-2.46
			l37.14-21.04L55.35,74.33c-0.93,0.58-1.79,0.21-0.56-0.69l48.71-28.65L47.84,73.14c-1.09,0.65-1.74,0.19-0.56-0.69l48.78-28.88
			L41.54,71.41c-1.81,1-2.41,0.4-0.56-0.69l39.59-23.92l13.97-8.73c-8.81,4.95-46.22,25.79-54.83,30.87
			c-7.18,4.24-14.39,8.62-21.43,13.1c-6.12,3.89-11.94,7.61-16.35,13.37c-0.54,0.71-1,1.48-1.29,2.32
			C-0.57,101.36,1.62,103.37,4.6,103.64z M99.48,64.95c0.47,0.17,0.93,0.36,1.39,0.56l11.8-7.58c0-0.03,0-0.06,0-0.09l-14.82,6.62
			C98.4,64.6,98.94,64.76,99.48,64.95z M92.99,63.9l18.3-11.23L84.23,65.13C87.14,64.45,90.07,63.9,92.99,63.9z"/>
	</g>
</g>
</svg>
