<svg width="183" height="28" viewBox="0 0 183 28" fill="none" xmlns="http://www.w3.org/2000/svg">
<path d="M32.5678 1.54322C32.8861 1.14774 32.6267 0.954748 32.3338 0.893054C31.6606 0.752264 30.3668 1.06865 30.1026 1.11769L29.9514 1.14616C29.848 1.16672 29.7445 1.19362 29.6458 1.22684C27.7631 1.87226 26.0252 2.53033 24.1982 3.2501L27.3143 5.03608C31.0145 3.04603 32.1922 2.01146 32.5678 1.54322Z" fill="url(#paint0_linear)"/>
<path d="M7.23178 7.95995C7.94953 9.17011 9.07789 10.1272 10.4068 10.6002C11.9378 11.1443 13.4926 10.8264 15.0316 10.4515C15.1048 10.4341 15.178 10.4135 15.2528 10.3945C15.474 10.336 15.6936 10.2774 15.9133 10.2142C15.961 10.1999 16.0087 10.1873 16.0565 10.173C16.1695 10.1398 16.2825 10.1034 16.3971 10.0686C17.5652 9.70005 18.7063 9.2413 19.8299 8.75407C20.3232 8.54051 20.8134 8.32063 21.3004 8.096C23.043 7.29397 24.7316 6.38437 26.4313 5.49376C26.74 5.33241 27.0329 5.17738 27.3114 5.02552L18.84 0.165894L6.77344 7.08991C6.77344 7.08991 7.06627 7.68312 7.23178 7.95995Z" fill="url(#paint1_linear)"/>
<path d="M26.4285 5.49327C24.7288 6.3823 23.0402 7.29348 21.2976 8.09551C20.809 8.32014 20.3188 8.53844 19.827 8.75358C18.2722 9.42906 16.6839 10.0507 15.0319 10.4526C13.493 10.8259 11.9381 11.1454 10.4071 10.6013C9.07825 10.1298 7.9499 9.17121 7.23214 7.96104C7.06663 7.68263 6.77539 7.09099 6.77539 7.09099C6.77857 11.6959 6.78176 16.323 6.78494 20.928C10.1318 19.0107 13.4771 17.0918 16.8239 15.1746C20.1231 13.2842 23.5686 11.4397 26.8518 9.5129C28.8268 8.35336 30.8114 7.15585 32.7466 5.93145C34.4304 4.86683 36.0314 3.84966 37.2441 2.27408C37.3921 2.08109 37.5194 1.86911 37.5974 1.63974C37.9316 0.647878 37.3269 0.0989555 36.5088 0.0246057C35.4489 -0.0718907 34.3731 0.135339 33.3291 0.30144C32.2087 0.480196 31.1392 0.738047 30.0761 1.07499L29.6019 1.23477L30.0761 1.12087C30.3419 1.07183 31.6342 0.753866 32.3074 0.896238C32.6002 0.957932 32.8596 1.15093 32.5413 1.5464C32.1355 2.04629 30.8098 3.1995 26.4285 5.49327Z" fill="url(#paint2_linear)"/>
<path d="M5.12155 26.4567C4.80325 26.8521 5.06266 27.0451 5.35549 27.1068C6.02868 27.2476 7.32255 26.9312 7.58673 26.8822L7.73792 26.8537C7.84137 26.8332 7.94481 26.8063 8.04348 26.773C9.92619 26.1276 11.6641 25.4696 13.4911 24.7498L10.375 22.9638C6.67482 24.9538 5.49872 25.9884 5.12155 26.4567Z" fill="url(#paint3_linear)"/>
<path d="M30.4595 20.0404C29.7417 18.8303 28.6134 17.8732 27.2845 17.4002C25.7535 16.8561 24.1986 17.174 22.6597 17.5489C22.5865 17.5663 22.5132 17.5869 22.4385 17.6059C22.2172 17.6644 21.9976 17.7229 21.778 17.7862C21.7302 17.8005 21.6825 17.8131 21.6348 17.8273C21.5218 17.8606 21.4088 17.897 21.2942 17.9318C20.126 18.3003 18.985 18.7591 17.8614 19.2463C17.368 19.4599 16.8779 19.6798 16.3909 19.9044C14.6482 20.7064 12.9597 21.616 11.26 22.5066C10.9512 22.668 10.617 22.8467 10.3369 22.997L18.8354 27.874L30.9003 20.95C30.9035 20.95 30.625 20.3188 30.4595 20.0404Z" fill="url(#paint4_linear)"/>
<path d="M11.2611 22.5067C12.9608 21.6177 14.6494 20.7065 16.392 19.9045C16.8806 19.6798 17.3708 19.4615 17.8626 19.2464C19.4174 18.5709 21.0057 17.9492 22.6577 17.5474C24.1966 17.1741 25.7515 16.8546 27.2825 17.3987C28.6114 17.8701 29.7397 18.8288 30.4575 20.0389C30.623 20.3174 30.9015 20.9485 30.9015 20.9485C30.8983 16.3436 30.9094 11.677 30.9063 7.07202C27.5594 8.9893 24.2141 10.9082 20.8673 12.8254C17.5681 14.7158 14.1226 16.5603 10.8394 18.4871C8.86439 19.6466 6.87983 20.8441 4.9446 22.0685C3.26082 23.1332 1.65981 24.1503 0.447105 25.7259C0.299098 25.9189 0.171781 26.1309 0.0937986 26.3602C-0.24041 27.3521 0.364349 27.901 1.18236 27.9754C2.24228 28.0719 3.31812 27.8646 4.36212 27.6985C5.48252 27.5198 6.55198 27.2619 7.61509 26.925L8.08934 26.7652L7.61509 26.8791C7.34931 26.9282 6.05704 27.2461 5.38385 27.1037C5.09101 27.042 4.8316 26.8491 5.1499 26.4536C5.55413 25.9537 6.87983 24.8005 11.2611 22.5067Z" fill="url(#paint5_linear)"/>
<path d="M41.9742 9.39502C41.9742 10.1784 41.9742 11.1184 41.9742 11.9397C42.2527 11.8243 42.4564 11.7352 42.6633 11.6544C44.3503 10.9964 46.0213 10.2905 47.729 9.69847C48.7889 9.3307 49.9141 9.32905 51.0106 9.61107C52.5511 10.0069 53.5283 11.0162 53.9166 12.606C54.3049 14.2008 54.2317 15.7692 53.3723 17.1859C52.4747 18.6669 51.0424 19.061 49.4446 19.0214C47.729 18.9802 46.1614 18.3552 44.6049 17.7004C43.8012 17.3623 43.0087 16.9946 42.0936 16.5872C42.0936 18.6438 42.0936 20.6179 42.0936 22.6398C41.2915 22.6398 40.5403 22.6398 39.7525 22.6398C39.7414 22.4205 39.7223 22.2275 39.7223 22.0345C39.7207 18.1391 39.7207 14.9083 39.7207 11.0129L41.9742 9.39502ZM41.9933 14.1019C42.0029 14.1843 42.0108 14.2668 42.0204 14.3492C43.6023 15.0419 45.1699 15.7791 46.7757 16.4091C47.4998 16.6928 48.2955 16.8346 49.0706 16.9088C50.4217 17.0374 51.4101 16.2871 51.6695 15.0139C51.7427 14.6543 51.7315 14.2701 51.7156 13.8974C51.6631 12.5648 50.7798 11.6149 49.4828 11.5934C48.8351 11.5835 48.1444 11.6379 47.5428 11.8622C45.676 12.5582 43.841 13.3482 41.9933 14.1019Z" fill="#467475"/>
<path d="M62.4934 12.5913C62.4504 12.5005 62.4329 12.4808 62.4329 12.461C62.4409 11.826 62.452 11.1894 62.4616 10.5545C63.0329 10.4044 63.6027 10.2428 64.1772 10.1059C66.3257 9.59629 68.5012 9.35386 70.7054 9.48249C71.2943 9.51713 71.8926 9.62268 72.4576 9.79749C73.586 10.1471 74.1271 10.8579 74.1494 12.0668C74.186 14.0689 74.1621 16.0727 74.1637 18.0765C74.1637 18.2959 74.1637 18.5152 74.1637 18.7906H71.9786V16.6763C71.6714 16.9419 71.4295 17.1744 71.1638 17.374C69.8142 18.3866 68.2609 18.8467 66.6312 18.9572C65.5777 19.0298 64.5098 18.9143 63.4515 18.8385C63.1459 18.8154 62.8388 18.6587 62.5539 18.5202C60.937 17.7351 60.8908 15.3207 62.4234 14.5159C63.2605 14.0755 64.1995 13.7803 65.1257 13.594C67.0243 13.213 68.9437 12.9508 70.855 12.6358C71.0221 12.6077 71.2067 12.588 71.3452 12.5005C71.3738 12.4824 71.4009 12.4643 71.4279 12.4445C71.7399 12.2152 71.7271 11.7007 71.3754 11.5473C71.3547 11.5374 71.334 11.5308 71.3118 11.5259C70.7961 11.4137 70.2566 11.3593 69.7282 11.3758C67.5066 11.4434 65.3358 11.8755 63.1857 12.4329C62.9613 12.4923 62.7321 12.5385 62.4934 12.5913ZM71.8799 14.1399C70.1675 14.4417 68.5171 14.7187 66.8731 15.0255C65.9787 15.1921 65.0827 15.3702 64.2106 15.6258C63.9608 15.6984 63.6647 16.0364 63.6154 16.297C63.547 16.6664 63.8732 16.9122 64.2202 17.0342C64.3395 17.0771 64.4605 17.1183 64.5846 17.1414C66.2238 17.4383 67.793 17.1167 69.3256 16.5378C70.107 16.2426 70.8407 15.8385 71.4025 15.1789C71.6651 14.8705 71.9213 14.5439 71.8799 14.1399Z" fill="#467475"/>
<path d="M149.355 12.6045C149.355 11.9761 149.334 11.3824 149.369 10.7937C149.377 10.6568 149.556 10.4457 149.688 10.4127C152.368 9.75301 155.075 9.28134 157.841 9.49408C158.527 9.54686 159.221 9.75961 159.867 10.0185C160.54 10.2874 160.992 10.8662 161 11.6381C161.029 14.0129 161.009 16.3878 161.009 18.8055C160.311 18.8055 159.618 18.8055 158.88 18.8055C158.88 18.1326 158.88 17.4647 158.88 16.8611C158.064 17.3394 157.285 17.9199 156.421 18.2745C154.462 19.0793 152.407 19.2524 150.337 18.8352C149.336 18.6323 148.502 18.1343 148.282 16.9551C148.099 15.9672 148.408 15.1261 149.232 14.5555C150.065 13.9799 151.026 13.7556 151.991 13.5858C153.897 13.251 155.812 12.9574 157.721 12.6408C157.971 12.5995 158.231 12.5451 158.455 12.4313C158.605 12.3555 158.792 12.1625 158.791 12.0223C158.789 11.8788 158.597 11.6397 158.458 11.6117C157.857 11.4962 157.241 11.3659 156.634 11.3808C154.413 11.4385 152.242 11.8755 150.092 12.4346C149.869 12.494 149.64 12.5402 149.355 12.6045ZM158.821 14.1267C157.368 14.3856 155.937 14.6297 154.511 14.8969C153.409 15.103 152.306 15.3174 151.212 15.5747C150.872 15.6555 150.499 15.8485 150.518 16.3152C150.537 16.7902 150.915 16.9501 151.276 17.0986C151.354 17.1299 151.443 17.1283 151.526 17.1464C152.723 17.4086 153.892 17.186 155.056 16.9238C156.036 16.7011 156.954 16.3053 157.772 15.6918C158.312 15.2844 158.745 14.7979 158.821 14.1267Z" fill="#467475"/>
<path d="M182.191 14.6164C178.61 14.6164 175.012 14.6164 171.364 14.6164C171.412 15.3025 171.695 15.8187 172.203 16.1205C172.728 16.4338 173.301 16.7159 173.888 16.8527C175.887 17.3178 177.865 17.0539 179.823 16.5328C180.641 16.3151 181.46 16.1057 182.358 15.8715C182.358 16.5526 182.371 17.143 182.347 17.7318C182.342 17.8423 182.213 18.0154 182.111 18.0451C178.92 18.9489 175.698 19.4997 172.429 18.5399C171.043 18.1325 169.808 17.392 169.313 15.8682C168.463 13.2459 169.475 10.9651 172.158 10.0267C174.563 9.18557 177.017 9.20866 179.431 10.0217C180.062 10.2345 180.658 10.6319 181.191 11.0525C182.242 11.882 182.56 13.5791 182.191 14.6164ZM171.662 12.865C174.474 12.865 177.184 12.865 179.969 12.865C179.766 12.1937 179.264 11.9233 178.758 11.755C176.957 11.158 175.131 11.1118 173.307 11.6693C172.671 11.8639 172.106 12.1888 171.662 12.865Z" fill="#467475"/>
<path d="M105.646 14.6166C103.719 14.6166 101.911 14.6166 100.105 14.6166C98.3174 14.6166 96.5286 14.6166 94.6952 14.6166C94.692 15.362 95.0756 15.8584 95.5992 16.185C96.0798 16.4851 96.6273 16.7243 97.1747 16.8513C99.1513 17.313 101.109 17.0541 103.047 16.561C103.727 16.3878 104.4 16.1916 105.08 16.0118C105.237 15.9706 105.403 15.9557 105.605 15.9211C105.605 16.6237 105.605 17.2768 105.605 18.0453C104.384 18.3075 103.154 18.6242 101.906 18.8287C100.281 19.0942 98.6437 19.114 97.0124 18.8468C95.9764 18.6769 94.9833 18.3669 94.1032 17.7583C91.5903 16.0168 91.7446 12.0735 94.3801 10.5381C95.5721 9.84379 96.8676 9.54034 98.2203 9.47437C99.7577 9.40016 101.287 9.45293 102.753 10.0071C104.083 10.5101 105.207 11.2737 105.532 12.8206C105.643 13.3698 105.608 13.9503 105.646 14.6166ZM94.9785 12.8602C97.7827 12.8602 100.51 12.8602 103.289 12.8602C103.087 12.2896 102.691 12.0043 102.228 11.8344C100.235 11.1054 98.2283 11.0642 96.2358 11.8245C95.7456 12.0125 95.2936 12.2978 94.9785 12.8602Z" fill="#467475"/>
<path d="M120.079 18.1276C120.079 17.3888 120.079 16.7126 120.079 16.0067C121.272 16.2788 122.423 16.5872 123.591 16.795C125.23 17.0869 126.884 17.27 128.547 17.0028C128.816 16.96 129.102 16.9006 129.33 16.7604C129.506 16.6532 129.709 16.4042 129.705 16.2228C129.701 16.0381 129.494 15.7692 129.314 15.6934C128.886 15.5136 128.429 15.3767 127.971 15.3124C126.475 15.1046 124.966 14.9776 123.475 14.7385C122.708 14.6148 121.939 14.3905 121.22 14.0887C119.643 13.4257 119.705 11.0772 121.018 10.2609C121.885 9.72159 122.837 9.53853 123.817 9.47751C126.045 9.33897 128.23 9.67541 130.402 10.1438C130.74 10.2164 130.916 10.3565 130.889 10.7573C130.854 11.2784 130.881 11.8045 130.881 12.4213C130.127 12.2449 129.449 12.0931 128.776 11.9299C127.024 11.506 125.252 11.3114 123.456 11.4533C123.184 11.4747 122.897 11.5225 122.657 11.6446C122.493 11.7287 122.302 11.9596 122.3 12.1261C122.299 12.2911 122.494 12.5566 122.652 12.6044C123.26 12.7858 123.882 12.9359 124.509 13.0299C126.107 13.269 127.716 13.4422 129.311 13.7077C129.865 13.8001 130.431 14.0079 130.92 14.2948C132.311 15.1112 132.349 17.1546 131.033 18.0963C130.197 18.6949 129.233 18.8912 128.259 18.9637C125.501 19.1699 122.784 18.8697 120.079 18.1276Z" fill="#467475"/>
<path d="M77.0781 9.64918C77.8102 9.64918 78.5057 9.64918 79.2552 9.64918C79.2552 10.3765 79.2552 11.0873 79.2552 11.8756C80.277 11.4171 81.2191 10.9718 82.1788 10.5694C83.6397 9.95428 85.115 9.40509 86.7367 9.45292C88.8581 9.51394 89.9658 10.5051 90.0581 12.687C90.144 14.7056 90.0756 16.7325 90.0756 18.8023C89.3244 18.8023 88.5908 18.8023 87.7775 18.8023C87.7648 18.5895 87.7377 18.3586 87.7377 18.1294C87.7346 16.7638 87.7393 15.4 87.733 14.0344C87.7314 13.7046 87.7123 13.3747 87.6773 13.0465C87.5722 12.0768 87.0741 11.6084 86.1256 11.5639C85.0514 11.5128 84.071 11.8921 83.1098 12.306C81.9735 12.7959 80.8658 13.3582 79.7359 13.8678C79.4287 14.0064 79.3475 14.2059 79.3507 14.5308C79.3635 15.9376 79.3571 17.346 79.3571 18.8006C78.5916 18.8006 77.8579 18.8006 77.0797 18.8006C77.0781 15.7793 77.0781 12.753 77.0781 9.64918Z" fill="#467475"/>
<path d="M145.954 12.7315C145.087 12.4775 144.337 12.24 143.58 12.0405C141.918 11.6018 140.236 11.3511 138.533 11.7271C137.417 11.9728 136.585 12.5732 136.393 13.8496C136.237 14.882 136.655 15.8254 137.54 16.3564C138.46 16.9089 139.475 16.9914 140.503 16.9699C142.112 16.9353 143.653 16.5131 145.181 16.0348C145.402 15.9656 145.626 15.9029 145.949 15.8056C145.949 16.523 145.962 17.1926 145.937 17.8605C145.934 17.9694 145.787 18.1392 145.679 18.1689C142.967 18.9308 140.225 19.4256 137.44 18.6818C135.734 18.2266 134.416 17.2025 134.074 15.2943C133.631 12.8222 134.562 10.9619 136.84 10.0169C138.465 9.34236 140.169 9.33411 141.867 9.56335C143.064 9.72497 144.24 10.04 145.427 10.2692C145.832 10.3467 145.996 10.543 145.965 10.9817C145.927 11.5226 145.954 12.0701 145.954 12.7315Z" fill="#467475"/>
<path d="M110.077 11.6116C109.115 11.6116 108.267 11.6116 107.325 11.6116C107.325 11.0245 107.323 10.4852 107.325 9.94429C107.327 9.63259 107.533 9.61445 107.764 9.6161C108.506 9.62104 109.249 9.61774 110.075 9.61774C110.075 9.02403 110.096 8.48144 110.067 7.94215C110.048 7.58427 110.177 7.38307 110.473 7.20825C111.094 6.84378 111.695 6.44137 112.379 6.00598C112.379 7.24783 112.379 8.38249 112.379 9.59466C114.152 9.59466 115.885 9.59466 117.662 9.59466C117.662 10.2972 117.662 10.9223 117.662 11.6116C115.906 11.6116 114.189 11.6116 112.386 11.6116C112.386 12.1922 112.386 12.7117 112.386 13.2312C112.387 13.9782 112.367 14.727 112.399 15.4741C112.435 16.3383 112.879 16.7852 113.713 16.8759C114.725 16.9848 115.704 16.8 116.675 16.5312C116.977 16.4471 117.284 16.3844 117.7 16.2855C117.7 16.9864 117.712 17.6115 117.687 18.2365C117.682 18.3404 117.52 18.4971 117.407 18.5251C115.706 18.9407 113.995 19.3101 112.246 18.8368C110.839 18.4558 110.096 17.468 110.08 15.9738C110.067 14.7649 110.075 13.5544 110.075 12.3439C110.077 12.1311 110.077 11.9167 110.077 11.6116Z" fill="#467475"/>
<path d="M56.6367 5C57.399 5 58.1168 5 58.8775 5C58.8775 9.59634 58.8775 14.1762 58.8775 18.8038C58.1518 18.8038 57.4197 18.8038 56.6367 18.8038C56.6367 14.2257 56.6367 9.64581 56.6367 5Z" fill="#467475"/>
<path d="M164.216 5.00397C164.973 5.00397 165.691 5.00397 166.455 5.00397C166.455 9.59536 166.455 14.1769 166.455 18.8045C165.734 18.8045 165 18.8045 164.216 18.8045C164.216 14.2313 164.216 9.65143 164.216 5.00397Z" fill="#467475"/>
<defs>
<linearGradient id="paint0_linear" x1="26.2293" y1="4.94841" x2="30.7828" y2="-0.511018" gradientUnits="userSpaceOnUse">
<stop offset="0.00101252" stop-color="#ED682D"/>
<stop offset="0.7096" stop-color="#CF413B"/>
<stop offset="1" stop-color="#B4342F"/>
</linearGradient>
<linearGradient id="paint1_linear" x1="17.0418" y1="0.201186" x2="17.0418" y2="9.63309" gradientUnits="userSpaceOnUse">
<stop offset="0.00101252" stop-color="#ED682D"/>
<stop offset="0.7096" stop-color="#CF413B"/>
<stop offset="1" stop-color="#B4342F"/>
</linearGradient>
<linearGradient id="paint2_linear" x1="22.8815" y1="0.432399" x2="20.1261" y2="16.4081" gradientUnits="userSpaceOnUse">
<stop offset="0.00101252" stop-color="#ED682D"/>
<stop offset="0.7096" stop-color="#CF413B"/>
<stop offset="1" stop-color="#B4342F"/>
</linearGradient>
<linearGradient id="paint3_linear" x1="13.4934" y1="25.0517" x2="4.97625" y2="25.0517" gradientUnits="userSpaceOnUse">
<stop offset="0.00101252" stop-color="#ED682D"/>
<stop offset="0.7096" stop-color="#CF413B"/>
<stop offset="1" stop-color="#B4342F"/>
</linearGradient>
<linearGradient id="paint4_linear" x1="20.6215" y1="27.8386" x2="20.6215" y2="18.372" gradientUnits="userSpaceOnUse">
<stop offset="0.00101252" stop-color="#ED682D"/>
<stop offset="0.7096" stop-color="#CF413B"/>
<stop offset="1" stop-color="#B4342F"/>
</linearGradient>
<linearGradient id="paint5_linear" x1="14.8051" y1="27.5671" x2="17.5604" y2="11.5914" gradientUnits="userSpaceOnUse">
<stop offset="0.00101252" stop-color="#ED682D"/>
<stop offset="0.7096" stop-color="#CF413B"/>
<stop offset="1" stop-color="#B4342F"/>
</linearGradient>
</defs>
</svg>
