<?xml version="1.0" encoding="utf-8"?>
<!-- Generator: Adobe Illustrator 24.0.1, SVG Export Plug-In . SVG Version: 6.00 Build 0)  -->
<svg version="1.1" id="Layer_1" xmlns="http://www.w3.org/2000/svg" xmlns:xlink="http://www.w3.org/1999/xlink" x="0px" y="0px"
	 viewBox="0 0 270.2 201.95" style="enable-background:new 0 0 270.2 201.95;" xml:space="preserve">
<style type="text/css">
	.st0{fill:#FFFFFF;}
	.st1{fill:url(#SVGID_1_);}
	.st2{fill:url(#SVGID_2_);}
	.st3{fill:url(#SVGID_3_);}
	.st4{fill:url(#SVGID_4_);}
	.st5{fill:url(#SVGID_5_);}
	.st6{fill:url(#SVGID_6_);}
	.st7{fill:url(#SVGID_7_);}
	.st8{fill:url(#SVGID_8_);}
	.st9{fill:url(#SVGID_9_);}
	.st10{fill:url(#SVGID_10_);}
	.st11{fill:url(#SVGID_11_);}
	.st12{fill:#CE413B;}
	.st13{fill:#214746;}
	.st14{fill:none;stroke:#CE413B;stroke-miterlimit:10;}
	.st15{fill:url(#SVGID_12_);}
	.st16{fill:url(#SVGID_13_);}
	.st17{fill:url(#SVGID_14_);}
	.st18{fill:url(#SVGID_15_);}
	.st19{fill:url(#SVGID_16_);}
	.st20{fill:url(#SVGID_17_);}
	.st21{fill:url(#SVGID_18_);}
	.st22{fill:url(#SVGID_19_);}
	.st23{fill:url(#SVGID_20_);}
	.st24{fill:url(#SVGID_21_);}
	.st25{fill:url(#SVGID_22_);}
	.st26{fill:url(#SVGID_23_);}
	.st27{fill:url(#SVGID_24_);}
	.st28{fill:url(#SVGID_25_);}
	.st29{fill:url(#SVGID_26_);}
	.st30{fill:url(#SVGID_27_);}
	.st31{fill:url(#SVGID_28_);}
	.st32{fill:url(#SVGID_29_);}
	.st33{fill:url(#SVGID_30_);}
	.st34{fill:url(#SVGID_31_);}
	.st35{fill:url(#SVGID_32_);}
	.st36{fill:url(#SVGID_33_);}
	.st37{fill:url(#SVGID_34_);}
	.st38{fill:url(#SVGID_35_);}
	.st39{fill:url(#SVGID_36_);}
	.st40{fill:url(#SVGID_37_);}
	.st41{fill:url(#SVGID_38_);}
	.st42{fill:url(#SVGID_39_);}
	.st43{fill:url(#SVGID_40_);}
	.st44{fill:url(#SVGID_41_);}
	.st45{fill:url(#SVGID_42_);}
	.st46{fill:url(#SVGID_43_);}
	.st47{fill:url(#SVGID_44_);}
	.st48{fill:url(#SVGID_45_);}
	.st49{fill:url(#SVGID_46_);}
	.st50{fill:url(#SVGID_47_);}
	.st51{fill:url(#SVGID_48_);}
	.st52{fill:url(#SVGID_49_);}
	.st53{fill:url(#SVGID_50_);}
	.st54{fill:url(#SVGID_51_);}
	.st55{fill:url(#SVGID_52_);}
	.st56{fill:url(#SVGID_53_);}
	.st57{fill:url(#SVGID_54_);}
	.st58{fill:url(#SVGID_55_);}
	.st59{fill:url(#SVGID_56_);}
	.st60{fill:url(#SVGID_57_);}
	.st61{fill:url(#SVGID_58_);}
	.st62{fill:url(#SVGID_59_);}
	.st63{fill:url(#SVGID_60_);}
	.st64{fill:url(#SVGID_61_);}
	.st65{fill:url(#SVGID_62_);}
	.st66{fill:url(#SVGID_63_);}
	.st67{fill:url(#SVGID_64_);}
	.st68{fill:url(#SVGID_65_);}
	.st69{fill:url(#SVGID_66_);}
</style>
<g>
	<g>
		<linearGradient id="SVGID_1_" gradientUnits="userSpaceOnUse" x1="187.3363" y1="36.5875" x2="219.5552" y2="-1.8094">
			<stop  offset="1.012517e-03" style="stop-color:#EC682E"/>
			<stop  offset="0.7096" style="stop-color:#CE413B"/>
			<stop  offset="1" style="stop-color:#B43430"/>
		</linearGradient>
		<path class="st1" d="M231.87,12.52c2.23-2.8,0.41-4.16-1.65-4.59c-4.73-1-13.81,1.25-15.68,1.59l-1.06,0.21
			c-0.73,0.14-1.45,0.33-2.15,0.57c-13.23,4.56-25.44,9.21-38.28,14.31l21.89,12.63C220.96,23.14,229.23,15.83,231.87,12.52z"/>
		<linearGradient id="SVGID_2_" gradientUnits="userSpaceOnUse" x1="122.7752" y1="3.0299" x2="122.7752" y2="69.696">
			<stop  offset="1.012517e-03" style="stop-color:#EC682E"/>
			<stop  offset="0.7096" style="stop-color:#CE413B"/>
			<stop  offset="1" style="stop-color:#B43430"/>
		</linearGradient>
		<path class="st2" d="M53.85,57.87c5.05,8.55,12.97,15.32,22.31,18.66c10.76,3.84,21.68,1.59,32.5-1.05
			c0.52-0.13,1.03-0.27,1.55-0.41c1.55-0.41,3.1-0.83,4.64-1.28c0.33-0.1,0.67-0.2,1-0.3c0.8-0.24,1.59-0.49,2.39-0.73
			c8.21-2.61,16.22-5.85,24.12-9.29c3.46-1.51,6.91-3.06,10.34-4.65c12.24-5.66,24.11-12.1,36.05-18.39
			c2.17-1.14,4.22-2.24,6.18-3.31L135.41,2.78L50.64,51.72C50.64,51.72,52.69,55.91,53.85,57.87z"/>
		
			<linearGradient id="SVGID_3_" gradientUnits="userSpaceOnUse" x1="165.0056" y1="-0.8113" x2="145.1115" y2="112.0135" gradientTransform="matrix(1 -2.730477e-03 2.730477e-03 1 -1.1917 5.9295)">
			<stop  offset="1.012517e-03" style="stop-color:#EC682E"/>
			<stop  offset="0.7096" style="stop-color:#CE413B"/>
			<stop  offset="1" style="stop-color:#B43430"/>
		</linearGradient>
		<path class="st3" d="M188.73,40.44c-11.94,6.29-23.8,12.72-36.05,18.39c-3.43,1.59-6.87,3.13-10.34,4.65
			c-10.93,4.77-22.09,9.17-33.69,12.01c-10.81,2.64-21.74,4.89-32.5,1.05c-9.33-3.33-17.26-10.11-22.31-18.66
			c-1.16-1.96-3.21-6.15-3.21-6.15c0.02,32.55,0.04,65.25,0.06,97.8c23.51-13.56,47.02-27.11,70.53-40.67
			c23.18-13.37,47.39-26.4,70.46-40.02c13.88-8.19,27.81-16.67,41.41-25.31c11.83-7.52,23.08-14.71,31.59-25.85
			c1.04-1.37,1.94-2.86,2.48-4.49c2.35-7.01-1.9-10.89-7.65-11.42c-7.44-0.68-15.01,0.78-22.34,1.96
			c-7.87,1.26-15.39,3.09-22.85,5.46L211,10.32l3.33-0.81c1.86-0.34,10.94-2.59,15.68-1.59c2.06,0.43,3.88,1.8,1.65,4.59
			C228.83,16.07,219.52,24.22,188.73,40.44z"/>
		<linearGradient id="SVGID_4_" gradientUnits="userSpaceOnUse" x1="97.8562" y1="178.6811" x2="38.0174" y2="178.6811">
			<stop  offset="1.012517e-03" style="stop-color:#EC682E"/>
			<stop  offset="0.7096" style="stop-color:#CE413B"/>
			<stop  offset="1" style="stop-color:#B43430"/>
		</linearGradient>
		<path class="st4" d="M39.04,188.61c-2.23,2.8-0.41,4.16,1.65,4.59c4.73,1,13.81-1.25,15.68-1.59l1.06-0.21
			c0.73-0.14,1.45-0.33,2.15-0.57c13.23-4.56,25.44-9.21,38.28-14.31L75.96,163.9C49.95,177.99,41.68,185.3,39.04,188.61z"/>
		
			<linearGradient id="SVGID_5_" gradientUnits="userSpaceOnUse" x1="3819.2886" y1="205.7669" x2="3819.2886" y2="272.6782" gradientTransform="matrix(-1 0 0 -1 3967.2241 404.146)">
			<stop  offset="1.012517e-03" style="stop-color:#EC682E"/>
			<stop  offset="0.7096" style="stop-color:#CE413B"/>
			<stop  offset="1" style="stop-color:#B43430"/>
		</linearGradient>
		<path class="st5" d="M217.06,143.26c-5.05-8.55-12.97-15.32-22.31-18.66c-10.76-3.84-21.68-1.59-32.5,1.05
			c-0.52,0.13-1.03,0.27-1.55,0.41c-1.55,0.41-3.1,0.83-4.64,1.28c-0.33,0.1-0.67,0.2-1,0.3c-0.8,0.24-1.59,0.49-2.39,0.73
			c-8.21,2.61-16.22,5.85-24.12,9.29c-3.46,1.51-6.91,3.06-10.34,4.65c-12.24,5.66-24.11,12.1-36.05,18.39
			c-2.17,1.14-4.52,2.4-6.48,3.47l59.71,34.47l84.77-48.94C220.18,149.69,218.22,145.22,217.06,143.26z"/>
		
			<linearGradient id="SVGID_6_" gradientUnits="userSpaceOnUse" x1="3860.7622" y1="212.2986" x2="3840.8682" y2="325.1234" gradientTransform="matrix(-1 2.730477e-03 -2.730477e-03 -1 3968.4158 398.2165)">
			<stop  offset="1.012517e-03" style="stop-color:#EC682E"/>
			<stop  offset="0.7096" style="stop-color:#CE413B"/>
			<stop  offset="1" style="stop-color:#B43430"/>
		</linearGradient>
		<path class="st6" d="M82.18,160.69c11.94-6.29,23.8-12.72,36.05-18.39c3.43-1.59,6.87-3.13,10.34-4.65
			c10.93-4.77,22.09-9.17,33.69-12.01c10.81-2.64,21.74-4.89,32.5-1.05c9.33,3.33,17.26,10.11,22.31,18.66
			c1.16,1.96,3.12,6.43,3.12,6.43c-0.02-32.55,0.05-65.53,0.03-98.08c-23.51,13.56-47.02,27.11-70.53,40.67
			c-23.18,13.37-47.39,26.4-70.46,40.02c-13.88,8.19-27.81,16.67-41.41,25.31c-11.83,7.52-23.08,14.71-31.59,25.85
			c-1.04,1.37-1.94,2.86-2.48,4.49c-2.35,7.01,1.9,10.89,7.65,11.42c7.44,0.68,15.01-0.78,22.34-1.96
			c7.87-1.26,15.39-3.09,22.85-5.46l3.33-1.13l-3.33,0.81c-1.86,0.34-10.94,2.59-15.68,1.59c-2.06-0.43-3.88-1.8-1.65-4.59
			C42.08,185.06,51.39,176.91,82.18,160.69z"/>
	</g>
	<g>
		<g>
			<linearGradient id="SVGID_7_" gradientUnits="userSpaceOnUse" x1="50.7842" y1="27.2227" x2="196.054" y2="27.2227">
				<stop  offset="1.012517e-03" style="stop-color:#EC682E"/>
				<stop  offset="0.7096" style="stop-color:#CE413B"/>
				<stop  offset="1" style="stop-color:#B43430"/>
			</linearGradient>
			<polygon class="st7" points="196.05,37.84 135.31,2.73 50.78,51.72 135.38,8.04 			"/>
		</g>
		<linearGradient id="SVGID_8_" gradientUnits="userSpaceOnUse" x1="75.633" y1="174.165" x2="219.9825" y2="174.165">
			<stop  offset="1.012517e-03" style="stop-color:#EC682E"/>
			<stop  offset="0.7096" style="stop-color:#CE413B"/>
			<stop  offset="1" style="stop-color:#B43430"/>
		</linearGradient>
		<polyline class="st8" points="75.63,164.35 135.41,198.63 219.98,149.7 135.45,190.68 75.63,164.35 		"/>
	</g>
	<g>
		<linearGradient id="SVGID_9_" gradientUnits="userSpaceOnUse" x1="50.8196" y1="66.8516" x2="267.6622" y2="66.8516">
			<stop  offset="1.012517e-03" style="stop-color:#EC682E"/>
			<stop  offset="0.7096" style="stop-color:#CE413B"/>
			<stop  offset="1" style="stop-color:#B43430"/>
		</linearGradient>
		<path class="st9" d="M59.58,65.58l-8.76,2.98c0-0.27,0-0.53,0-0.8l6.64-4.66C58.14,63.95,58.85,64.78,59.58,65.58z M64.09,69.81
			l-13.26,9.2c0,0.25,0,0.5,0,0.75l17.17-7.1C66.65,71.78,65.34,70.83,64.09,69.81z M52.25,54.82l-1.43,1.08c0,0.88,0,1.75,0,2.63
			l2.82-1.09C53.2,56.65,52.71,55.71,52.25,54.82z M259.36,1.88c-7.43-0.68-14.98,0.78-22.3,1.95c-7.86,1.26-15.36,3.08-22.82,5.45
			l-3.33,1.13l3.33-0.81c1.86-0.34,10.93-2.59,15.65-1.59c2.05,0.43,3.87,1.79,1.65,4.59c-2.83,3.55-12.13,11.69-42.86,27.88
			c-11.92,6.28-23.76,12.7-35.99,18.36c-3.42,1.58-6.86,3.13-10.32,4.64c-3.77,1.65-7.57,3.24-11.4,4.75l-71.66,40.59l102.13-50.4
			c1.8-1.12,3.45-0.41,1.08,1.34l-93.97,55.28l107.39-54.32c2.1-1.26,3.36-0.37,1.08,1.34L82.9,117.77l105.2-53.71
			c3.49-1.93,4.65-0.77,1.08,1.34L79.39,132l61.43-34.29c16.99-9.55,34.2-19.06,50.82-28.87c13.86-8.18,27.77-16.64,41.35-25.27
			c11.81-7.51,23.04-14.69,31.54-25.81c1.04-1.36,1.93-2.85,2.48-4.48C269.35,6.28,265.11,2.4,259.36,1.88z M76.3,76.74
			c-0.91-0.32-1.8-0.69-2.68-1.08L50.84,90.29c0,0.06,0,0.11,0,0.17l28.6-12.78C78.39,77.41,77.34,77.11,76.3,76.74z M88.83,78.78
			l-35.31,21.67l52.21-24.04C100.11,77.72,94.46,78.77,88.83,78.78z"/>
		<linearGradient id="SVGID_10_" gradientUnits="userSpaceOnUse" x1="198.1384" y1="78.9975" x2="42.7216" y2="234.4143">
			<stop  offset="1.012517e-03" style="stop-color:#EC682E"/>
			<stop  offset="0.7096" style="stop-color:#CE413B"/>
			<stop  offset="1" style="stop-color:#B43430"/>
		</linearGradient>
		<path class="st10" d="M211.21,135.82l8.76-2.98c0,0.27,0,0.53,0,0.8l-6.64,4.66C212.66,137.46,211.95,136.62,211.21,135.82z
			 M206.7,131.6l13.26-9.2c0-0.25,0-0.5,0-0.75l-17.18,7.1C204.14,129.62,205.45,130.57,206.7,131.6z M218.55,146.59l1.43-1.08
			c0-0.88,0-1.76,0-2.63l-2.82,1.09C217.6,144.76,218.09,145.7,218.55,146.59z M11.31,199.34c7.44,0.68,14.99-0.78,22.31-1.95
			c7.87-1.26,15.37-3.08,22.83-5.46l3.33-1.13l-3.33,0.81c-1.86,0.34-10.93,2.59-15.66,1.59c-2.06-0.43-3.87-1.8-1.65-4.59
			c2.83-3.55,12.14-11.7,42.89-27.9c11.93-6.28,23.78-12.71,36.01-18.37c3.43-1.58,6.87-3.13,10.33-4.64
			c3.77-1.65,7.57-3.24,11.41-4.75l71.7-40.61l-102.19,50.43c-1.8,1.12-3.45,0.41-1.08-1.34l94.03-55.31L94.79,140.47
			c-2.1,1.26-3.37,0.37-1.08-1.34l94.17-55.75L82.61,137.12c-3.49,1.93-4.65,0.77-1.08-1.34l76.44-46.18l26.96-16.86
			c-17,9.55-89.23,49.78-105.86,59.6c-13.86,8.19-27.79,16.65-41.37,25.29c-11.82,7.51-23.05,14.7-31.56,25.82
			c-1.04,1.36-1.93,2.85-2.48,4.48C1.32,194.94,5.56,198.82,11.31,199.34z M194.49,124.66c0.91,0.32,1.8,0.69,2.68,1.08l22.79-14.64
			c0-0.06,0-0.11,0-0.17l-28.62,12.78C192.39,123.99,193.44,124.29,194.49,124.66z M181.94,122.61l35.33-21.68l-52.24,24.05
			C170.66,123.68,176.31,122.63,181.94,122.61z"/>
	</g>
</g>
</svg>
