<?xml version="1.0" standalone="no"?>
<!DOCTYPE svg PUBLIC "-//W3C//DTD SVG 20010904//EN"
 "http://www.w3.org/TR/2001/REC-SVG-20010904/DTD/svg10.dtd">
<svg version="1.0" xmlns="http://www.w3.org/2000/svg"
 width="512.000000pt" height="512.000000pt" viewBox="0 0 512.000000 512.000000"
 preserveAspectRatio="xMidYMid meet">
<metadata>
Created by potrace 1.11, written by Peter Selinger 2001-2013
</metadata>
<g transform="translate(0.000000,512.000000) scale(0.100000,-0.100000)"
fill="#000000" stroke="none">
<path d="M2325 5109 c-624 -64 -1174 -329 -1605 -775 -191 -198 -334 -401
-455 -649 -237 -485 -315 -1007 -229 -1535 176 -1076 1019 -1923 2098 -2109
402 -70 821 -40 1210 86 901 290 1575 1063 1736 1989 76 441 35 910 -116 1323
-46 125 -167 372 -237 483 -403 638 -1061 1063 -1817 1174 -128 18 -462 26
-585 13z m506 -1183 l254 -148 205 66 c449 144 736 206 961 208 136 0 205 -18
248 -67 61 -70 31 -163 -96 -296 -100 -105 -201 -186 -388 -311 l-150 -101 -5
-730 -5 -729 -640 -370 c-352 -203 -644 -372 -650 -374 -5 -2 -127 64 -270
146 -143 83 -266 150 -274 150 -7 0 -91 -25 -185 -56 -681 -221 -1159 -282
-1240 -159 -24 37 -20 121 8 182 51 109 284 314 549 483 l97 62 0 724 0 725
37 22 c298 178 1262 726 1274 723 8 -2 130 -69 270 -150z"/>
</g>
</svg>
