<svg fill="none" height="84" viewBox="0 0 700 84" width="700" xmlns="http://www.w3.org/2000/svg" xmlns:xlink="http://www.w3.org/1999/xlink"><clipPath id="a"><path d="m225.374 20.3738h42v42h-42z"/></clipPath><clipPath id="b"><path d="m636.374 20.3738h42v42h-42z"/></clipPath><path d="m87 41h114" stroke="var(--text-purple)" opacity="0.5" stroke-dasharray="4.79 4.79" stroke-width="1.19846"/><path d="m292 41h114" stroke="var(--text-purple)" opacity="0.5" stroke-dasharray="4.79 4.79" stroke-width="1.19846"/><rect fill="var(--bg-primary)" height="81.5492" rx="40.7746" width="81.5492" x=".59923" y=".59923"/><path d="m50.5612 32.1862c0 5.0741-4.1134 9.1875-9.1875 9.1875s-9.1874-4.1134-9.1874-9.1875 4.1133-9.1874 9.1874-9.1874 9.1875 4.1133 9.1875 9.1874z" className='icon-color-secondary' stroke="currentColor" stroke-width="1.93939"/><path d="m41.3738 41.3738c-7.1258 0-12.9812 4.9059-14.2827 11.6021-.1182.6079.103 1.2254.5881 1.6104 1.7374 1.379 6.4736 4.5062 13.6946 4.5062s11.9572-3.1272 13.6946-4.5062c.485-.385.7062-1.0025.5881-1.6104-1.3015-6.6962-7.1569-11.6021-14.2827-11.6021z" className='icon-color-secondary' stroke="currentColor" stroke-linecap="round" stroke-width="2"/><rect height="81.5492" rx="40.7746" stroke="var(--text-purple)" opacity="0.8" stroke-width="1.19846" width="81.5492" x=".59923" y=".59923"/><rect fill="var(--bg-primary)" height="81.5492" rx="40.7746" width="81.5492" x="205.599" y=".59923"/><g clip-path="url(#a)" className='icon-color-secondary' stroke="currentColor" stroke-linecap="round"><path d="m232.07 44.1481 12.497 8.3313c1.68 1.1196 3.868 1.1196 5.547 0l7.407-4.9379" opacity=".5" stroke-width="2"/><path d="m232.07 51.7833 11.943 7.9615c2.015 1.3436 4.641 1.3436 6.656 0l11.942-7.9615" opacity=".3" stroke-width="2"/><path d="m253.704 41.8682-4.183 2.7187c-1.326.8616-3.034.8616-4.36 0l-12.15-7.8975c-1.228-.7981-1.21-2.6019.034-3.3752l12.184-7.5768c1.293-.8043 2.931-.8043 4.224 0l2.342 1.4561" stroke-width="1.99817"/><g stroke-linejoin="round" stroke-width="2"><path d="m257.521 27.6051v10.1803"/><path d="m252.431 32.6953h10.18"/></g></g><rect height="81.5492" rx="40.7746" stroke="var(--text-purple)" opacity="0.8" stroke-width="1.19846" width="81.5492" x="205.599" y=".59923"/><path d="m498 41h114" stroke="var(--text-purple)" opacity="0.5" stroke-dasharray="4.79 4.79" stroke-width="1.19846"/><rect fill="var(--bg-primary)" height="81.5492" rx="40.7746" width="81.5492" x="616.599" y=".59923"/><g clip-path="url(#b)" className='icon-color-secondary' stroke="currentColor" stroke-linecap="round" stroke-width="2"><path d="m645.945 54.9452c-4.734 0-8.571-3.8376-8.571-8.5714 0-4.7339 3.837-8.5714 8.571-8.5714 1.071 0 2.097.1964 3.042.5553 1.101-6.7954 6.995-11.9839 14.101-11.9839 7.89 0 14.286 6.3959 14.286 14.2857 0 7.4076-5.638 13.4984-12.857 14.2152" opacity=".5" stroke-linejoin="round"/><path d="m663.088 32.088c4.247 0 7.773 3.089 8.453 7.1429" opacity=".3"/><path d="m665.231 44.231-10.715 10.7142-4.87-4.8701" stroke-linejoin="round"/></g><rect height="81.5492" rx="40.7746" stroke="var(--text-purple)" opacity="0.8" stroke-width="1.19846" width="81.5492" x="616.599" y=".59923"/><rect fill="var(--bg-primary)" height="81.5492" rx="40.7746" width="81.5492" x="411.599" y=".59923"/><g className='icon-color-secondary' stroke="currentColor" stroke-width="2"><path d="m459.236 39.4082v-8.3103c0-1.1046-.896-2-2-2h-.69" opacity=".3" stroke-linecap="round"/><path d="m451.167 24.3738c0-1.1046.895-2 2-2h12.138c1.104 0 2 .8954 2 2v12.1379c0 1.1046-.896 2-2 2h-12.138c-1.105 0-2-.8954-2-2z"/><path d="m459.236 38.9601v8.3103c0 1.1046-.896 2-2 2h-3.38" stroke-linecap="round"/></g><path clip-rule="evenodd" d="m443.098 33.4773c.552 0 1 .4477 1 1v8.4138h2.379c1.657 0 3 1.3431 3 3v6.7586c0 1.6569-1.343 3-3 3h-2.379v4.3793c0 .5523-.448 1-1 1s-1-.4477-1-1v-4.3793h-2.379c-1.657 0-3-1.3431-3-3v-6.7586c0-1.6569 1.343-3 3-3h2.379v-8.4138c0-.5523.448-1 1-1zm0 20.1724h3.379c.552 0 1-.4477 1-1v-6.7586c0-.5523-.448-1-1-1h-6.758c-.553 0-1 .4477-1 1v6.7586c0 .5523.447 1 1 1z" fill="currentColor" fill-rule="evenodd" opacity=".5"/><circle cx="443.098" cy="29.0979" fill="currentColor" r="1.34483"/><rect height="81.5492" rx="40.7746" stroke="var(--text-purple)" opacity="0.8" stroke-width="1.19846" width="81.5492" x="411.599" y=".59923"/></svg>