<svg width="720" height="139" viewBox="0 0 720 139" fill="none" xmlns="http://www.w3.org/2000/svg">
  <path d="M83.293 41.6465H658.771" stroke="var(--text-purple)" opacity="0.5" stroke-dasharray="5 5" />
  <path
    d="M651.199 41.6465C651.199 41.6465 657.509 41.6465 627.852 41.6465C598.195 41.6465 598.195 97.9948 570.43 97.9948C542.666 97.9948 150.18 97.3638 150.18 97.3638C121.153 97.3638 121.153 41.6465 92.758 41.6465H42.2775"
    stroke="var(--text-purple)" opacity="0.8" />
  <rect x="0.5" y="1.76202" width="82.2929" height="82.2929" rx="41.1465" fill="var(--bg-primary)" />
  <g clip-path="url(#clip0)">
    <path className='icon-color-secondary'
      d="M26.5023 44.1705L38.1462 51.9332C40.2658 53.3462 43.0271 53.3462 45.1466 51.9332L56.7906 44.1705"
      stroke="currentColor" stroke-width="2.52403" stroke-linecap="round" />
    <path d="M26.5023 51.7426L37.4462 59.0386C39.9896 60.7342 43.3032 60.7342 45.8467 59.0386L56.7906 51.7426"
      stroke="currentColor" stroke-width="2.52403" stroke-linecap="round" />
    <path className='icon-color-tertiary'
      d="M30.8534 39.5854L38.9685 34.4929C40.6064 33.465 42.6876 33.4632 44.3274 34.4881L52.4821 39.5854"
      stroke="currentColor" stroke-width="2.52403" />
    <path
      d="M28.1479 37.2368C26.5983 36.2296 26.6211 33.9532 28.1905 32.9772L38.9807 26.2671C40.6129 25.252 42.68 25.252 44.3123 26.2671L55.1025 32.9772C56.6719 33.9532 56.6947 36.2296 55.1451 37.2368L44.3976 44.2227C42.7247 45.3101 40.5683 45.3101 38.8954 44.2227L28.1479 37.2368Z"
      stroke="currentColor" stroke-width="2.52171" />
  </g>
  <rect x="0.5" y="1.76202" width="82.2929" height="82.2929" rx="41.1465" stroke="var(--text-purple)" opacity="0.8" />
  <rect x="159.514" y="55.5863" width="82.2929" height="82.2929" rx="41.1465" fill="var(--bg-primary)" />
  <rect x="159.514" y="55.5863" width="82.2929" height="82.2929" rx="41.1465" stroke="var(--text-purple)"
    opacity="0.8" />
  <path className='icon-color-tertiary'
    d="M208.232 95.0501V87.8987C208.232 86.5047 207.102 85.3746 205.708 85.3746V85.3746" stroke="currentColor"
    stroke-width="2.52403" stroke-linecap="round" />
  <path
    d="M200.66 81.5886C200.66 80.1946 201.79 79.0646 203.184 79.0646H213.281C214.675 79.0646 215.805 80.1946 215.805 81.5886V91.6847C215.805 93.0787 214.675 94.2087 213.281 94.2087H203.184C201.79 94.2087 200.66 93.0787 200.66 91.6847V81.5886Z"
    stroke="currentColor" stroke-width="2.52403" />
  <path d="M208.233 94.6295V101.781C208.233 103.175 207.102 104.305 205.708 104.305H203.184" stroke="currentColor"
    stroke-width="2.52403" stroke-linecap="round" />
  <path className='icon-color-secondary' fill-rule="evenodd" clip-rule="evenodd"
    d="M193.088 89.1607C193.785 89.1607 194.35 89.7257 194.35 90.4227V97.9948H195.612C197.703 97.9948 199.398 99.6898 199.398 101.781V106.829C199.398 108.92 197.703 110.615 195.612 110.615H194.35V114.401C194.35 115.098 193.785 115.663 193.088 115.663C192.391 115.663 191.826 115.098 191.826 114.401V110.615H190.564C188.473 110.615 186.778 108.92 186.778 106.829V101.781C186.778 99.6899 188.473 97.9948 190.564 97.9948H191.826V90.4227C191.826 89.7257 192.391 89.1607 193.088 89.1607ZM190.564 100.519C189.867 100.519 189.302 101.084 189.302 101.781V106.829C189.302 107.526 189.867 108.091 190.564 108.091H195.612C196.309 108.091 196.874 107.526 196.874 106.829V101.781C196.874 101.084 196.309 100.519 195.612 100.519H190.564Z"
    fill="currentColor" />
  <circle cx="193.088" cy="85.3747" r="1.26201" fill="currentColor" />
  <rect x="318.528" y="55.5863" width="82.2929" height="82.2929" rx="41.1465" fill="var(--bg-primary)" />
  <path className='icon-color-tertiary'
    d="M364.722 81.5886H374.818C376.212 81.5886 377.342 82.7187 377.342 84.1126L377.342 109.353C377.342 110.747 376.212 111.877 374.818 111.877H364.722"
    stroke="currentColor" stroke-width="2.52403" stroke-linecap="round" />
  <path className='icon-color-secondary'
    d="M359.674 104.305V111.877C359.674 113.271 358.544 114.401 357.15 114.401H344.53C343.136 114.401 342.006 113.271 342.006 111.877V81.5886C342.006 80.1946 343.136 79.0646 344.53 79.0646H357.15C358.544 79.0646 359.674 80.1946 359.674 81.5886V89.1607"
    stroke="currentColor" stroke-width="2.52403" stroke-linecap="round" />
  <path d="M347.054 96.7328H352.102" stroke="currentColor" stroke-width="2.52403" stroke-linecap="round"
    stroke-linejoin="round" />
  <path
    d="M352.102 91.6847C352.102 90.2908 353.232 89.1607 354.626 89.1607H364.722C366.116 89.1607 367.246 90.2908 367.246 91.6847V101.781C367.246 103.175 366.116 104.305 364.722 104.305H354.626C353.232 104.305 352.102 103.175 352.102 101.781V91.6847Z"
    stroke="currentColor" stroke-width="2.52403" />
  <path fill-rule="evenodd" clip-rule="evenodd" className='icon-color-secondary'
    d="M360.936 94.2088C360.936 93.5118 360.371 92.9467 359.674 92.9467C358.977 92.9467 358.412 93.5118 358.412 94.2088V95.4708H357.15C356.453 95.4708 355.888 96.0358 355.888 96.7328C355.888 97.4298 356.453 97.9948 357.15 97.9948H358.412V99.2568C358.412 99.9538 358.977 100.519 359.674 100.519C360.371 100.519 360.936 99.9538 360.936 99.2568V97.9948H362.198C362.895 97.9948 363.46 97.4298 363.46 96.7328C363.46 96.0358 362.895 95.4708 362.198 95.4708H360.936V94.2088Z"
    fill="currentColor" />
  <rect x="318.528" y="55.5863" width="82.2929" height="82.2929" rx="41.1465" stroke="var(--text-purple)"
    opacity="0.8" />
  <rect x="477.541" y="55.5863" width="82.2929" height="82.2929" rx="41.1465" fill="var(--bg-primary)" />
  <path className='icon-color-secondary'
    d="M509.854 108.091H508.592C504.41 108.091 501.02 104.701 501.02 100.519C501.02 96.3369 504.41 92.9467 508.592 92.9467C509.538 92.9467 510.444 93.1203 511.279 93.4373C512.251 87.4342 517.458 82.8506 523.736 82.8506C530.706 82.8506 536.356 88.5008 536.356 95.4708C536.356 102.015 531.375 107.395 524.998 108.029"
    stroke="currentColor" stroke-width="2.52403" stroke-linecap="round" stroke-linejoin="round" />
  <path
    d="M516.164 108.091C516.164 108.788 515.599 109.353 514.902 109.353C514.205 109.353 513.64 108.788 513.64 108.091C513.64 107.394 514.205 106.829 514.902 106.829C515.599 106.829 516.164 107.394 516.164 108.091Z"
    fill="currentColor" />
  <path
    d="M521.212 108.091C521.212 108.788 520.647 109.353 519.95 109.353C519.253 109.353 518.688 108.788 518.688 108.091C518.688 107.394 519.253 106.829 519.95 106.829C520.647 106.829 521.212 107.394 521.212 108.091Z"
    fill="currentColor" />
  <path className='icon-color-tertiary' d="M523.736 87.8987C527.488 87.8987 530.602 90.6275 531.203 94.2088"
    stroke="currentColor" stroke-width="2.52403" stroke-linecap="round" />
  <rect x="477.541" y="55.5863" width="82.2929" height="82.2929" rx="41.1465" stroke="var(--text-purple)"
    opacity="0.8" />
  <rect x="636.555" y="0.5" width="82.2929" height="82.2929" rx="41.1465" fill="var(--bg-primary)" />
  <path className='icon-color-secondary'
    d="M667.606 53.0046C663.424 53.0046 660.033 49.6144 660.033 45.4325C660.033 41.2505 663.424 37.8604 667.606 37.8604C668.552 37.8604 669.457 38.034 670.293 38.351C671.265 32.3479 676.472 27.7643 682.75 27.7643C689.72 27.7643 695.37 33.4145 695.37 40.3844C695.37 46.9284 690.389 52.3091 684.012 52.9423"
    stroke="currentColor" stroke-width="2.52403" stroke-linecap="round" stroke-linejoin="round" />
  <path className='icon-color-tertiary' d="M682.75 32.8123C686.502 32.8123 689.616 35.5412 690.217 39.1224"
    stroke="currentColor" stroke-width="2.52403" stroke-linecap="round" />
  <path d="M684.643 43.5395L675.178 53.0046L670.875 48.7022" stroke="currentColor" stroke-width="2.52403"
    stroke-linecap="round" stroke-linejoin="round" />
  <rect x="636.555" y="0.5" width="82.2929" height="82.2929" rx="41.1465" stroke="var(--text-purple)" opacity="0.8" />
  <defs>
    <clipPath id="clip0">
      <rect width="40.3845" height="40.3845" fill="var(--bg-primary)" transform="translate(21.4542 22.7162)" />
    </clipPath>
  </defs>
</svg>