<svg width="27" height="32" viewBox="0 0 27 32" fill="none" xmlns="http://www.w3.org/2000/svg">
  <path fill-rule="evenodd" clip-rule="evenodd"
    d="M0.247636 21.9646C-0.0779131 21.4511 -0.0828314 20.797 0.234958 20.2786L12.2003 0.760709C12.8658 -0.324864 14.4728 -0.229944 15.0059 0.926416L25.9369 24.6381C26.3424 25.518 25.8756 26.5531 24.9476 26.8315L7.94368 31.9327C7.25954 32.1379 6.5224 31.8629 6.13998 31.2596L0.247636 21.9646ZM13.5809 6.46759C13.6961 5.89341 14.4829 5.81062 14.7152 6.3482L22.2552 23.7953C22.3971 24.1238 22.2205 24.5027 21.8776 24.605L10.1292 28.112C9.6974 28.2409 9.28373 27.8636 9.37247 27.4217L13.5809 6.46759Z"
    fill="currentColor" />
</svg>